<?xml version="1.0" encoding="utf-8"?>
<!-- Generator: Adobe Illustrator 15.0.0, SVG Export Plug-In . SVG Version: 6.00 Build 0)  -->
<!DOCTYPE svg PUBLIC "-//W3C//DTD SVG 1.1//EN" "http://www.w3.org/Graphics/SVG/1.1/DTD/svg11.dtd">
<svg version="1.1" id="Layer_1" xmlns="http://www.w3.org/2000/svg" xmlns:xlink="http://www.w3.org/1999/xlink" x="0px" y="0px"
	 width="70px" height="70px" viewBox="0 0 70 70" enable-background="new 0 0 70 70" xml:space="preserve">
<path fill="#FFFFFF" d="M14.777,67.799l48.129-4.217c1.425-0.127,2.592-1.405,2.595-2.8l0.021-11.157l-9.183,0.804l-0.005,1.576
	c-0.004,1.687-1.351,3.121-3.012,3.271l-28.499,2.494c-1.755,0.157-3.212-1.175-3.208-2.94l0.003-1.36l-9.191,0.808l-0.02,11.37
	C12.404,66.954,13.44,67.915,14.777,67.799z M65.519,23.487l0.034-10.999c0.001-1.317-1.029-2.27-2.374-2.158l-48.127,4.19
	c-1.421,0.125-2.592,1.399-2.594,2.799l-0.03,10.785l9.187-0.798l0.003-1.211c0.002-1.682,1.354-3.116,3.013-3.262l28.497-2.478
	c1.756-0.158,3.213,1.17,3.21,2.936l-0.002,0.997L65.519,23.487z M12.369,33.258l0.063,15.941l9.19-0.806L21.56,32.452
	L12.369,33.258z M56.278,29.412l0.062,15.94l9.185-0.805l-0.063-15.94L56.278,29.412z M47.438,22.045l-22.706,1.973
	c-1.057,0.093-1.924,1.025-1.925,2.078l-0.005,2.3l-2.613,0.228l2.557,2.526l0.067,17.364l22.755-1.991
	c1.061-0.093,1.924-1.024,1.928-2.089l0.003-2.661l2.502-0.22l-2.495-2.467L47.438,22.045z M3.616,9.751
	C3.62,7.727,5.271,5.944,7.299,5.767l48.13-4.185c1.062-0.091,2.021,0.276,2.688,0.938l1.53,1.513l6.121,6.051
	c0.606,0.602,0.978,1.444,0.977,2.408L66.706,24.58l-2.588,0.226l2.53,2.503l0.07,18.331l-2.498,0.219l2.495,2.469l-0.023,12.457
	c-0.005,2.02-1.65,3.806-3.682,3.986L14.88,68.986c-1.061,0.093-2.019-0.277-2.688-0.939l-7.65-7.566
	c-0.608-0.599-0.978-1.444-0.977-2.403L3.591,45.62l2.501-0.22l-2.496-2.469l-0.072-18.33l2.618-0.229l-2.561-2.533L3.616,9.751z"/>
</svg>
