<?xml version="1.0" encoding="utf-8"?>
<!-- Generator: Adobe Illustrator 15.0.0, SVG Export Plug-In . SVG Version: 6.00 Build 0)  -->
<!DOCTYPE svg PUBLIC "-//W3C//DTD SVG 1.1//EN" "http://www.w3.org/Graphics/SVG/1.1/DTD/svg11.dtd">
<svg version="1.1" id="Layer_1" xmlns="http://www.w3.org/2000/svg" xmlns:xlink="http://www.w3.org/1999/xlink" x="0px" y="0px"
	 width="120px" height="120px" viewBox="0 0 120 120" enable-background="new 0 0 120 120" xml:space="preserve">
<g>
	<path fill="#FFFFFF" d="M60.193-0.304c-33.046,0-59.932,26.886-59.932,59.933c0,33.046,26.886,59.93,59.932,59.93
		c33.048,0,59.934-26.884,59.934-59.93C120.127,26.582,93.241-0.304,60.193-0.304z M60.193,114.454
		c-30.232,0-54.827-24.595-54.827-54.825c0-30.232,24.595-54.828,54.827-54.828c30.232,0,54.828,24.596,54.828,54.828
		C115.021,89.859,90.426,114.454,60.193,114.454z"/>
	<path fill="#FFFFFF" d="M23.24,59c0-0.564-0.457-1-1.021-1H12.01c-0.564,0-1.021,0.436-1.021,1s0.457,1,1.021,1h10.209
		C22.783,60,23.24,59.564,23.24,59z"/>
	<path fill="#FFFFFF" d="M107.982,58h-10.21c-0.564,0-1.021,0.436-1.021,1s0.456,1,1.021,1h10.21c0.564,0,1.021-0.436,1.021-1
		S108.547,58,107.982,58z"/>
	<path fill="#FFFFFF" d="M60,21.21c0.563,0,1-0.458,1-1.021V8.958c0-0.564-0.437-1.021-1-1.021s-1,0.457-1,1.021v11.231
		C59,20.753,59.437,21.21,60,21.21z"/>
	<path fill="#FFFFFF" d="M42.863,13.26c-0.216-0.521-0.812-0.769-1.334-0.552c-0.521,0.216-0.768,0.813-0.552,1.334l4.012,9.687
		c0.163,0.393,0.543,0.63,0.944,0.63c0.13,0,0.262-0.025,0.39-0.078c0.521-0.216,0.768-0.813,0.552-1.334L42.863,13.26z"/>
	<path fill="#FFFFFF" d="M32.976,32.237c0.2,0.199,0.461,0.299,0.722,0.299s0.522-0.1,0.722-0.299c0.399-0.399,0.399-1.045,0-1.444
		l-7.415-7.415c-0.399-0.399-1.045-0.399-1.444,0s-0.399,1.045,0,1.444L32.976,32.237z"/>
	<path fill="#FFFFFF" d="M15.442,40.682l9.684,4.011c0.128,0.053,0.26,0.079,0.39,0.079c0.401,0,0.781-0.238,0.944-0.631
		c0.216-0.521-0.031-1.118-0.552-1.334l-9.684-4.011c-0.523-0.215-1.119,0.032-1.334,0.552
		C14.674,39.869,14.921,40.466,15.442,40.682z"/>
	<path fill="#FFFFFF" d="M94.248,44.142c0.162,0.393,0.543,0.631,0.943,0.631c0.13,0,0.263-0.025,0.391-0.079l9.687-4.012
		c0.521-0.216,0.768-0.813,0.552-1.334c-0.215-0.521-0.815-0.767-1.334-0.552L94.8,42.808
		C94.279,43.024,94.032,43.621,94.248,44.142z"/>
	<path fill="#FFFFFF" d="M87.011,32.539c0.262,0,0.522-0.1,0.723-0.299l7.416-7.417c0.398-0.399,0.398-1.045,0-1.444
		c-0.399-0.399-1.045-0.399-1.444,0l-7.416,7.417c-0.398,0.399-0.398,1.045,0,1.444C86.488,32.439,86.75,32.539,87.011,32.539z"/>
	<path fill="#FFFFFF" d="M74.412,24.282c0.128,0.053,0.261,0.078,0.392,0.078c0.4,0,0.78-0.238,0.942-0.631l4.011-9.688
		c0.215-0.521-0.032-1.118-0.553-1.333c-0.52-0.215-1.118,0.031-1.334,0.553l-4.01,9.688C73.645,23.47,73.892,24.067,74.412,24.282z
		"/>
	<path fill="#FFFFFF" d="M87.765,85.449c-0.398-0.399-1.045-0.399-1.443,0c-0.398,0.398-0.398,1.045,0,1.443l7.416,7.415
		c0.199,0.199,0.461,0.299,0.722,0.299c0.262,0,0.522-0.1,0.722-0.299c0.399-0.398,0.399-1.045,0-1.443L87.765,85.449z"/>
	<path fill="#FFFFFF" d="M25.335,73.545c-0.215-0.521-0.813-0.769-1.334-0.553l-9.686,4.011c-0.521,0.215-0.769,0.812-0.553,1.334
		c0.163,0.393,0.543,0.63,0.944,0.63c0.13,0,0.262-0.024,0.39-0.078l9.686-4.01C25.303,74.663,25.551,74.066,25.335,73.545z"/>
	<path fill="#FFFFFF" d="M33.01,85.446l-7.418,7.418c-0.398,0.398-0.398,1.045,0,1.443c0.2,0.199,0.461,0.299,0.722,0.299
		s0.522-0.1,0.722-0.299l7.418-7.417c0.399-0.399,0.399-1.045,0-1.444C34.055,85.048,33.408,85.048,33.01,85.446z"/>
	<path fill="#FFFFFF" d="M106.474,74.164L66.631,60.297c0.023-0.22,0.035-0.443,0.035-0.669c0-3.568-2.903-6.472-6.473-6.472
		c-3.568,0-6.472,2.903-6.472,6.472s2.903,6.472,6.472,6.472c1.869,0,3.552-0.802,4.734-2.072l28.142,9.795
		c-0.05,0.441,0.177,0.88,0.606,1.058l9.683,4.009c0.127,0.054,0.26,0.078,0.391,0.078c0.399,0,0.78-0.237,0.943-0.63
		c0.061-0.146,0.076-0.297,0.067-0.446l0.372,0.13c0.223,0.078,0.448,0.115,0.671,0.115c0.845,0,1.635-0.529,1.929-1.372
		C108.102,75.698,107.539,74.535,106.474,74.164z M60.193,62.016c-1.316,0-2.388-1.071-2.388-2.388s1.072-2.388,2.388-2.388
		c1.317,0,2.389,1.072,2.389,2.388S61.511,62.016,60.193,62.016z"/>
</g>
</svg>
