<?xml version="1.0" encoding="utf-8"?>
<!-- Generator: Adobe Illustrator 15.0.0, SVG Export Plug-In . SVG Version: 6.00 Build 0)  -->
<!DOCTYPE svg PUBLIC "-//W3C//DTD SVG 1.1//EN" "http://www.w3.org/Graphics/SVG/1.1/DTD/svg11.dtd">
<svg version="1.1" id="Layer_1" xmlns="http://www.w3.org/2000/svg" xmlns:xlink="http://www.w3.org/1999/xlink" x="0px" y="0px"
	 width="120px" height="120px" viewBox="0 0 120 120" enable-background="new 0 0 120 120" xml:space="preserve">
<path fill="#FFFFFF" d="M25.284,116.373l83.578-7.322c2.475-0.22,4.5-2.439,4.505-4.862l0.038-19.374l-15.946,1.396l-0.008,2.736
	c-0.008,2.929-2.345,5.42-5.23,5.68L42.731,98.96c-3.049,0.273-5.579-2.042-5.571-5.106l0.005-2.363l-15.96,1.404l-0.034,19.742
	C21.163,114.907,22.962,116.576,25.284,116.373z M113.398,39.425l0.059-19.1c0.003-2.287-1.787-3.942-4.122-3.747L25.76,23.854
	c-2.468,0.216-4.501,2.43-4.504,4.861l-0.053,18.728l15.954-1.387l0.005-2.102c0.004-2.922,2.35-5.412,5.232-5.665l49.485-4.302
	c3.051-0.274,5.579,2.033,5.574,5.098l-0.003,1.731L113.398,39.425z M21.101,56.392l0.111,27.682l15.958-1.398l-0.108-27.684
	L21.101,56.392z M97.352,49.714l0.108,27.678l15.949-1.396l-0.11-27.681L97.352,49.714z M82.001,36.921l-39.429,3.426
	c-1.834,0.163-3.34,1.78-3.342,3.609L39.22,47.95l-4.538,0.396l4.44,4.388l0.116,30.153l39.516-3.458
	c1.842-0.162,3.342-1.78,3.347-3.627l0.005-4.622l4.345-0.381l-4.332-4.285L82.001,36.921z M5.903,15.572
	c0.006-3.516,2.872-6.611,6.394-6.919l83.58-7.267c1.844-0.159,3.507,0.479,4.667,1.629l2.657,2.627l10.63,10.509
	c1.054,1.044,1.697,2.506,1.694,4.18l-0.065,20.992l-4.493,0.392l4.393,4.347l0.123,31.833l-4.339,0.379l4.332,4.287l-0.041,21.633
	c-0.007,3.506-2.864,6.607-6.393,6.92l-83.58,7.321c-1.842,0.162-3.506-0.481-4.668-1.631L7.51,103.666
	c-1.056-1.041-1.699-2.509-1.696-4.173l0.045-21.634l4.343-0.38l-4.334-4.288l-0.126-31.83l4.547-0.398l-4.447-4.399L5.903,15.572z"
	/>
</svg>
