<?xml version="1.0" encoding="utf-8"?>
<!-- Generator: Adobe Illustrator 15.0.0, SVG Export Plug-In . SVG Version: 6.00 Build 0)  -->
<!DOCTYPE svg PUBLIC "-//W3C//DTD SVG 1.1//EN" "http://www.w3.org/Graphics/SVG/1.1/DTD/svg11.dtd">
<svg version="1.1" id="Layer_1" xmlns="http://www.w3.org/2000/svg" xmlns:xlink="http://www.w3.org/1999/xlink" x="0px" y="0px"
	 width="70px" height="70px" viewBox="0 0 70 70" enable-background="new 0 0 70 70" xml:space="preserve">
<path fill="#FFFFFF" d="M35.373,31.758c-0.268,0-0.522-0.119-0.694-0.326L24.148,18.745c-0.224-0.269-0.271-0.644-0.122-0.961
	c0.148-0.316,0.467-0.519,0.817-0.519h5.399V3.367c0-0.499,0.404-0.903,0.904-0.903h8.457c0.498,0,0.902,0.404,0.902,0.903v13.898
	h5.4c0.348,0,0.667,0.202,0.816,0.519c0.148,0.317,0.101,0.692-0.122,0.961L36.068,31.432
	C35.897,31.639,35.643,31.758,35.373,31.758z M26.766,19.071l8.607,10.37l8.608-10.37h-4.379c-0.499,0-0.903-0.404-0.903-0.903V4.27
	h-6.651v13.898c0,0.499-0.404,0.903-0.902,0.903H26.766z"/>
<g>
	<path fill="#FFFFFF" d="M57.996,39.364c-1.555,0-2.818,1.265-2.818,2.819s1.264,2.819,2.818,2.819s2.819-1.265,2.819-2.819
		S59.551,39.364,57.996,39.364z"/>
	<path fill="#FFFFFF" d="M69.334,37.415c0-1.902-1.542-3.443-3.442-3.443H4.442C2.542,33.972,1,35.514,1,37.415v9.192
		c0,1.901,1.542,3.442,3.442,3.442h61.449c1.901,0,3.442-1.541,3.442-3.442V37.415z M9.04,45.263c0,0.361-0.215,0.652-0.575,0.652
		s-0.574-0.291-0.574-0.652v-5.872c0-0.359,0.214-0.652,0.574-0.652s0.575,0.293,0.575,0.652V45.263z M13.059,45.263
		c0,0.361-0.213,0.652-0.574,0.652c-0.36,0-0.575-0.291-0.575-0.652v-5.872c0-0.359,0.215-0.652,0.575-0.652
		c0.361,0,0.574,0.293,0.574,0.652V45.263z M17.079,45.263c0,0.361-0.213,0.652-0.574,0.652c-0.36,0-0.574-0.291-0.574-0.652v-5.872
		c0-0.359,0.214-0.652,0.574-0.652c0.361,0,0.574,0.293,0.574,0.652V45.263z M21.098,45.263c0,0.361-0.214,0.652-0.574,0.652
		c-0.36,0-0.574-0.291-0.574-0.652v-5.872c0-0.359,0.214-0.652,0.574-0.652c0.36,0,0.574,0.293,0.574,0.652V45.263z M25.118,45.263
		c0,0.361-0.215,0.652-0.575,0.652s-0.574-0.291-0.574-0.652v-5.872c0-0.359,0.214-0.652,0.574-0.652s0.575,0.293,0.575,0.652
		V45.263z M28.563,45.263c0,0.361-0.214,0.652-0.575,0.652c-0.36,0-0.574-0.291-0.574-0.652v-5.872c0-0.359,0.214-0.652,0.574-0.652
		c0.361,0,0.575,0.293,0.575,0.652V45.263z M57.996,46.309c-2.273,0-4.124-1.852-4.124-4.125s1.851-4.125,4.124-4.125
		s4.124,1.852,4.124,4.125S60.27,46.309,57.996,46.309z"/>
</g>
<g>
	<path fill="#FFFFFF" d="M57.996,57.891c-1.555,0-2.818,1.266-2.818,2.821c0,1.555,1.264,2.818,2.818,2.818s2.819-1.264,2.819-2.818
		C60.815,59.156,59.551,57.891,57.996,57.891z"/>
	<path fill="#FFFFFF" d="M69.334,56.365c0-1.901-1.542-3.444-3.442-3.444H4.442C2.542,52.921,1,54.464,1,56.365v9.191
		C1,67.458,2.542,69,4.442,69h61.449c1.901,0,3.442-1.542,3.442-3.443V56.365z M9.04,63.79c0,0.361-0.215,0.653-0.575,0.653
		s-0.574-0.292-0.574-0.653v-5.87c0-0.361,0.214-0.654,0.574-0.654S9.04,57.559,9.04,57.92V63.79z M13.059,63.79
		c0,0.361-0.213,0.653-0.574,0.653c-0.36,0-0.575-0.292-0.575-0.653v-5.87c0-0.361,0.215-0.654,0.575-0.654
		c0.361,0,0.574,0.293,0.574,0.654V63.79z M17.079,63.79c0,0.361-0.213,0.653-0.574,0.653c-0.36,0-0.574-0.292-0.574-0.653v-5.87
		c0-0.361,0.214-0.654,0.574-0.654c0.361,0,0.574,0.293,0.574,0.654V63.79z M21.098,63.79c0,0.361-0.214,0.653-0.574,0.653
		c-0.36,0-0.574-0.292-0.574-0.653v-5.87c0-0.361,0.214-0.654,0.574-0.654c0.36,0,0.574,0.293,0.574,0.654V63.79z M25.118,63.79
		c0,0.361-0.215,0.653-0.575,0.653s-0.574-0.292-0.574-0.653v-5.87c0-0.361,0.214-0.654,0.574-0.654s0.575,0.293,0.575,0.654V63.79z
		 M28.563,63.79c0,0.361-0.214,0.653-0.575,0.653c-0.36,0-0.574-0.292-0.574-0.653v-5.87c0-0.361,0.214-0.654,0.574-0.654
		c0.361,0,0.575,0.293,0.575,0.654V63.79z M57.996,64.836c-2.273,0-4.124-1.851-4.124-4.124c0-2.274,1.851-4.126,4.124-4.126
		s4.124,1.852,4.124,4.126C62.12,62.985,60.27,64.836,57.996,64.836z"/>
</g>
</svg>
