<?xml version="1.0" encoding="utf-8"?>
<!-- Generator: Adobe Illustrator 15.0.0, SVG Export Plug-In . SVG Version: 6.00 Build 0)  -->
<!DOCTYPE svg PUBLIC "-//W3C//DTD SVG 1.1//EN" "http://www.w3.org/Graphics/SVG/1.1/DTD/svg11.dtd">
<svg version="1.1" id="Layer_1" xmlns="http://www.w3.org/2000/svg" xmlns:xlink="http://www.w3.org/1999/xlink" x="0px" y="0px"
	 width="70px" height="70px" viewBox="0 0 70 70" enable-background="new 0 0 70 70" xml:space="preserve">
<g>
	<path fill="#FFFFFF" d="M34.6,0C15.522,0,0,15.521,0,34.6c0,19.078,15.522,34.598,34.6,34.598C53.679,69.198,69.2,53.678,69.2,34.6
		C69.2,15.521,53.679,0,34.6,0z M34.6,66.251c-17.453,0-31.652-14.198-31.652-31.651c0-17.454,14.199-31.653,31.652-31.653
		s31.653,14.2,31.653,31.653C66.253,52.053,52.054,66.251,34.6,66.251z"/>
	<path fill="#FFFFFF" d="M13.266,34.237c0-0.326-0.264-0.577-0.589-0.577H6.783c-0.326,0-0.589,0.251-0.589,0.577
		s0.263,0.577,0.589,0.577h5.894C13.002,34.814,13.266,34.562,13.266,34.237z"/>
	<path fill="#FFFFFF" d="M62.189,33.66h-5.896c-0.325,0-0.589,0.251-0.589,0.577s0.263,0.577,0.589,0.577h5.896
		c0.325,0,0.589-0.251,0.589-0.577S62.515,33.66,62.189,33.66z"/>
	<path fill="#FFFFFF" d="M34.488,12.42c0.325,0,0.577-0.264,0.577-0.589V5.347c0-0.326-0.252-0.59-0.577-0.59
		c-0.325,0-0.578,0.264-0.578,0.59v6.483C33.911,12.156,34.163,12.42,34.488,12.42z"/>
	<path fill="#FFFFFF" d="M24.595,7.831c-0.125-0.301-0.469-0.444-0.77-0.319c-0.301,0.125-0.443,0.47-0.319,0.771l2.316,5.592
		c0.094,0.227,0.313,0.364,0.545,0.364c0.075,0,0.151-0.015,0.225-0.045c0.301-0.125,0.443-0.47,0.319-0.771L24.595,7.831z"/>
	<path fill="#FFFFFF" d="M18.887,18.786c0.116,0.115,0.266,0.173,0.417,0.173s0.301-0.058,0.417-0.173c0.23-0.23,0.23-0.604,0-0.833
		l-4.281-4.281c-0.23-0.23-0.604-0.23-0.834,0c-0.23,0.23-0.23,0.603,0,0.833L18.887,18.786z"/>
	<path fill="#FFFFFF" d="M8.764,23.662l5.591,2.315c0.074,0.031,0.15,0.046,0.225,0.046c0.231,0,0.451-0.137,0.545-0.364
		c0.125-0.301-0.018-0.646-0.318-0.77l-5.591-2.316c-0.302-0.124-0.646,0.019-0.77,0.319C8.321,23.192,8.463,23.537,8.764,23.662z"
		/>
	<path fill="#FFFFFF" d="M54.26,25.659c0.094,0.227,0.313,0.364,0.545,0.364c0.074,0,0.151-0.015,0.226-0.046l5.593-2.316
		c0.3-0.125,0.443-0.469,0.317-0.77c-0.124-0.301-0.47-0.443-0.77-0.319l-5.593,2.316C54.278,25.014,54.136,25.358,54.26,25.659z"/>
	<path fill="#FFFFFF" d="M50.082,18.96c0.151,0,0.302-0.058,0.418-0.172l4.281-4.282c0.229-0.231,0.229-0.604,0-0.834
		c-0.23-0.23-0.604-0.23-0.834,0l-4.281,4.282c-0.229,0.23-0.229,0.604,0,0.834C49.78,18.903,49.932,18.96,50.082,18.96z"/>
	<path fill="#FFFFFF" d="M42.809,14.194c0.074,0.03,0.15,0.045,0.227,0.045c0.23,0,0.45-0.137,0.543-0.364l2.316-5.593
		c0.124-0.301-0.02-0.646-0.319-0.77c-0.301-0.124-0.646,0.018-0.771,0.319l-2.315,5.593C42.365,13.725,42.509,14.069,42.809,14.194
		z"/>
	<path fill="#FFFFFF" d="M50.518,49.506c-0.23-0.23-0.604-0.23-0.833,0c-0.23,0.23-0.23,0.604,0,0.834l4.281,4.28
		c0.115,0.114,0.266,0.172,0.417,0.172s0.301-0.058,0.416-0.172c0.23-0.229,0.23-0.604,0-0.833L50.518,49.506z"/>
	<path fill="#FFFFFF" d="M14.476,42.634c-0.124-0.301-0.469-0.444-0.77-0.319L8.114,44.63C7.813,44.754,7.67,45.099,7.794,45.4
		c0.094,0.227,0.313,0.363,0.545,0.363c0.075,0,0.151-0.014,0.225-0.045l5.592-2.314C14.458,43.279,14.6,42.935,14.476,42.634z"/>
	<path fill="#FFFFFF" d="M18.906,49.504l-4.282,4.283c-0.23,0.229-0.23,0.604,0,0.833c0.115,0.114,0.266,0.172,0.417,0.172
		c0.15,0,0.301-0.058,0.417-0.172l4.283-4.281c0.23-0.231,0.23-0.604,0-0.835C19.51,49.274,19.136,49.274,18.906,49.504z"/>
	<path fill="#FFFFFF" d="M61.318,42.991l-23.002-8.006c0.014-0.127,0.021-0.255,0.021-0.386c0-2.06-1.676-3.736-3.737-3.736
		c-2.06,0-3.736,1.676-3.736,3.736c0,2.061,1.676,3.736,3.736,3.736c1.079,0,2.051-0.463,2.732-1.196l16.247,5.655
		c-0.028,0.255,0.103,0.509,0.35,0.611l5.59,2.314c0.073,0.03,0.151,0.045,0.227,0.045c0.23,0,0.45-0.138,0.544-0.364
		c0.035-0.084,0.044-0.171,0.039-0.257l0.215,0.074c0.128,0.046,0.259,0.066,0.387,0.066c0.488,0,0.944-0.305,1.114-0.791
		C62.258,43.877,61.933,43.205,61.318,42.991z M34.6,35.978c-0.76,0-1.378-0.618-1.378-1.378s0.619-1.378,1.378-1.378
		s1.379,0.619,1.379,1.378C35.979,35.359,35.361,35.978,34.6,35.978z"/>
</g>
</svg>
