<?xml version="1.0" encoding="utf-8"?>
<!-- Generator: Adobe Illustrator 15.0.0, SVG Export Plug-In . SVG Version: 6.00 Build 0)  -->
<!DOCTYPE svg PUBLIC "-//W3C//DTD SVG 1.1//EN" "http://www.w3.org/Graphics/SVG/1.1/DTD/svg11.dtd">
<svg version="1.1" id="Layer_1" xmlns="http://www.w3.org/2000/svg" xmlns:xlink="http://www.w3.org/1999/xlink" x="0px" y="0px"
	 width="120px" height="120px" viewBox="0 0 120 120" enable-background="new 0 0 120 120" xml:space="preserve">
<path fill="#FFFFFF" d="M60.86,54.144c-0.467,0-0.911-0.208-1.209-0.568L41.312,31.483c-0.389-0.469-0.472-1.121-0.213-1.673
	c0.259-0.551,0.813-0.904,1.423-0.904h9.402V4.703c0-0.869,0.704-1.572,1.573-1.572h14.727c0.868,0,1.572,0.704,1.572,1.572v24.203
	h9.403c0.607,0,1.163,0.353,1.422,0.904c0.26,0.552,0.177,1.205-0.213,1.673L62.07,53.576C61.771,53.936,61.328,54.144,60.86,54.144
	z M45.871,32.051L60.86,50.109l14.989-18.059h-7.625c-0.868,0-1.573-0.704-1.573-1.572V6.275H55.069v24.204
	c0,0.869-0.704,1.572-1.572,1.572H45.871z"/>
<g>
	<path fill="#FFFFFF" d="M100.256,67.391c-2.708,0-4.909,2.203-4.909,4.91s2.201,4.909,4.909,4.909c2.707,0,4.909-2.202,4.909-4.909
		S102.963,67.391,100.256,67.391z"/>
	<path fill="#FFFFFF" d="M120,63.996c0-3.312-2.685-5.996-5.995-5.996H6.995C3.684,58,1,60.685,1,63.996v16.008
		C1,83.315,3.684,86,6.995,86h107.01c3.311,0,5.995-2.685,5.995-5.996V63.996z M15,77.662c0,0.629-0.373,1.137-1,1.137
		c-0.627,0-1-0.508-1-1.137V67.438c0-0.628,0.373-1.137,1-1.137c0.627,0,1,0.509,1,1.137V77.662z M22,77.662
		c0,0.629-0.372,1.137-1,1.137c-0.627,0-1-0.508-1-1.137V67.438c0-0.628,0.373-1.137,1-1.137c0.628,0,1,0.509,1,1.137V77.662z
		 M29,77.662c0,0.629-0.372,1.137-1,1.137c-0.627,0-1-0.508-1-1.137V67.438c0-0.628,0.373-1.137,1-1.137c0.628,0,1,0.509,1,1.137
		V77.662z M36,77.662c0,0.629-0.372,1.137-1,1.137c-0.627,0-1-0.508-1-1.137V67.438c0-0.628,0.373-1.137,1-1.137
		c0.628,0,1,0.509,1,1.137V77.662z M43,77.662c0,0.629-0.373,1.137-1,1.137c-0.627,0-1-0.508-1-1.137V67.438
		c0-0.628,0.373-1.137,1-1.137c0.627,0,1,0.509,1,1.137V77.662z M49,77.662c0,0.629-0.372,1.137-1,1.137c-0.627,0-1-0.508-1-1.137
		V67.438c0-0.628,0.373-1.137,1-1.137c0.628,0,1,0.509,1,1.137V77.662z M100.256,79.483c-3.96,0-7.183-3.223-7.183-7.183
		s3.223-7.183,7.183-7.183s7.182,3.223,7.182,7.183S104.216,79.483,100.256,79.483z"/>
</g>
<g>
	<path fill="#FFFFFF" d="M100.256,99.655c-2.708,0-4.909,2.203-4.909,4.911c0,2.707,2.201,4.908,4.909,4.908
		c2.707,0,4.909-2.201,4.909-4.908C105.165,101.858,102.963,99.655,100.256,99.655z"/>
	<path fill="#FFFFFF" d="M120,96.997c0-3.312-2.685-5.997-5.995-5.997H6.995C3.684,91,1,93.685,1,96.997v16.006
		C1,116.315,3.684,119,6.995,119h107.01c3.311,0,5.995-2.685,5.995-5.997V96.997z M15,109.928c0,0.628-0.373,1.136-1,1.136
		c-0.627,0-1-0.508-1-1.136V99.703c0-0.628,0.373-1.138,1-1.138c0.627,0,1,0.51,1,1.138V109.928z M22,109.928
		c0,0.628-0.372,1.136-1,1.136c-0.627,0-1-0.508-1-1.136V99.703c0-0.628,0.373-1.138,1-1.138c0.628,0,1,0.51,1,1.138V109.928z
		 M29,109.928c0,0.628-0.372,1.136-1,1.136c-0.627,0-1-0.508-1-1.136V99.703c0-0.628,0.373-1.138,1-1.138c0.628,0,1,0.51,1,1.138
		V109.928z M36,109.928c0,0.628-0.372,1.136-1,1.136c-0.627,0-1-0.508-1-1.136V99.703c0-0.628,0.373-1.138,1-1.138
		c0.628,0,1,0.51,1,1.138V109.928z M43,109.928c0,0.628-0.373,1.136-1,1.136c-0.627,0-1-0.508-1-1.136V99.703
		c0-0.628,0.373-1.138,1-1.138c0.627,0,1,0.51,1,1.138V109.928z M49,109.928c0,0.628-0.372,1.136-1,1.136c-0.627,0-1-0.508-1-1.136
		V99.703c0-0.628,0.373-1.138,1-1.138c0.628,0,1,0.51,1,1.138V109.928z M100.256,111.748c-3.96,0-7.183-3.223-7.183-7.182
		c0-3.961,3.223-7.184,7.183-7.184s7.182,3.223,7.182,7.184C107.438,108.525,104.216,111.748,100.256,111.748z"/>
</g>
</svg>
