<?xml version="1.0" encoding="utf-8"?>
<!-- Generator: Adobe Illustrator 15.0.0, SVG Export Plug-In . SVG Version: 6.00 Build 0)  -->
<!DOCTYPE svg PUBLIC "-//W3C//DTD SVG 1.1//EN" "http://www.w3.org/Graphics/SVG/1.1/DTD/svg11.dtd">
<svg version="1.1" id="Layer_1" xmlns="http://www.w3.org/2000/svg" xmlns:xlink="http://www.w3.org/1999/xlink" x="0px" y="0px"
	 width="70px" height="70px" viewBox="0 0 70 70" enable-background="new 0 0 70 70" xml:space="preserve">
<path fill="#FFFFFF" d="M68.523,39.139H1.353c-0.37,0-0.67-0.3-0.67-0.67c0-0.371,0.3-0.669,0.67-0.669h67.17
	c0.37,0,0.67,0.298,0.67,0.669C69.193,38.839,68.894,39.139,68.523,39.139z"/>
<path fill="#FFFFFF" d="M46.298,56.199H23.579c-0.37,0-0.67-0.3-0.67-0.671v-1.755c0-0.37,0.3-0.67,0.67-0.67h22.719
	c0.37,0,0.67,0.3,0.67,0.67v1.755C46.968,55.899,46.668,56.199,46.298,56.199z M24.249,54.86h21.38v-0.418h-21.38V54.86z"/>
<g>
	<path fill="#FFFFFF" d="M25.438,54.345c-0.188,0-0.374-0.078-0.507-0.231c-0.242-0.279-0.211-0.702,0.068-0.944
		c0.534-0.462,1.373-1.296,1.568-1.699c0.342-0.711,0.604-3.526,0.688-5.133c0.019-0.369,0.331-0.659,0.704-0.634
		c0.37,0.02,0.653,0.334,0.634,0.704c-0.024,0.453-0.249,4.458-0.82,5.644c-0.384,0.798-1.647,1.915-1.897,2.13
		C25.749,54.292,25.593,54.345,25.438,54.345z"/>
	<path fill="#FFFFFF" d="M44.438,54.345c-0.155,0-0.312-0.053-0.438-0.164c-0.249-0.215-1.513-1.332-1.897-2.129
		c-0.572-1.186-0.796-5.191-0.82-5.645c-0.02-0.37,0.264-0.685,0.633-0.704c0.365-0.026,0.686,0.265,0.704,0.634
		c0.085,1.606,0.348,4.422,0.69,5.132c0.195,0.404,1.033,1.238,1.567,1.7c0.278,0.242,0.311,0.665,0.067,0.944
		C44.812,54.267,44.626,54.345,44.438,54.345z"/>
</g>
<path fill="#FFFFFF" d="M66.328,46.602H3.548c-1.58,0-2.865-1.285-2.865-2.864V3.786c0-1.58,1.285-2.864,2.865-2.864h62.78
	c1.58,0,2.865,1.285,2.865,2.864v39.952C69.193,45.316,67.908,46.602,66.328,46.602z M3.548,2.261c-0.841,0-1.525,0.684-1.525,1.525
	v39.952c0,0.841,0.684,1.525,1.525,1.525h62.78c0.841,0,1.526-0.685,1.526-1.525V3.786c0-0.841-0.686-1.525-1.526-1.525H3.548z"/>
<g>
	<circle fill="#FFFFFF" cx="45.403" cy="19.602" r="5.334"/>
	<circle fill="#FFFFFF" cx="24.681" cy="19.797" r="5.334"/>
	<path fill="#FFFFFF" d="M4,4v33h62V4H4z M34.202,25.292c-0.304,0.527-0.673,0.864-0.842,0.785l-1.518-0.697
		c-0.184-0.084-0.289-0.04-0.392,0.083c-0.333,0.396-0.706,0.769-1.107,1.105c-0.116,0.1-0.16,0.205-0.077,0.388l0.696,1.518
		c0.079,0.169-0.257,0.538-0.785,0.842c-0.525,0.304-1.013,0.411-1.122,0.258l-0.966-1.362c-0.107-0.152-0.213-0.175-0.348-0.134
		c-0.493,0.181-1.008,0.321-1.537,0.414c-0.157,0.027-0.249,0.096-0.268,0.298l-0.154,1.66c-0.018,0.187-0.494,0.339-1.102,0.339
		c-0.608,0-1.084-0.152-1.1-0.339l-0.155-1.66c-0.019-0.202-0.11-0.271-0.267-0.298c-0.53-0.093-1.044-0.233-1.538-0.414
		c-0.135-0.042-0.24-0.019-0.348,0.134l-0.965,1.362c-0.107,0.152-0.596,0.045-1.123-0.258c-0.525-0.304-0.863-0.672-0.785-0.842
		l0.697-1.518c0.084-0.183,0.039-0.288-0.083-0.391c-0.396-0.333-0.77-0.705-1.105-1.108c-0.1-0.117-0.205-0.161-0.388-0.077
		l-1.516,0.697c-0.17,0.079-0.539-0.258-0.843-0.785c-0.304-0.526-0.411-1.014-0.258-1.121l1.362-0.965
		c0.153-0.109,0.175-0.214,0.134-0.35c-0.183-0.493-0.321-1.006-0.414-1.536c-0.028-0.157-0.097-0.249-0.298-0.267l-1.662-0.155
		c-0.187-0.018-0.337-0.493-0.337-1.102c0-0.609,0.151-1.084,0.337-1.102l1.662-0.155c0.201-0.019,0.27-0.11,0.298-0.267
		c0.089-0.517,0.226-1.021,0.412-1.531c0.043-0.141,0.021-0.247-0.132-0.354l-1.362-0.966c-0.153-0.108-0.046-0.595,0.258-1.122
		c0.304-0.526,0.673-0.863,0.843-0.785l1.516,0.697c0.184,0.083,0.289,0.04,0.392-0.083c0.333-0.396,0.706-0.77,1.108-1.107
		c0.116-0.099,0.162-0.204,0.077-0.387L18.4,11.12c-0.078-0.17,0.259-0.539,0.785-0.842c0.527-0.305,1.016-0.412,1.123-0.258
		l0.965,1.362c0.108,0.153,0.214,0.175,0.349,0.134c0.493-0.182,1.007-0.322,1.537-0.415c0.157-0.027,0.249-0.096,0.267-0.297
		l0.155-1.662c0.016-0.187,0.492-0.338,1.1-0.338c0.608,0,1.084,0.151,1.102,0.338l0.154,1.662c0.019,0.201,0.111,0.27,0.268,0.297
		c0.517,0.09,1.021,0.228,1.505,0.404l0.015,0.005c0.139,0.042,0.258,0.024,0.365-0.128l0.967-1.362
		c0.108-0.153,0.596-0.046,1.121,0.258c0.528,0.304,0.864,0.672,0.785,0.842l-0.696,1.517c-0.083,0.183-0.04,0.288,0.083,0.391
		c0.396,0.333,0.768,0.706,1.105,1.108c0.098,0.116,0.203,0.16,0.387,0.077l1.518-0.697c0.169-0.078,0.538,0.258,0.842,0.785
		c0.303,0.527,0.411,1.014,0.258,1.122l-1.362,0.966c-0.152,0.108-0.175,0.214-0.134,0.349c0.181,0.493,0.321,1.007,0.414,1.537
		c0.027,0.157,0.096,0.249,0.297,0.267l1.662,0.155c0.186,0.017,0.337,0.493,0.337,1.102c0,0.608-0.152,1.084-0.337,1.102
		l-1.662,0.155c-0.201,0.018-0.27,0.11-0.297,0.267c-0.091,0.517-0.226,1.021-0.408,1.52c-0.043,0.139-0.025,0.257,0.127,0.366
		l1.362,0.965C34.612,24.278,34.505,24.766,34.202,25.292z M56.021,22.447c-0.156,0.587-0.426,1.008-0.609,0.977l-1.646-0.281
		c-0.185-0.031-0.276,0.027-0.341,0.151c-0.221,0.477-0.486,0.939-0.794,1.38c-0.093,0.13-0.108,0.244,0.02,0.399l1.066,1.284
		c0.121,0.143-0.108,0.587-0.539,1.018c-0.431,0.43-0.875,0.66-1.018,0.539l-1.285-1.066c-0.155-0.129-0.269-0.111-0.399-0.02
		c-0.44,0.309-0.902,0.573-1.38,0.794c-0.124,0.065-0.183,0.156-0.151,0.341l0.28,1.646c0.033,0.184-0.388,0.453-0.977,0.61
		c-0.586,0.157-1.085,0.135-1.149-0.04l-0.58-1.566c-0.07-0.189-0.177-0.233-0.335-0.218c-0.516,0.044-1.043,0.044-1.565-0.002
		c-0.153-0.014-0.259,0.03-0.328,0.22l-0.58,1.565c-0.064,0.175-0.563,0.198-1.151,0.041c-0.587-0.157-1.008-0.426-0.976-0.61
		l0.28-1.646c0.03-0.185-0.027-0.276-0.151-0.342c-0.478-0.22-0.939-0.484-1.38-0.794c-0.13-0.09-0.243-0.108-0.398,0.021
		l-1.285,1.065c-0.143,0.121-0.588-0.109-1.017-0.539c-0.431-0.43-0.661-0.875-0.542-1.018l1.067-1.284
		c0.13-0.156,0.111-0.27,0.021-0.401c-0.304-0.428-0.563-0.881-0.791-1.373c-0.07-0.13-0.161-0.189-0.346-0.158l-1.646,0.281
		c-0.184,0.032-0.453-0.389-0.611-0.976c-0.157-0.588-0.134-1.086,0.041-1.151l1.565-0.579c0.189-0.07,0.232-0.176,0.22-0.336
		c-0.046-0.515-0.046-1.042,0.001-1.565c0.013-0.152-0.031-0.258-0.221-0.329l-1.566-0.58c-0.175-0.065-0.197-0.563-0.041-1.151
		c0.158-0.587,0.428-1.007,0.611-0.976l1.646,0.28c0.185,0.031,0.276-0.027,0.342-0.151c0.22-0.478,0.484-0.938,0.794-1.38
		c0.093-0.13,0.109-0.243-0.021-0.398l-1.067-1.286c-0.119-0.144,0.111-0.587,0.542-1.018c0.429-0.429,0.874-0.66,1.017-0.539
		l1.285,1.065c0.155,0.129,0.269,0.113,0.398,0.021c0.431-0.302,0.883-0.562,1.351-0.78l0.012-0.005
		c0.13-0.068,0.199-0.165,0.169-0.35l-0.28-1.646c-0.032-0.183,0.389-0.453,0.976-0.61c0.588-0.158,1.087-0.135,1.149,0.041
		l0.582,1.565c0.07,0.189,0.177,0.233,0.334,0.219c0.516-0.044,1.044-0.045,1.565,0.001c0.152,0.013,0.258-0.03,0.33-0.22
		l0.579-1.566c0.064-0.174,0.562-0.197,1.149-0.04c0.588,0.158,1.008,0.427,0.978,0.61l-0.281,1.646
		c-0.031,0.186,0.027,0.276,0.152,0.342c0.477,0.219,0.938,0.484,1.379,0.793c0.131,0.091,0.244,0.108,0.399-0.021l1.285-1.066
		c0.143-0.12,0.587,0.111,1.018,0.54c0.431,0.431,0.66,0.874,0.539,1.017l-1.066,1.286c-0.128,0.155-0.112,0.268-0.02,0.398
		c0.301,0.43,0.56,0.882,0.785,1.363c0.068,0.128,0.165,0.199,0.351,0.168l1.646-0.281c0.183-0.031,0.451,0.389,0.608,0.976
		c0.158,0.588,0.135,1.086-0.039,1.15l-1.567,0.58c-0.188,0.071-0.23,0.177-0.217,0.337c0.044,0.515,0.043,1.042-0.002,1.565
		c-0.012,0.151,0.031,0.258,0.219,0.327l1.567,0.581C56.156,21.361,56.179,21.859,56.021,22.447z"/>
</g>
</svg>
