<?xml version="1.0" encoding="utf-8"?>
<!-- Generator: Adobe Illustrator 15.0.0, SVG Export Plug-In . SVG Version: 6.00 Build 0)  -->
<!DOCTYPE svg PUBLIC "-//W3C//DTD SVG 1.1//EN" "http://www.w3.org/Graphics/SVG/1.1/DTD/svg11.dtd">
<svg version="1.1" id="Layer_1" xmlns="http://www.w3.org/2000/svg" xmlns:xlink="http://www.w3.org/1999/xlink" x="0px" y="0px"
	 width="120px" height="120px" viewBox="0 0 120 120" enable-background="new 0 0 120 120" xml:space="preserve">
<path fill="#FFFFFF" d="M117.465,78.223H1.341c-0.64,0-1.158-0.518-1.158-1.157c0-0.641,0.519-1.158,1.158-1.158h116.124
	c0.641,0,1.158,0.518,1.158,1.158C118.623,77.705,118.105,78.223,117.465,78.223z"/>
<path fill="#FFFFFF" d="M79.042,107.717H39.765c-0.639,0-1.158-0.518-1.158-1.158v-3.036c0-0.64,0.519-1.157,1.158-1.157h39.277
	c0.639,0,1.157,0.518,1.157,1.157v3.036C80.199,107.199,79.681,107.717,79.042,107.717z M40.923,105.401h36.961v-0.721H40.923
	V105.401z"/>
<g>
	<path fill="#FFFFFF" d="M42.979,104.511c-0.325,0-0.647-0.135-0.876-0.399c-0.418-0.483-0.366-1.215,0.118-1.633
		c0.922-0.8,2.373-2.239,2.709-2.938c0.592-1.229,1.044-6.096,1.19-8.873c0.033-0.638,0.573-1.139,1.217-1.096
		c0.639,0.033,1.129,0.578,1.096,1.218c-0.042,0.782-0.43,7.707-1.417,9.756c-0.664,1.38-2.849,3.311-3.28,3.684
		C43.517,104.419,43.248,104.511,42.979,104.511z"/>
	<path fill="#FFFFFF" d="M75.827,104.511c-0.268,0-0.538-0.092-0.757-0.282c-0.431-0.373-2.615-2.304-3.28-3.683
		c-0.988-2.049-1.377-8.975-1.418-9.757c-0.033-0.64,0.457-1.185,1.095-1.218c0.631-0.045,1.185,0.458,1.217,1.096
		c0.147,2.777,0.6,7.644,1.192,8.872c0.338,0.7,1.788,2.14,2.71,2.939c0.482,0.418,0.536,1.149,0.117,1.633
		C76.474,104.376,76.152,104.511,75.827,104.511z"/>
</g>
<path fill="#FFFFFF" d="M113.67,91.126H5.136c-2.73,0-4.953-2.223-4.953-4.953V17.106c0-2.731,2.222-4.953,4.953-4.953H113.67
	c2.731,0,4.953,2.222,4.953,4.953v69.067C118.623,88.903,116.401,91.126,113.67,91.126z M5.136,14.469
	c-1.454,0-2.637,1.183-2.637,2.637v69.067c0,1.454,1.183,2.637,2.637,2.637H113.67c1.454,0,2.638-1.183,2.638-2.637V17.106
	c0-1.454-1.184-2.637-2.638-2.637H5.136z"/>
<g>
	<circle fill="#FFFFFF" cx="77.495" cy="44.449" r="9.222"/>
	<circle fill="#FFFFFF" cx="41.67" cy="44.785" r="9.222"/>
	<path fill="#FFFFFF" d="M6,17v56h107V17H6z M58.129,54.286c-0.526,0.911-1.163,1.494-1.456,1.357l-2.624-1.205
		c-0.318-0.146-0.5-0.069-0.677,0.144c-0.575,0.686-1.22,1.328-1.915,1.911c-0.201,0.171-0.276,0.354-0.132,0.67l1.204,2.625
		c0.138,0.292-0.444,0.93-1.355,1.455c-0.909,0.525-1.753,0.71-1.94,0.446l-1.669-2.355c-0.187-0.263-0.369-0.303-0.602-0.231
		c-0.852,0.313-1.742,0.555-2.657,0.715c-0.271,0.047-0.43,0.166-0.462,0.514l-0.268,2.871c-0.029,0.323-0.853,0.586-1.904,0.586
		c-1.051,0-1.874-0.263-1.902-0.586L39.5,60.333c-0.032-0.349-0.19-0.467-0.461-0.514c-0.917-0.161-1.807-0.402-2.659-0.715
		c-0.232-0.072-0.415-0.032-0.602,0.231l-1.668,2.355c-0.186,0.264-1.03,0.079-1.941-0.446c-0.908-0.525-1.491-1.163-1.356-1.455
		l1.206-2.625c0.145-0.316,0.068-0.499-0.144-0.675c-0.685-0.577-1.33-1.22-1.911-1.916c-0.172-0.202-0.354-0.279-0.671-0.133
		l-2.621,1.205c-0.294,0.137-0.932-0.446-1.458-1.357c-0.525-0.91-0.71-1.753-0.446-1.938l2.354-1.669
		c0.265-0.188,0.303-0.37,0.232-0.604c-0.316-0.852-0.556-1.74-0.715-2.656c-0.049-0.272-0.167-0.43-0.515-0.462l-2.874-0.268
		c-0.322-0.03-0.583-0.853-0.583-1.904s0.262-1.875,0.583-1.904l2.874-0.268c0.348-0.033,0.466-0.19,0.515-0.462
		c0.155-0.894,0.391-1.765,0.712-2.646c0.074-0.244,0.036-0.427-0.229-0.613l-2.354-1.67c-0.265-0.187-0.079-1.029,0.446-1.94
		c0.526-0.91,1.164-1.492,1.458-1.356l2.621,1.205c0.317,0.146,0.499,0.068,0.677-0.143c0.574-0.685,1.219-1.33,1.917-1.913
		c0.201-0.17,0.279-0.352,0.132-0.668l-1.206-2.624c-0.135-0.293,0.448-0.931,1.356-1.456c0.911-0.526,1.755-0.711,1.941-0.447
		l1.668,2.354c0.187,0.264,0.371,0.304,0.604,0.231c0.852-0.314,1.74-0.556,2.657-0.716c0.271-0.047,0.429-0.166,0.461-0.513
		l0.268-2.873c0.028-0.322,0.851-0.583,1.902-0.583c1.052,0,1.875,0.261,1.904,0.583l0.268,2.873
		c0.033,0.347,0.191,0.466,0.462,0.513c0.894,0.156,1.765,0.394,2.602,0.698l0.025,0.008c0.24,0.074,0.446,0.042,0.633-0.222
		l1.67-2.354c0.186-0.264,1.03-0.08,1.939,0.447c0.912,0.525,1.493,1.162,1.355,1.456l-1.204,2.624
		c-0.144,0.317-0.068,0.499,0.144,0.676c0.684,0.576,1.329,1.221,1.912,1.916c0.169,0.201,0.351,0.278,0.669,0.132l2.624-1.205
		c0.293-0.135,0.93,0.446,1.456,1.356c0.525,0.911,0.71,1.753,0.446,1.94l-2.355,1.67c-0.265,0.186-0.303,0.369-0.232,0.602
		c0.313,0.853,0.555,1.741,0.715,2.657c0.048,0.271,0.166,0.429,0.514,0.462l2.875,0.268c0.32,0.029,0.583,0.852,0.583,1.904
		s-0.262,1.875-0.583,1.904l-2.875,0.268c-0.348,0.032-0.466,0.19-0.514,0.462c-0.156,0.894-0.39,1.766-0.705,2.627
		c-0.074,0.239-0.043,0.444,0.221,0.632l2.355,1.669C58.839,52.533,58.654,53.376,58.129,54.286z M95.85,49.367
		c-0.27,1.015-0.736,1.742-1.054,1.688l-2.847-0.486c-0.318-0.054-0.477,0.046-0.589,0.262c-0.381,0.824-0.841,1.624-1.371,2.385
		c-0.163,0.225-0.189,0.421,0.032,0.69l1.844,2.22c0.208,0.248-0.188,1.015-0.933,1.76c-0.744,0.743-1.512,1.142-1.759,0.933
		l-2.223-1.843c-0.268-0.223-0.463-0.192-0.688-0.034c-0.762,0.533-1.562,0.991-2.386,1.373c-0.215,0.113-0.315,0.27-0.262,0.589
		l0.483,2.845c0.059,0.317-0.67,0.783-1.688,1.055c-1.013,0.272-1.876,0.234-1.987-0.068l-1.002-2.706
		c-0.122-0.327-0.307-0.403-0.58-0.377c-0.892,0.077-1.803,0.078-2.706-0.003c-0.265-0.023-0.446,0.053-0.567,0.381l-1.003,2.705
		c-0.11,0.304-0.974,0.342-1.989,0.069c-1.016-0.271-1.742-0.736-1.688-1.055l0.484-2.845c0.054-0.319-0.047-0.476-0.261-0.591
		c-0.826-0.38-1.625-0.838-2.386-1.373c-0.226-0.157-0.422-0.187-0.69,0.037l-2.222,1.842c-0.247,0.209-1.016-0.189-1.758-0.933
		c-0.744-0.744-1.143-1.512-0.936-1.76l1.846-2.219c0.224-0.27,0.192-0.466,0.036-0.693c-0.523-0.741-0.974-1.524-1.367-2.373
		c-0.121-0.226-0.278-0.327-0.598-0.273l-2.845,0.485c-0.318,0.055-0.784-0.673-1.057-1.688c-0.271-1.016-0.232-1.877,0.071-1.991
		l2.705-1.001c0.329-0.121,0.402-0.305,0.38-0.58c-0.078-0.891-0.078-1.802,0.003-2.706c0.021-0.263-0.054-0.447-0.383-0.568
		l-2.706-1.002c-0.302-0.112-0.341-0.974-0.07-1.99c0.273-1.015,0.739-1.742,1.056-1.686l2.845,0.484
		c0.319,0.054,0.478-0.048,0.592-0.262c0.379-0.826,0.838-1.623,1.371-2.386c0.16-0.224,0.189-0.42-0.034-0.688l-1.846-2.223
		c-0.207-0.248,0.191-1.015,0.936-1.759c0.742-0.742,1.511-1.141,1.758-0.932l2.222,1.842c0.269,0.223,0.465,0.195,0.69,0.036
		c0.744-0.521,1.525-0.971,2.335-1.348l0.02-0.01c0.225-0.117,0.346-0.284,0.292-0.604l-0.484-2.846
		c-0.055-0.317,0.672-0.784,1.688-1.056c1.016-0.272,1.879-0.233,1.987,0.07l1.005,2.707c0.122,0.327,0.305,0.402,0.577,0.378
		c0.893-0.077,1.805-0.079,2.707,0.002c0.263,0.021,0.446-0.052,0.57-0.38l1.001-2.708c0.111-0.301,0.974-0.341,1.987-0.069
		c1.017,0.272,1.743,0.739,1.688,1.056l-0.483,2.846c-0.055,0.32,0.047,0.477,0.263,0.591c0.823,0.379,1.622,0.837,2.384,1.372
		c0.227,0.159,0.421,0.187,0.688-0.036l2.224-1.843c0.246-0.208,1.014,0.191,1.758,0.933c0.744,0.745,1.141,1.511,0.933,1.758
		l-1.844,2.224c-0.222,0.268-0.194,0.463-0.032,0.688c0.519,0.743,0.968,1.525,1.357,2.356c0.117,0.222,0.284,0.345,0.604,0.291
		l2.846-0.486c0.316-0.054,0.782,0.673,1.053,1.688c0.273,1.017,0.234,1.878-0.067,1.989l-2.709,1.003
		c-0.327,0.124-0.4,0.306-0.377,0.582c0.077,0.891,0.076,1.802-0.002,2.706c-0.021,0.261,0.054,0.445,0.379,0.565l2.709,1.004
		C96.085,47.489,96.123,48.351,95.85,49.367z"/>
</g>
</svg>
