<?xml version="1.0" encoding="utf-8"?>
<!-- Generator: Adobe Illustrator 15.0.0, SVG Export Plug-In . SVG Version: 6.00 Build 0)  -->
<!DOCTYPE svg PUBLIC "-//W3C//DTD SVG 1.1//EN" "http://www.w3.org/Graphics/SVG/1.1/DTD/svg11.dtd">
<svg version="1.1" id="Layer_1" xmlns="http://www.w3.org/2000/svg" xmlns:xlink="http://www.w3.org/1999/xlink" x="0px" y="0px"
	 width="120px" height="107px" viewBox="0 0 120 107" enable-background="new 0 0 120 107" xml:space="preserve">
<g>
	<path fill="#8FA0B0" d="M23.095,99.152c0,0.295-0.134,0.438-0.229,0.523h-1.17v2.617c0,0.608,0.048,0.856,0.609,0.856
		c0.247,0,0.599-0.039,0.751-0.076l0.066,0.323c-0.257,0.114-0.751,0.267-1.294,0.267c-0.78,0-0.856-0.4-0.856-1.104v-2.884h-0.667
		l-0.038-0.19l0.619-0.333l0.418-0.989l0.39-0.058v1.075L23.095,99.152z"/>
	<path fill="#8FA0B0" d="M23.601,97.04c0-0.171,0.152-0.267,0.152-0.267s0.657-0.057,1.275-0.124v2.941
		c0.352-0.248,0.904-0.515,1.456-0.515c1.066,0,1.285,0.656,1.285,1.484v2.589c0.333,0.075,0.685,0.123,0.685,0.123
		s-0.038,0.21-0.143,0.343c0,0-0.523-0.028-0.875-0.028c-0.39,0-1.047,0.028-1.047,0.028c-0.009-0.038-0.009-0.067-0.009-0.096
		c0-0.161,0.162-0.247,0.162-0.247l0.504-0.123v-2.398c0-0.646-0.133-1.075-0.971-1.075c-0.39,0-0.818,0.133-1.047,0.295v3.179
		c0.276,0.075,0.675,0.123,0.675,0.123s-0.038,0.21-0.143,0.343c0,0-0.533-0.028-0.885-0.028c-0.39,0-1.018,0.028-1.018,0.028
		c-0.009-0.02-0.019-0.058-0.019-0.096c0-0.161,0.162-0.247,0.162-0.247l0.504-0.123v-5.929c-0.343-0.057-0.685-0.085-0.685-0.085
		C23.61,97.117,23.601,97.078,23.601,97.04z"/>
	<path fill="#8FA0B0" d="M32.355,103.158c-0.124,0.104-0.771,0.533-1.608,0.533c-0.885,0-1.894-0.495-1.894-2.141
		c0-1.724,1.018-2.475,2.084-2.475c0.943,0,1.437,0.656,1.437,1.494c0,0.21-0.028,0.438-0.095,0.666l-2.674-0.019v0.143
		c0,1.294,0.628,1.75,1.589,1.75c0.362,0,0.809-0.133,1.047-0.267L32.355,103.158z M29.624,100.827l1.97-0.104
		c0.019-0.096,0.029-0.19,0.029-0.285c0-0.495-0.267-0.876-0.885-0.876C30.119,99.562,29.709,99.961,29.624,100.827z"/>
	<path fill="#8FA0B0" d="M37.485,103.11c0.381,0,0.771-0.143,0.98-0.257l0.114,0.314c-0.123,0.067-0.685,0.523-1.541,0.523
		c-0.876,0-1.875-0.495-1.875-2.16c0-1.522,1.075-2.427,2.293-2.427c0.533,0,1,0.172,1.123,0.314c0.01,0.038,0.02,0.096,0.02,0.151
		c0,0.22-0.115,0.467-0.352,0.601c-0.171-0.21-0.495-0.524-1.047-0.524c-0.809,0-1.275,0.495-1.275,1.58
		C35.925,102.625,36.543,103.11,37.485,103.11z"/>
	<path fill="#8FA0B0" d="M39.104,97.04c0-0.171,0.152-0.267,0.152-0.267s0.657-0.057,1.275-0.124v6.5
		c0.276,0.075,0.676,0.123,0.676,0.123s-0.038,0.21-0.143,0.343c0,0-0.533-0.028-0.885-0.028c-0.39,0-1.018,0.028-1.018,0.028
		c-0.009-0.02-0.019-0.058-0.019-0.096c0-0.161,0.162-0.247,0.162-0.247l0.504-0.123v-5.929c-0.343-0.057-0.685-0.085-0.685-0.085
		C39.113,97.117,39.104,97.078,39.104,97.04z"/>
	<path fill="#8FA0B0" d="M41.635,101.551c0-1.713,1.056-2.475,2.084-2.475c1.018,0,1.931,0.58,1.931,2.142
		c0,1.722-1.056,2.474-2.074,2.474S41.635,103.11,41.635,101.551z M43.69,103.187c0.723,0,1.18-0.391,1.18-1.693
		c0-1.076-0.353-1.912-1.266-1.912c-0.724,0-1.189,0.398-1.189,1.703C42.416,102.358,42.777,103.187,43.69,103.187z"/>
	<path fill="#8FA0B0" d="M47.498,102.017c0,0.647,0.133,1.075,0.952,1.075c0.38,0,0.799-0.134,1.018-0.296v-3.073
		c-0.314-0.047-0.78-0.085-0.78-0.085c-0.01-0.028-0.02-0.086-0.02-0.114c0-0.171,0.153-0.275,0.153-0.275s0.732-0.058,1.37-0.124
		v3.949c0.342,0.057,0.771,0.085,0.771,0.085c0.01,0.038,0.01,0.077,0.01,0.104c0,0.172-0.143,0.257-0.143,0.257
		s-0.656,0.058-1.275,0.124l-0.057-0.485c-0.342,0.248-0.837,0.533-1.398,0.533c-1.047,0-1.322-0.657-1.322-1.484v-2.513
		c-0.258-0.048-0.686-0.085-0.686-0.085c-0.01-0.019-0.019-0.066-0.019-0.095c0-0.172,0.152-0.267,0.152-0.267
		s0.723-0.067,1.275-0.124V102.017z"/>
	<path fill="#8FA0B0" d="M55.149,103.073c0.342,0.057,0.771,0.085,0.771,0.085c0.009,0.028,0.019,0.066,0.019,0.096
		c0,0.171-0.152,0.266-0.152,0.266s-0.666,0.058-1.284,0.124l-0.048-0.485c-0.247,0.172-0.76,0.533-1.36,0.533
		c-0.79,0-1.627-0.523-1.627-2.056c0-1.751,1.095-2.56,2.208-2.56c0.286,0,0.59,0.076,0.752,0.143v-1.998
		c-0.343-0.057-0.685-0.085-0.685-0.085c-0.01-0.029-0.019-0.058-0.019-0.096c0-0.171,0.152-0.267,0.152-0.267
		s0.657-0.057,1.275-0.124V103.073z M52.237,101.37c0,0.988,0.372,1.722,1.18,1.722c0.39,0,0.78-0.134,1.009-0.296v-2.835
		c-0.133-0.19-0.428-0.38-0.895-0.38C52.723,99.581,52.237,100.057,52.237,101.37z"/>
	<path fill="#8FA0B0" d="M58.271,97.04c0-0.171,0.152-0.267,0.152-0.267s0.656-0.057,1.275-0.124v2.941
		c0.353-0.248,0.903-0.515,1.456-0.515c1.065,0,1.285,0.656,1.285,1.484v2.589c0.333,0.075,0.685,0.123,0.685,0.123
		s-0.038,0.21-0.143,0.343c0,0-0.523-0.028-0.876-0.028c-0.39,0-1.046,0.028-1.046,0.028c-0.01-0.038-0.01-0.067-0.01-0.096
		c0-0.161,0.161-0.247,0.161-0.247l0.505-0.123v-2.398c0-0.646-0.134-1.075-0.971-1.075c-0.39,0-0.818,0.133-1.047,0.295v3.179
		c0.276,0.075,0.676,0.123,0.676,0.123s-0.038,0.21-0.143,0.343c0,0-0.533-0.028-0.885-0.028c-0.39,0-1.018,0.028-1.018,0.028
		c-0.01-0.02-0.02-0.058-0.02-0.096c0-0.161,0.162-0.247,0.162-0.247l0.505-0.123v-5.929c-0.343-0.057-0.685-0.085-0.685-0.085
		C58.281,97.117,58.271,97.078,58.271,97.04z"/>
	<path fill="#8FA0B0" d="M65.59,103.52L64,99.638l-0.551-0.114c-0.01-0.019-0.021-0.066-0.021-0.095
		c0-0.162,0.162-0.238,0.162-0.238h1.989c0,0-0.039,0.199-0.143,0.333c0,0-0.39,0.067-0.628,0.114l1.113,2.959l1.075-2.959
		l-0.638-0.114c-0.01-0.019-0.02-0.066-0.02-0.095c0-0.162,0.162-0.238,0.162-0.238h1.685c0,0-0.039,0.199-0.144,0.333
		c0,0-0.219,0.047-0.457,0.114l-1.606,4.148c-0.477,1.229-0.953,1.95-1.21,2.094c-0.428,0-0.608-0.343-0.666-0.6
		c0.505-0.171,1.095-0.608,1.428-1.589L65.59,103.52z"/>
	<path fill="#8FA0B0" d="M69.11,99.723c-0.342-0.057-0.771-0.104-0.771-0.104c-0.009-0.02-0.019-0.067-0.019-0.096
		c0-0.171,0.152-0.275,0.152-0.275s0.704-0.058,1.322-0.124c0,0.21,0.01,0.485,0.01,0.485c0.172-0.114,0.79-0.533,1.39-0.533
		c0.799,0,1.599,0.494,1.599,2.074c0,1.722-1.123,2.503-2.208,2.503c-0.219,0-0.485-0.02-0.752-0.048v1.826
		c0.276,0.076,0.676,0.125,0.676,0.125s-0.038,0.208-0.143,0.342c0,0-0.533-0.028-0.885-0.028c-0.391,0-1.019,0.028-1.019,0.028
		c-0.009-0.019-0.019-0.058-0.019-0.095c0-0.162,0.161-0.247,0.161-0.247l0.504-0.125V99.723z M69.834,102.978
		c0.22,0.086,0.477,0.172,0.895,0.172c0.809,0,1.295-0.419,1.295-1.732c0-1.037-0.372-1.741-1.181-1.741
		c-0.391,0-0.779,0.143-1.009,0.295V102.978z"/>
	<path fill="#8FA0B0" d="M77.029,103.158c-0.124,0.104-0.771,0.533-1.608,0.533c-0.886,0-1.895-0.495-1.895-2.141
		c0-1.724,1.019-2.475,2.085-2.475c0.941,0,1.437,0.656,1.437,1.494c0,0.21-0.028,0.438-0.095,0.666l-2.675-0.019v0.143
		c0,1.294,0.629,1.75,1.59,1.75c0.361,0,0.809-0.133,1.046-0.267L77.029,103.158z M74.299,100.827l1.969-0.104
		c0.02-0.096,0.028-0.19,0.028-0.285c0-0.495-0.267-0.876-0.885-0.876C74.792,99.562,74.384,99.961,74.299,100.827z"/>
	<path fill="#8FA0B0" d="M79.199,100c0.295-0.381,0.704-0.876,1.313-0.876c0.218,0,0.333,0.028,0.409,0.057
		c0.019,0.058,0.028,0.124,0.028,0.19c0,0.172-0.058,0.371-0.124,0.495c-0.104-0.019-0.247-0.039-0.429-0.039
		c-0.522,0-0.827,0.097-1.16,0.485v2.826c0.324,0.076,0.866,0.124,0.866,0.124s-0.039,0.22-0.144,0.353c0,0-0.723-0.028-1.074-0.028
		c-0.391,0-1.019,0.028-1.019,0.028c-0.01-0.02-0.02-0.058-0.02-0.096c0-0.161,0.162-0.247,0.162-0.247l0.504-0.123v-3.427
		c-0.342-0.057-0.771-0.104-0.771-0.104c-0.009-0.02-0.019-0.067-0.019-0.096c0-0.171,0.152-0.275,0.152-0.275
		s0.704-0.058,1.322-0.124V100z"/>
	<path fill="#8FA0B0" d="M83.167,103.596l-1.675-3.958l-0.504-0.114c-0.01-0.019-0.019-0.066-0.019-0.095
		c0-0.162,0.161-0.238,0.161-0.238h1.875c0,0-0.038,0.199-0.144,0.333c0,0-0.352,0.067-0.569,0.114l1.208,2.987l1.18-2.987
		l-0.647-0.114c-0.01-0.019-0.019-0.066-0.019-0.095c0-0.162,0.162-0.238,0.162-0.238h1.579c0,0-0.038,0.199-0.143,0.333
		c0,0-0.2,0.067-0.353,0.114l-1.607,3.958H83.167z"/>
	<path fill="#8FA0B0" d="M87.479,103.149c0.275,0.075,0.676,0.123,0.676,0.123s-0.039,0.21-0.144,0.343c0,0-0.532-0.028-0.885-0.028
		c-0.391,0-1.018,0.028-1.018,0.028c-0.01-0.02-0.021-0.058-0.021-0.096c0-0.161,0.162-0.247,0.162-0.247l0.505-0.123v-3.427
		c-0.343-0.057-0.771-0.104-0.771-0.104c-0.01-0.02-0.02-0.067-0.02-0.096c0-0.171,0.152-0.275,0.152-0.275s0.723-0.058,1.361-0.124
		V103.149z M87.003,96.85c0.324,0,0.495,0.238,0.495,0.552c0,0.295-0.199,0.514-0.504,0.514s-0.505-0.247-0.505-0.532
		C86.489,97.078,86.699,96.85,87.003,96.85z"/>
	<path fill="#8FA0B0" d="M88.783,102.606c0-0.123,0-0.238,0.01-0.333c0.048-0.066,0.133-0.104,0.229-0.104
		c0.058,0,0.113,0.019,0.171,0.057c0.058,0.343,0.152,0.704,0.275,0.913c0.19,0.067,0.477,0.105,0.752,0.105
		c0.686,0,0.886-0.438,0.886-0.761c0-0.486-0.467-0.676-0.971-0.886c-0.714-0.295-1.275-0.523-1.275-1.266
		c0-0.771,0.676-1.256,1.637-1.256c0.485,0,0.923,0.124,1.18,0.229c0.029,0.229,0.048,0.504,0.048,0.752
		c0,0.114,0,0.229-0.009,0.323c-0.049,0.066-0.134,0.104-0.22,0.104c-0.058,0-0.123-0.019-0.181-0.057
		c-0.028-0.171-0.104-0.609-0.247-0.837c-0.133-0.048-0.334-0.086-0.647-0.086c-0.542,0-0.848,0.266-0.848,0.656
		c0,0.466,0.601,0.609,1.189,0.876c0.695,0.312,1.095,0.599,1.095,1.227c0,0.724-0.609,1.428-1.722,1.428
		c-0.477,0-1.047-0.134-1.294-0.248C88.802,103.235,88.783,102.872,88.783,102.606z"/>
	<path fill="#8FA0B0" d="M92.694,101.551c0-1.713,1.057-2.475,2.085-2.475c1.018,0,1.932,0.58,1.932,2.142
		c0,1.722-1.057,2.474-2.075,2.474C93.618,103.691,92.694,103.11,92.694,101.551z M94.75,103.187c0.724,0,1.18-0.391,1.18-1.693
		c0-1.076-0.352-1.912-1.266-1.912c-0.723,0-1.189,0.398-1.189,1.703C93.475,102.358,93.837,103.187,94.75,103.187z"/>
	<path fill="#8FA0B0" d="M98.805,100c0.295-0.381,0.705-0.876,1.313-0.876c0.219,0,0.333,0.028,0.409,0.057
		c0.019,0.058,0.028,0.124,0.028,0.19c0,0.172-0.058,0.371-0.124,0.495c-0.104-0.019-0.248-0.039-0.429-0.039
		c-0.522,0-0.826,0.097-1.16,0.485v2.826c0.324,0.076,0.866,0.124,0.866,0.124s-0.039,0.22-0.144,0.353c0,0-0.723-0.028-1.074-0.028
		c-0.391,0-1.019,0.028-1.019,0.028c-0.01-0.02-0.02-0.058-0.02-0.096c0-0.161,0.162-0.247,0.162-0.247l0.504-0.123v-3.427
		c-0.342-0.057-0.771-0.104-0.771-0.104c-0.009-0.02-0.019-0.067-0.019-0.096c0-0.171,0.152-0.275,0.152-0.275
		s0.704-0.058,1.322-0.124V100z"/>
</g>
<g>
	<rect x="103" y="101" fill="#8FA0B0" width="16" height="1"/>
</g>
<g>
	<rect x="1" y="101" fill="#8FA0B0" width="16" height="1"/>
</g>
<g>
	<polygon fill="#8FA0B0" points="1.443,91.367 14.756,71.087 2.818,71.087 2.818,70.211 16.35,70.211 16.35,70.305 3.038,90.587 
		16.788,90.587 16.788,91.462 1.443,91.462 	"/>
	<polygon fill="#8FA0B0" points="21.067,70.211 33.317,70.211 33.317,71.086 22.066,71.086 22.066,83.18 32.161,83.18 
		32.161,84.055 22.066,84.055 22.066,90.587 33.755,90.587 33.755,91.462 21.067,91.462 	"/>
	<path fill="#8FA0B0" d="M50.316,91.462h-1.25l-4.751-5.657c-0.563,0.062-1.188,0.126-1.845,0.126h-3v5.531h-1V70.211h4
		c5.688,0,8.5,3.531,8.5,7.874c0,3.532-1.874,6.501-5.593,7.502L50.316,91.462z M42.346,85.055c5.438,0,7.626-3.125,7.626-6.97
		c0-3.844-2.25-6.999-7.626-6.999h-2.875v13.969H42.346z"/>
	<path fill="#8FA0B0" d="M54.251,80.836c0-6.281,4.875-10.875,10.874-10.875c6.001,0,10.877,4.594,10.877,10.875
		c0,6.282-4.876,10.876-10.877,10.876C59.126,91.712,54.251,87.118,54.251,80.836 M74.971,80.836c0-5.719-4.219-9.969-9.846-9.969
		c-5.624,0-9.842,4.25-9.842,9.969c0,5.72,4.218,9.969,9.842,9.969C70.752,90.805,74.971,86.556,74.971,80.836"/>
	<polygon fill="#8FA0B0" points="76.815,70.211 80.347,70.211 86.41,84.493 92.285,70.211 95.66,70.211 86.472,91.774 
		86.285,91.774 	"/>
	<polygon fill="#8FA0B0" points="98.625,69.773 98.782,69.773 109.157,81.742 119.408,69.773 119.564,69.773 119.564,91.462 
		116.408,91.462 116.408,77.68 109.157,86.337 109.001,86.337 101.782,77.68 101.782,91.462 98.625,91.462 	"/>
</g>
<g>
	<path fill="#ACBDC6" d="M87.676,46.702c-1.623-1.39-3.148-2.934-5.104-3.774c-0.384-0.167-0.782-0.304-1.204-0.409
		c-2.237-0.551-4.467-0.916-6.659-1.573c-0.575-0.174-1.155-0.364-1.727-0.584c-1.576-0.621-3.085-1.393-4.476-2.368
		c-0.262-0.183-0.516-0.375-0.771-0.568c-0.896-0.68-1.729-1.607-2.362-2.534c-2.531-3.705-2.922-8.589-2.061-12.873
		c0.287-1.428,0.492-2.974-0.387-4.246c-0.79-1.142-2.179-1.865-3.413-2.407c-1.616-0.71-3.25-1.39-4.882-2.063
		c-0.824-0.339-1.65-0.668-2.478-0.999c-5.737,0.986-8.058,5.161-8.623,9.386l9.122,1.853l-9.226-1
		c-0.798,7.172,0.283,15.379,4.648,24.419c0.623,0.629,1.283,1.227,1.992,1.786c1.339-0.092,10.324-2.621,10.324-2.621
		l-15.379,5.882l-23.547,8.069l10.102,2.449l7.17-3.149c4.522,0.089,9.041,0.26,13.565,0.359c4.104,0.09,8.229,0.034,12.247-0.914
		c2.143-0.508,4.286-1.266,6.258-2.255c1.09-0.546,2.129-1.177,3.138-1.861c1.907-1.297,3.596-2.66,5.694-3.648
		c2.12-0.997,4.363-1.596,6.715-1.682c0.813-0.03,1.631,0.005,2.44,0.107c0.432,0.058,0.863,0.132,1.289,0.216
		c0.322,0.059,1.053,0.08,1.31,0.277C90.164,48.867,88.93,47.768,87.676,46.702 M81.648,46.781c-0.671,0-1.21-0.543-1.21-1.209
		c0-0.667,0.539-1.21,1.21-1.21c0.668,0,1.207,0.543,1.207,1.21C82.855,46.238,82.316,46.781,81.648,46.781"/>
	<path fill="#8FA0B0" d="M72.981,40.361c0.571,0.221,1.151,0.411,1.727,0.585c1.447-2.368,4.562-5.451,11.215-8.463
		c0,0-4.231-1.392-18.188,4.943c0.256,0.192,0.51,0.385,0.771,0.568C69.896,38.968,71.405,39.74,72.981,40.361"/>
	<path fill="#8FA0B0" d="M43.425,22.542l-5.38-0.583c0.161,3.735,1.253,14.407,8.278,23.031c0.545,0.668,1.123,1.323,1.742,1.963
		c0.002,0.004,0.005,0.007,0.009,0.012c0-0.001-0.002-0.001-0.002-0.004C43.708,37.921,42.627,29.714,43.425,22.542"/>
	<path fill="#8FA0B0" d="M52.152,12.303c0.002,0,0.006-0.001,0.009-0.001c0.002,0-5.287-2.142-5.287-2.144
		C33.455,4.375,15.547-1.873,1.265,2.583l36.679,17.971l5.585,1.136C44.094,17.464,46.415,13.29,52.152,12.303"/>
	<path fill="#8FA0B0" d="M81.648,44.361c-0.671,0-1.21,0.543-1.21,1.21c0,0.667,0.539,1.209,1.21,1.209
		c0.668,0,1.207-0.542,1.207-1.209C82.855,44.904,82.316,44.361,81.648,44.361"/>
</g>
</svg>
