<?xml version="1.0" encoding="utf-8"?>
<!-- Generator: Adobe Illustrator 15.0.0, SVG Export Plug-In . SVG Version: 6.00 Build 0)  -->
<!DOCTYPE svg PUBLIC "-//W3C//DTD SVG 1.1//EN" "http://www.w3.org/Graphics/SVG/1.1/DTD/svg11.dtd">
<svg version="1.1" id="Layer_1" xmlns="http://www.w3.org/2000/svg" xmlns:xlink="http://www.w3.org/1999/xlink" x="0px" y="0px"
	 width="120px" height="107px" viewBox="0 0 120 107" enable-background="new 0 0 120 107" xml:space="preserve">
<g>
	<polygon fill="#8FA0B0" points="1.443,91.367 14.756,71.087 2.818,71.087 2.818,70.211 16.35,70.211 16.35,70.305 3.038,90.587 
		16.788,90.587 16.788,91.462 1.443,91.462 	"/>
	<polygon fill="#8FA0B0" points="21.067,70.211 33.317,70.211 33.317,71.086 22.066,71.086 22.066,83.18 32.161,83.18 
		32.161,84.055 22.066,84.055 22.066,90.587 33.755,90.587 33.755,91.462 21.067,91.462 	"/>
	<path fill="#8FA0B0" d="M50.316,91.462h-1.25l-4.751-5.657c-0.563,0.062-1.188,0.126-1.845,0.126h-3v5.531h-1V70.211h4
		c5.688,0,8.5,3.531,8.5,7.874c0,3.532-1.874,6.501-5.593,7.502L50.316,91.462z M42.346,85.055c5.438,0,7.626-3.125,7.626-6.97
		c0-3.844-2.25-6.999-7.626-6.999h-2.875v13.969H42.346z"/>
	<path fill="#8FA0B0" d="M54.251,80.836c0-6.281,4.875-10.875,10.874-10.875c6.001,0,10.877,4.594,10.877,10.875
		c0,6.282-4.876,10.876-10.877,10.876C59.126,91.712,54.251,87.118,54.251,80.836 M74.971,80.836c0-5.719-4.219-9.969-9.846-9.969
		c-5.624,0-9.842,4.25-9.842,9.969c0,5.72,4.218,9.969,9.842,9.969C70.752,90.805,74.971,86.556,74.971,80.836"/>
	<polygon fill="#8FA0B0" points="76.815,70.211 80.347,70.211 86.41,84.493 92.285,70.211 95.66,70.211 86.472,91.774 
		86.285,91.774 	"/>
	<polygon fill="#8FA0B0" points="98.625,69.773 98.782,69.773 109.157,81.742 119.408,69.773 119.564,69.773 119.564,91.462 
		116.408,91.462 116.408,77.68 109.157,86.337 109.001,86.337 101.782,77.68 101.782,91.462 98.625,91.462 	"/>
</g>
<g>
	<path fill="#ACBDC6" d="M87.676,46.702c-1.623-1.39-3.148-2.934-5.104-3.774c-0.384-0.167-0.782-0.304-1.204-0.409
		c-2.237-0.551-4.467-0.916-6.659-1.573c-0.575-0.174-1.155-0.364-1.727-0.584c-1.576-0.621-3.085-1.393-4.476-2.368
		c-0.262-0.183-0.516-0.375-0.771-0.568c-0.896-0.68-1.729-1.607-2.362-2.534c-2.531-3.705-2.922-8.589-2.061-12.873
		c0.287-1.428,0.492-2.974-0.387-4.246c-0.79-1.142-2.179-1.865-3.413-2.407c-1.616-0.71-3.25-1.39-4.882-2.063
		c-0.824-0.339-1.65-0.668-2.478-0.999c-5.737,0.986-8.058,5.161-8.623,9.386l9.122,1.853l-9.226-1
		c-0.798,7.172,0.283,15.379,4.648,24.419c0.623,0.629,1.283,1.227,1.992,1.786c1.339-0.092,10.324-2.621,10.324-2.621
		l-15.379,5.882l-23.547,8.069l10.102,2.449l7.17-3.149c4.522,0.089,9.041,0.26,13.565,0.359c4.104,0.09,8.229,0.034,12.247-0.914
		c2.143-0.508,4.286-1.266,6.258-2.255c1.09-0.546,2.129-1.177,3.138-1.861c1.907-1.297,3.596-2.66,5.694-3.648
		c2.12-0.997,4.363-1.596,6.715-1.682c0.813-0.03,1.631,0.005,2.44,0.107c0.432,0.058,0.863,0.132,1.289,0.216
		c0.322,0.059,1.053,0.08,1.31,0.277C90.164,48.867,88.93,47.768,87.676,46.702 M81.648,46.781c-0.671,0-1.21-0.543-1.21-1.209
		c0-0.667,0.539-1.21,1.21-1.21c0.668,0,1.207,0.543,1.207,1.21C82.855,46.238,82.316,46.781,81.648,46.781"/>
	<path fill="#8FA0B0" d="M72.981,40.361c0.571,0.221,1.151,0.411,1.727,0.585c1.447-2.368,4.562-5.451,11.215-8.463
		c0,0-4.231-1.392-18.188,4.943c0.256,0.192,0.51,0.385,0.771,0.568C69.896,38.968,71.405,39.74,72.981,40.361"/>
	<path fill="#8FA0B0" d="M43.425,22.542l-5.38-0.583c0.161,3.735,1.253,14.407,8.278,23.031c0.545,0.668,1.123,1.323,1.742,1.963
		c0.002,0.004,0.005,0.007,0.009,0.012c0-0.001-0.002-0.001-0.002-0.004C43.708,37.921,42.627,29.714,43.425,22.542"/>
	<path fill="#8FA0B0" d="M52.152,12.303c0.002,0,0.006-0.001,0.009-0.001c0.002,0-5.287-2.142-5.287-2.144
		C33.455,4.375,15.547-1.873,1.265,2.583l36.679,17.971l5.585,1.136C44.094,17.464,46.415,13.29,52.152,12.303"/>
	<path fill="#8FA0B0" d="M81.648,44.361c-0.671,0-1.21,0.543-1.21,1.21c0,0.667,0.539,1.209,1.21,1.209
		c0.668,0,1.207-0.542,1.207-1.209C82.855,44.904,82.316,44.361,81.648,44.361"/>
</g>
</svg>
