<?xml version="1.0" encoding="utf-8"?>
<!-- Generator: Adobe Illustrator 15.0.0, SVG Export Plug-In . SVG Version: 6.00 Build 0)  -->
<!DOCTYPE svg PUBLIC "-//W3C//DTD SVG 1.1//EN" "http://www.w3.org/Graphics/SVG/1.1/DTD/svg11.dtd">
<svg version="1.1" id="Layer_1" xmlns="http://www.w3.org/2000/svg" xmlns:xlink="http://www.w3.org/1999/xlink" x="0px" y="0px"
	 width="82px" height="82px" viewBox="0 0 82 82" enable-background="new 0 0 82 82" xml:space="preserve">
<g>
	<polygon fill="#8FA0B0" points="1.169,64.107 10.245,50.281 2.106,50.281 2.106,49.684 11.333,49.684 11.333,49.748 2.256,63.576 
		11.631,63.576 11.631,64.173 1.169,64.173 	"/>
	<polygon fill="#8FA0B0" points="14.548,49.684 22.901,49.684 22.901,50.28 15.23,50.28 15.23,58.526 22.112,58.526 22.112,59.122 
		15.23,59.122 15.23,63.576 23.2,63.576 23.2,64.173 14.548,64.173 	"/>
	<path fill="#8FA0B0" d="M34.491,64.173h-0.852l-3.24-3.857c-0.383,0.043-0.809,0.085-1.257,0.085h-2.045v3.772h-0.682V49.684h2.727
		c3.878,0,5.795,2.407,5.795,5.369c0,2.408-1.277,4.433-3.814,5.114L34.491,64.173z M29.057,59.805c3.708,0,5.199-2.131,5.199-4.752
		c0-2.622-1.534-4.772-5.199-4.772h-1.96v9.524H29.057z"/>
	<path fill="#8FA0B0" d="M37.174,56.928c0-4.282,3.324-7.415,7.414-7.415c4.092,0,7.416,3.133,7.416,7.415
		c0,4.284-3.324,7.416-7.416,7.416C40.498,64.344,37.174,61.212,37.174,56.928 M51.301,56.928c0-3.899-2.876-6.797-6.713-6.797
		c-3.834,0-6.71,2.897-6.71,6.797c0,3.9,2.876,6.797,6.71,6.797C48.425,63.725,51.301,60.828,51.301,56.928"/>
	<polygon fill="#8FA0B0" points="52.56,49.684 54.966,49.684 59.101,59.422 63.106,49.684 65.407,49.684 59.142,64.386 
		59.014,64.386 	"/>
	<polygon fill="#8FA0B0" points="67.429,49.386 67.535,49.386 74.609,57.546 81.599,49.386 81.705,49.386 81.705,64.173 
		79.553,64.173 79.553,54.775 74.609,60.678 74.503,60.678 69.581,54.775 69.581,64.173 67.429,64.173 	"/>
</g>
<g>
	<path fill="#ACBDC6" d="M59.963,33.655c-1.107-0.948-2.146-2-3.48-2.573c-0.261-0.114-0.533-0.207-0.821-0.279
		c-1.523-0.375-3.045-0.624-4.539-1.072c-0.394-0.118-0.789-0.248-1.178-0.398c-1.074-0.424-2.104-0.95-3.051-1.615
		c-0.179-0.125-0.353-0.256-0.525-0.387c-0.613-0.464-1.18-1.096-1.612-1.729c-1.726-2.525-1.991-5.856-1.404-8.776
		c0.195-0.973,0.336-2.028-0.264-2.895c-0.538-0.778-1.485-1.271-2.327-1.641c-1.102-0.484-2.217-0.948-3.329-1.407
		c-0.561-0.231-1.125-0.455-1.689-0.681c-3.912,0.673-5.494,3.519-5.879,6.399l6.219,1.263l-6.29-0.682
		c-0.544,4.891,0.193,10.486,3.169,16.65c0.424,0.428,0.875,0.836,1.357,1.218c0.913-0.063,7.039-1.788,7.039-1.788l-10.486,4.011
		l-16.055,5.501l6.888,1.671l4.889-2.148c3.083,0.061,6.165,0.178,9.249,0.246c2.799,0.062,5.61,0.022,8.35-0.623
		c1.462-0.347,2.923-0.863,4.268-1.538c0.743-0.372,1.451-0.802,2.139-1.27c1.3-0.885,2.451-1.813,3.884-2.486
		c1.445-0.68,2.973-1.089,4.578-1.147c0.553-0.021,1.111,0.004,1.662,0.074c0.295,0.04,0.59,0.089,0.88,0.147
		c0.22,0.041,0.718,0.055,0.893,0.189C61.66,35.131,60.818,34.382,59.963,33.655 M55.854,33.708c-0.456,0-0.825-0.37-0.825-0.824
		s0.369-0.825,0.825-0.825c0.455,0,0.823,0.37,0.823,0.825S56.309,33.708,55.854,33.708"/>
	<path fill="#8FA0B0" d="M49.944,29.332c0.389,0.151,0.784,0.281,1.178,0.399c0.987-1.615,3.11-3.717,7.647-5.771
		c0,0-2.887-0.949-12.401,3.371c0.173,0.131,0.347,0.263,0.525,0.387C47.841,28.382,48.87,28.908,49.944,29.332"/>
	<path fill="#8FA0B0" d="M29.792,17.183l-3.668-0.397c0.11,2.546,0.854,9.822,5.645,15.702c0.372,0.456,0.766,0.903,1.188,1.338
		c0.001,0.003,0.003,0.005,0.007,0.008c0-0.001-0.001-0.001-0.001-0.002C29.985,27.668,29.249,22.073,29.792,17.183"/>
	<path fill="#8FA0B0" d="M35.743,10.202c0.001,0,0.004-0.001,0.006-0.001c0.001,0-3.605-1.461-3.605-1.461
		C22.995,4.796,10.785,0.536,1.047,3.574l25.008,12.253l3.808,0.774C30.249,13.72,31.831,10.875,35.743,10.202"/>
	<path fill="#8FA0B0" d="M55.854,32.06c-0.456,0-0.825,0.37-0.825,0.825s0.369,0.824,0.825,0.824c0.455,0,0.823-0.37,0.823-0.824
		S56.309,32.06,55.854,32.06"/>
</g>
</svg>
