<?xml version="1.0" encoding="utf-8"?>
<!-- Generator: Adobe Illustrator 15.0.0, SVG Export Plug-In . SVG Version: 6.00 Build 0)  -->
<!DOCTYPE svg PUBLIC "-//W3C//DTD SVG 1.1//EN" "http://www.w3.org/Graphics/SVG/1.1/DTD/svg11.dtd">
<svg version="1.1" id="Layer_1" xmlns="http://www.w3.org/2000/svg" xmlns:xlink="http://www.w3.org/1999/xlink" x="0px" y="0px"
	 width="82px" height="82px" viewBox="0 0 82 82" enable-background="new 0 0 82 82" xml:space="preserve">
<g>
	<path fill="#8FA0B0" d="M15.931,69.416c0,0.201-0.091,0.298-0.155,0.356h-0.798v1.785c0,0.415,0.032,0.583,0.416,0.583
		c0.168,0,0.409-0.025,0.512-0.052l0.046,0.222c-0.175,0.077-0.513,0.181-0.882,0.181c-0.532,0-0.584-0.272-0.584-0.753v-1.966
		h-0.454l-0.026-0.129l0.421-0.228l0.286-0.675l0.266-0.038v0.732L15.931,69.416z"/>
	<path fill="#8FA0B0" d="M16.275,67.976c0-0.116,0.104-0.182,0.104-0.182s0.447-0.038,0.869-0.084v2.004
		c0.24-0.168,0.616-0.35,0.992-0.35c0.727,0,0.876,0.448,0.876,1.012v1.765c0.228,0.053,0.467,0.085,0.467,0.085
		s-0.026,0.144-0.097,0.233c0,0-0.357-0.02-0.597-0.02c-0.266,0-0.714,0.02-0.714,0.02c-0.006-0.026-0.006-0.045-0.006-0.064
		c0-0.11,0.11-0.169,0.11-0.169l0.344-0.085v-1.635c0-0.441-0.091-0.733-0.662-0.733c-0.266,0-0.558,0.092-0.713,0.202v2.166
		c0.188,0.053,0.46,0.085,0.46,0.085s-0.026,0.144-0.098,0.233c0,0-0.363-0.02-0.603-0.02c-0.267,0-0.694,0.02-0.694,0.02
		c-0.007-0.013-0.013-0.038-0.013-0.064c0-0.11,0.11-0.169,0.11-0.169l0.343-0.085V68.1c-0.233-0.039-0.467-0.059-0.467-0.059
		C16.282,68.027,16.275,68.002,16.275,67.976z"/>
	<path fill="#8FA0B0" d="M22.245,72.147c-0.084,0.071-0.525,0.363-1.097,0.363c-0.604,0-1.291-0.337-1.291-1.46
		c0-1.174,0.694-1.687,1.42-1.687c0.643,0,0.979,0.448,0.979,1.019c0,0.143-0.019,0.299-0.065,0.454l-1.823-0.014v0.099
		c0,0.882,0.428,1.193,1.083,1.193c0.247,0,0.552-0.091,0.714-0.182L22.245,72.147z M20.383,70.558l1.343-0.071
		c0.013-0.064,0.02-0.13,0.02-0.195c0-0.337-0.182-0.596-0.603-0.596C20.72,69.695,20.441,69.968,20.383,70.558z"/>
	<path fill="#8FA0B0" d="M25.742,72.115c0.26,0,0.526-0.097,0.669-0.175l0.078,0.214c-0.084,0.045-0.467,0.356-1.051,0.356
		c-0.597,0-1.278-0.337-1.278-1.474c0-1.037,0.733-1.653,1.563-1.653c0.363,0,0.681,0.117,0.766,0.214
		c0.006,0.026,0.013,0.064,0.013,0.104c0,0.148-0.078,0.317-0.24,0.407c-0.117-0.142-0.337-0.355-0.713-0.355
		c-0.552,0-0.87,0.337-0.87,1.076C24.679,71.785,25.1,72.115,25.742,72.115z"/>
	<path fill="#8FA0B0" d="M26.846,67.976c0-0.116,0.104-0.182,0.104-0.182s0.448-0.038,0.869-0.084v4.431
		c0.188,0.053,0.46,0.085,0.46,0.085s-0.026,0.144-0.097,0.233c0,0-0.363-0.02-0.604-0.02c-0.266,0-0.694,0.02-0.694,0.02
		c-0.006-0.013-0.013-0.038-0.013-0.064c0-0.11,0.11-0.169,0.11-0.169l0.344-0.085V68.1c-0.233-0.039-0.467-0.059-0.467-0.059
		C26.853,68.027,26.846,68.002,26.846,67.976z"/>
	<path fill="#8FA0B0" d="M28.572,71.051c0-1.168,0.72-1.687,1.421-1.687c0.694,0,1.317,0.396,1.317,1.459
		c0,1.176-0.72,1.688-1.414,1.688S28.572,72.115,28.572,71.051z M29.974,72.167c0.493,0,0.804-0.266,0.804-1.155
		c0-0.732-0.24-1.304-0.863-1.304c-0.493,0-0.811,0.272-0.811,1.161C29.104,71.604,29.351,72.167,29.974,72.167z"/>
	<path fill="#8FA0B0" d="M32.569,71.37c0,0.44,0.091,0.732,0.649,0.732c0.259,0,0.545-0.091,0.694-0.201v-2.096
		c-0.214-0.033-0.532-0.059-0.532-0.059c-0.006-0.02-0.013-0.059-0.013-0.078c0-0.116,0.104-0.188,0.104-0.188
		s0.5-0.038,0.935-0.084v2.692c0.233,0.04,0.525,0.059,0.525,0.059c0.007,0.026,0.007,0.052,0.007,0.071
		c0,0.117-0.098,0.176-0.098,0.176s-0.448,0.038-0.869,0.084l-0.039-0.331c-0.233,0.169-0.571,0.363-0.954,0.363
		c-0.713,0-0.901-0.447-0.901-1.011v-1.714c-0.175-0.032-0.467-0.059-0.467-0.059c-0.006-0.014-0.013-0.045-0.013-0.065
		c0-0.116,0.104-0.182,0.104-0.182s0.493-0.045,0.869-0.084V71.37z"/>
	<path fill="#8FA0B0" d="M37.786,72.089c0.234,0.04,0.526,0.059,0.526,0.059c0.007,0.02,0.013,0.046,0.013,0.064
		c0,0.117-0.104,0.183-0.104,0.183s-0.454,0.038-0.875,0.084l-0.033-0.331c-0.168,0.116-0.519,0.363-0.928,0.363
		c-0.539,0-1.109-0.356-1.109-1.402c0-1.192,0.746-1.744,1.505-1.744c0.195,0,0.402,0.052,0.512,0.098V68.1
		c-0.233-0.039-0.467-0.059-0.467-0.059c-0.006-0.02-0.013-0.039-0.013-0.065c0-0.116,0.104-0.182,0.104-0.182
		s0.448-0.038,0.869-0.084V72.089z M35.801,70.928c0,0.676,0.253,1.175,0.805,1.175c0.266,0,0.532-0.091,0.687-0.201v-1.934
		c-0.09-0.13-0.292-0.26-0.609-0.26C36.131,69.708,35.801,70.032,35.801,70.928z"/>
	<path fill="#8FA0B0" d="M39.915,67.976c0-0.116,0.103-0.182,0.103-0.182s0.448-0.038,0.87-0.084v2.004
		c0.24-0.168,0.616-0.35,0.993-0.35c0.727,0,0.875,0.448,0.875,1.012v1.765c0.228,0.053,0.468,0.085,0.468,0.085
		s-0.026,0.144-0.097,0.233c0,0-0.356-0.02-0.598-0.02c-0.266,0-0.714,0.02-0.714,0.02c-0.006-0.026-0.006-0.045-0.006-0.064
		c0-0.11,0.111-0.169,0.111-0.169l0.344-0.085v-1.635c0-0.441-0.091-0.733-0.662-0.733c-0.266,0-0.558,0.092-0.714,0.202v2.166
		c0.188,0.053,0.46,0.085,0.46,0.085s-0.026,0.144-0.097,0.233c0,0-0.364-0.02-0.604-0.02c-0.266,0-0.694,0.02-0.694,0.02
		c-0.006-0.013-0.013-0.038-0.013-0.064c0-0.11,0.11-0.169,0.11-0.169l0.344-0.085V68.1c-0.234-0.039-0.467-0.059-0.467-0.059
		C39.922,68.027,39.915,68.002,39.915,67.976z"/>
	<path fill="#8FA0B0" d="M44.904,72.395l-1.082-2.647l-0.378-0.078c-0.007-0.013-0.014-0.045-0.014-0.064
		c0-0.11,0.111-0.162,0.111-0.162h1.356c0,0-0.026,0.137-0.098,0.227c0,0-0.266,0.045-0.428,0.078l0.759,2.018l0.732-2.018
		l-0.434-0.078c-0.007-0.013-0.014-0.045-0.014-0.064c0-0.11,0.11-0.162,0.11-0.162h1.147c0,0-0.025,0.137-0.097,0.227
		c0,0-0.148,0.033-0.312,0.078l-1.097,2.829c-0.323,0.837-0.648,1.329-0.822,1.426c-0.292,0-0.416-0.233-0.455-0.408
		c0.344-0.117,0.746-0.414,0.974-1.083L44.904,72.395z"/>
	<path fill="#8FA0B0" d="M47.305,69.806c-0.232-0.04-0.524-0.071-0.524-0.071c-0.007-0.014-0.013-0.046-0.013-0.065
		c0-0.116,0.104-0.188,0.104-0.188s0.48-0.038,0.901-0.084c0,0.143,0.006,0.331,0.006,0.331c0.117-0.078,0.54-0.363,0.948-0.363
		c0.546,0,1.09,0.338,1.09,1.414c0,1.175-0.766,1.707-1.505,1.707c-0.149,0-0.33-0.013-0.513-0.033v1.246
		c0.188,0.052,0.461,0.084,0.461,0.084s-0.026,0.143-0.098,0.233c0,0-0.363-0.02-0.604-0.02c-0.266,0-0.694,0.02-0.694,0.02
		c-0.007-0.014-0.013-0.039-0.013-0.065c0-0.109,0.109-0.168,0.109-0.168l0.344-0.084V69.806z M47.799,72.024
		c0.149,0.058,0.323,0.116,0.609,0.116c0.552,0,0.883-0.285,0.883-1.18c0-0.708-0.253-1.188-0.805-1.188
		c-0.266,0-0.531,0.098-0.688,0.202V72.024z"/>
	<path fill="#8FA0B0" d="M52.704,72.147c-0.085,0.071-0.526,0.363-1.097,0.363c-0.603,0-1.29-0.337-1.29-1.46
		c0-1.174,0.693-1.687,1.42-1.687c0.642,0,0.98,0.448,0.98,1.019c0,0.143-0.021,0.299-0.065,0.454l-1.823-0.014v0.099
		c0,0.882,0.428,1.193,1.083,1.193c0.247,0,0.551-0.091,0.714-0.182L52.704,72.147z M50.842,70.558l1.343-0.071
		c0.013-0.064,0.02-0.13,0.02-0.195c0-0.337-0.182-0.596-0.604-0.596C51.18,69.695,50.9,69.968,50.842,70.558z"/>
	<path fill="#8FA0B0" d="M54.184,69.993c0.201-0.259,0.481-0.597,0.896-0.597c0.149,0,0.227,0.02,0.279,0.039
		c0.013,0.039,0.019,0.085,0.019,0.13c0,0.117-0.038,0.253-0.083,0.337c-0.072-0.013-0.169-0.025-0.292-0.025
		c-0.357,0-0.565,0.064-0.792,0.331v1.927c0.221,0.052,0.59,0.084,0.59,0.084s-0.025,0.15-0.097,0.24c0,0-0.493-0.02-0.732-0.02
		c-0.268,0-0.695,0.02-0.695,0.02c-0.006-0.013-0.013-0.038-0.013-0.064c0-0.11,0.11-0.169,0.11-0.169l0.344-0.085v-2.335
		c-0.234-0.04-0.525-0.071-0.525-0.071c-0.007-0.014-0.014-0.046-0.014-0.065c0-0.116,0.104-0.188,0.104-0.188
		s0.48-0.038,0.902-0.084V69.993z"/>
	<path fill="#8FA0B0" d="M56.89,72.446l-1.143-2.699l-0.343-0.078c-0.007-0.013-0.014-0.045-0.014-0.064
		c0-0.11,0.11-0.162,0.11-0.162h1.278c0,0-0.026,0.137-0.097,0.227c0,0-0.24,0.045-0.39,0.078l0.823,2.038l0.805-2.038l-0.44-0.078
		c-0.007-0.013-0.014-0.045-0.014-0.064c0-0.11,0.11-0.162,0.11-0.162h1.077c0,0-0.026,0.137-0.098,0.227
		c0,0-0.136,0.045-0.239,0.078l-1.098,2.699H56.89z"/>
	<path fill="#8FA0B0" d="M59.828,72.141c0.188,0.053,0.461,0.085,0.461,0.085s-0.025,0.144-0.097,0.233c0,0-0.364-0.02-0.604-0.02
		c-0.266,0-0.693,0.02-0.693,0.02c-0.007-0.013-0.014-0.038-0.014-0.064c0-0.11,0.11-0.169,0.11-0.169l0.344-0.085v-2.335
		c-0.233-0.04-0.525-0.071-0.525-0.071c-0.007-0.014-0.013-0.046-0.013-0.065c0-0.116,0.104-0.188,0.104-0.188
		s0.493-0.038,0.927-0.084V72.141z M59.505,67.847c0.22,0,0.337,0.162,0.337,0.376c0,0.201-0.136,0.351-0.344,0.351
		c-0.207,0-0.344-0.169-0.344-0.363C59.154,68.002,59.298,67.847,59.505,67.847z"/>
	<path fill="#8FA0B0" d="M60.719,71.771c0-0.085,0-0.162,0.006-0.227c0.032-0.045,0.091-0.072,0.155-0.072
		c0.04,0,0.078,0.014,0.117,0.039c0.039,0.233,0.104,0.48,0.188,0.623c0.13,0.046,0.323,0.071,0.512,0.071
		c0.468,0,0.604-0.299,0.604-0.52c0-0.33-0.319-0.46-0.662-0.604c-0.486-0.201-0.869-0.356-0.869-0.862
		c0-0.525,0.46-0.856,1.115-0.856c0.331,0,0.629,0.085,0.806,0.156c0.02,0.155,0.032,0.344,0.032,0.512c0,0.077,0,0.155-0.006,0.221
		c-0.033,0.045-0.092,0.071-0.15,0.071c-0.039,0-0.085-0.013-0.124-0.039c-0.019-0.117-0.07-0.415-0.168-0.571
		c-0.091-0.031-0.228-0.058-0.441-0.058c-0.37,0-0.577,0.182-0.577,0.448c0,0.317,0.409,0.414,0.811,0.596
		c0.475,0.215,0.747,0.408,0.747,0.838c0,0.492-0.416,0.973-1.175,0.973c-0.324,0-0.713-0.09-0.883-0.168
		C60.731,72.199,60.719,71.953,60.719,71.771z"/>
	<path fill="#8FA0B0" d="M63.385,71.051c0-1.168,0.722-1.687,1.422-1.687c0.694,0,1.316,0.396,1.316,1.459
		c0,1.176-0.721,1.688-1.414,1.688C64.014,72.511,63.385,72.115,63.385,71.051z M64.787,72.167c0.492,0,0.804-0.266,0.804-1.155
		c0-0.732-0.24-1.304-0.862-1.304c-0.494,0-0.812,0.272-0.812,1.161C63.917,71.604,64.165,72.167,64.787,72.167z"/>
	<path fill="#8FA0B0" d="M67.551,69.993c0.201-0.259,0.48-0.597,0.896-0.597c0.149,0,0.227,0.02,0.278,0.039
		c0.014,0.039,0.021,0.085,0.021,0.13c0,0.117-0.04,0.253-0.085,0.337c-0.071-0.013-0.169-0.025-0.292-0.025
		c-0.357,0-0.564,0.064-0.791,0.331v1.927c0.221,0.052,0.59,0.084,0.59,0.084s-0.026,0.15-0.098,0.24c0,0-0.492-0.02-0.732-0.02
		c-0.266,0-0.694,0.02-0.694,0.02c-0.006-0.013-0.013-0.038-0.013-0.064c0-0.11,0.11-0.169,0.11-0.169l0.344-0.085v-2.335
		c-0.233-0.04-0.525-0.071-0.525-0.071c-0.007-0.014-0.013-0.046-0.013-0.065c0-0.116,0.104-0.188,0.104-0.188
		s0.48-0.038,0.901-0.084V69.993z"/>
</g>
<g>
	<rect x="71" y="70" fill="#8FA0B0" width="11" height="1"/>
</g>
<g>
	<rect y="70" fill="#8FA0B0" width="12" height="1"/>
</g>
<g>
	<polygon fill="#8FA0B0" points="1.169,64.107 10.245,50.281 2.106,50.281 2.106,49.684 11.333,49.684 11.333,49.748 2.256,63.576 
		11.631,63.576 11.631,64.173 1.169,64.173 	"/>
	<polygon fill="#8FA0B0" points="14.548,49.684 22.901,49.684 22.901,50.28 15.23,50.28 15.23,58.526 22.112,58.526 22.112,59.122 
		15.23,59.122 15.23,63.576 23.2,63.576 23.2,64.173 14.548,64.173 	"/>
	<path fill="#8FA0B0" d="M34.491,64.173h-0.852l-3.24-3.857c-0.383,0.043-0.809,0.085-1.257,0.085h-2.045v3.772h-0.682V49.684h2.727
		c3.878,0,5.795,2.407,5.795,5.369c0,2.408-1.277,4.433-3.814,5.114L34.491,64.173z M29.057,59.805c3.708,0,5.199-2.131,5.199-4.752
		c0-2.622-1.534-4.772-5.199-4.772h-1.96v9.524H29.057z"/>
	<path fill="#8FA0B0" d="M37.174,56.928c0-4.282,3.324-7.415,7.414-7.415c4.092,0,7.416,3.133,7.416,7.415
		c0,4.284-3.324,7.416-7.416,7.416C40.498,64.344,37.174,61.212,37.174,56.928 M51.301,56.928c0-3.899-2.876-6.797-6.713-6.797
		c-3.834,0-6.71,2.897-6.71,6.797c0,3.9,2.876,6.797,6.71,6.797C48.425,63.725,51.301,60.828,51.301,56.928"/>
	<polygon fill="#8FA0B0" points="52.56,49.684 54.966,49.684 59.101,59.422 63.106,49.684 65.407,49.684 59.142,64.386 
		59.014,64.386 	"/>
	<polygon fill="#8FA0B0" points="67.429,49.386 67.535,49.386 74.609,57.546 81.599,49.386 81.705,49.386 81.705,64.173 
		79.553,64.173 79.553,54.775 74.609,60.678 74.503,60.678 69.581,54.775 69.581,64.173 67.429,64.173 	"/>
</g>
<g>
	<path fill="#ACBDC6" d="M59.963,33.655c-1.107-0.948-2.146-2-3.48-2.573c-0.261-0.114-0.533-0.207-0.821-0.279
		c-1.523-0.375-3.045-0.624-4.539-1.072c-0.394-0.118-0.789-0.248-1.178-0.398c-1.074-0.424-2.104-0.95-3.051-1.615
		c-0.179-0.125-0.353-0.256-0.525-0.387c-0.613-0.464-1.18-1.096-1.612-1.729c-1.726-2.525-1.991-5.856-1.404-8.776
		c0.195-0.973,0.336-2.028-0.264-2.895c-0.538-0.778-1.485-1.271-2.327-1.641c-1.102-0.484-2.217-0.948-3.329-1.407
		c-0.561-0.231-1.125-0.455-1.689-0.681c-3.912,0.673-5.494,3.519-5.879,6.399l6.219,1.263l-6.29-0.682
		c-0.544,4.891,0.193,10.486,3.169,16.65c0.424,0.428,0.875,0.836,1.357,1.218c0.913-0.063,7.039-1.788,7.039-1.788l-10.486,4.011
		l-16.055,5.501l6.888,1.671l4.889-2.148c3.083,0.061,6.165,0.178,9.249,0.246c2.799,0.062,5.61,0.022,8.35-0.623
		c1.462-0.347,2.923-0.863,4.268-1.538c0.743-0.372,1.451-0.802,2.139-1.27c1.3-0.885,2.451-1.813,3.884-2.486
		c1.445-0.68,2.973-1.089,4.578-1.147c0.553-0.021,1.111,0.004,1.662,0.074c0.295,0.04,0.59,0.089,0.88,0.147
		c0.22,0.041,0.718,0.055,0.893,0.189C61.66,35.131,60.818,34.382,59.963,33.655 M55.854,33.708c-0.456,0-0.825-0.37-0.825-0.824
		s0.369-0.825,0.825-0.825c0.455,0,0.823,0.37,0.823,0.825S56.309,33.708,55.854,33.708"/>
	<path fill="#8FA0B0" d="M49.944,29.332c0.389,0.151,0.784,0.281,1.178,0.399c0.987-1.615,3.11-3.717,7.647-5.771
		c0,0-2.887-0.949-12.401,3.371c0.173,0.131,0.347,0.263,0.525,0.387C47.841,28.382,48.87,28.908,49.944,29.332"/>
	<path fill="#8FA0B0" d="M29.792,17.183l-3.668-0.397c0.11,2.546,0.854,9.822,5.645,15.702c0.372,0.456,0.766,0.903,1.188,1.338
		c0.001,0.003,0.003,0.005,0.007,0.008c0-0.001-0.001-0.001-0.001-0.002C29.985,27.668,29.249,22.073,29.792,17.183"/>
	<path fill="#8FA0B0" d="M35.743,10.202c0.001,0,0.004-0.001,0.006-0.001c0.001,0-3.605-1.461-3.605-1.461
		C22.995,4.796,10.785,0.536,1.047,3.574l25.008,12.253l3.808,0.774C30.249,13.72,31.831,10.875,35.743,10.202"/>
	<path fill="#8FA0B0" d="M55.854,32.06c-0.456,0-0.825,0.37-0.825,0.825s0.369,0.824,0.825,0.824c0.455,0,0.823-0.37,0.823-0.824
		S56.309,32.06,55.854,32.06"/>
</g>
</svg>
