<?xml version="1.0" standalone="no"?>
<!DOCTYPE svg PUBLIC "-//W3C//DTD SVG 1.1//EN" "http://www.w3.org/Graphics/SVG/1.1/DTD/svg11.dtd" >
<svg xmlns="http://www.w3.org/2000/svg">
<metadata></metadata>
<defs>
<font id="source_sans_problack" horiz-adv-x="0" >
<font-face units-per-em="1000" ascent="750" descent="-250" />
<missing-glyph horiz-adv-x="210" />
<glyph unicode="ff" horiz-adv-x="688" d="M720 690l-30 -126q-27 10 -50 10q-52 0 -52 -62v-12h84v-134h-84v-366h-172v366h-156v-366h-172v366h-66v128l66 5v7q0 84 49 138t153 54q64 0 108 -18l-30 -126q-23 10 -56 10q-23 0 -37.5 -14t-14.5 -42v-8h156v6q0 89 47 145.5t151 56.5q56 0 106 -18z" />
<glyph unicode="ft" horiz-adv-x="724" d="M680 130l26 -124q-58 -18 -118 -18q-94 0 -139 54t-45 150v174h-144v-366h-172v366h-66v128l66 5v7q0 89 47 145.5t151 56.5q57 0 106 -18l-30 -126q-27 10 -50 10q-52 0 -52 -62v-12h154l20 130h142v-130h114v-134h-114v-171q0 -73 60 -73q20 0 44 8z" />
<glyph unicode=" "  horiz-adv-x="210" />
<glyph unicode="&#x09;" horiz-adv-x="210" />
<glyph unicode="&#xa0;" horiz-adv-x="210" />
<glyph unicode="!" horiz-adv-x="360" d="M124 244l-24 278l-6 148h172l-6 -148l-24 -278h-112zM80 92q0 44 28.5 74t71.5 30t71.5 -30t28.5 -74t-28.5 -74t-71.5 -30t-71.5 30t-28.5 74z" />
<glyph unicode="&#x22;" horiz-adv-x="580" d="M114 324l-34 212l-6 148h172l-6 -148l-34 -212h-92zM374 324l-34 212l-6 148h172l-6 -148l-34 -212h-92z" />
<glyph unicode="#" horiz-adv-x="540" d="M84 0l22 180h-72v108h84l12 96h-76v108h90l20 158h96l-18 -158h92l20 158h96l-18 -158h78v-108h-92l-12 -96h84v-108h-96l-22 -180h-98l22 180h-92l-22 -180h-98zM216 288h92l12 96h-92z" />
<glyph unicode="$" horiz-adv-x="540" d="M475 558l-85 -98q-54 48 -104 48q-34 0 -49 -11.5t-15 -40.5q0 -17 19 -33t48 -28t62 -30.5t62 -38.5t48 -54.5t19 -77.5q0 -75 -39.5 -127.5t-116.5 -70.5v-106h-112v100q-108 13 -178 76l74 116q76 -56 138 -56q37 0 53.5 13.5t16.5 42.5q0 22 -26.5 41t-64.5 37.5 t-76 41t-64.5 60t-26.5 86.5q0 76 40.5 126t113.5 66v104h112v-102q84 -13 151 -84z" />
<glyph unicode="%" horiz-adv-x="870" d="M190 248q-74 0 -121 56t-47 152q0 95 47 150.5t121 55.5t121 -55.5t47 -150.5q0 -96 -47 -152t-121 -56zM190 342q50 0 50 114q0 112 -50 112t-50 -112q0 -114 50 -114zM310 -12h-96l348 674h96zM680 -12q-74 0 -121 56t-47 152q0 95 47 150.5t121 55.5t121 -55.5 t47 -150.5q0 -96 -47 -152t-121 -56zM680 82q50 0 50 114q0 112 -50 112t-50 -112q0 -114 50 -114z" />
<glyph unicode="&#x26;" horiz-adv-x="690" d="M184 186q0 -30 22.5 -49t61.5 -19q29 0 64 16q-68 54 -118 113q-30 -32 -30 -61zM239 486q0 -30 18 -65q71 42 71 87q0 42 -38 42q-21 0 -36 -17t-15 -47zM670 126l-40 -138q-84 15 -174 63q-92 -63 -210 -63q-107 0 -165.5 54.5t-58.5 133.5q0 111 115 181 q-39 70 -39 129q0 73 52 124.5t136 51.5q78 0 125 -42t47 -112q0 -58 -35 -100t-95 -81q46 -49 114 -97q49 65 70 144h156q-36 -119 -106 -213q59 -29 108 -35z" />
<glyph unicode="'" horiz-adv-x="320" d="M114 324l-34 212l-6 148h172l-6 -148l-34 -212h-92z" />
<glyph unicode="(" horiz-adv-x="360" d="M200 -180q-132 217 -132 458t132 458l108 -44q-102 -184 -102 -414t102 -414z" />
<glyph unicode=")" horiz-adv-x="360" d="M52 -136q102 184 102 414t-102 414l108 44q132 -217 132 -458t-132 -458z" />
<glyph unicode="*" horiz-adv-x="472" d="M152 321l-70 51l60 107l-112 52l27 83l121 -24l14 122h88l14 -123l121 25l27 -83l-113 -52l61 -107l-70 -51l-84 91z" />
<glyph unicode="+" horiz-adv-x="540" d="M208 90v180h-174v120h174v180h124v-180h174v-120h-174v-180h-124z" />
<glyph unicode="," horiz-adv-x="320" d="M80 -204l-34 90q59 19 90 51.5t31 70.5h-7q-41 0 -70.5 25.5t-29.5 68.5q0 41 30 67.5t74 26.5q55 0 84.5 -41t29.5 -115q0 -90 -51 -153.5t-147 -90.5z" />
<glyph unicode="-" horiz-adv-x="340" d="M44 194v120h252v-120h-252z" />
<glyph unicode="." horiz-adv-x="320" d="M60 92q0 44 28.5 74t71.5 30t71.5 -30t28.5 -74t-28.5 -74t-71.5 -30t-71.5 30t-28.5 74z" />
<glyph unicode="/" horiz-adv-x="334" d="M14 -160l176 870h110l-176 -870h-110z" />
<glyph unicode="0" horiz-adv-x="540" d="M270 -12q-108 0 -172 86.5t-64 245.5t64 242.5t172 83.5t172 -84t64 -242q0 -159 -64 -245.5t-172 -86.5zM270 120q35 0 54.5 42t19.5 158q0 80 -11 124.5t-25.5 57t-37.5 12.5t-37.5 -12.5t-25.5 -57t-11 -124.5q0 -116 19.5 -158t54.5 -42z" />
<glyph unicode="1" horiz-adv-x="540" d="M66 0v138h136v328h-120v106q97 19 166 62h126v-496h114v-138h-422z" />
<glyph unicode="2" horiz-adv-x="540" d="M36 0v98q60 55 87 80.5t69.5 68.5t61 69t33.5 56.5t15 55.5q0 41 -21 62.5t-57 21.5q-44 0 -104 -60l-92 92q51 54 101 78t119 24q97 0 157.5 -57t60.5 -151q0 -116 -182 -302q64 8 106 8h106v-144h-460z" />
<glyph unicode="3" horiz-adv-x="540" d="M20 78l78 108q65 -60 130 -60q92 0 92 60q0 39 -32 57.5t-126 18.5v120q76 0 107 18.5t31 53.5q0 58 -66 58q-51 0 -112 -52l-86 104q98 82 206 82q106 0 168 -47t62 -132q0 -92 -102 -137v-4q57 -17 89.5 -55.5t32.5 -96.5q0 -87 -71 -136.5t-175 -49.5q-149 0 -226 90z " />
<glyph unicode="4" horiz-adv-x="540" d="M182 272h108v72q0 21 6 150h-4q-16 -38 -52 -114zM518 272v-130h-68v-142h-160v142h-270v120l216 372h214v-362h68z" />
<glyph unicode="5" horiz-adv-x="540" d="M22 78l76 108q67 -60 128 -60q94 0 94 82q0 39 -23.5 60.5t-62.5 21.5q-25 0 -42 -6t-46 -24l-74 48l16 326h376v-144h-228l-8 -92q27 10 60 10q88 0 146 -50t58 -146q0 -103 -69.5 -163.5t-170.5 -60.5q-140 0 -230 90z" />
<glyph unicode="6" horiz-adv-x="540" d="M282 116q68 0 68 88q0 76 -70 76q-49 0 -81 -54q17 -110 83 -110zM498 566l-90 -102q-16 18 -43 31t-53 13q-109 0 -117 -171q22 29 56.5 46t62.5 17q86 0 139 -49t53 -147q0 -99 -63.5 -157.5t-156.5 -58.5q-103 0 -175.5 79t-72.5 239q0 163 76 251.5t186 88.5 q118 0 198 -80z" />
<glyph unicode="7" horiz-adv-x="540" d="M152 0q9 156 44 264t120 226h-272v144h454v-106q-54 -64 -86.5 -118t-50.5 -119.5t-25 -125.5t-12 -165h-172z" />
<glyph unicode="8" horiz-adv-x="540" d="M189 182q0 -36 24 -56t59 -20q69 0 69 66q0 14 -6 25t-13.5 19t-26.5 18t-31 15.5t-42 18.5q-33 -38 -33 -86zM306 378q28 40 28 80q0 33 -17 51.5t-47 18.5q-25 0 -41.5 -15.5t-16.5 -46.5q0 -30 22.5 -49t71.5 -39zM42 162q0 95 104 150v4q-84 64 -84 150 q0 83 59 131.5t153 48.5q89 0 143.5 -48t54.5 -128q0 -81 -81 -133v-4q109 -58 109 -167q0 -77 -64.5 -127.5t-167.5 -50.5q-98 0 -162 48.5t-64 125.5z" />
<glyph unicode="9" horiz-adv-x="540" d="M258 354q49 0 81 54q-17 110 -83 110q-68 0 -68 -88q0 -76 70 -76zM40 68l90 102q16 -18 43 -31t53 -13q109 0 117 171q-22 -29 -56.5 -46t-62.5 -17q-86 0 -139 49t-53 147q0 99 63.5 157.5t156.5 58.5q103 0 175.5 -79t72.5 -239q0 -163 -76 -251.5t-186 -88.5 q-118 0 -198 80z" />
<glyph unicode=":" horiz-adv-x="320" d="M60 402q0 44 28.5 74t71.5 30t71.5 -30t28.5 -74t-28.5 -74t-71.5 -30t-71.5 30t-28.5 74zM60 92q0 44 28.5 74t71.5 30t71.5 -30t28.5 -74t-28.5 -74t-71.5 -30t-71.5 30t-28.5 74z" />
<glyph unicode=";" horiz-adv-x="320" d="M160 298q-43 0 -71.5 30t-28.5 74t28.5 74t71.5 30t71.5 -30t28.5 -74t-28.5 -74t-71.5 -30zM80 -204l-34 90q59 19 90 51.5t31 70.5h-7q-41 0 -70.5 25.5t-29.5 68.5q0 41 30 67.5t74 26.5q55 0 84.5 -41t29.5 -115q0 -90 -51 -153.5t-147 -90.5z" />
<glyph unicode="&#x3c;" horiz-adv-x="540" d="M34 274v116l472 180v-140l-162 -50l-136 -46v-4l136 -46l162 -50v-140z" />
<glyph unicode="=" horiz-adv-x="540" d="M34 390v120h472v-120h-472zM34 150v120h472v-120h-472z" />
<glyph unicode="&#x3e;" horiz-adv-x="540" d="M506 390v-116l-472 -180v140l162 50l136 46v4l-136 46l-162 50v140z" />
<glyph unicode="?" horiz-adv-x="478" d="M152 244q-6 36 4.5 69t29.5 57t39 45t34.5 41.5t14.5 37.5q0 50 -56 50q-36 0 -82 -42l-94 86q79 94 188 94q93 0 150.5 -43t57.5 -133q0 -33 -15 -62t-36 -51t-41.5 -43.5t-33.5 -48.5t-10 -57h-150zM126 92q0 44 28.5 74t71.5 30t71.5 -30t28.5 -74t-28.5 -74 t-71.5 -30t-71.5 30t-28.5 74z" />
<glyph unicode="@" horiz-adv-x="924" d="M48 206q0 138 63 247t168.5 167t232.5 58q165 0 264.5 -102t99.5 -264q0 -130 -73 -204t-165 -74q-45 0 -78 20.5t-42 55.5h-2q-19 -29 -54 -47.5t-66 -18.5q-61 0 -98.5 42.5t-37.5 111.5q0 98 61 174t145 76q52 0 74 -50h2l16 42h104l-48 -228q-18 -74 42 -74 q47 0 80.5 48t33.5 122q0 54 -14.5 100t-45 84.5t-85 61t-127.5 22.5q-132 0 -234 -103t-102 -263q0 -140 84 -213t206 -73q76 0 148 36l36 -92q-89 -46 -198 -46q-78 0 -146.5 23.5t-124 69t-87.5 120.5t-32 171zM388 208q0 -58 46 -58q27 0 56 40l22 126q-12 24 -40 24 q-36 0 -60 -43t-24 -89z" />
<glyph unicode="A" horiz-adv-x="584" d="M229 271h120l-11 45q-9 34 -25 105.5t-23 100.5h-4q-33 -156 -46 -206zM412 0l-32 138h-182l-32 -138h-176l198 650h208l198 -650h-182z" />
<glyph unicode="B" horiz-adv-x="612" d="M72 0v650h234q246 0 246 -162q0 -46 -27.5 -86t-80.5 -54v-4q138 -27 138 -152q0 -96 -72 -144t-184 -48h-254zM244 394h58q41 0 61.5 18.5t20.5 49.5q0 30 -20 43t-62 13h-58v-124zM244 132h70q100 0 100 74q0 36 -24.5 52t-75.5 16h-70v-142z" />
<glyph unicode="C" horiz-adv-x="586" d="M44 320q0 157 93 249.5t225 92.5q112 0 198 -86l-94 -106q-50 44 -102 44q-61 0 -102.5 -51t-41.5 -137q0 -90 38 -140t102 -50q65 0 114 52l94 -104q-83 -96 -210 -96q-135 0 -224.5 86.5t-89.5 245.5z" />
<glyph unicode="D" horiz-adv-x="642" d="M72 0v650h192q156 0 245 -78t89 -244t-87.5 -247t-236.5 -81h-202zM244 138h10q79 0 123.5 42t44.5 148q0 105 -44 144.5t-124 39.5h-10v-374z" />
<glyph unicode="E" horiz-adv-x="556" d="M72 0v650h420v-144h-248v-102h212v-144h-212v-116h258v-144h-430z" />
<glyph unicode="F" horiz-adv-x="536" d="M72 0v650h424v-144h-252v-124h216v-144h-216v-238h-172z" />
<glyph unicode="G" horiz-adv-x="646" d="M44 320q0 158 94.5 250t233.5 92q122 0 208 -86l-94 -106q-50 44 -112 44q-68 0 -111 -50.5t-43 -137.5q0 -190 170 -190q32 0 50 12v90h-96v140h248v-310q-38 -35 -98 -57.5t-126 -22.5q-141 0 -232.5 86t-91.5 246z" />
<glyph unicode="H" horiz-adv-x="682" d="M72 0v650h172v-242h194v242h172v-650h-172v258h-194v-258h-172z" />
<glyph unicode="I" horiz-adv-x="316" d="M72 0v650h172v-650h-172z" />
<glyph unicode="J" horiz-adv-x="520" d="M10 111l116 87q32 -62 82 -62q37 0 54.5 22.5t17.5 81.5v410h172v-424q0 -104 -56.5 -171t-163.5 -67q-151 0 -222 123z" />
<glyph unicode="K" horiz-adv-x="628" d="M72 0v650h172v-242h4l164 242h188l-194 -264l232 -386h-188l-144 250l-62 -88v-162h-172z" />
<glyph unicode="L" horiz-adv-x="530" d="M72 0v650h172v-506h246v-144h-418z" />
<glyph unicode="M" horiz-adv-x="776" d="M72 0v650h178l102 -270l36 -106h4l36 106l98 270h178v-650h-160v192q0 53 22 232h-4l-54 -152l-90 -219h-64l-90 219l-52 152h-4q22 -179 22 -232v-192h-158z" />
<glyph unicode="N" horiz-adv-x="672" d="M72 0v650h176l144 -290l62 -146h4q-22 192 -22 248v188h164v-650h-176l-144 291l-62 145h-4q2 -16 6.5 -57t7.5 -66.5t5.5 -61t2.5 -63.5v-188h-164z" />
<glyph unicode="O" horiz-adv-x="692" d="M346 -12q-137 0 -219.5 91t-82.5 249t82.5 246t219.5 88t219.5 -88.5t82.5 -245.5q0 -158 -82.5 -249t-219.5 -91zM346 136q58 0 92 51.5t34 140.5q0 88 -33.5 137t-92.5 49t-92.5 -49t-33.5 -137q0 -89 34 -140.5t92 -51.5z" />
<glyph unicode="P" horiz-adv-x="618" d="M72 0v650h252q55 0 100 -11t82 -35t57.5 -67.5t20.5 -102.5q0 -76 -37.5 -129t-94.5 -76t-128 -23h-80v-206h-172zM244 342h72q100 0 100 92q0 80 -100 80h-72v-172z" />
<glyph unicode="Q" horiz-adv-x="692" d="M346 514q-59 0 -92.5 -49t-33.5 -137q0 -95 33.5 -147.5t92.5 -52.5t92.5 52.5t33.5 147.5q0 88 -33.5 137t-92.5 49zM660 -36l30 -124q-45 -24 -124 -24q-106 0 -182.5 49t-115.5 132q-104 24 -164 110.5t-60 220.5q0 158 82.5 246t219.5 88t219.5 -88.5t82.5 -245.5 q0 -125 -53 -209t-146 -115q38 -52 137 -52q40 0 74 12z" />
<glyph unicode="R" horiz-adv-x="630" d="M244 514v-160h62q104 0 104 86q0 41 -25.5 57.5t-78.5 16.5h-62zM614 0h-192l-112 218h-66v-218h-172v650h246q260 0 260 -210q0 -131 -105 -188z" />
<glyph unicode="S" horiz-adv-x="564" d="M32 81l98 118q78 -63 152 -63t74 46q0 28 -74 57q-9 4 -14 6l-81 34q-58 23 -94.5 69t-36.5 112q0 85 68.5 143.5t173.5 58.5q58 0 115.5 -22t100.5 -65l-86 -108q-67 47 -130 47q-68 0 -68 -44q0 -19 18 -30.5t62 -28.5q10 -4 16 -6l79 -31q127 -50 127 -178 q0 -87 -68.5 -147.5t-185.5 -60.5q-64 0 -129.5 23.5t-116.5 69.5z" />
<glyph unicode="T" horiz-adv-x="564" d="M196 0v506h-172v144h516v-144h-172v-506h-172z" />
<glyph unicode="U" horiz-adv-x="672" d="M68 314v336h172v-356q0 -86 23 -122t75 -36t76 36.5t24 121.5v356h166v-336q0 -167 -65 -246.5t-201 -79.5q-137 0 -203.5 80t-66.5 246z" />
<glyph unicode="V" horiz-adv-x="572" d="M182 0l-192 650h182l68 -284q9 -35 24 -103.5t24 -102.5h4q10 38 25.5 107t22.5 99l66 284h176l-192 -650h-208z" />
<glyph unicode="W" horiz-adv-x="824" d="M124 0l-114 650h176l36 -284q4 -34 11.5 -102t10.5 -102h4q4 23 11.5 64.5t13.5 75.5t11 64l62 284h144l62 -284q9 -49 36 -204h4q4 39 12 110.5t10 93.5l36 284h164l-108 -650h-218l-50 258q-13 67 -24 152h-4q-17 -118 -24 -152l-48 -258h-214z" />
<glyph unicode="X" horiz-adv-x="588" d="M10 0l176 334l-166 316h192l44 -106q6 -13 13.5 -30t16.5 -40t16 -38h4q16 48 40 108l38 106h184l-166 -324l176 -326h-192l-52 116q-19 40 -46 108h-4q-14 -40 -42 -108l-48 -116h-184z" />
<glyph unicode="Y" horiz-adv-x="544" d="M186 0v224l-196 426h184l48 -136q9 -27 25.5 -75.5t23.5 -69.5h4q10 29 27.5 79t23.5 66l48 136h180l-196 -426v-224h-172z" />
<glyph unicode="Z" horiz-adv-x="542" d="M32 0v104l266 402h-240v144h452v-104l-266 -402h268v-144h-480z" />
<glyph unicode="[" horiz-adv-x="360" d="M84 -152v860h224v-90h-96v-680h96v-90h-224z" />
<glyph unicode="\" horiz-adv-x="334" d="M210 -160l-176 870h110l176 -870h-110z" />
<glyph unicode="]" horiz-adv-x="360" d="M52 -62h96v680h-96v90h224v-860h-224v90z" />
<glyph unicode="^" horiz-adv-x="540" d="M46 270l156 400h136l156 -400h-140l-38 110l-44 136h-4l-44 -136l-38 -110h-140z" />
<glyph unicode="_" horiz-adv-x="500" d="M12 -52h476v-94h-476v94z" />
<glyph unicode="`" horiz-adv-x="560" d="M244 574l-128 154h164l88 -154h-124z" />
<glyph unicode="a" horiz-adv-x="542" d="M42 142q0 79 64.5 123t207.5 59q-6 52 -70 52q-48 0 -126 -42l-60 112q110 66 220 66q208 0 208 -234v-278h-140l-12 48h-4q-67 -60 -138 -60q-68 0 -109 45t-41 109zM206 156q0 -36 46 -36q31 0 62 34v68q-108 -16 -108 -66z" />
<glyph unicode="b" horiz-adv-x="580" d="M58 0v696h172v-162l-4 -72q55 50 123 50q88 0 141.5 -69t53.5 -184q0 -124 -62 -197.5t-146 -73.5q-69 0 -126 66h-4l-14 -54h-134zM230 152q27 -24 64 -24q74 0 74 128q0 116 -70 116q-38 0 -68 -36v-184z" />
<glyph unicode="c" horiz-adv-x="472" d="M32 250q0 120 78 191t190 71q90 0 146 -56l-78 -106q-29 24 -58 24q-48 0 -75 -33.5t-27 -90.5q0 -56 27.5 -90t68.5 -34q36 0 80 32l68 -108q-70 -62 -168 -62q-110 0 -181 70.5t-71 191.5z" />
<glyph unicode="d" horiz-adv-x="580" d="M36 250q0 118 61.5 190t142.5 72q66 0 116 -50l-6 72v162h172v-696h-140l-12 46h-4q-58 -58 -126 -58q-93 0 -148.5 70.5t-55.5 191.5zM212 252q0 -124 74 -124q41 0 64 36v184q-27 24 -68 24q-30 0 -50 -29t-20 -91z" />
<glyph unicode="e" horiz-adv-x="526" d="M32 250q0 117 72 189.5t168 72.5q106 0 162 -68t56 -174q0 -40 -7 -68h-285q21 -84 116 -84q48 0 102 30l56 -102q-82 -58 -182 -58q-113 0 -185.5 70.5t-72.5 191.5zM196 306h148q0 76 -68 76q-66 0 -80 -76z" />
<glyph unicode="f" horiz-adv-x="360" d="M392 690l-30 -126q-27 10 -50 10q-52 0 -52 -62v-12h84v-134h-84v-366h-172v366h-66v128l66 5v7q0 89 47 145.5t151 56.5q57 0 106 -18z" />
<glyph unicode="g" horiz-adv-x="546" d="M170 -54q0 -46 98 -46q43 0 70.5 12.5t27.5 33.5q0 18 -15.5 24t-51.5 6h-39q-51 0 -72 6q-18 -18 -18 -36zM30 -82q0 59 70 96v4q-46 32 -46 86t56 94v4q-29 20 -48.5 53.5t-19.5 74.5q0 88 62.5 135t151.5 47q44 0 80 -12h186v-124h-72q8 -24 8 -52q0 -84 -56 -125 t-146 -41q-25 0 -56 7q-12 -11 -12 -29q0 -16 16 -23t54 -7h75q197 0 197 -130q0 -82 -79 -132t-211 -50q-93 0 -151.5 30t-58.5 94zM256 260q54 0 54 70q0 33 -14.5 50.5t-39.5 17.5t-39.5 -17.5t-14.5 -50.5q0 -70 54 -70z" />
<glyph unicode="h" horiz-adv-x="582" d="M58 0v696h172v-162l-8 -86q73 64 150 64q156 0 156 -204v-308h-172v286q0 46 -11.5 63t-38.5 17q-35 0 -76 -38v-328h-172z" />
<glyph unicode="i" horiz-adv-x="288" d="M144 562q-42 0 -69 24t-27 62t27 62t69 24t69 -24t27 -62t-27 -62t-69 -24zM58 0v500h172v-500h-172z" />
<glyph unicode="j" horiz-adv-x="290" d="M60 20v480h172v-474q0 -95 -45 -154.5t-149 -59.5q-56 0 -94 14l30 126q21 -6 36 -6q27 0 38.5 17t11.5 57zM146 562q-42 0 -69 24t-27 62t27 62t69 24t69 -24t27 -62t-27 -62t-69 -24z" />
<glyph unicode="k" horiz-adv-x="568" d="M58 0v696h168v-370h4l138 174h186l-178 -208l188 -292h-186l-100 178l-52 -58v-120h-168z" />
<glyph unicode="l" horiz-adv-x="298" d="M58 176v520h172v-526q0 -23 8.5 -33.5t19.5 -10.5q10 0 18 2l20 -126q-32 -14 -84 -14q-154 0 -154 188z" />
<glyph unicode="m" horiz-adv-x="868" d="M58 0v500h140l12 -61h4q36 35 70 54t80 19q96 0 138 -80q37 38 72.5 59t81.5 21q80 0 119 -54t39 -150v-308h-172v286q0 46 -11.5 63t-38.5 17q-32 0 -70 -38v-328h-172v286q0 46 -11.5 63t-38.5 17q-32 0 -70 -38v-328h-172z" />
<glyph unicode="n" horiz-adv-x="582" d="M58 0v500h140l12 -60h4q76 72 158 72q156 0 156 -204v-308h-172v286q0 46 -11.5 63t-38.5 17q-35 0 -76 -38v-328h-172z" />
<glyph unicode="o" horiz-adv-x="560" d="M32 250q0 119 73.5 190.5t174.5 71.5t174.5 -71.5t73.5 -190.5t-73.5 -190.5t-174.5 -71.5t-174.5 71.5t-73.5 190.5zM208 250q0 -124 72 -124t72 124t-72 124t-72 -124z" />
<glyph unicode="p" horiz-adv-x="580" d="M224 38l6 -76v-138h-172v676h140l12 -46h4q63 58 136 58q88 0 141 -69t53 -185q0 -123 -62 -196.5t-146 -73.5q-62 0 -112 50zM230 152q27 -24 64 -24q74 0 74 128q0 116 -70 116q-38 0 -68 -36v-184z" />
<glyph unicode="q" horiz-adv-x="580" d="M36 250q0 118 61.5 190t142.5 72q76 0 130 -62h4l14 50h134v-676h-172v143l6 71q-50 -50 -116 -50q-93 0 -148.5 70.5t-55.5 191.5zM212 252q0 -124 74 -124q41 0 64 36v184q-27 24 -68 24q-30 0 -50 -29t-20 -91z" />
<glyph unicode="r" horiz-adv-x="418" d="M58 0v500h140l12 -86h4q26 49 64.5 73.5t77.5 24.5t62 -10l-28 -148q-36 8 -56 8q-30 0 -58.5 -20.5t-45.5 -63.5v-278h-172z" />
<glyph unicode="s" horiz-adv-x="452" d="M18 58l76 106q68 -50 122 -50q50 0 50 30q0 7 -4.5 13.5t-16 13t-19 10t-28 11t-28.5 10.5q-126 50 -126 148q0 73 54.5 117.5t143.5 44.5q96 0 184 -66l-76 -102q-58 42 -102 42t-44 -28q0 -5 2.5 -10t8 -9t10.5 -7.5t15 -7t17 -6t20 -7t21 -7.5q128 -47 128 -150 q0 -73 -56 -119.5t-158 -46.5q-48 0 -101.5 19.5t-92.5 50.5z" />
<glyph unicode="t" horiz-adv-x="400" d="M80 192v174h-66v128l76 6l20 130h142v-130h114v-134h-114v-171q0 -73 60 -73q20 0 44 8l26 -124q-58 -18 -118 -18q-94 0 -139 54t-45 150z" />
<glyph unicode="u" horiz-adv-x="578" d="M54 192v308h172v-286q0 -46 11.5 -63t38.5 -17q42 0 72 44v322h172v-500h-140l-12 66h-4q-65 -78 -154 -78q-156 0 -156 204z" />
<glyph unicode="v" horiz-adv-x="544" d="M176 0l-164 500h172l54 -218q18 -75 36 -156h4q18 81 36 156l54 218h164l-158 -500h-198z" />
<glyph unicode="w" horiz-adv-x="798" d="M144 0l-120 500h170l38 -210q4 -26 10 -76.5t10 -75.5h4q16 104 28 152l46 210h146l48 -210q4 -16 30 -152h4q4 25 10 75.5t10 76.5l38 210h158l-114 -500h-200l-36 174q-16 92 -24 147h-4q-18 -125 -22 -147l-34 -174h-196z" />
<glyph unicode="x" horiz-adv-x="540" d="M14 0l150 260l-142 240h184l36 -70q6 -14 19.5 -43t20.5 -43h4q4 14 14.5 43t15.5 43l24 70h178l-142 -260l150 -240h-184l-40 70q-8 14 -22.5 43l-21.5 43h-4q-3 -7 -15.5 -38t-18.5 -48l-28 -70h-178z" />
<glyph unicode="y" horiz-adv-x="542" d="M86 -48q27 -6 32 -6q61 0 78 50l6 22l-190 482h172l60 -192q9 -30 36 -142h4q18 84 32 142l50 192h164l-168 -492q-41 -106 -90.5 -151t-139.5 -45q-39 0 -76 10z" />
<glyph unicode="z" horiz-adv-x="474" d="M40 0v92l190 274h-168v134h382v-92l-190 -274h196v-134h-410z" />
<glyph unicode="{" horiz-adv-x="360" d="M292 -62h16v-90h-70q-70 0 -101 32.5t-31 113.5q0 36 5 84t5 78q0 29 -21 50t-65 22v100q44 1 65 22t21 50q0 30 -5 78t-5 84q0 81 31 113.5t101 32.5h70v-90h-16q-28 0 -38 -12t-10 -50q0 -25 2 -75.5t2 -80.5q0 -58 -19 -84.5t-61 -35.5v-4q42 -9 61 -35.5t19 -84.5 q0 -30 -2 -80.5t-2 -75.5q0 -38 10 -50t38 -12z" />
<glyph unicode="|" horiz-adv-x="278" d="M84 -250v1000h110v-1000h-110z" />
<glyph unicode="}" horiz-adv-x="360" d="M52 -62h16q28 0 38 12t10 50q0 25 -2 75.5t-2 80.5q0 58 19 84.5t61 35.5v4q-42 9 -61 35.5t-19 84.5q0 30 2 80.5t2 75.5q0 38 -10 50t-38 12h-16v90h70q70 0 101 -32.5t31 -113.5q0 -36 -5 -84t-5 -78q0 -29 21 -50t65 -22v-100q-44 -1 -65 -22t-21 -50q0 -30 5 -78 t5 -84q0 -81 -31 -113.5t-101 -32.5h-70v90z" />
<glyph unicode="~" horiz-adv-x="540" d="M114 250l-88 68q73 108 160 108q36 0 67 -18t56 -36t47 -18q37 0 70 56l88 -68q-73 -108 -160 -108q-36 0 -67 18t-56 36t-47 18q-37 0 -70 -56z" />
<glyph unicode="&#xa1;" horiz-adv-x="360" d="M236 256l24 -278l6 -148h-172l6 148l24 278h112zM280 408q0 -44 -28.5 -74t-71.5 -30t-71.5 30t-28.5 74t28.5 74t71.5 30t71.5 -30t28.5 -74z" />
<glyph unicode="&#xa2;" horiz-adv-x="540" d="M280 199v214q-54 -29 -54 -107q0 -76 54 -107zM432 214l68 -108q-54 -47 -128 -59v-91h-92v91q-102 14 -161 82t-59 177q0 104 60.5 171t159.5 85v94h92v-89q74 -7 122 -55l-78 -106q-23 18 -44 23v-245q29 6 60 30z" />
<glyph unicode="&#xa3;" horiz-adv-x="540" d="M264 148v-4h250v-144h-468v106q46 20 76 57.5t30 86.5q0 11 -1 16h-99v98l68 6h2q-12 38 -12 62q0 97 63 155.5t161 58.5q108 0 180 -84l-92 -92q-32 38 -70 38q-78 0 -78 -86q0 -16 6 -52h144v-104h-123q1 -6 1 -18q0 -54 -38 -100z" />
<glyph unicode="&#xa4;" horiz-adv-x="540" d="M102 76l-85 85l60 60q-33 47 -33 109q0 61 32 107l-59 60l85 85l70 -70q48 20 98 20t98 -20l70 70l85 -85l-60 -60q33 -46 33 -107q0 -60 -34 -109l61 -60l-85 -85l-71 71q-45 -19 -97 -19t-97 19zM196 330q0 -38 21 -61t53 -23t53 23t21 61t-21 61t-53 23t-53 -23 t-21 -61z" />
<glyph unicode="&#xa5;" horiz-adv-x="540" d="M8 634h176l40 -118q30 -88 46 -130h4q7 22 22.5 65t23.5 65l40 118h172l-140 -282h114v-80h-150v-50h150v-80h-150v-142h-172v142h-150v80h150v50h-150v80h114z" />
<glyph unicode="&#xa6;" horiz-adv-x="278" d="M84 320v430h110v-430h-110zM84 200h110v-450h-110v450z" />
<glyph unicode="&#xa7;" horiz-adv-x="540" d="M178 332q0 -19 16 -35t34 -25.5t54.5 -25.5t54.5 -25q25 19 25 49q0 15 -8.5 28t-26.5 24t-34.5 18.5t-45 19.5t-44.5 20q-25 -19 -25 -48zM462 624l-78 -106q-55 48 -102 48q-44 0 -44 -30q0 -15 27.5 -30t67 -32t79 -39t67 -61.5t27.5 -89.5q0 -83 -81 -135 q21 -32 21 -75q0 -74 -52.5 -120t-151.5 -46q-59 0 -114 23t-88 67l98 86q47 -50 104 -50q50 0 50 32q0 17 -26.5 32t-64.5 31t-76 37.5t-64.5 61t-26.5 92.5q0 35 20.5 69.5t56.5 57.5q-27 35 -27 83q0 74 50.5 118t137.5 44q103 0 190 -68z" />
<glyph unicode="&#xa8;" horiz-adv-x="560" d="M176 564q-34 0 -56 22.5t-22 55.5t22 55.5t56 22.5t56 -22.5t22 -55.5t-22 -55.5t-56 -22.5zM384 564q-34 0 -56 22.5t-22 55.5t22 55.5t56 22.5t56 -22.5t22 -55.5t-22 -55.5t-56 -22.5z" />
<glyph unicode="&#xa9;" horiz-adv-x="752" d="M44 326q0 151 96.5 240.5t235.5 89.5t235.5 -90t96.5 -240q0 -151 -96.5 -242.5t-235.5 -91.5t-235.5 91.5t-96.5 242.5zM120 326q0 -119 72.5 -192.5t183.5 -73.5t183.5 73.5t72.5 192.5q0 118 -72.5 190t-183.5 72t-183.5 -72t-72.5 -190zM192 324q0 86 58 140t138 54 q76 0 136 -60l-63 -70q-30 32 -61 32q-42 0 -64.5 -27.5t-22.5 -68.5q0 -45 22 -71.5t59 -26.5q32 0 72 30l54 -78q-63 -50 -130 -50q-88 0 -143 53.5t-55 142.5z" />
<glyph unicode="&#xaa;" horiz-adv-x="364" d="M128 252q-46 0 -74 30t-28 72q0 53 43.5 82t138.5 38q-4 32 -44 32q-32 0 -86 -28l-42 78q75 44 150 44q67 0 104.5 -38.5t37.5 -115.5v-186h-96l-10 32h-4q-40 -40 -90 -40zM169 342q19 0 39 20v44q-68 -8 -68 -42q0 -22 29 -22z" />
<glyph unicode="&#xab;" horiz-adv-x="500" d="M184 52l-134 140v120l134 140l62 -50l-108 -150l108 -150zM384 52l-134 140v120l134 140l62 -50l-108 -150l108 -150z" />
<glyph unicode="&#xac;" horiz-adv-x="540" d="M34 270v120h472v-300h-124v180h-348z" />
<glyph unicode="&#xad;" horiz-adv-x="340" d="M44 194v120h252v-120h-252z" />
<glyph unicode="&#xae;" horiz-adv-x="477" d="M238 308q-85 0 -143.5 58t-58.5 146t58.5 146t143.5 58t143.5 -58t58.5 -146t-58.5 -146t-143.5 -58zM238 362q64 0 103 41t39 109t-39 109t-103 41t-103 -41t-39 -109t39 -109t103 -41zM154 416v194h94q37 0 59.5 -17t22.5 -49q0 -37 -34 -54l40 -74h-66l-28 56h-24v-56 h-64zM218 515h18q13 0 19.5 7.5t6.5 17.5t-7 16.5t-19 6.5h-18v-48z" />
<glyph unicode="&#xaf;" horiz-adv-x="560" d="M136 588v108h288v-108h-288z" />
<glyph unicode="&#xb0;" horiz-adv-x="378" d="M190 386q-65 0 -108.5 43t-43.5 107t43.5 107t108.5 43t108.5 -43t43.5 -107t-43.5 -107t-108.5 -43zM190 466q29 0 46.5 19.5t17.5 50.5t-17.5 50.5t-46.5 19.5t-46.5 -19.5t-17.5 -50.5t17.5 -50.5t46.5 -19.5z" />
<glyph unicode="&#xb1;" horiz-adv-x="540" d="M208 170v120h-174v120h174v160h124v-160h174v-120h-174v-120h-124zM34 0v120h472v-120h-472z" />
<glyph unicode="&#xb2;" horiz-adv-x="380" d="M42 440v66q81 63 123.5 106.5t42.5 73.5q0 54 -50 54q-31 0 -66 -44l-70 64q64 82 156 82q68 0 109 -36t41 -98q0 -28 -14.5 -59t-29.5 -51t-44 -54h100v-104h-298z" />
<glyph unicode="&#xb3;" horiz-adv-x="380" d="M24 508l74 58q33 -44 76 -44q21 0 34.5 10t13.5 28q0 44 -82 44v70q68 0 68 40q0 34 -40 34q-29 0 -58 -36l-70 62q35 37 69 52.5t81 15.5q58 0 99 -30.5t41 -79.5q0 -54 -52 -88q66 -31 66 -94q0 -53 -46.5 -87.5t-109.5 -34.5q-111 0 -164 80z" />
<glyph unicode="&#xb4;" horiz-adv-x="560" d="M444 728l-128 -154h-124l88 154h164z" />
<glyph unicode="&#xb5;" horiz-adv-x="582" d="M58 -200v700h172v-286q0 -46 11.5 -63t38.5 -17q42 0 72 44v322h172v-500h-140l-12 66h-4q-30 -68 -98 -68q-34 0 -50 14l10 -90v-122h-172z" />
<glyph unicode="&#xb6;" horiz-adv-x="666" d="M398 -80v730h172v-730h-172zM298 186q-110 0 -185 63t-75 175q0 120 71.5 173t188.5 53h44v-464h-44z" />
<glyph unicode="&#xb7;" horiz-adv-x="320" d="M60 320q0 44 28.5 74t71.5 30t71.5 -30t28.5 -74t-28.5 -74t-71.5 -30t-71.5 30t-28.5 74z" />
<glyph unicode="&#xb8;" horiz-adv-x="560" d="M194 -76l40 80h98l-18 -44q58 -20 58 -76q0 -51 -53.5 -78t-136.5 -30l-12 66q80 7 80 42q0 25 -56 40z" />
<glyph unicode="&#xb9;" horiz-adv-x="380" d="M162 440v270h-90v76q66 9 118 44h98v-390h-126z" />
<glyph unicode="&#xba;" horiz-adv-x="376" d="M188 252q-68 0 -117 47.5t-49 125.5q0 79 49 127t117 48t117 -48t49 -127q0 -78 -49 -125.5t-117 -47.5zM188 346q44 0 44 79q0 81 -44 81t-44 -81q0 -79 44 -79z" />
<glyph unicode="&#xbb;" horiz-adv-x="500" d="M54 102l108 150l-108 150l62 50l134 -140v-120l-134 -140zM254 102l108 150l-108 150l62 50l134 -140v-120l-134 -140z" />
<glyph unicode="&#xbc;" horiz-adv-x="820" d="M256 260h-126v270h-90v76q66 9 118 44h98v-390zM536 662h96l-348 -674h-96zM584 160h68v30l6 120h-4l-36 -76zM820 160v-80h-58v-80h-110v80h-180v62l132 248h158v-230h58z" />
<glyph unicode="&#xbd;" horiz-adv-x="860" d="M130 260v270h-90v76q66 9 118 44h98v-390h-126zM270 -12h-96l348 674h96zM522 0v66q81 63 123.5 106.5t42.5 73.5q0 54 -50 54q-31 0 -66 -44l-70 64q64 82 156 82q68 0 109 -36t41 -98q0 -28 -14.5 -59t-29.5 -51t-44 -54h100v-104h-298z" />
<glyph unicode="&#xbe;" horiz-adv-x="826" d="M106 532l-70 62q35 37 69 52.5t81 15.5q58 0 99 -30.5t41 -79.5q0 -54 -52 -88q66 -31 66 -94q0 -53 -46.5 -87.5t-109.5 -34.5q-111 0 -164 80l74 58q33 -44 76 -44q21 0 34.5 10t13.5 28q0 44 -82 44v70q68 0 68 40q0 34 -40 34q-29 0 -58 -36zM552 662h96l-348 -674 h-96zM590 160h68v30l6 120h-4l-36 -76zM826 160v-80h-58v-80h-110v80h-180v62l132 248h158v-230h58z" />
<glyph unicode="&#xbf;" horiz-adv-x="478" d="M326 256q6 -36 -4.5 -69t-29.5 -57t-39 -45t-34.5 -41.5t-14.5 -37.5q0 -50 56 -50q37 0 82 42l94 -86q-79 -94 -188 -94q-93 0 -150.5 43t-57.5 133q0 33 15 62t36 51t41.5 43.5t33.5 48.5t10 57h150zM352 408q0 -44 -28.5 -74t-71.5 -30t-71.5 30t-28.5 74t28.5 74 t71.5 30t71.5 -30t28.5 -74z" />
<glyph unicode="&#xc0;" horiz-adv-x="584" d="M372 700h-136l-122 124h180zM229 271h120l-11 45q-9 34 -25 105.5t-23 100.5h-4q-33 -156 -46 -206zM412 0l-32 138h-182l-32 -138h-176l198 650h208l198 -650h-182z" />
<glyph unicode="&#xc1;" horiz-adv-x="584" d="M462 824l-122 -124h-136l78 124h180zM229 271h120l-11 45q-9 34 -25 105.5t-23 100.5h-4q-33 -156 -46 -206zM412 0l-32 138h-182l-32 -138h-176l198 650h208l198 -650h-182z" />
<glyph unicode="&#xc2;" horiz-adv-x="584" d="M286 758l-48 -58h-130l96 124h168l96 -124h-130l-48 58h-4zM229 271h120l-11 45q-9 34 -25 105.5t-23 100.5h-4q-33 -156 -46 -206zM412 0l-32 138h-182l-32 -138h-176l198 650h208l198 -650h-182z" />
<glyph unicode="&#xc3;" horiz-adv-x="584" d="M382 846h86q-9 -73 -41 -109.5t-75 -36.5q-30 0 -69.5 21t-50.5 21q-28 0 -38 -42h-86q9 73 41 109.5t75 36.5q30 0 69.5 -21t50.5 -21q28 0 38 42zM229 271h120l-11 45q-9 34 -25 105.5t-23 100.5h-4q-33 -156 -46 -206zM412 0l-32 138h-182l-32 -138h-176l198 650h208 l198 -650h-182z" />
<glyph unicode="&#xc4;" horiz-adv-x="584" d="M392 694q-34 0 -56 22.5t-22 55.5t22 55.5t56 22.5t56 -22.5t22 -55.5t-22 -55.5t-56 -22.5zM184 694q-34 0 -56 22.5t-22 55.5t22 55.5t56 22.5t56 -22.5t22 -55.5t-22 -55.5t-56 -22.5zM229 271h120l-11 45q-9 34 -25 105.5t-23 100.5h-4q-33 -156 -46 -206zM412 0 l-32 138h-182l-32 -138h-176l198 650h208l198 -650h-182z" />
<glyph unicode="&#xc5;" horiz-adv-x="584" d="M288 838q-16 0 -27 -11t-11 -29t11 -29t27 -11t27 11t11 29t-11 29t-27 11zM288 696q-54 0 -87 28t-33 74t33 74t87 28t87 -28t33 -74t-33 -74t-87 -28zM229 271h120l-11 45q-9 34 -25 105.5t-23 100.5h-4q-33 -156 -46 -206zM412 0l-32 138h-182l-32 -138h-176l198 650 h208l198 -650h-182z" />
<glyph unicode="&#xc6;" horiz-adv-x="854" d="M272 265h108v257h-4q-60 -156 -68 -174zM552 144h248v-144h-420v132h-165l-57 -132h-180l296 650h516v-144h-238v-102h202v-144h-202v-116z" />
<glyph unicode="&#xc7;" horiz-adv-x="586" d="M474 188l94 -104q-68 -79 -169 -93l-13 -31q58 -20 58 -76q0 -51 -53.5 -78t-136.5 -30l-12 66q80 7 80 42q0 25 -56 40l34 68q-113 18 -184.5 102.5t-71.5 225.5q0 157 93 249.5t225 92.5q112 0 198 -86l-94 -106q-50 44 -102 44q-61 0 -102.5 -51t-41.5 -137 q0 -90 38 -140t102 -50q65 0 114 52z" />
<glyph unicode="&#xc8;" horiz-adv-x="556" d="M72 0v650h420v-144h-248v-102h212v-144h-212v-116h258v-144h-430zM238 700l-122 124h180l78 -124h-136z" />
<glyph unicode="&#xc9;" horiz-adv-x="556" d="M72 0v650h420v-144h-248v-102h212v-144h-212v-116h258v-144h-430zM464 824l-122 -124h-136l78 124h180z" />
<glyph unicode="&#xca;" horiz-adv-x="556" d="M72 0v650h420v-144h-248v-102h212v-144h-212v-116h258v-144h-430zM240 700h-130l96 124h168l96 -124h-130l-48 58h-4z" />
<glyph unicode="&#xcb;" horiz-adv-x="556" d="M72 0v650h420v-144h-248v-102h212v-144h-212v-116h258v-144h-430zM186 694q-34 0 -56 22.5t-22 55.5t22 55.5t56 22.5t56 -22.5t22 -55.5t-22 -55.5t-56 -22.5zM394 694q-34 0 -56 22.5t-22 55.5t22 55.5t56 22.5t56 -22.5t22 -55.5t-22 -55.5t-56 -22.5z" />
<glyph unicode="&#xcc;" horiz-adv-x="316" d="M72 0v650h172v-650h-172zM106 700l-122 124h180l78 -124h-136z" />
<glyph unicode="&#xcd;" horiz-adv-x="316" d="M72 0v650h172v-650h-172zM332 824l-122 -124h-136l78 124h180z" />
<glyph unicode="&#xce;" horiz-adv-x="316" d="M72 0v650h172v-650h-172zM108 700h-130l96 124h168l96 -124h-130l-48 58h-4z" />
<glyph unicode="&#xcf;" horiz-adv-x="316" d="M72 0v650h172v-650h-172zM54 694q-34 0 -56 22.5t-22 55.5t22 55.5t56 22.5t56 -22.5t22 -55.5t-22 -55.5t-56 -22.5zM262 694q-34 0 -56 22.5t-22 55.5t22 55.5t56 22.5t56 -22.5t22 -55.5t-22 -55.5t-56 -22.5z" />
<glyph unicode="&#xd0;" horiz-adv-x="668" d="M270 138h10q79 0 123.5 42t44.5 148q0 105 -44 144.5t-124 39.5h-10v-138h116v-80h-116v-156zM98 650h192q156 0 245 -78t89 -244t-87.5 -247t-236.5 -81h-202v294h-74v74l74 6v276z" />
<glyph unicode="&#xd1;" horiz-adv-x="672" d="M72 0v650h176l144 -290l62 -146h4q-22 192 -22 248v188h164v-650h-176l-144 291l-62 145h-4q2 -16 6.5 -57t7.5 -66.5t5.5 -61t2.5 -63.5v-188h-164zM400 700q-30 0 -69.5 21t-50.5 21q-28 0 -38 -42h-86q9 73 41 109.5t75 36.5q30 0 69.5 -21t50.5 -21q28 0 38 42h86 q-9 -73 -41 -109.5t-75 -36.5z" />
<glyph unicode="&#xd2;" horiz-adv-x="692" d="M346 -12q-137 0 -219.5 91t-82.5 249t82.5 246t219.5 88t219.5 -88.5t82.5 -245.5q0 -158 -82.5 -249t-219.5 -91zM346 136q58 0 92 51.5t34 140.5q0 88 -33.5 137t-92.5 49t-92.5 -49t-33.5 -137q0 -89 34 -140.5t92 -51.5zM294 700l-122 124h180l78 -124h-136z" />
<glyph unicode="&#xd3;" horiz-adv-x="692" d="M346 -12q-137 0 -219.5 91t-82.5 249t82.5 246t219.5 88t219.5 -88.5t82.5 -245.5q0 -158 -82.5 -249t-219.5 -91zM346 136q58 0 92 51.5t34 140.5q0 88 -33.5 137t-92.5 49t-92.5 -49t-33.5 -137q0 -89 34 -140.5t92 -51.5zM520 824l-122 -124h-136l78 124h180z" />
<glyph unicode="&#xd4;" horiz-adv-x="692" d="M346 -12q-137 0 -219.5 91t-82.5 249t82.5 246t219.5 88t219.5 -88.5t82.5 -245.5q0 -158 -82.5 -249t-219.5 -91zM346 136q58 0 92 51.5t34 140.5q0 88 -33.5 137t-92.5 49t-92.5 -49t-33.5 -137q0 -89 34 -140.5t92 -51.5zM296 700h-130l96 124h168l96 -124h-130 l-48 58h-4z" />
<glyph unicode="&#xd5;" horiz-adv-x="692" d="M346 -12q-137 0 -219.5 91t-82.5 249t82.5 246t219.5 88t219.5 -88.5t82.5 -245.5q0 -158 -82.5 -249t-219.5 -91zM346 136q58 0 92 51.5t34 140.5q0 88 -33.5 137t-92.5 49t-92.5 -49t-33.5 -137q0 -89 34 -140.5t92 -51.5zM410 700q-30 0 -69.5 21t-50.5 21 q-28 0 -38 -42h-86q9 73 41 109.5t75 36.5q30 0 69.5 -21t50.5 -21q28 0 38 42h86q-9 -73 -41 -109.5t-75 -36.5z" />
<glyph unicode="&#xd6;" horiz-adv-x="692" d="M346 -12q-137 0 -219.5 91t-82.5 249t82.5 246t219.5 88t219.5 -88.5t82.5 -245.5q0 -158 -82.5 -249t-219.5 -91zM346 136q58 0 92 51.5t34 140.5q0 88 -33.5 137t-92.5 49t-92.5 -49t-33.5 -137q0 -89 34 -140.5t92 -51.5zM242 694q-34 0 -56 22.5t-22 55.5t22 55.5 t56 22.5t56 -22.5t22 -55.5t-22 -55.5t-56 -22.5zM450 694q-34 0 -56 22.5t-22 55.5t22 55.5t56 22.5t56 -22.5t22 -55.5t-22 -55.5t-56 -22.5z" />
<glyph unicode="&#xd7;" horiz-adv-x="540" d="M132 106l-85 85l138 138l-138 138l85 85l138 -138l138 138l85 -85l-138 -138l138 -138l-85 -85l-138 138z" />
<glyph unicode="&#xd8;" horiz-adv-x="692" d="M469 375l-182 -222q26 -17 59 -17q58 0 92 51.5t34 140.5q0 26 -3 47zM227 255l191 233q-31 26 -72 26q-59 0 -92.5 -49t-33.5 -137q0 -42 7 -73zM676 628l-79 -96q51 -82 51 -204q0 -158 -82.5 -249t-219.5 -91q-92 0 -160 42l-62 -76l-88 68l69 84q-61 88 -61 222 q0 158 82.5 246t219.5 88q100 0 174 -49l68 83z" />
<glyph unicode="&#xd9;" horiz-adv-x="672" d="M68 314v336h172v-356q0 -86 23 -122t75 -36t76 36.5t24 121.5v356h166v-336q0 -167 -65 -246.5t-201 -79.5q-137 0 -203.5 80t-66.5 246zM284 700l-122 124h180l78 -124h-136z" />
<glyph unicode="&#xda;" horiz-adv-x="672" d="M68 314v336h172v-356q0 -86 23 -122t75 -36t76 36.5t24 121.5v356h166v-336q0 -167 -65 -246.5t-201 -79.5q-137 0 -203.5 80t-66.5 246zM510 824l-122 -124h-136l78 124h180z" />
<glyph unicode="&#xdb;" horiz-adv-x="672" d="M68 314v336h172v-356q0 -86 23 -122t75 -36t76 36.5t24 121.5v356h166v-336q0 -167 -65 -246.5t-201 -79.5q-137 0 -203.5 80t-66.5 246zM286 700h-130l96 124h168l96 -124h-130l-48 58h-4z" />
<glyph unicode="&#xdc;" horiz-adv-x="672" d="M68 314v336h172v-356q0 -86 23 -122t75 -36t76 36.5t24 121.5v356h166v-336q0 -167 -65 -246.5t-201 -79.5q-137 0 -203.5 80t-66.5 246zM232 694q-34 0 -56 22.5t-22 55.5t22 55.5t56 22.5t56 -22.5t22 -55.5t-22 -55.5t-56 -22.5zM440 694q-34 0 -56 22.5t-22 55.5 t22 55.5t56 22.5t56 -22.5t22 -55.5t-22 -55.5t-56 -22.5z" />
<glyph unicode="&#xdd;" horiz-adv-x="544" d="M186 0v224l-196 426h184l48 -136q9 -27 25.5 -75.5t23.5 -69.5h4q10 29 27.5 79t23.5 66l48 136h180l-196 -426v-224h-172zM446 824l-122 -124h-136l78 124h180z" />
<glyph unicode="&#xde;" horiz-adv-x="630" d="M72 0v650h172v-94h80q55 0 100 -11t82 -35t57.5 -67.5t20.5 -102.5q0 -76 -37.5 -129t-94.5 -76t-128 -23h-80v-112h-172zM244 248h72q100 0 100 92q0 80 -100 80h-72v-172z" />
<glyph unicode="&#xdf;" horiz-adv-x="654" d="M58 0v476q0 103 64 166.5t190 63.5q105 0 162.5 -51.5t57.5 -122.5q0 -32 -11 -59.5t-25 -42.5t-25 -32.5t-11 -31.5t17.5 -27t42 -26.5t49 -31.5t42 -49.5t17.5 -73.5q0 -74 -50 -122t-144 -48q-75 0 -154 44l58 116q45 -34 90 -34q20 0 32 10t12 26t-17.5 30.5 t-42 27.5t-49 29t-42 43.5t-17.5 63.5t32 84.5t32 83.5q0 26 -15 43t-41 17q-42 0 -63 -30.5t-21 -83.5v-458h-170z" />
<glyph unicode="&#xe0;" horiz-adv-x="542" d="M42 142q0 79 64.5 123t207.5 59q-6 52 -70 52q-48 0 -126 -42l-60 112q110 66 220 66q208 0 208 -234v-278h-140l-12 48h-4q-67 -60 -138 -60q-68 0 -109 45t-41 109zM206 156q0 -36 46 -36q31 0 62 34v68q-108 -16 -108 -66zM249 574l-128 154h164l88 -154h-124z" />
<glyph unicode="&#xe1;" horiz-adv-x="542" d="M42 142q0 79 64.5 123t207.5 59q-6 52 -70 52q-48 0 -126 -42l-60 112q110 66 220 66q208 0 208 -234v-278h-140l-12 48h-4q-67 -60 -138 -60q-68 0 -109 45t-41 109zM206 156q0 -36 46 -36q31 0 62 34v68q-108 -16 -108 -66zM449 728l-128 -154h-124l88 154h164z" />
<glyph unicode="&#xe2;" horiz-adv-x="542" d="M42 142q0 79 64.5 123t207.5 59q-6 52 -70 52q-48 0 -126 -42l-60 112q110 66 220 66q208 0 208 -234v-278h-140l-12 48h-4q-67 -60 -138 -60q-68 0 -109 45t-41 109zM206 156q0 -36 46 -36q31 0 62 34v68q-108 -16 -108 -66zM121 574l96 154h136l96 -154h-114l-48 74h-4 l-48 -74h-114z" />
<glyph unicode="&#xe3;" horiz-adv-x="542" d="M42 142q0 79 64.5 123t207.5 59q-6 52 -70 52q-48 0 -126 -42l-60 112q110 66 220 66q208 0 208 -234v-278h-140l-12 48h-4q-67 -60 -138 -60q-68 0 -109 45t-41 109zM206 156q0 -36 46 -36q31 0 62 34v68q-108 -16 -108 -66zM109 574q9 73 39 109.5t73 36.5 q30 0 69.5 -21t50.5 -21q23 0 34 42h86q-9 -73 -39 -109.5t-73 -36.5q-30 0 -69.5 21t-50.5 21q-23 0 -34 -42h-86z" />
<glyph unicode="&#xe4;" horiz-adv-x="542" d="M42 142q0 79 64.5 123t207.5 59q-6 52 -70 52q-48 0 -126 -42l-60 112q110 66 220 66q208 0 208 -234v-278h-140l-12 48h-4q-67 -60 -138 -60q-68 0 -109 45t-41 109zM206 156q0 -36 46 -36q31 0 62 34v68q-108 -16 -108 -66zM181 564q-34 0 -56 22.5t-22 55.5t22 55.5 t56 22.5t56 -22.5t22 -55.5t-22 -55.5t-56 -22.5zM389 564q-34 0 -56 22.5t-22 55.5t22 55.5t56 22.5t56 -22.5t22 -55.5t-22 -55.5t-56 -22.5z" />
<glyph unicode="&#xe5;" horiz-adv-x="542" d="M42 142q0 79 64.5 123t207.5 59q-6 52 -70 52q-48 0 -126 -42l-60 112q110 66 220 66q208 0 208 -234v-278h-140l-12 48h-4q-67 -60 -138 -60q-68 0 -109 45t-41 109zM206 156q0 -36 46 -36q31 0 62 34v68q-108 -16 -108 -66zM285 550q-54 0 -87 29t-33 77t33 77t87 29 t87 -29t33 -77t-33 -77t-87 -29zM285 612q16 0 27 12.5t11 31.5t-11 31.5t-27 12.5t-27 -12.5t-11 -31.5t11 -31.5t27 -12.5z" />
<glyph unicode="&#xe6;" horiz-adv-x="786" d="M206 156q0 -36 46 -36q39 0 72 30q-9 27 -12 53l-2 19q-104 -17 -104 -66zM118 334l-60 112q110 66 210 66q87 0 138 -64q67 64 142 64q98 0 150 -70t52 -176q0 -40 -7 -68h-275q19 -76 106 -76q39 0 100 34l58 -110q-82 -58 -182 -58q-101 0 -170 72q-53 -41 -95 -56.5 t-93 -15.5q-68 0 -109 45t-41 109q0 79 64 123.5t206 59.5q-3 27 -19 39t-49 12q-48 0 -126 -42zM468 302h136q0 80 -62 80q-63 0 -74 -80z" />
<glyph unicode="&#xe7;" horiz-adv-x="472" d="M335 -7l-14 -33q58 -20 58 -76q0 -51 -53.5 -78t-136.5 -30l-12 66q80 7 80 42q0 25 -56 40l34 68q-91 15 -147 83t-56 175q0 120 78 191t190 71q90 0 146 -56l-78 -106q-29 24 -58 24q-48 0 -75 -33.5t-27 -90.5q0 -56 27.5 -90t68.5 -34q36 0 80 32l68 -108 q-49 -43 -117 -57z" />
<glyph unicode="&#xe8;" horiz-adv-x="526" d="M32 250q0 117 72 189.5t168 72.5q106 0 162 -68t56 -174q0 -40 -7 -68h-285q21 -84 116 -84q48 0 102 30l56 -102q-82 -58 -182 -58q-113 0 -185.5 70.5t-72.5 191.5zM196 306h148q0 76 -68 76q-66 0 -80 -76zM236 574l-128 154h164l88 -154h-124z" />
<glyph unicode="&#xe9;" horiz-adv-x="526" d="M32 250q0 117 72 189.5t168 72.5q106 0 162 -68t56 -174q0 -40 -7 -68h-285q21 -84 116 -84q48 0 102 30l56 -102q-82 -58 -182 -58q-113 0 -185.5 70.5t-72.5 191.5zM196 306h148q0 76 -68 76q-66 0 -80 -76zM436 728l-128 -154h-124l88 154h164z" />
<glyph unicode="&#xea;" horiz-adv-x="526" d="M32 250q0 117 72 189.5t168 72.5q106 0 162 -68t56 -174q0 -40 -7 -68h-285q21 -84 116 -84q48 0 102 30l56 -102q-82 -58 -182 -58q-113 0 -185.5 70.5t-72.5 191.5zM196 306h148q0 76 -68 76q-66 0 -80 -76zM108 574l96 154h136l96 -154h-114l-48 74h-4l-48 -74h-114z " />
<glyph unicode="&#xeb;" horiz-adv-x="526" d="M32 250q0 117 72 189.5t168 72.5q106 0 162 -68t56 -174q0 -40 -7 -68h-285q21 -84 116 -84q48 0 102 30l56 -102q-82 -58 -182 -58q-113 0 -185.5 70.5t-72.5 191.5zM196 306h148q0 76 -68 76q-66 0 -80 -76zM168 564q-34 0 -56 22.5t-22 55.5t22 55.5t56 22.5t56 -22.5 t22 -55.5t-22 -55.5t-56 -22.5zM376 564q-34 0 -56 22.5t-22 55.5t22 55.5t56 22.5t56 -22.5t22 -55.5t-22 -55.5t-56 -22.5z" />
<glyph unicode="&#xec;" horiz-adv-x="288" d="M58 0v500h172v-500h-172zM108 574l-128 154h164l88 -154h-124z" />
<glyph unicode="&#xed;" horiz-adv-x="288" d="M58 0v500h172v-500h-172zM308 728l-128 -154h-124l88 154h164z" />
<glyph unicode="&#xee;" horiz-adv-x="288" d="M58 0v500h172v-500h-172zM-20 574l96 154h136l96 -154h-114l-48 74h-4l-48 -74h-114z" />
<glyph unicode="&#xef;" horiz-adv-x="288" d="M58 0v500h172v-500h-172zM40 564q-34 0 -56 22.5t-22 55.5t22 55.5t56 22.5t56 -22.5t22 -55.5t-22 -55.5t-56 -22.5zM248 564q-34 0 -56 22.5t-22 55.5t22 55.5t56 22.5t56 -22.5t22 -55.5t-22 -55.5t-56 -22.5z" />
<glyph unicode="&#xf0;" horiz-adv-x="566" d="M280 126q36 0 58 32.5t22 101.5q0 27 -1 39q-33 33 -82 33q-83 0 -83 -102q0 -50 24.5 -77t61.5 -27zM502 658l-116 -58q134 -136 134 -330q0 -124 -66.5 -203t-179.5 -79q-99 0 -167.5 67t-68.5 175q0 104 61 166t141 62q58 0 92 -31q-25 61 -74 109l-142 -71l-44 74 l111 56q-34 21 -80 45l74 104q80 -41 138 -83l143 72z" />
<glyph unicode="&#xf1;" horiz-adv-x="582" d="M58 0v500h140l12 -60h4q76 72 158 72q156 0 156 -204v-308h-172v286q0 46 -11.5 63t-38.5 17q-35 0 -76 -38v-328h-172zM138 574q9 73 39 109.5t73 36.5q30 0 69.5 -21t50.5 -21q24 0 34 42h86q-9 -73 -39 -109.5t-73 -36.5q-30 0 -69.5 21t-50.5 21q-24 0 -34 -42h-86z " />
<glyph unicode="&#xf2;" horiz-adv-x="560" d="M32 250q0 119 73.5 190.5t174.5 71.5t174.5 -71.5t73.5 -190.5t-73.5 -190.5t-174.5 -71.5t-174.5 71.5t-73.5 190.5zM208 250q0 -124 72 -124t72 124t-72 124t-72 -124zM244 574l-128 154h164l88 -154h-124z" />
<glyph unicode="&#xf3;" horiz-adv-x="560" d="M32 250q0 119 73.5 190.5t174.5 71.5t174.5 -71.5t73.5 -190.5t-73.5 -190.5t-174.5 -71.5t-174.5 71.5t-73.5 190.5zM208 250q0 -124 72 -124t72 124t-72 124t-72 -124zM444 728l-128 -154h-124l88 154h164z" />
<glyph unicode="&#xf4;" horiz-adv-x="560" d="M32 250q0 119 73.5 190.5t174.5 71.5t174.5 -71.5t73.5 -190.5t-73.5 -190.5t-174.5 -71.5t-174.5 71.5t-73.5 190.5zM208 250q0 -124 72 -124t72 124t-72 124t-72 -124zM116 574l96 154h136l96 -154h-114l-48 74h-4l-48 -74h-114z" />
<glyph unicode="&#xf5;" horiz-adv-x="560" d="M32 250q0 119 73.5 190.5t174.5 71.5t174.5 -71.5t73.5 -190.5t-73.5 -190.5t-174.5 -71.5t-174.5 71.5t-73.5 190.5zM208 250q0 -124 72 -124t72 124t-72 124t-72 -124zM104 574q9 73 39 109.5t73 36.5q30 0 69.5 -21t50.5 -21q24 0 34 42h86q-9 -73 -39 -109.5 t-73 -36.5q-30 0 -69.5 21t-50.5 21q-24 0 -34 -42h-86z" />
<glyph unicode="&#xf6;" horiz-adv-x="560" d="M32 250q0 119 73.5 190.5t174.5 71.5t174.5 -71.5t73.5 -190.5t-73.5 -190.5t-174.5 -71.5t-174.5 71.5t-73.5 190.5zM208 250q0 -124 72 -124t72 124t-72 124t-72 -124zM176 564q-34 0 -56 22.5t-22 55.5t22 55.5t56 22.5t56 -22.5t22 -55.5t-22 -55.5t-56 -22.5z M384 564q-34 0 -56 22.5t-22 55.5t22 55.5t56 22.5t56 -22.5t22 -55.5t-22 -55.5t-56 -22.5z" />
<glyph unicode="&#xf7;" horiz-adv-x="540" d="M270 424q-39 0 -65.5 24.5t-26.5 61.5t26.5 61.5t65.5 24.5t65.5 -24.5t26.5 -61.5t-26.5 -61.5t-65.5 -24.5zM178 150q0 37 26.5 61.5t65.5 24.5t65.5 -24.5t26.5 -61.5t-26.5 -61.5t-65.5 -24.5t-65.5 24.5t-26.5 61.5zM34 270v120h472v-120h-472z" />
<glyph unicode="&#xf8;" horiz-adv-x="560" d="M359 287l-123 -153q17 -14 44 -14q38 0 60 32.5t22 87.5q0 26 -3 47zM200 214l123 153q-17 13 -43 13q-38 0 -60 -32.5t-22 -87.5q0 -18 2 -46zM514 480l-45 -56q59 -70 59 -174q0 -119 -73.5 -190.5t-174.5 -71.5q-71 0 -131 37l-41 -51l-62 48l44 55q-58 69 -58 173 q0 119 73.5 190.5t174.5 71.5q72 0 130 -36l42 52z" />
<glyph unicode="&#xf9;" horiz-adv-x="578" d="M54 192v308h172v-286q0 -46 11.5 -63t38.5 -17q42 0 72 44v322h172v-500h-140l-12 66h-4q-65 -78 -154 -78q-156 0 -156 204zM254 574l-128 154h164l88 -154h-124z" />
<glyph unicode="&#xfa;" horiz-adv-x="578" d="M54 192v308h172v-286q0 -46 11.5 -63t38.5 -17q42 0 72 44v322h172v-500h-140l-12 66h-4q-65 -78 -154 -78q-156 0 -156 204zM454 728l-128 -154h-124l88 154h164z" />
<glyph unicode="&#xfb;" horiz-adv-x="578" d="M54 192v308h172v-286q0 -46 11.5 -63t38.5 -17q42 0 72 44v322h172v-500h-140l-12 66h-4q-65 -78 -154 -78q-156 0 -156 204zM126 574l96 154h136l96 -154h-114l-48 74h-4l-48 -74h-114z" />
<glyph unicode="&#xfc;" horiz-adv-x="578" d="M54 192v308h172v-286q0 -46 11.5 -63t38.5 -17q42 0 72 44v322h172v-500h-140l-12 66h-4q-65 -78 -154 -78q-156 0 -156 204zM186 564q-34 0 -56 22.5t-22 55.5t22 55.5t56 22.5t56 -22.5t22 -55.5t-22 -55.5t-56 -22.5zM394 564q-34 0 -56 22.5t-22 55.5t22 55.5 t56 22.5t56 -22.5t22 -55.5t-22 -55.5t-56 -22.5z" />
<glyph unicode="&#xfd;" horiz-adv-x="542" d="M86 -48q27 -6 32 -6q61 0 78 50l6 22l-190 482h172l60 -192q9 -30 36 -142h4q18 84 32 142l50 192h164l-168 -492q-41 -106 -90.5 -151t-139.5 -45q-39 0 -76 10zM440 728l-128 -154h-124l88 154h164z" />
<glyph unicode="&#xfe;" horiz-adv-x="580" d="M230 -38v-138h-172v872h172v-163l-4 -65q49 44 114 44q93 0 148.5 -69t55.5 -185q0 -123 -62 -196.5t-146 -73.5q-63 0 -110 44zM230 152q27 -24 64 -24q74 0 74 128q0 116 -70 116q-38 0 -68 -36v-184z" />
<glyph unicode="&#xff;" horiz-adv-x="542" d="M86 -48q27 -6 32 -6q61 0 78 50l6 22l-190 482h172l60 -192q9 -30 36 -142h4q18 84 32 142l50 192h164l-168 -492q-41 -106 -90.5 -151t-139.5 -45q-39 0 -76 10zM172 564q-34 0 -56 22.5t-22 55.5t22 55.5t56 22.5t56 -22.5t22 -55.5t-22 -55.5t-56 -22.5zM380 564 q-34 0 -56 22.5t-22 55.5t22 55.5t56 22.5t56 -22.5t22 -55.5t-22 -55.5t-56 -22.5z" />
<glyph unicode="&#x100;" horiz-adv-x="584" d="M436 824v-108h-296v108h296zM229 271h120l-11 45q-9 34 -25 105.5t-23 100.5h-4q-33 -156 -46 -206zM412 0l-32 138h-182l-32 -138h-176l198 650h208l198 -650h-182z" />
<glyph unicode="&#x101;" horiz-adv-x="542" d="M42 142q0 79 64.5 123t207.5 59q-6 52 -70 52q-48 0 -126 -42l-60 112q110 66 220 66q208 0 208 -234v-278h-140l-12 48h-4q-67 -60 -138 -60q-68 0 -109 45t-41 109zM206 156q0 -36 46 -36q31 0 62 34v68q-108 -16 -108 -66zM141 588v108h288v-108h-288z" />
<glyph unicode="&#x102;" horiz-adv-x="584" d="M338 824h92q-13 -124 -142 -124t-142 124h92q10 -40 50 -40t50 40zM229 271h120l-11 45q-9 34 -25 105.5t-23 100.5h-4q-33 -156 -46 -206zM412 0l-32 138h-182l-32 -138h-176l198 650h208l198 -650h-182z" />
<glyph unicode="&#x103;" horiz-adv-x="542" d="M42 142q0 79 64.5 123t207.5 59q-6 52 -70 52q-48 0 -126 -42l-60 112q110 66 220 66q208 0 208 -234v-278h-140l-12 48h-4q-67 -60 -138 -60q-68 0 -109 45t-41 109zM206 156q0 -36 46 -36q31 0 62 34v68q-108 -16 -108 -66zM285 574q-69 0 -105.5 41t-38.5 103h94 q7 -52 50 -52t50 52h94q-2 -62 -38.5 -103t-105.5 -41z" />
<glyph unicode="&#x104;" horiz-adv-x="584" d="M229 271h120l-11 45q-9 34 -25 105.5t-23 100.5h-4q-33 -156 -46 -206zM574 -104l38 -86q-21 -17 -53.5 -27.5t-60.5 -10.5q-53 0 -87.5 26.5t-34.5 71.5q0 44 27 79t57 51h-48l-32 138h-182l-32 -138h-176l198 650h208l198 -650q-41 0 -67.5 -26t-26.5 -58q0 -16 10 -25 t26 -9q20 0 38 14z" />
<glyph unicode="&#x105;" horiz-adv-x="542" d="M206 156q0 -36 46 -36q31 0 62 34v68q-108 -16 -108 -66zM42 142q0 79 64.5 123t207.5 59q-6 52 -70 52q-48 0 -126 -42l-60 112q110 66 220 66q208 0 208 -234v-278q-88 -21 -88 -78q0 -17 11.5 -25.5t28.5 -8.5q18 0 34 12l34 -76q-46 -36 -110 -36q-49 0 -80.5 24.5 t-31.5 69.5q0 69 64 114l-14 52h-4q-67 -60 -138 -60q-68 0 -109 45t-41 109z" />
<glyph unicode="&#x106;" horiz-adv-x="586" d="M44 320q0 157 93 249.5t225 92.5q112 0 198 -86l-94 -106q-50 44 -102 44q-61 0 -102.5 -51t-41.5 -137q0 -90 38 -140t102 -50q65 0 114 52l94 -104q-83 -96 -210 -96q-135 0 -224.5 86.5t-89.5 245.5zM522 824l-122 -124h-136l78 124h180z" />
<glyph unicode="&#x107;" horiz-adv-x="472" d="M32 250q0 120 78 191t190 71q90 0 146 -56l-78 -106q-29 24 -58 24q-48 0 -75 -33.5t-27 -90.5q0 -56 27.5 -90t68.5 -34q36 0 80 32l68 -108q-70 -62 -168 -62q-110 0 -181 70.5t-71 191.5zM459 728l-128 -154h-124l88 154h164z" />
<glyph unicode="&#x108;" horiz-adv-x="586" d="M44 320q0 157 93 249.5t225 92.5q112 0 198 -86l-94 -106q-50 44 -102 44q-61 0 -102.5 -51t-41.5 -137q0 -90 38 -140t102 -50q65 0 114 52l94 -104q-83 -96 -210 -96q-135 0 -224.5 86.5t-89.5 245.5zM298 700h-130l96 124h168l96 -124h-130l-48 58h-4z" />
<glyph unicode="&#x109;" horiz-adv-x="472" d="M32 250q0 120 78 191t190 71q90 0 146 -56l-78 -106q-29 24 -58 24q-48 0 -75 -33.5t-27 -90.5q0 -56 27.5 -90t68.5 -34q36 0 80 32l68 -108q-70 -62 -168 -62q-110 0 -181 70.5t-71 191.5zM131 574l96 154h136l96 -154h-114l-48 74h-4l-48 -74h-114z" />
<glyph unicode="&#x10a;" horiz-adv-x="586" d="M44 320q0 157 93 249.5t225 92.5q112 0 198 -86l-94 -106q-50 44 -102 44q-61 0 -102.5 -51t-41.5 -137q0 -90 38 -140t102 -50q65 0 114 52l94 -104q-83 -96 -210 -96q-135 0 -224.5 86.5t-89.5 245.5zM348 696q-42 0 -69 24t-27 62t27 62t69 24t69 -24t27 -62t-27 -62 t-69 -24z" />
<glyph unicode="&#x10b;" horiz-adv-x="472" d="M32 250q0 120 78 191t190 71q90 0 146 -56l-78 -106q-29 24 -58 24q-48 0 -75 -33.5t-27 -90.5q0 -56 27.5 -90t68.5 -34q36 0 80 32l68 -108q-70 -62 -168 -62q-110 0 -181 70.5t-71 191.5zM295 562q-40 0 -66 24t-26 62t26 62t66 24t66 -24t26 -62t-26 -62t-66 -24z " />
<glyph unicode="&#x10c;" horiz-adv-x="586" d="M44 320q0 157 93 249.5t225 92.5q112 0 198 -86l-94 -106q-50 44 -102 44q-61 0 -102.5 -51t-41.5 -137q0 -90 38 -140t102 -50q65 0 114 52l94 -104q-83 -96 -210 -96q-135 0 -224.5 86.5t-89.5 245.5zM398 824h130l-96 -124h-168l-96 124h130l48 -58h4z" />
<glyph unicode="&#x10d;" horiz-adv-x="472" d="M32 250q0 120 78 191t190 71q90 0 146 -56l-78 -106q-29 24 -58 24q-48 0 -75 -33.5t-27 -90.5q0 -56 27.5 -90t68.5 -34q36 0 80 32l68 -108q-70 -62 -168 -62q-110 0 -181 70.5t-71 191.5zM227 574l-96 154h114l48 -74h4l48 74h114l-96 -154h-136z" />
<glyph unicode="&#x10e;" horiz-adv-x="642" d="M72 0v650h192q156 0 245 -78t89 -244t-87.5 -247t-236.5 -81h-202zM244 138h10q79 0 123.5 42t44.5 148q0 105 -44 144.5t-124 39.5h-10v-374zM372 824h130l-96 -124h-168l-96 124h130l48 -58h4z" />
<glyph unicode="&#x10f;" horiz-adv-x="630" d="M36 250q0 118 61.5 190t142.5 72q66 0 116 -50l-6 72v162h172v-696h-140l-12 46h-4q-58 -58 -126 -58q-93 0 -148.5 70.5t-55.5 191.5zM212 252q0 -124 74 -124q41 0 64 36v184q-27 24 -68 24q-30 0 -50 -29t-20 -91zM632 548h-72l-6 226h108l-2 -74z" />
<glyph unicode="&#x110;" horiz-adv-x="668" d="M270 138h10q79 0 123.5 42t44.5 148q0 105 -44 144.5t-124 39.5h-10v-138h116v-80h-116v-156zM98 650h192q156 0 245 -78t89 -244t-87.5 -247t-236.5 -81h-202v294h-74v74l74 6v276z" />
<glyph unicode="&#x111;" horiz-adv-x="580" d="M350 164v164q-27 24 -68 24q-30 0 -50 -26.5t-20 -83.5q0 -114 74 -114q41 0 64 36zM588 630v-74l-66 -5v-551h-144l-10 40h-4q-54 -52 -124 -52q-94 0 -149 67t-55 185q0 112 61.5 182t142.5 70q66 0 116 -50l-6 72v36h-144v80h144v66h172v-66h66z" />
<glyph unicode="&#x112;" horiz-adv-x="556" d="M72 0v650h420v-144h-248v-102h212v-144h-212v-116h258v-144h-430zM142 716v108h296v-108h-296z" />
<glyph unicode="&#x113;" horiz-adv-x="526" d="M32 250q0 117 72 189.5t168 72.5q106 0 162 -68t56 -174q0 -40 -7 -68h-285q21 -84 116 -84q48 0 102 30l56 -102q-82 -58 -182 -58q-113 0 -185.5 70.5t-72.5 191.5zM196 306h148q0 76 -68 76q-66 0 -80 -76zM128 588v108h288v-108h-288z" />
<glyph unicode="&#x114;" horiz-adv-x="556" d="M72 0v650h420v-144h-248v-102h212v-144h-212v-116h258v-144h-430zM290 700q-129 0 -142 124h92q10 -40 50 -40t50 40h92q-13 -124 -142 -124z" />
<glyph unicode="&#x115;" horiz-adv-x="526" d="M32 250q0 117 72 189.5t168 72.5q106 0 162 -68t56 -174q0 -40 -7 -68h-285q21 -84 116 -84q48 0 102 30l56 -102q-82 -58 -182 -58q-113 0 -185.5 70.5t-72.5 191.5zM196 306h148q0 76 -68 76q-66 0 -80 -76zM272 574q-69 0 -105.5 41t-38.5 103h94q7 -52 50 -52t50 52 h94q-2 -62 -38.5 -103t-105.5 -41z" />
<glyph unicode="&#x116;" horiz-adv-x="556" d="M72 0v650h420v-144h-248v-102h212v-144h-212v-116h258v-144h-430zM290 696q-42 0 -69 24t-27 62t27 62t69 24t69 -24t27 -62t-27 -62t-69 -24z" />
<glyph unicode="&#x117;" horiz-adv-x="526" d="M32 250q0 117 72 189.5t168 72.5q106 0 162 -68t56 -174q0 -40 -7 -68h-285q21 -84 116 -84q48 0 102 30l56 -102q-82 -58 -182 -58q-113 0 -185.5 70.5t-72.5 191.5zM196 306h148q0 76 -68 76q-66 0 -80 -76zM272 562q-40 0 -66 24t-26 62t26 62t66 24t66 -24t26 -62 t-26 -62t-66 -24z" />
<glyph unicode="&#x118;" horiz-adv-x="556" d="M72 0v650h420v-144h-248v-102h212v-144h-212v-116h258v-144h-6q-34 0 -59 -26t-25 -58q0 -17 11.5 -25.5t28.5 -8.5q13 0 34 14l38 -86q-21 -17 -53.5 -27.5t-60.5 -10.5q-53 0 -87.5 26.5t-34.5 71.5q0 43 24.5 77t55.5 53h-296z" />
<glyph unicode="&#x119;" horiz-adv-x="526" d="M32 250q0 117 72 189.5t168 72.5q106 0 162 -68t56 -174q0 -40 -7 -68h-285q21 -84 116 -84q48 0 102 30l56 -102q-64 -44 -85 -69t-21 -55q0 -34 41 -34q15 0 33 12l34 -76q-46 -36 -110 -36q-48 0 -79 24.5t-31 69.5q0 58 54 108q-10 -2 -18 -2q-113 0 -185.5 70.5 t-72.5 191.5zM196 306h148q0 76 -68 76q-66 0 -80 -76z" />
<glyph unicode="&#x11a;" horiz-adv-x="556" d="M72 0v650h420v-144h-248v-102h212v-144h-212v-116h258v-144h-430zM340 824h130l-96 -124h-168l-96 124h130l48 -58h4z" />
<glyph unicode="&#x11b;" horiz-adv-x="526" d="M32 250q0 117 72 189.5t168 72.5q106 0 162 -68t56 -174q0 -40 -7 -68h-285q21 -84 116 -84q48 0 102 30l56 -102q-82 -58 -182 -58q-113 0 -185.5 70.5t-72.5 191.5zM196 306h148q0 76 -68 76q-66 0 -80 -76zM204 574l-96 154h114l48 -74h4l48 74h114l-96 -154h-136z " />
<glyph unicode="&#x11c;" horiz-adv-x="646" d="M44 320q0 158 94.5 250t233.5 92q122 0 208 -86l-94 -106q-50 44 -112 44q-68 0 -111 -50.5t-43 -137.5q0 -190 170 -190q32 0 50 12v90h-96v140h248v-310q-38 -35 -98 -57.5t-126 -22.5q-141 0 -232.5 86t-91.5 246zM322 700h-130l96 124h168l96 -124h-130l-48 58h-4z " />
<glyph unicode="&#x11d;" horiz-adv-x="546" d="M170 -54q0 -46 98 -46q43 0 70.5 12.5t27.5 33.5q0 18 -15.5 24t-51.5 6h-39q-51 0 -72 6q-18 -18 -18 -36zM30 -82q0 59 70 96v4q-46 32 -46 86t56 94v4q-29 20 -48.5 53.5t-19.5 74.5q0 88 62.5 135t151.5 47q44 0 80 -12h186v-124h-72q8 -24 8 -52q0 -84 -56 -125 t-146 -41q-25 0 -56 7q-12 -11 -12 -29q0 -16 16 -23t54 -7h75q197 0 197 -130q0 -82 -79 -132t-211 -50q-93 0 -151.5 30t-58.5 94zM256 260q54 0 54 70q0 33 -14.5 50.5t-39.5 17.5t-39.5 -17.5t-14.5 -50.5q0 -70 54 -70zM92 574l96 154h136l96 -154h-114l-48 74h-4 l-48 -74h-114z" />
<glyph unicode="&#x11e;" horiz-adv-x="646" d="M44 320q0 158 94.5 250t233.5 92q122 0 208 -86l-94 -106q-50 44 -112 44q-68 0 -111 -50.5t-43 -137.5q0 -190 170 -190q32 0 50 12v90h-96v140h248v-310q-38 -35 -98 -57.5t-126 -22.5q-141 0 -232.5 86t-91.5 246zM372 700q-129 0 -142 124h92q10 -40 50 -40t50 40h92 q-13 -124 -142 -124z" />
<glyph unicode="&#x11f;" horiz-adv-x="546" d="M170 -54q0 -46 98 -46q43 0 70.5 12.5t27.5 33.5q0 18 -15.5 24t-51.5 6h-39q-51 0 -72 6q-18 -18 -18 -36zM30 -82q0 59 70 96v4q-46 32 -46 86t56 94v4q-29 20 -48.5 53.5t-19.5 74.5q0 88 62.5 135t151.5 47q44 0 80 -12h186v-124h-72q8 -24 8 -52q0 -84 -56 -125 t-146 -41q-25 0 -56 7q-12 -11 -12 -29q0 -16 16 -23t54 -7h75q197 0 197 -130q0 -82 -79 -132t-211 -50q-93 0 -151.5 30t-58.5 94zM256 260q54 0 54 70q0 33 -14.5 50.5t-39.5 17.5t-39.5 -17.5t-14.5 -50.5q0 -70 54 -70zM256 574q-69 0 -105.5 41t-38.5 103h94 q7 -52 50 -52t50 52h94q-2 -62 -38.5 -103t-105.5 -41z" />
<glyph unicode="&#x120;" horiz-adv-x="646" d="M44 320q0 158 94.5 250t233.5 92q122 0 208 -86l-94 -106q-50 44 -112 44q-68 0 -111 -50.5t-43 -137.5q0 -190 170 -190q32 0 50 12v90h-96v140h248v-310q-38 -35 -98 -57.5t-126 -22.5q-141 0 -232.5 86t-91.5 246zM372 696q-42 0 -69 24t-27 62t27 62t69 24t69 -24 t27 -62t-27 -62t-69 -24z" />
<glyph unicode="&#x121;" horiz-adv-x="546" d="M170 -54q0 -46 98 -46q43 0 70.5 12.5t27.5 33.5q0 18 -15.5 24t-51.5 6h-39q-51 0 -72 6q-18 -18 -18 -36zM30 -82q0 59 70 96v4q-46 32 -46 86t56 94v4q-29 20 -48.5 53.5t-19.5 74.5q0 88 62.5 135t151.5 47q44 0 80 -12h186v-124h-72q8 -24 8 -52q0 -84 -56 -125 t-146 -41q-25 0 -56 7q-12 -11 -12 -29q0 -16 16 -23t54 -7h75q197 0 197 -130q0 -82 -79 -132t-211 -50q-93 0 -151.5 30t-58.5 94zM256 260q54 0 54 70q0 33 -14.5 50.5t-39.5 17.5t-39.5 -17.5t-14.5 -50.5q0 -70 54 -70zM256 562q-40 0 -66 24t-26 62t26 62t66 24 t66 -24t26 -62t-26 -62t-66 -24z" />
<glyph unicode="&#x122;" horiz-adv-x="646" d="M44 320q0 158 94.5 250t233.5 92q122 0 208 -86l-94 -106q-50 44 -112 44q-68 0 -111 -50.5t-43 -137.5q0 -190 170 -190q32 0 50 12v90h-96v140h248v-310q-38 -35 -98 -57.5t-126 -22.5q-141 0 -232.5 86t-91.5 246zM330 -40q72 -6 101 -26t29 -60q0 -51 -53.5 -78 t-136.5 -30l-12 66q80 7 80 34q0 23 -40 34z" />
<glyph unicode="&#x123;" horiz-adv-x="546" d="M170 -54q0 -46 98 -46q43 0 70.5 12.5t27.5 33.5q0 18 -15.5 24t-51.5 6h-39q-51 0 -72 6q-18 -18 -18 -36zM30 -82q0 59 70 96v4q-46 32 -46 86t56 94v4q-29 20 -48.5 53.5t-19.5 74.5q0 88 62.5 135t151.5 47q44 0 80 -12h186v-124h-72q8 -24 8 -52q0 -84 -56 -125 t-146 -41q-25 0 -56 7q-12 -11 -12 -29q0 -16 16 -23t54 -7h75q197 0 197 -130q0 -82 -79 -132t-211 -50q-93 0 -151.5 30t-58.5 94zM256 260q54 0 54 70q0 33 -14.5 50.5t-39.5 17.5t-39.5 -17.5t-14.5 -50.5q0 -70 54 -70zM294 546q-72 6 -101 26t-29 60q0 51 53.5 78 t136.5 30l12 -66q-80 -7 -80 -34q0 -23 40 -34z" />
<glyph unicode="&#x124;" horiz-adv-x="682" d="M72 0v650h172v-242h194v242h172v-650h-172v258h-194v-258h-172zM290 700h-130l96 124h168l96 -124h-130l-48 58h-4z" />
<glyph unicode="&#x125;" horiz-adv-x="582" d="M58 0v696h172v-162l-8 -86q73 64 150 64q156 0 156 -204v-308h-172v286q0 46 -11.5 63t-38.5 17q-35 0 -76 -38v-328h-172zM92 750h-130l96 124h168l96 -124h-130l-48 58h-4z" />
<glyph unicode="&#x126;" horiz-adv-x="722" d="M458 408v76h-194v-76h194zM700 564v-80h-70v-484h-172v258h-194v-258h-172v484h-70v74l70 6v86h172v-86h194v86h172v-86h70z" />
<glyph unicode="&#x127;" horiz-adv-x="582" d="M230 514l-8 -86q73 64 150 64q156 0 156 -204v-288h-172v266q0 46 -11.5 63t-38.5 17q-35 0 -76 -38v-308h-172v550h-66v74l66 5v67h172v-66h164v-80h-164v-36z" />
<glyph unicode="&#x128;" horiz-adv-x="316" d="M72 0v650h172v-650h-172zM222 700q-30 0 -69.5 21t-50.5 21q-28 0 -38 -42h-86q9 73 41 109.5t75 36.5q30 0 69.5 -21t50.5 -21q28 0 38 42h86q-9 -73 -41 -109.5t-75 -36.5z" />
<glyph unicode="&#x129;" horiz-adv-x="288" d="M58 0v500h172v-500h-172zM-32 574q9 73 39 109.5t73 36.5q30 0 69.5 -21t50.5 -21q24 0 34 42h86q-9 -73 -39 -109.5t-73 -36.5q-30 0 -69.5 21t-50.5 21q-24 0 -34 -42h-86z" />
<glyph unicode="&#x12a;" horiz-adv-x="316" d="M72 0v650h172v-650h-172zM10 716v108h296v-108h-296z" />
<glyph unicode="&#x12b;" horiz-adv-x="288" d="M58 0v500h172v-500h-172zM0 588v108h288v-108h-288z" />
<glyph unicode="&#x12c;" horiz-adv-x="316" d="M72 0v650h172v-650h-172zM158 700q-129 0 -142 124h92q10 -40 50 -40t50 40h92q-13 -124 -142 -124z" />
<glyph unicode="&#x12d;" horiz-adv-x="288" d="M58 0v500h172v-500h-172zM144 574q-69 0 -105.5 41t-38.5 103h94q7 -52 50 -52t50 52h94q-2 -62 -38.5 -103t-105.5 -41z" />
<glyph unicode="&#x12e;" horiz-adv-x="316" d="M72 0v650h172v-650q-78 -24 -78 -84q0 -17 11.5 -25.5t27.5 -8.5t35 14l38 -86q-21 -17 -53.5 -27.5t-60.5 -10.5q-53 0 -87.5 26.5t-34.5 71.5q0 44 24.5 78t52.5 52h-47z" />
<glyph unicode="&#x12f;" horiz-adv-x="288" d="M58 0v500h172v-500q-74 -20 -74 -78q0 -16 11.5 -25t29.5 -9q11 0 33 12l34 -76q-46 -36 -110 -36q-49 0 -80.5 24.5t-31.5 69.5q0 71 66 118h-50zM144 562q-42 0 -69 24t-27 62t27 62t69 24t69 -24t27 -62t-27 -62t-69 -24z" />
<glyph unicode="&#x130;" horiz-adv-x="316" d="M72 0v650h172v-650h-172zM158 696q-42 0 -69 24t-27 62t27 62t69 24t69 -24t27 -62t-27 -62t-69 -24z" />
<glyph unicode="&#x131;" horiz-adv-x="288" d="M58 0v500h172v-500h-172z" />
<glyph unicode="&#x134;" horiz-adv-x="520" d="M10 111l116 87q32 -62 82 -62q37 0 54.5 22.5t17.5 81.5v410h172v-424q0 -104 -56.5 -171t-163.5 -67q-151 0 -222 123zM314 700h-130l96 124h168l96 -124h-130l-48 58h-4z" />
<glyph unicode="&#x135;" horiz-adv-x="290" d="M60 20v480h172v-474q0 -95 -45 -154.5t-149 -59.5q-56 0 -94 14l30 126q21 -6 36 -6q27 0 38.5 17t11.5 57zM-18 574l96 154h136l96 -154h-114l-48 74h-4l-48 -74h-114z" />
<glyph unicode="&#x136;" horiz-adv-x="628" d="M72 0v650h172v-242h4l164 242h188l-194 -264l232 -386h-188l-144 250l-62 -88v-162h-172zM296 -40q72 -6 101 -26t29 -60q0 -51 -53.5 -78t-136.5 -30l-12 66q80 7 80 34q0 23 -40 34z" />
<glyph unicode="&#x137;" horiz-adv-x="568" d="M58 0v696h168v-370h4l138 174h186l-178 -208l188 -292h-186l-100 178l-52 -58v-120h-168zM266 -40q72 -6 101 -26t29 -60q0 -51 -53.5 -78t-136.5 -30l-12 66q80 7 80 34q0 23 -40 34z" />
<glyph unicode="&#x138;" horiz-adv-x="568" d="M58 0v500h172v-178h4l134 178h186l-174 -208l184 -292h-186l-100 172l-48 -58v-114h-172z" />
<glyph unicode="&#x139;" horiz-adv-x="530" d="M72 0v650h172v-506h246v-144h-418zM336 824l-122 -124h-136l78 124h180z" />
<glyph unicode="&#x13a;" horiz-adv-x="298" d="M58 176v520h172v-526q0 -23 8.5 -33.5t19.5 -10.5q10 0 18 2l20 -126q-32 -14 -84 -14q-154 0 -154 188zM323 880l-122 -124h-136l78 124h180z" />
<glyph unicode="&#x13b;" horiz-adv-x="530" d="M72 0v650h172v-506h246v-144h-418zM253 -40q72 -6 101 -26t29 -60q0 -51 -53.5 -78t-136.5 -30l-12 66q80 7 80 34q0 23 -40 34z" />
<glyph unicode="&#x13c;" horiz-adv-x="298" d="M58 176v520h172v-526q0 -23 8.5 -33.5t19.5 -10.5q10 0 18 2l20 -126q-32 -14 -84 -14q-154 0 -154 188zM160 -40q72 -6 101 -26t29 -60q0 -51 -53.5 -78t-136.5 -30l-12 66q80 7 80 34q0 23 -40 34z" />
<glyph unicode="&#x13d;" horiz-adv-x="530" d="M72 0v650h172v-506h246v-144h-418zM432 508h-72l-6 226h108l-2 -74z" />
<glyph unicode="&#x13e;" horiz-adv-x="338" d="M58 176v520h172v-526q0 -23 8.5 -33.5t19.5 -10.5q10 0 18 2l20 -126q-32 -14 -84 -14q-154 0 -154 188zM340 548h-72l-6 226h108l-2 -74z" />
<glyph unicode="&#x13f;" horiz-adv-x="530" d="M72 0v650h172v-506h246v-144h-418zM323 330q0 44 28.5 74t71.5 30t71.5 -30t28.5 -74t-28.5 -74t-71.5 -30t-71.5 30t-28.5 74z" />
<glyph unicode="&#x140;" horiz-adv-x="488" d="M58 176v520h172v-526q0 -23 8.5 -33.5t19.5 -10.5q10 0 18 2l20 -126q-32 -14 -84 -14q-154 0 -154 188zM288 330q0 44 28.5 74t71.5 30t71.5 -30t28.5 -74t-28.5 -74t-71.5 -30t-71.5 30t-28.5 74z" />
<glyph unicode="&#x141;" horiz-adv-x="538" d="M252 144h246v-144h-418v198l-70 -42v132l70 42v320h172v-240l168 94v-132l-168 -94v-134z" />
<glyph unicode="&#x142;" horiz-adv-x="318" d="M288 128l20 -126q-32 -14 -84 -14q-154 0 -154 188v79l-58 -35v136l58 35v305h172v-221l64 37v-136l-64 -37v-169q0 -23 8.5 -33.5t19.5 -10.5q10 0 18 2z" />
<glyph unicode="&#x143;" horiz-adv-x="672" d="M72 0v650h176l144 -290l62 -146h4q-22 192 -22 248v188h164v-650h-176l-144 291l-62 145h-4q2 -16 6.5 -57t7.5 -66.5t5.5 -61t2.5 -63.5v-188h-164zM510 824l-122 -124h-136l78 124h180z" />
<glyph unicode="&#x144;" horiz-adv-x="582" d="M58 0v500h140l12 -60h4q76 72 158 72q156 0 156 -204v-308h-172v286q0 46 -11.5 63t-38.5 17q-35 0 -76 -38v-328h-172zM478 728l-128 -154h-124l88 154h164z" />
<glyph unicode="&#x145;" horiz-adv-x="672" d="M72 0v650h176l144 -290l62 -146h4q-22 192 -22 248v188h164v-650h-176l-144 291l-62 145h-4q2 -16 6.5 -57t7.5 -66.5t5.5 -61t2.5 -63.5v-188h-164zM312 -40q72 -6 101 -26t29 -60q0 -51 -53.5 -78t-136.5 -30l-12 66q80 7 80 34q0 23 -40 34z" />
<glyph unicode="&#x146;" horiz-adv-x="582" d="M58 0v500h140l12 -60h4q76 72 158 72q156 0 156 -204v-308h-172v286q0 46 -11.5 63t-38.5 17q-35 0 -76 -38v-328h-172zM258 -40q72 -6 101 -26t29 -60q0 -51 -53.5 -78t-136.5 -30l-12 66q80 7 80 34q0 23 -40 34z" />
<glyph unicode="&#x147;" horiz-adv-x="672" d="M72 0v650h176l144 -290l62 -146h4q-22 192 -22 248v188h164v-650h-176l-144 291l-62 145h-4q2 -16 6.5 -57t7.5 -66.5t5.5 -61t2.5 -63.5v-188h-164zM386 824h130l-96 -124h-168l-96 124h130l48 -58h4z" />
<glyph unicode="&#x148;" horiz-adv-x="582" d="M58 0v500h140l12 -60h4q76 72 158 72q156 0 156 -204v-308h-172v286q0 46 -11.5 63t-38.5 17q-35 0 -76 -38v-328h-172zM246 574l-96 154h114l48 -74h4l48 74h114l-96 -154h-136z" />
<glyph unicode="&#x149;" horiz-adv-x="882" d="M110 322l-36 74q96 42 96 127q-3 -1 -10 -1q-37 0 -61.5 22.5t-24.5 59.5q0 42 24 67t62 25q52 0 79 -38t27 -108q0 -154 -156 -228zM510 440h4q76 72 158 72q156 0 156 -204v-308h-172v286q0 46 -11.5 63t-38.5 17q-35 0 -76 -38v-328h-172v500h140z" />
<glyph unicode="&#x14c;" horiz-adv-x="692" d="M346 -12q-137 0 -219.5 91t-82.5 249t82.5 246t219.5 88t219.5 -88.5t82.5 -245.5q0 -158 -82.5 -249t-219.5 -91zM346 136q58 0 92 51.5t34 140.5q0 88 -33.5 137t-92.5 49t-92.5 -49t-33.5 -137q0 -89 34 -140.5t92 -51.5zM198 716v108h296v-108h-296z" />
<glyph unicode="&#x14d;" horiz-adv-x="560" d="M32 250q0 119 73.5 190.5t174.5 71.5t174.5 -71.5t73.5 -190.5t-73.5 -190.5t-174.5 -71.5t-174.5 71.5t-73.5 190.5zM208 250q0 -124 72 -124t72 124t-72 124t-72 -124zM136 588v108h288v-108h-288z" />
<glyph unicode="&#x14e;" horiz-adv-x="692" d="M346 -12q-137 0 -219.5 91t-82.5 249t82.5 246t219.5 88t219.5 -88.5t82.5 -245.5q0 -158 -82.5 -249t-219.5 -91zM346 136q58 0 92 51.5t34 140.5q0 88 -33.5 137t-92.5 49t-92.5 -49t-33.5 -137q0 -89 34 -140.5t92 -51.5zM346 700q-129 0 -142 124h92q10 -40 50 -40 t50 40h92q-13 -124 -142 -124z" />
<glyph unicode="&#x14f;" horiz-adv-x="560" d="M32 250q0 119 73.5 190.5t174.5 71.5t174.5 -71.5t73.5 -190.5t-73.5 -190.5t-174.5 -71.5t-174.5 71.5t-73.5 190.5zM208 250q0 -124 72 -124t72 124t-72 124t-72 -124zM280 574q-69 0 -105.5 41t-38.5 103h94q7 -52 50 -52t50 52h94q-2 -62 -38.5 -103t-105.5 -41z" />
<glyph unicode="&#x150;" horiz-adv-x="692" d="M346 -12q-137 0 -219.5 91t-82.5 249t82.5 246t219.5 88t219.5 -88.5t82.5 -245.5q0 -158 -82.5 -249t-219.5 -91zM346 136q58 0 92 51.5t34 140.5q0 88 -33.5 137t-92.5 49t-92.5 -49t-33.5 -137q0 -89 34 -140.5t92 -51.5zM312 700h-114l62 124h144zM386 700l62 124 h144l-92 -124h-114z" />
<glyph unicode="&#x151;" horiz-adv-x="560" d="M32 250q0 119 73.5 190.5t174.5 71.5t174.5 -71.5t73.5 -190.5t-73.5 -190.5t-174.5 -71.5t-174.5 71.5t-73.5 190.5zM208 250q0 -124 72 -124t72 124t-72 124t-72 -124zM144 574l68 154h134l-98 -154h-104zM324 574l68 154h134l-98 -154h-104z" />
<glyph unicode="&#x152;" horiz-adv-x="880" d="M44 328q0 84 26 147t73 100.5t107.5 56t133.5 18.5h432v-144h-236v-102h200v-144h-200v-116h246v-144h-452q-69 0 -127.5 19.5t-104.5 58t-72 102.5t-26 148zM220 328q0 -107 46 -148.5t128 -41.5h14v374h-14q-83 0 -128.5 -38.5t-45.5 -145.5z" />
<glyph unicode="&#x153;" horiz-adv-x="816" d="M206 250q0 -58 17 -91t49 -33q33 0 50.5 33t17.5 91t-17.5 91t-50.5 33q-32 0 -49 -33t-17 -91zM32 250q0 120 69 191t171 71q90 0 154 -74q65 74 152 74q98 0 150 -70t52 -176q0 -40 -7 -68h-275q19 -76 106 -76q39 0 100 34l58 -110q-82 -58 -182 -58q-87 0 -152 74 q-65 -74 -160 -74q-101 0 -168.5 70.5t-67.5 191.5zM498 302h136q0 80 -62 80q-63 0 -74 -80z" />
<glyph unicode="&#x154;" horiz-adv-x="630" d="M490 824l-122 -124h-136l78 124h180zM244 514v-160h62q104 0 104 86q0 41 -25.5 57.5t-78.5 16.5h-62zM614 0h-192l-112 218h-66v-218h-172v650h246q260 0 260 -210q0 -131 -105 -188z" />
<glyph unicode="&#x155;" horiz-adv-x="418" d="M58 0v500h140l12 -86h4q26 49 64.5 73.5t77.5 24.5t62 -10l-28 -148q-36 8 -56 8q-30 0 -58.5 -20.5t-45.5 -63.5v-278h-172zM422 728l-128 -154h-124l88 154h164z" />
<glyph unicode="&#x156;" horiz-adv-x="630" d="M244 514v-160h62q104 0 104 86q0 41 -25.5 57.5t-78.5 16.5h-62zM244 218v-218h-172v650h246q260 0 260 -210q0 -131 -105 -188l141 -252h-192l-112 218h-66zM264 -100l32 60q72 -6 101 -26t29 -60q0 -51 -53.5 -78t-136.5 -30l-12 66q80 7 80 34q0 23 -40 34z" />
<glyph unicode="&#x157;" horiz-adv-x="418" d="M58 0v500h140l12 -86h4q26 49 64.5 73.5t77.5 24.5t62 -10l-28 -148q-36 8 -56 8q-30 0 -58.5 -20.5t-45.5 -63.5v-278h-172zM106 -40q72 -6 101 -26t29 -60q0 -51 -53.5 -78t-136.5 -30l-12 66q80 7 80 34q0 23 -40 34z" />
<glyph unicode="&#x158;" horiz-adv-x="630" d="M400 700h-168l-96 124h130l48 -58h4l48 58h130zM244 514v-160h62q104 0 104 86q0 41 -25.5 57.5t-78.5 16.5h-62zM614 0h-192l-112 218h-66v-218h-172v650h246q260 0 260 -210q0 -131 -105 -188z" />
<glyph unicode="&#x159;" horiz-adv-x="418" d="M58 0v500h140l12 -86h4q26 49 64.5 73.5t77.5 24.5t62 -10l-28 -148q-36 8 -56 8q-30 0 -58.5 -20.5t-45.5 -63.5v-278h-172zM190 574l-96 154h114l48 -74h4l48 74h114l-96 -154h-136z" />
<glyph unicode="&#x15a;" horiz-adv-x="564" d="M32 81l98 118q78 -63 152 -63t74 46q0 28 -74 57q-9 4 -14 6l-81 34q-58 23 -94.5 69t-36.5 112q0 85 68.5 143.5t173.5 58.5q58 0 115.5 -22t100.5 -65l-86 -108q-67 47 -130 47q-68 0 -68 -44q0 -19 18 -30.5t62 -28.5q10 -4 16 -6l79 -31q127 -50 127 -178 q0 -87 -68.5 -147.5t-185.5 -60.5q-64 0 -129.5 23.5t-116.5 69.5zM470 824l-122 -124h-136l78 124h180z" />
<glyph unicode="&#x15b;" horiz-adv-x="452" d="M18 58l76 106q68 -50 122 -50q50 0 50 30q0 7 -4.5 13.5t-16 13t-19 10t-28 11t-28.5 10.5q-126 50 -126 148q0 73 54.5 117.5t143.5 44.5q96 0 184 -66l-76 -102q-58 42 -102 42t-44 -28q0 -5 2.5 -10t8 -9t10.5 -7.5t15 -7t17 -6t20 -7t21 -7.5q128 -47 128 -150 q0 -73 -56 -119.5t-158 -46.5q-48 0 -101.5 19.5t-92.5 50.5zM406 728l-128 -154h-124l88 154h164z" />
<glyph unicode="&#x15c;" horiz-adv-x="564" d="M32 81l98 118q78 -63 152 -63t74 46q0 28 -74 57q-9 4 -14 6l-81 34q-58 23 -94.5 69t-36.5 112q0 85 68.5 143.5t173.5 58.5q58 0 115.5 -22t100.5 -65l-86 -108q-67 47 -130 47q-68 0 -68 -44q0 -19 18 -30.5t62 -28.5q10 -4 16 -6l79 -31q127 -50 127 -178 q0 -87 -68.5 -147.5t-185.5 -60.5q-64 0 -129.5 23.5t-116.5 69.5zM246 700h-130l96 124h168l96 -124h-130l-48 58h-4z" />
<glyph unicode="&#x15d;" horiz-adv-x="452" d="M18 58l76 106q68 -50 122 -50q50 0 50 30q0 7 -4.5 13.5t-16 13t-19 10t-28 11t-28.5 10.5q-126 50 -126 148q0 73 54.5 117.5t143.5 44.5q96 0 184 -66l-76 -102q-58 42 -102 42t-44 -28q0 -5 2.5 -10t8 -9t10.5 -7.5t15 -7t17 -6t20 -7t21 -7.5q128 -47 128 -150 q0 -73 -56 -119.5t-158 -46.5q-48 0 -101.5 19.5t-92.5 50.5zM78 574l96 154h136l96 -154h-114l-48 74h-4l-48 -74h-114z" />
<glyph unicode="&#x15e;" horiz-adv-x="564" d="M326 405l79 -31q127 -50 127 -178q0 -76 -54 -133.5t-149 -71.5l-13 -31q58 -20 58 -76q0 -51 -53.5 -78t-136.5 -30l-12 66q80 7 80 42q0 25 -56 40l34 67q-116 17 -198 90l98 118q78 -63 152 -63t74 46q0 28 -74 57q-9 4 -14 6l-81 34q-58 23 -94.5 69t-36.5 112 q0 85 68.5 143.5t173.5 58.5q58 0 115.5 -22t100.5 -65l-86 -108q-67 47 -130 47q-68 0 -68 -44q0 -19 18 -30.5t62 -28.5q10 -4 16 -6z" />
<glyph unicode="&#x15f;" horiz-adv-x="452" d="M426 446l-76 -102q-58 42 -102 42t-44 -28q0 -5 2.5 -10t8 -9t10.5 -7.5t15 -7t17 -6t20 -7t21 -7.5q128 -47 128 -150q0 -57 -35 -99t-100 -58l-15 -37q58 -20 58 -76q0 -51 -53.5 -78t-136.5 -30l-12 66q80 7 80 42q0 25 -56 40l33 65q-98 10 -171 69l76 106 q68 -50 122 -50q50 0 50 30q0 7 -4.5 13.5t-16 13t-19 10t-28 11t-28.5 10.5q-126 50 -126 148q0 73 54.5 117.5t143.5 44.5q96 0 184 -66z" />
<glyph unicode="&#x160;" horiz-adv-x="564" d="M32 81l98 118q78 -63 152 -63t74 46q0 28 -74 57q-9 4 -14 6l-81 34q-58 23 -94.5 69t-36.5 112q0 85 68.5 143.5t173.5 58.5q58 0 115.5 -22t100.5 -65l-86 -108q-67 47 -130 47q-68 0 -68 -44q0 -19 18 -30.5t62 -28.5q10 -4 16 -6l79 -31q127 -50 127 -178 q0 -87 -68.5 -147.5t-185.5 -60.5q-64 0 -129.5 23.5t-116.5 69.5zM346 824h130l-96 -124h-168l-96 124h130l48 -58h4z" />
<glyph unicode="&#x161;" horiz-adv-x="452" d="M18 58l76 106q68 -50 122 -50q50 0 50 30q0 7 -4.5 13.5t-16 13t-19 10t-28 11t-28.5 10.5q-126 50 -126 148q0 73 54.5 117.5t143.5 44.5q96 0 184 -66l-76 -102q-58 42 -102 42t-44 -28q0 -5 2.5 -10t8 -9t10.5 -7.5t15 -7t17 -6t20 -7t21 -7.5q128 -47 128 -150 q0 -73 -56 -119.5t-158 -46.5q-48 0 -101.5 19.5t-92.5 50.5zM174 574l-96 154h114l48 -74h4l48 74h114l-96 -154h-136z" />
<glyph unicode="&#x162;" horiz-adv-x="564" d="M368 0h-32l-16 -40q58 -20 58 -76q0 -51 -53.5 -78t-136.5 -30l-12 66q80 7 80 42q0 25 -56 40l38 76h-42v506h-172v144h516v-144h-172v-506z" />
<glyph unicode="&#x163;" horiz-adv-x="400" d="M296 -11l-12 -29q58 -20 58 -76q0 -51 -53.5 -78t-136.5 -30l-12 66q80 7 80 42q0 25 -56 40l36 72q-120 33 -120 196v174h-66v128l76 6l20 130h142v-130h114v-134h-114v-171q0 -73 60 -73q20 0 44 8l26 -124q-49 -14 -86 -17z" />
<glyph unicode="&#x164;" horiz-adv-x="564" d="M196 0v506h-172v144h516v-144h-172v-506h-172zM332 824h130l-96 -124h-168l-96 124h130l48 -58h4z" />
<glyph unicode="&#x165;" horiz-adv-x="400" d="M80 192v174h-66v128l76 6l20 130h142v-130h114v-134h-114v-171q0 -73 60 -73q20 0 44 8l26 -124q-58 -18 -118 -18q-94 0 -139 54t-45 150zM360 548h-72l-6 226h108l-2 -74z" />
<glyph unicode="&#x168;" horiz-adv-x="672" d="M68 314v336h172v-356q0 -86 23 -122t75 -36t76 36.5t24 121.5v356h166v-336q0 -167 -65 -246.5t-201 -79.5q-137 0 -203.5 80t-66.5 246zM400 700q-30 0 -69.5 21t-50.5 21q-28 0 -38 -42h-86q9 73 41 109.5t75 36.5q30 0 69.5 -21t50.5 -21q28 0 38 42h86 q-9 -73 -41 -109.5t-75 -36.5z" />
<glyph unicode="&#x169;" horiz-adv-x="578" d="M54 192v308h172v-286q0 -46 11.5 -63t38.5 -17q42 0 72 44v322h172v-500h-140l-12 66h-4q-65 -78 -154 -78q-156 0 -156 204zM114 574q9 73 39 109.5t73 36.5q30 0 69.5 -21t50.5 -21q24 0 34 42h86q-9 -73 -39 -109.5t-73 -36.5q-30 0 -69.5 21t-50.5 21q-24 0 -34 -42 h-86z" />
<glyph unicode="&#x16a;" horiz-adv-x="672" d="M68 314v336h172v-356q0 -86 23 -122t75 -36t76 36.5t24 121.5v356h166v-336q0 -167 -65 -246.5t-201 -79.5q-137 0 -203.5 80t-66.5 246zM188 716v108h296v-108h-296z" />
<glyph unicode="&#x16b;" horiz-adv-x="578" d="M54 192v308h172v-286q0 -46 11.5 -63t38.5 -17q42 0 72 44v322h172v-500h-140l-12 66h-4q-65 -78 -154 -78q-156 0 -156 204zM146 588v108h288v-108h-288z" />
<glyph unicode="&#x16c;" horiz-adv-x="672" d="M68 314v336h172v-356q0 -86 23 -122t75 -36t76 36.5t24 121.5v356h166v-336q0 -167 -65 -246.5t-201 -79.5q-137 0 -203.5 80t-66.5 246zM336 700q-129 0 -142 124h92q10 -40 50 -40t50 40h92q-13 -124 -142 -124z" />
<glyph unicode="&#x16d;" horiz-adv-x="578" d="M54 192v308h172v-286q0 -46 11.5 -63t38.5 -17q42 0 72 44v322h172v-500h-140l-12 66h-4q-65 -78 -154 -78q-156 0 -156 204zM290 574q-69 0 -105.5 41t-38.5 103h94q7 -52 50 -52t50 52h94q-2 -62 -38.5 -103t-105.5 -41z" />
<glyph unicode="&#x16e;" horiz-adv-x="672" d="M68 314v336h172v-356q0 -86 23 -122t75 -36t76 36.5t24 121.5v356h166v-336q0 -167 -65 -246.5t-201 -79.5q-137 0 -203.5 80t-66.5 246zM336 696q-54 0 -87 28t-33 74t33 74t87 28t87 -28t33 -74t-33 -74t-87 -28zM336 758q16 0 27 11t11 29t-11 29t-27 11t-27 -11 t-11 -29t11 -29t27 -11z" />
<glyph unicode="&#x16f;" horiz-adv-x="578" d="M54 192v308h172v-286q0 -46 11.5 -63t38.5 -17q42 0 72 44v322h172v-500h-140l-12 66h-4q-65 -78 -154 -78q-156 0 -156 204zM290 550q-54 0 -87 29t-33 77t33 77t87 29t87 -29t33 -77t-33 -77t-87 -29zM290 612q16 0 27 12.5t11 31.5t-11 31.5t-27 12.5t-27 -12.5 t-11 -31.5t11 -31.5t27 -12.5z" />
<glyph unicode="&#x170;" horiz-adv-x="672" d="M68 314v336h172v-356q0 -86 23 -122t75 -36t76 36.5t24 121.5v356h166v-336q0 -167 -65 -246.5t-201 -79.5q-137 0 -203.5 80t-66.5 246zM302 700h-114l62 124h144zM376 700l62 124h144l-92 -124h-114z" />
<glyph unicode="&#x171;" horiz-adv-x="578" d="M54 192v308h172v-286q0 -46 11.5 -63t38.5 -17q42 0 72 44v322h172v-500h-140l-12 66h-4q-65 -78 -154 -78q-156 0 -156 204zM154 574l68 154h134l-98 -154h-104zM334 574l68 154h134l-98 -154h-104z" />
<glyph unicode="&#x172;" horiz-adv-x="672" d="M68 314v336h172v-356q0 -86 23 -122t75 -36t76 36.5t24 121.5v356h166v-336q0 -94 -17.5 -154t-54 -97.5t-102.5 -66.5q-68 -31 -68 -80q0 -17 11.5 -25.5t28.5 -8.5q13 0 34 14l38 -86q-21 -17 -53.5 -27.5t-60.5 -10.5q-53 0 -87.5 26.5t-34.5 71.5q0 65 64 120 q-118 9 -176 89t-58 235z" />
<glyph unicode="&#x173;" horiz-adv-x="578" d="M54 192v308h172v-286q0 -46 11.5 -63t38.5 -17q42 0 72 44v322h172v-500q-88 -21 -88 -78q0 -16 12 -25t28 -9q18 0 34 12l34 -76q-46 -36 -110 -36q-49 0 -80.5 24.5t-31.5 69.5q0 69 64 114l-14 70h-4q-65 -78 -154 -78q-156 0 -156 204z" />
<glyph unicode="&#x174;" horiz-adv-x="824" d="M124 0l-114 650h176l36 -284q4 -34 11.5 -102t10.5 -102h4q4 23 11.5 64.5t13.5 75.5t11 64l62 284h144l62 -284q9 -49 36 -204h4q4 39 12 110.5t10 93.5l36 284h164l-108 -650h-218l-50 258q-13 67 -24 152h-4q-17 -118 -24 -152l-48 -258h-214zM362 700h-130l96 124 h168l96 -124h-130l-48 58h-4z" />
<glyph unicode="&#x175;" horiz-adv-x="798" d="M144 0l-120 500h170l38 -210q4 -26 10 -76.5t10 -75.5h4q16 104 28 152l46 210h146l48 -210q4 -16 30 -152h4q4 25 10 75.5t10 76.5l38 210h158l-114 -500h-200l-36 174q-16 92 -24 147h-4q-18 -125 -22 -147l-34 -174h-196zM236 574l96 154h136l96 -154h-114l-48 74h-4 l-48 -74h-114z" />
<glyph unicode="&#x176;" horiz-adv-x="544" d="M186 0v224l-196 426h184l48 -136q9 -27 25.5 -75.5t23.5 -69.5h4q10 29 27.5 79t23.5 66l48 136h180l-196 -426v-224h-172zM222 700h-130l96 124h168l96 -124h-130l-48 58h-4z" />
<glyph unicode="&#x177;" horiz-adv-x="542" d="M86 -48q27 -6 32 -6q61 0 78 50l6 22l-190 482h172l60 -192q9 -30 36 -142h4q18 84 32 142l50 192h164l-168 -492q-41 -106 -90.5 -151t-139.5 -45q-39 0 -76 10zM112 574l96 154h136l96 -154h-114l-48 74h-4l-48 -74h-114z" />
<glyph unicode="&#x178;" horiz-adv-x="544" d="M186 0v224l-196 426h184l48 -136q9 -27 25.5 -75.5t23.5 -69.5h4q10 29 27.5 79t23.5 66l48 136h180l-196 -426v-224h-172zM168 694q-34 0 -56 22.5t-22 55.5t22 55.5t56 22.5t56 -22.5t22 -55.5t-22 -55.5t-56 -22.5zM376 694q-34 0 -56 22.5t-22 55.5t22 55.5t56 22.5 t56 -22.5t22 -55.5t-22 -55.5t-56 -22.5z" />
<glyph unicode="&#x179;" horiz-adv-x="542" d="M32 0v104l266 402h-240v144h452v-104l-266 -402h268v-144h-480zM458 824l-122 -124h-136l78 124h180z" />
<glyph unicode="&#x17a;" horiz-adv-x="474" d="M40 0v92l190 274h-168v134h382v-92l-190 -274h196v-134h-410zM416 728l-128 -154h-124l88 154h164z" />
<glyph unicode="&#x17b;" horiz-adv-x="542" d="M32 0v104l266 402h-240v144h452v-104l-266 -402h268v-144h-480zM284 696q-42 0 -69 24t-27 62t27 62t69 24t69 -24t27 -62t-27 -62t-69 -24z" />
<glyph unicode="&#x17c;" horiz-adv-x="474" d="M40 0v92l190 274h-168v134h382v-92l-190 -274h196v-134h-410zM252 562q-40 0 -66 24t-26 62t26 62t66 24t66 -24t26 -62t-26 -62t-66 -24z" />
<glyph unicode="&#x17d;" horiz-adv-x="542" d="M32 0v104l266 402h-240v144h452v-104l-266 -402h268v-144h-480zM334 824h130l-96 -124h-168l-96 124h130l48 -58h4z" />
<glyph unicode="&#x17e;" horiz-adv-x="474" d="M40 0v92l190 274h-168v134h382v-92l-190 -274h196v-134h-410zM184 574l-96 154h114l48 -74h4l48 74h114l-96 -154h-136z" />
<glyph unicode="&#x180;" horiz-adv-x="582" d="M230 316v-164q27 -24 64 -24q74 0 74 118q0 106 -70 106q-38 0 -68 -36zM230 514l-4 -72q55 50 123 50q88 0 141.5 -66.5t53.5 -176.5q0 -120 -62 -190.5t-146 -70.5q-69 0 -126 66h-4l-14 -54h-134v550h-66v74l66 5v67h172v-66h164v-80h-164v-36z" />
<glyph unicode="&#x18f;" horiz-adv-x="684" d="M464 256h-240q6 -65 37.5 -96.5t80.5 -31.5q45 0 77.5 32.5t44.5 95.5zM188 462l-78 118q92 82 236 82q131 0 212.5 -89.5t81.5 -246.5q0 -158 -82.5 -248t-215.5 -90t-213.5 88t-80.5 246q0 18 4 58h415q-20 142 -143 142q-68 0 -136 -60z" />
<glyph unicode="&#x192;" horiz-adv-x="540" d="M506 644l-31 -128q-27 10 -43 10q-59 0 -66 -58l-6 -52h94v-124h-109l-21 -170q-6 -49 -17 -84.5t-32.5 -68t-59 -49t-89.5 -16.5q-68 2 -91 15l21 127q18 -6 42 -8q33 2 47 26.5t23 109.5l13 118h-69v118l76 6h8l4 38q13 114 62 161t155 47q53 0 89 -18z" />
<glyph unicode="&#x1a0;" horiz-adv-x="692" d="M346 136q58 0 92 51.5t34 140.5q0 88 -33.5 137t-92.5 49t-92.5 -49t-33.5 -137q0 -89 34 -140.5t92 -51.5zM524 738l116 50q32 -36 32 -86q0 -96 -109 -126q85 -90 85 -248t-82.5 -249t-219.5 -91t-219.5 91t-82.5 249t82.5 246t219.5 88q79 0 143 -31q27 8 39 20.5 t12 38.5q0 23 -16 48z" />
<glyph unicode="&#x1a1;" horiz-adv-x="560" d="M280 126q72 0 72 124t-72 124t-72 -124t72 -124zM408 598l116 50q32 -36 32 -86q0 -47 -27 -79t-72 -44q71 -74 71 -189q0 -119 -73.5 -190.5t-174.5 -71.5t-174.5 71.5t-73.5 190.5t73.5 190.5t174.5 71.5q48 0 97 -19q47 13 47 57q0 23 -16 48z" />
<glyph unicode="&#x1af;" horiz-adv-x="692" d="M586 758l116 50q32 -36 32 -86q0 -108 -130 -133v-275q0 -167 -65 -246.5t-201 -79.5q-137 0 -203.5 80t-66.5 246v336h172v-356q0 -86 23 -122t75 -36t76 36.5t24 121.5v356h84q80 0 80 60q0 23 -16 48z" />
<glyph unicode="&#x1b0;" horiz-adv-x="578" d="M468 608l116 50q32 -36 32 -86q0 -90 -96 -123v-449h-140l-12 66h-4q-65 -78 -154 -78q-156 0 -156 204v308h172v-286q0 -46 11.5 -63t38.5 -17q42 0 72 44v322h56q80 0 80 60q0 23 -16 48z" />
<glyph unicode="&#x1cd;" horiz-adv-x="584" d="M372 700h-168l-96 124h130l48 -58h4l48 58h130zM229 271h120l-11 45q-9 34 -25 105.5t-23 100.5h-4q-33 -156 -46 -206zM412 0l-32 138h-182l-32 -138h-176l198 650h208l198 -650h-182z" />
<glyph unicode="&#x1ce;" horiz-adv-x="542" d="M42 142q0 79 64.5 123t207.5 59q-6 52 -70 52q-48 0 -126 -42l-60 112q110 66 220 66q208 0 208 -234v-278h-140l-12 48h-4q-67 -60 -138 -60q-68 0 -109 45t-41 109zM206 156q0 -36 46 -36q31 0 62 34v68q-108 -16 -108 -66zM217 574l-96 154h114l48 -74h4l48 74h114 l-96 -154h-136z" />
<glyph unicode="&#x1cf;" horiz-adv-x="316" d="M72 0v650h172v-650h-172zM208 824h130l-96 -124h-168l-96 124h130l48 -58h4z" />
<glyph unicode="&#x1d0;" horiz-adv-x="288" d="M58 0v500h172v-500h-172zM76 574l-96 154h114l48 -74h4l48 74h114l-96 -154h-136z" />
<glyph unicode="&#x1d1;" horiz-adv-x="692" d="M346 -12q-137 0 -219.5 91t-82.5 249t82.5 246t219.5 88t219.5 -88.5t82.5 -245.5q0 -158 -82.5 -249t-219.5 -91zM346 136q58 0 92 51.5t34 140.5q0 88 -33.5 137t-92.5 49t-92.5 -49t-33.5 -137q0 -89 34 -140.5t92 -51.5zM396 824h130l-96 -124h-168l-96 124h130 l48 -58h4z" />
<glyph unicode="&#x1d2;" horiz-adv-x="560" d="M32 250q0 119 73.5 190.5t174.5 71.5t174.5 -71.5t73.5 -190.5t-73.5 -190.5t-174.5 -71.5t-174.5 71.5t-73.5 190.5zM208 250q0 -124 72 -124t72 124t-72 124t-72 -124zM212 574l-96 154h114l48 -74h4l48 74h114l-96 -154h-136z" />
<glyph unicode="&#x1d3;" horiz-adv-x="672" d="M68 314v336h172v-356q0 -86 23 -122t75 -36t76 36.5t24 121.5v356h166v-336q0 -167 -65 -246.5t-201 -79.5q-137 0 -203.5 80t-66.5 246zM386 824h130l-96 -124h-168l-96 124h130l48 -58h4z" />
<glyph unicode="&#x1d4;" horiz-adv-x="578" d="M54 192v308h172v-286q0 -46 11.5 -63t38.5 -17q42 0 72 44v322h172v-500h-140l-12 66h-4q-65 -78 -154 -78q-156 0 -156 204zM222 574l-96 154h114l48 -74h4l48 74h114l-96 -154h-136z" />
<glyph unicode="&#x1d5;" horiz-adv-x="672" d="M68 314v336h172v-356q0 -86 23 -122t75 -36t76 36.5t24 121.5v356h166v-336q0 -167 -65 -246.5t-201 -79.5q-137 0 -203.5 80t-66.5 246zM188 876v78h296v-78h-296zM232 694q-30 0 -49 19.5t-19 48.5t19 48.5t49 19.5t49 -19.5t19 -48.5t-19 -48.5t-49 -19.5zM440 694 q-30 0 -49 19.5t-19 48.5t19 48.5t49 19.5t49 -19.5t19 -48.5t-19 -48.5t-49 -19.5z" />
<glyph unicode="&#x1d6;" horiz-adv-x="578" d="M54 192v308h172v-286q0 -46 11.5 -63t38.5 -17q42 0 72 44v322h172v-500h-140l-12 66h-4q-65 -78 -154 -78q-156 0 -156 204zM186 564q-30 0 -49 19.5t-19 48.5t19 48.5t49 19.5t49 -19.5t19 -48.5t-19 -48.5t-49 -19.5zM394 564q-30 0 -49 19.5t-19 48.5t19 48.5 t49 19.5t49 -19.5t19 -48.5t-19 -48.5t-49 -19.5zM146 758v78h288v-78h-288z" />
<glyph unicode="&#x1d7;" horiz-adv-x="672" d="M68 314v336h172v-356q0 -86 23 -122t75 -36t76 36.5t24 121.5v356h166v-336q0 -167 -65 -246.5t-201 -79.5q-137 0 -203.5 80t-66.5 246zM252 860l78 124h178l-120 -124h-136zM232 694q-30 0 -49 19.5t-19 48.5t19 48.5t49 19.5t49 -19.5t19 -48.5t-19 -48.5t-49 -19.5z M440 694q-30 0 -49 19.5t-19 48.5t19 48.5t49 19.5t49 -19.5t19 -48.5t-19 -48.5t-49 -19.5z" />
<glyph unicode="&#x1d8;" horiz-adv-x="578" d="M54 192v308h172v-286q0 -46 11.5 -63t38.5 -17q42 0 72 44v322h172v-500h-140l-12 66h-4q-65 -78 -154 -78q-156 0 -156 204zM216 744l84 114h144l-120 -114h-108zM186 564q-30 0 -49 19.5t-19 48.5t19 48.5t49 19.5t49 -19.5t19 -48.5t-19 -48.5t-49 -19.5zM394 564 q-30 0 -49 19.5t-19 48.5t19 48.5t49 19.5t49 -19.5t19 -48.5t-19 -48.5t-49 -19.5z" />
<glyph unicode="&#x1d9;" horiz-adv-x="672" d="M68 314v336h172v-356q0 -86 23 -122t75 -36t76 36.5t24 121.5v356h166v-336q0 -167 -65 -246.5t-201 -79.5q-137 0 -203.5 80t-66.5 246zM232 694q-30 0 -49 19.5t-19 48.5t19 48.5t49 19.5t49 -19.5t19 -48.5t-19 -48.5t-49 -19.5zM440 694q-30 0 -49 19.5t-19 48.5 t19 48.5t49 19.5t49 -19.5t19 -48.5t-19 -48.5t-49 -19.5zM386 984h130l-96 -124h-168l-96 124h130l48 -58h4z" />
<glyph unicode="&#x1da;" horiz-adv-x="578" d="M54 192v308h172v-286q0 -46 11.5 -63t38.5 -17q42 0 72 44v322h172v-500h-140l-12 66h-4q-65 -78 -154 -78q-156 0 -156 204zM218 744l-84 114h114l40 -56h4l40 56h114l-84 -114h-144zM186 564q-30 0 -49 19.5t-19 48.5t19 48.5t49 19.5t49 -19.5t19 -48.5t-19 -48.5 t-49 -19.5zM394 564q-30 0 -49 19.5t-19 48.5t19 48.5t49 19.5t49 -19.5t19 -48.5t-19 -48.5t-49 -19.5z" />
<glyph unicode="&#x1db;" horiz-adv-x="672" d="M68 314v336h172v-356q0 -86 23 -122t75 -36t76 36.5t24 121.5v356h166v-336q0 -167 -65 -246.5t-201 -79.5q-137 0 -203.5 80t-66.5 246zM342 984l78 -124h-136l-120 124h178zM440 694q-30 0 -49 19.5t-19 48.5t19 48.5t49 19.5t49 -19.5t19 -48.5t-19 -48.5t-49 -19.5z M232 694q-30 0 -49 19.5t-19 48.5t19 48.5t49 19.5t49 -19.5t19 -48.5t-19 -48.5t-49 -19.5z" />
<glyph unicode="&#x1dc;" horiz-adv-x="578" d="M54 192v308h172v-286q0 -46 11.5 -63t38.5 -17q42 0 72 44v322h172v-500h-140l-12 66h-4q-65 -78 -154 -78q-156 0 -156 204zM280 858l84 -114h-108l-120 114h144zM394 564q-30 0 -49 19.5t-19 48.5t19 48.5t49 19.5t49 -19.5t19 -48.5t-19 -48.5t-49 -19.5zM186 564 q-30 0 -49 19.5t-19 48.5t19 48.5t49 19.5t49 -19.5t19 -48.5t-19 -48.5t-49 -19.5z" />
<glyph unicode="&#x1e6;" horiz-adv-x="646" d="M44 320q0 158 94.5 250t233.5 92q122 0 208 -86l-94 -106q-50 44 -112 44q-68 0 -111 -50.5t-43 -137.5q0 -190 170 -190q32 0 50 12v90h-96v140h248v-310q-38 -35 -98 -57.5t-126 -22.5q-141 0 -232.5 86t-91.5 246zM422 824h130l-96 -124h-168l-96 124h130l48 -58h4z " />
<glyph unicode="&#x1e7;" horiz-adv-x="546" d="M170 -54q0 -46 98 -46q43 0 70.5 12.5t27.5 33.5q0 18 -15.5 24t-51.5 6h-39q-51 0 -72 6q-18 -18 -18 -36zM30 -82q0 59 70 96v4q-46 32 -46 86t56 94v4q-29 20 -48.5 53.5t-19.5 74.5q0 88 62.5 135t151.5 47q44 0 80 -12h186v-124h-72q8 -24 8 -52q0 -84 -56 -125 t-146 -41q-25 0 -56 7q-12 -11 -12 -29q0 -16 16 -23t54 -7h75q197 0 197 -130q0 -82 -79 -132t-211 -50q-93 0 -151.5 30t-58.5 94zM256 260q54 0 54 70q0 33 -14.5 50.5t-39.5 17.5t-39.5 -17.5t-14.5 -50.5q0 -70 54 -70zM188 574l-96 154h114l48 -74h4l48 74h114 l-96 -154h-136z" />
<glyph unicode="&#x1ea;" horiz-adv-x="692" d="M248 -130q0 65 64 120q-124 12 -196 101t-72 237q0 158 82.5 246t219.5 88t219.5 -88.5t82.5 -245.5q0 -132 -52.5 -208.5t-155.5 -123.5q-68 -31 -68 -80q0 -17 11.5 -25.5t28.5 -8.5q13 0 34 14l38 -86q-21 -17 -53.5 -27.5t-60.5 -10.5q-53 0 -87.5 26.5t-34.5 71.5z M346 136q58 0 92 51.5t34 140.5q0 88 -33.5 137t-92.5 49t-92.5 -49t-33.5 -137q0 -89 34 -140.5t92 -51.5z" />
<glyph unicode="&#x1eb;" horiz-adv-x="560" d="M186 -118q0 61 55 109q-89 13 -149 82.5t-60 176.5q0 119 73.5 190.5t174.5 71.5t174.5 -71.5t73.5 -190.5q0 -171 -164 -248q-64 -30 -64 -80q0 -17 11.5 -25.5t28.5 -8.5q16 0 34 12l34 -76q-46 -36 -110 -36q-49 0 -80.5 24.5t-31.5 69.5zM208 250q0 -124 72 -124 t72 124t-72 124t-72 -124z" />
<glyph unicode="&#x218;" horiz-adv-x="564" d="M32 81l98 118q78 -63 152 -63t74 46q0 28 -74 57q-9 4 -14 6l-81 34q-58 23 -94.5 69t-36.5 112q0 85 68.5 143.5t173.5 58.5q58 0 115.5 -22t100.5 -65l-86 -108q-67 47 -130 47q-68 0 -68 -44q0 -19 18 -30.5t62 -28.5q10 -4 16 -6l79 -31q127 -50 127 -178 q0 -87 -68.5 -147.5t-185.5 -60.5q-64 0 -129.5 23.5t-116.5 69.5zM244 -40q72 -6 101 -26t29 -60q0 -51 -53.5 -78t-136.5 -30l-12 66q80 7 80 34q0 23 -40 34z" />
<glyph unicode="&#x219;" horiz-adv-x="452" d="M18 58l76 106q68 -50 122 -50q50 0 50 30q0 7 -4.5 13.5t-16 13t-19 10t-28 11t-28.5 10.5q-126 50 -126 148q0 73 54.5 117.5t143.5 44.5q96 0 184 -66l-76 -102q-58 42 -102 42t-44 -28q0 -5 2.5 -10t8 -9t10.5 -7.5t15 -7t17 -6t20 -7t21 -7.5q128 -47 128 -150 q0 -73 -56 -119.5t-158 -46.5q-48 0 -101.5 19.5t-92.5 50.5zM198 -40q72 -6 101 -26t29 -60q0 -51 -53.5 -78t-136.5 -30l-12 66q80 7 80 34q0 23 -40 34z" />
<glyph unicode="&#x21a;" horiz-adv-x="564" d="M196 0v506h-172v144h516v-144h-172v-506h-172zM244 -40q72 -6 101 -26t29 -60q0 -51 -53.5 -78t-136.5 -30l-12 66q80 7 80 34q0 23 -40 34z" />
<glyph unicode="&#x21b;" horiz-adv-x="400" d="M80 192v174h-66v128l76 6l20 130h142v-130h114v-134h-114v-171q0 -73 60 -73q20 0 44 8l26 -124q-58 -18 -118 -18q-94 0 -139 54t-45 150zM206 -40q72 -6 101 -26t29 -60q0 -51 -53.5 -78t-136.5 -30l-12 66q80 7 80 34q0 23 -40 34z" />
<glyph unicode="&#x237;" horiz-adv-x="290" d="M60 20v480h172v-474q0 -95 -45 -154.5t-149 -59.5q-56 0 -94 14l30 126q21 -6 36 -6q27 0 38.5 17t11.5 57z" />
<glyph unicode="&#x243;" horiz-adv-x="638" d="M270 122h70q51 0 77.5 24.5t26.5 69.5q0 88 -104 88h-70v-50h116v-80h-116v-52zM270 528v-124h58q41 0 63.5 18.5t22.5 49.5q0 56 -86 56h-58zM470 368v-4q138 -28 138 -162q0 -100 -72 -151t-184 -51h-254v174h-74v74l74 6v396h234q246 0 246 -156q0 -42 -27 -77.5 t-81 -48.5z" />
<glyph unicode="&#x251;" horiz-adv-x="580" d="M212 252q0 -124 74 -124q41 0 64 36v184q-27 24 -68 24q-30 0 -50 -29t-20 -91zM36 250q0 117 63 189.5t145 72.5q72 0 126 -62h4l14 50h134v-500h-140l-12 46h-4q-58 -58 -126 -58q-93 0 -148.5 70.5t-55.5 191.5z" />
<glyph unicode="&#x259;" horiz-adv-x="526" d="M36 230q0 40 7 68h285q-18 84 -102 84q-50 0 -102 -30l-56 102q87 58 188 58q103 0 170.5 -71.5t67.5 -190.5q0 -117 -70.5 -189.5t-169.5 -72.5q-106 0 -162 68t-56 174zM182 194q0 -76 68 -76q67 0 80 76h-148z" />
<glyph unicode="&#x261;" horiz-adv-x="592" d="M128 -18q65 -34 134 -34q83 0 94 62l4 50q-49 -44 -114 -44q-92 0 -148 69t-56 175q0 109 63.5 180.5t144.5 71.5q74 0 124 -58h4l12 46h138v-484q0 -98 -69 -150t-197 -52q-42 0 -94.5 14.5t-95.5 41.5zM292 154q39 0 64 38v156q-27 24 -68 24q-31 0 -51.5 -28.5 t-20.5 -81.5q0 -52 20.5 -80t55.5 -28z" />
<glyph unicode="&#x2b0;" horiz-adv-x="391" d="M38 260v460h120v-108l-8 -58q46 46 101 46q105 0 105 -138v-202h-120v188q0 29 -6 40.5t-26 11.5q-19 0 -46 -25v-215h-120z" />
<glyph unicode="&#x2b2;" horiz-adv-x="198" d="M28 128q-36 0 -64 8l20 88q12 -4 26 -4q17 0 23.5 10.5t6.5 37.5v324h120v-320q0 -63 -30.5 -103.5t-101.5 -40.5zM100 630q-29 0 -47.5 16t-18.5 42t18.5 42t47.5 16t47.5 -16.5t18.5 -41.5t-18.5 -41.5t-47.5 -16.5z" />
<glyph unicode="&#x2b3;" horiz-adv-x="284" d="M38 260v332h97l9 -58h2q37 66 94 66q26 0 44 -8l-20 -102q-30 6 -38 6q-46 0 -68 -54v-182h-120z" />
<glyph unicode="&#x2b7;" horiz-adv-x="537" d="M96 260l-80 332h118l24 -136l12 -102h3l17 102l34 136h94l36 -136l18 -102h3l13 102l24 136h109l-75 -332h-138l-24 112l-14 90h-2l-14 -90l-22 -112h-136z" />
<glyph unicode="&#x2b8;" horiz-adv-x="366" d="M58 234q12 -4 22 -4q41 0 52 32l4 12l-128 318h120l38 -124l8 -30t7.5 -33.5t6.5 -30.5h4q5 24 22 94l30 124h114l-110 -324q-28 -70 -62 -99t-96 -29q-28 0 -52 6z" />
<glyph unicode="&#x2b9;" horiz-adv-x="320" d="M79 324l21 360h172l-29 -162l-52 -198h-112z" />
<glyph unicode="&#x2bb;" horiz-adv-x="320" d="M210 678l36 -74q-96 -42 -96 -127q3 1 10 1q37 0 61.5 -22.5t24.5 -59.5q0 -42 -24 -67t-62 -25q-52 0 -79 38t-27 108q0 154 156 228z" />
<glyph unicode="&#x2bc;" horiz-adv-x="320" d="M110 322l-36 74q96 42 96 127q-3 -1 -10 -1q-37 0 -61.5 22.5t-24.5 59.5q0 42 24 67t62 25q52 0 79 -38t27 -108q0 -154 -156 -228z" />
<glyph unicode="&#x2be;" horiz-adv-x="170" d="M24 550v62q54 0 54 44t-54 44v62q68 3 102 -26t34 -80t-34 -80t-102 -26z" />
<glyph unicode="&#x2bf;" horiz-adv-x="170" d="M146 762v-62q-54 0 -54 -44t54 -44v-62q-68 -3 -102 26t-34 80t34 80t102 26z" />
<glyph unicode="&#x2c6;" horiz-adv-x="560" d="M116 574l96 154h136l96 -154h-114l-48 74h-4l-48 -74h-114z" />
<glyph unicode="&#x2c7;" horiz-adv-x="560" d="M212 574l-96 154h114l48 -74h4l48 74h114l-96 -154h-136z" />
<glyph unicode="&#x2c8;" horiz-adv-x="160" d="M18 542l-6 208h136l-6 -208h-124z" />
<glyph unicode="&#x2c9;" horiz-adv-x="320" d="M16 588v108h288v-108h-288z" />
<glyph unicode="&#x2ca;" horiz-adv-x="240" d="M284 728l-128 -154h-124l88 154h164z" />
<glyph unicode="&#x2cb;" horiz-adv-x="240" d="M84 574l-128 154h164l88 -154h-124z" />
<glyph unicode="&#x2cc;" horiz-adv-x="160" d="M18 -62h124l6 -208h-136z" />
<glyph unicode="&#x2d8;" horiz-adv-x="560" d="M280 574q-69 0 -105.5 41t-38.5 103h94q7 -52 50 -52t50 52h94q-2 -62 -38.5 -103t-105.5 -41z" />
<glyph unicode="&#x2d9;" horiz-adv-x="560" d="M280 562q-40 0 -66 24t-26 62t26 62t66 24t66 -24t26 -62t-26 -62t-66 -24z" />
<glyph unicode="&#x2da;" horiz-adv-x="560" d="M280 550q-54 0 -87 29t-33 77t33 77t87 29t87 -29t33 -77t-33 -77t-87 -29zM280 612q16 0 27 12.5t11 31.5t-11 31.5t-27 12.5t-27 -12.5t-11 -31.5t11 -31.5t27 -12.5z" />
<glyph unicode="&#x2db;" horiz-adv-x="560" d="M186 -118q0 40 22.5 71.5t47.5 48.5h92q-48 -40 -48 -80q0 -17 11.5 -25.5t28.5 -8.5q18 0 34 12l34 -76q-46 -36 -110 -36q-49 0 -80.5 24.5t-31.5 69.5z" />
<glyph unicode="&#x2dc;" horiz-adv-x="560" d="M104 574q9 73 39 109.5t73 36.5q30 0 69.5 -21t50.5 -21q24 0 34 42h86q-9 -73 -39 -109.5t-73 -36.5q-30 0 -69.5 21t-50.5 21q-24 0 -34 -42h-86z" />
<glyph unicode="&#x2dd;" horiz-adv-x="560" d="M144 574l68 154h134l-98 -154h-104zM324 574l68 154h134l-98 -154h-104z" />
<glyph unicode="&#x2e1;" horiz-adv-x="202" d="M38 380v340h120v-344q0 -30 18 -30q6 0 12 2l14 -86q-23 -10 -58 -10q-106 0 -106 128z" />
<glyph unicode="&#x2e2;" horiz-adv-x="302" d="M14 296l50 74q47 -32 82 -32q32 0 32 18q0 5 -3 8.5t-10 7t-13.5 6t-18 7t-19.5 7.5q-84 34 -84 99q0 49 37 79t97 30q64 0 124 -44l-52 -70q-42 28 -68 28q-28 0 -28 -18q0 -5 3 -8.5t10.5 -7t14 -6t18 -6t18.5 -6.5q84 -31 84 -99q0 -49 -38 -80t-107 -31 q-70 0 -129 44z" />
<glyph unicode="&#x2e3;" horiz-adv-x="364" d="M8 260l102 172l-96 160h128l22 -46l26 -50h4l18 50l16 46h124l-96 -174l100 -158h-126l-24 44l-30 50h-4l-22 -50l-18 -44h-124z" />
<glyph unicode="&#x300;" d="M-36 574l-128 154h164l88 -154h-124z" />
<glyph unicode="&#x301;" d="M164 728l-128 -154h-124l88 154h164z" />
<glyph unicode="&#x302;" d="M-164 574l96 154h136l96 -154h-114l-48 74h-4l-48 -74h-114z" />
<glyph unicode="&#x303;" d="M-176 574q9 73 39 109.5t73 36.5q30 0 69.5 -21t50.5 -21q24 0 34 42h86q-9 -73 -39 -109.5t-73 -36.5q-30 0 -69.5 21t-50.5 21q-24 0 -34 -42h-86z" />
<glyph unicode="&#x304;" d="M-144 588v108h288v-108h-288z" />
<glyph unicode="&#x306;" d="M0 574q-69 0 -105.5 41t-38.5 103h94q7 -52 50 -52t50 52h94q-2 -62 -38.5 -103t-105.5 -41z" />
<glyph unicode="&#x307;" d="M0 562q-40 0 -66 24t-26 62t26 62t66 24t66 -24t26 -62t-26 -62t-66 -24z" />
<glyph unicode="&#x308;" d="M-104 564q-34 0 -56 22.5t-22 55.5t22 55.5t56 22.5t56 -22.5t22 -55.5t-22 -55.5t-56 -22.5zM104 564q-34 0 -56 22.5t-22 55.5t22 55.5t56 22.5t56 -22.5t22 -55.5t-22 -55.5t-56 -22.5z" />
<glyph unicode="&#x309;" d="M-38 558l-12 66q40 5 40 24q0 25 -78 30l20 84q180 -5 180 -96q0 -51 -42 -78t-108 -30z" />
<glyph unicode="&#x30a;" d="M0 550q-54 0 -87 29t-33 77t33 77t87 29t87 -29t33 -77t-33 -77t-87 -29zM0 612q16 0 27 12.5t11 31.5t-11 31.5t-27 12.5t-27 -12.5t-11 -31.5t11 -31.5t27 -12.5z" />
<glyph unicode="&#x30b;" d="M-136 574l68 154h134l-98 -154h-104zM44 574l68 154h134l-98 -154h-104z" />
<glyph unicode="&#x30c;" d="M-68 574l-96 154h114l48 -74h4l48 74h114l-96 -154h-136z" />
<glyph unicode="&#x30f;" d="M68 728l68 -154h-104l-98 154h134zM-112 728l68 -154h-104l-98 154h134z" />
<glyph unicode="&#x312;" d="M32 766l24 -50q-58 -19 -65 -55q3 1 8 1q24 0 40.5 -15.5t16.5 -40.5q0 -28 -16.5 -45t-41.5 -17q-72 0 -72 88q0 96 106 134z" />
<glyph unicode="&#x313;" d="M-36 540l-24 50q58 19 65 55q-3 -1 -8 -1q-24 0 -40.5 15.5t-16.5 40.5q0 28 16.5 45t41.5 17q72 0 72 -88q0 -96 -106 -134z" />
<glyph unicode="&#x31b;" d="M2 424l-12 66q30 6 45 18.5t15 41.5q0 23 -16 48l116 50q32 -36 32 -86q0 -66 -50.5 -100.5t-129.5 -37.5z" />
<glyph unicode="&#x323;" d="M0 -234q-40 0 -66 24t-26 62t26 62t66 24t66 -24t26 -62t-26 -62t-66 -24z" />
<glyph unicode="&#x324;" d="M-104 -222q-34 0 -56 22.5t-22 55.5t22 55.5t56 22.5t56 -22.5t22 -55.5t-22 -55.5t-56 -22.5zM104 -222q-34 0 -56 22.5t-22 55.5t22 55.5t56 22.5t56 -22.5t22 -55.5t-22 -55.5t-56 -22.5z" />
<glyph unicode="&#x326;" d="M-38 -40q72 -6 101 -26t29 -60q0 -51 -53.5 -78t-136.5 -30l-12 66q80 7 80 34q0 23 -40 34z" />
<glyph unicode="&#x327;" d="M-86 -76l40 80h98l-18 -44q58 -20 58 -76q0 -51 -53.5 -78t-136.5 -30l-12 66q80 7 80 42q0 25 -56 40z" />
<glyph unicode="&#x328;" d="M-94 -118q0 40 22.5 71.5t47.5 48.5h92q-48 -40 -48 -80q0 -17 11.5 -25.5t28.5 -8.5q18 0 34 12l34 -76q-46 -36 -110 -36q-49 0 -80.5 24.5t-31.5 69.5z" />
<glyph unicode="&#x32e;" d="M0 -212q-69 0 -105.5 41t-38.5 103h94q7 -52 50 -52t50 52h94q-2 -62 -38.5 -103t-105.5 -41z" />
<glyph unicode="&#x331;" d="M144 -88v-108h-288v108h288z" />
<glyph unicode="&#x3c0;" horiz-adv-x="624" d="M102 0v366h-86v128l76 6h506v-134h-64v-196q0 -23 8.5 -33.5t19.5 -10.5q10 0 18 2l20 -126q-32 -14 -84 -14q-154 0 -154 188v190h-89l-1 -366h-170z" />
<glyph unicode="&#x1d43;" horiz-adv-x="364" d="M128 252q-46 0 -74 30t-28 72q0 53 43.5 82t138.5 38q-4 32 -44 32q-32 0 -86 -28l-42 78q75 44 150 44q67 0 104.5 -38.5t37.5 -115.5v-186h-96l-10 32h-4q-40 -40 -90 -40zM169 342q19 0 39 20v44q-68 -8 -68 -42q0 -22 29 -22z" />
<glyph unicode="&#x1d47;" horiz-adv-x="390" d="M38 260v460h120v-107l-4 -47q37 34 82 34q58 0 94 -46.5t36 -121.5q0 -83 -41 -131.5t-97 -48.5q-52 0 -84 44h-4l-10 -36h-92zM158 360q20 -14 40 -14q46 0 46 84q0 74 -44 74q-23 0 -42 -22v-122z" />
<glyph unicode="&#x1d48;" horiz-adv-x="390" d="M160 252q-63 0 -99.5 47.5t-36.5 132.5q0 74 42 121t94 47q47 0 78 -34l-6 52v102h120v-460h-98l-8 30h-2q-38 -38 -84 -38zM194 346q25 0 38 24v120q-19 16 -40 16q-20 0 -33 -18.5t-13 -55.5q0 -86 48 -86z" />
<glyph unicode="&#x1d49;" horiz-adv-x="350" d="M196 252q-75 0 -124.5 47.5t-49.5 126.5q0 77 47.5 125.5t114.5 48.5q71 0 108.5 -45.5t37.5 -116.5q0 -23 -6 -44h-188q12 -52 76 -52q37 0 68 18l40 -70q-56 -38 -124 -38zM134 460h96q0 50 -45 50q-43 0 -51 -50z" />
<glyph unicode="&#x1d4d;" horiz-adv-x="368" d="M116 226q0 -30 64 -30q27 0 44.5 8t17.5 21q0 19 -42 19h-26q-32 0 -46 4q-12 -12 -12 -22zM20 206q0 41 46 62v4q-30 20 -30 56q0 37 37 62v4q-46 28 -46 84q0 59 42 90.5t103 31.5q33 0 54 -8h124v-86h-46q4 -14 4 -32q0 -55 -38 -82.5t-98 -27.5q-20 0 -36 4 q-8 -8 -8 -18t10 -14t36 -4h50q132 0 132 -86q0 -55 -53 -88.5t-143 -33.5q-62 0 -101 20t-39 62zM172 434q33 0 33 44t-33 44q-34 0 -34 -44t34 -44z" />
<glyph unicode="&#x1d4f;" horiz-adv-x="384" d="M38 260v460h120v-242h4l84 114h128l-122 -142l128 -190h-128l-66 114l-28 -34v-80h-120z" />
<glyph unicode="&#x1d50;" horiz-adv-x="584" d="M38 260v332h97l9 -42h2q50 50 100 50q63 0 93 -54q52 54 103 54q54 0 81 -36.5t27 -101.5v-202h-120v188q0 28 -7.5 40t-26.5 12q-18 0 -42 -24v-216h-120v188q0 28 -7.5 40t-26.5 12q-18 0 -42 -24v-216h-120z" />
<glyph unicode="&#x1d52;" horiz-adv-x="376" d="M188 252q-68 0 -117 47.5t-49 125.5q0 79 49 127t117 48t117 -48t49 -127q0 -78 -49 -125.5t-117 -47.5zM188 346q44 0 44 79q0 81 -44 81t-44 -81q0 -79 44 -79z" />
<glyph unicode="&#x1d56;" horiz-adv-x="390" d="M38 128v464h96l8 -32h2q40 40 92 40q58 0 94 -46.5t36 -121.5q0 -83 -41 -131.5t-97 -48.5q-42 0 -76 34l6 -68v-90h-120zM158 360q20 -14 40 -14q46 0 46 84q0 74 -44 74q-23 0 -42 -22v-122z" />
<glyph unicode="&#x1d57;" horiz-adv-x="270" d="M54 390v110h-44v88l50 4l14 84h100v-84h74v-92h-74v-108q0 -48 38 -48q18 0 28 4l20 -84q-40 -12 -82 -12q-124 0 -124 138z" />
<glyph unicode="&#x1d58;" horiz-adv-x="388" d="M140 252q-53 0 -79.5 35.5t-26.5 99.5v205h120v-190q0 -29 6.5 -39.5t27.5 -10.5q23 0 44 24v216h120v-332h-96l-12 40h-2q-48 -48 -102 -48z" />
<glyph unicode="&#x1d5b;" horiz-adv-x="368" d="M116 260l-108 332h118l34 -142l26 -104h2l24 104l34 142h114l-106 -332h-138z" />
<glyph unicode="&#x1d9c;" horiz-adv-x="316" d="M188 252q-74 0 -120 46.5t-46 127.5q0 78 50 126t122 48t106 -34l-54 -76q-19 16 -40 16q-27 0 -44.5 -22t-17.5 -58t16.5 -58t43.5 -22q28 0 52 20l48 -76q-46 -38 -116 -38z" />
<glyph unicode="&#x1da0;" horiz-adv-x="244" d="M266 724l-22 -84q-16 4 -32 4q-34 0 -34 -48v-4h55v-92h-55v-240h-120v240h-44v88l44 3v1q0 62 32.5 103t103.5 41q40 0 72 -12z" />
<glyph unicode="&#x1dbb;" horiz-adv-x="320" d="M26 260v64l126 176h-110v92h258v-64l-125 -176h129v-92h-278z" />
<glyph unicode="&#x1e06;" horiz-adv-x="612" d="M72 0v650h234q246 0 246 -162q0 -46 -27.5 -86t-80.5 -54v-4q138 -27 138 -152q0 -96 -72 -144t-184 -48h-254zM244 394h58q41 0 61.5 18.5t20.5 49.5q0 30 -20 43t-62 13h-58v-124zM244 132h70q100 0 100 74q0 36 -24.5 52t-75.5 16h-70v-142zM464 -88v-108h-288v108 h288z" />
<glyph unicode="&#x1e07;" horiz-adv-x="580" d="M58 0v696h172v-162l-4 -72q55 50 123 50q88 0 141.5 -69t53.5 -184q0 -124 -62 -197.5t-146 -73.5q-69 0 -126 66h-4l-14 -54h-134zM230 152q27 -24 64 -24q74 0 74 128q0 116 -70 116q-38 0 -68 -36v-184zM441 -88v-108h-288v108h288z" />
<glyph unicode="&#x1e0c;" horiz-adv-x="642" d="M72 0v650h192q156 0 245 -78t89 -244t-87.5 -247t-236.5 -81h-202zM244 138h10q79 0 123.5 42t44.5 148q0 105 -44 144.5t-124 39.5h-10v-374zM316 -234q-40 0 -66 24t-26 62t26 62t66 24t66 -24t26 -62t-26 -62t-66 -24z" />
<glyph unicode="&#x1e0d;" horiz-adv-x="580" d="M36 250q0 118 61.5 190t142.5 72q66 0 116 -50l-6 72v162h172v-696h-140l-12 46h-4q-58 -58 -126 -58q-93 0 -148.5 70.5t-55.5 191.5zM212 252q0 -124 74 -124q41 0 64 36v184q-27 24 -68 24q-30 0 -50 -29t-20 -91zM316 -234q-40 0 -66 24t-26 62t26 62t66 24t66 -24 t26 -62t-26 -62t-66 -24z" />
<glyph unicode="&#x1e0e;" horiz-adv-x="642" d="M72 0v650h192q156 0 245 -78t89 -244t-87.5 -247t-236.5 -81h-202zM244 138h10q79 0 123.5 42t44.5 148q0 105 -44 144.5t-124 39.5h-10v-374zM460 -88v-108h-288v108h288z" />
<glyph unicode="&#x1e0f;" horiz-adv-x="580" d="M36 250q0 118 61.5 190t142.5 72q66 0 116 -50l-6 72v162h172v-696h-140l-12 46h-4q-58 -58 -126 -58q-93 0 -148.5 70.5t-55.5 191.5zM212 252q0 -124 74 -124q41 0 64 36v184q-27 24 -68 24q-30 0 -50 -29t-20 -91zM460 -88v-108h-288v108h288z" />
<glyph unicode="&#x1e16;" horiz-adv-x="556" d="M72 0v650h420v-144h-248v-102h212v-144h-212v-116h258v-144h-430zM206 860l78 124h178l-120 -124h-136zM142 716v108h296v-108h-296z" />
<glyph unicode="&#x1e17;" horiz-adv-x="526" d="M32 250q0 117 72 189.5t168 72.5q106 0 162 -68t56 -174q0 -40 -7 -68h-285q21 -84 116 -84q48 0 102 30l56 -102q-82 -58 -182 -58q-113 0 -185.5 70.5t-72.5 191.5zM196 306h148q0 76 -68 76q-66 0 -80 -76zM198 744l84 114h144l-120 -114h-108zM128 588v108h288v-108 h-288z" />
<glyph unicode="&#x1e20;" horiz-adv-x="646" d="M44 320q0 158 94.5 250t233.5 92q122 0 208 -86l-94 -106q-50 44 -112 44q-68 0 -111 -50.5t-43 -137.5q0 -190 170 -190q32 0 50 12v90h-96v140h248v-310q-38 -35 -98 -57.5t-126 -22.5q-141 0 -232.5 86t-91.5 246zM224 716v108h296v-108h-296z" />
<glyph unicode="&#x1e21;" horiz-adv-x="546" d="M170 -54q0 -46 98 -46q43 0 70.5 12.5t27.5 33.5q0 18 -15.5 24t-51.5 6h-39q-51 0 -72 6q-18 -18 -18 -36zM30 -82q0 59 70 96v4q-46 32 -46 86t56 94v4q-29 20 -48.5 53.5t-19.5 74.5q0 88 62.5 135t151.5 47q44 0 80 -12h186v-124h-72q8 -24 8 -52q0 -84 -56 -125 t-146 -41q-25 0 -56 7q-12 -11 -12 -29q0 -16 16 -23t54 -7h75q197 0 197 -130q0 -82 -79 -132t-211 -50q-93 0 -151.5 30t-58.5 94zM256 260q54 0 54 70q0 33 -14.5 50.5t-39.5 17.5t-39.5 -17.5t-14.5 -50.5q0 -70 54 -70zM112 588v108h288v-108h-288z" />
<glyph unicode="&#x1e24;" horiz-adv-x="682" d="M72 0v650h172v-242h194v242h172v-650h-172v258h-194v-258h-172zM340 -234q-40 0 -66 24t-26 62t26 62t66 24t66 -24t26 -62t-26 -62t-66 -24z" />
<glyph unicode="&#x1e25;" horiz-adv-x="582" d="M58 0v696h172v-162l-8 -86q73 64 150 64q156 0 156 -204v-308h-172v286q0 46 -11.5 63t-38.5 17q-35 0 -76 -38v-328h-172zM296 -234q-40 0 -66 24t-26 62t26 62t66 24t66 -24t26 -62t-26 -62t-66 -24z" />
<glyph unicode="&#x1e2a;" horiz-adv-x="682" d="M72 0v650h172v-242h194v242h172v-650h-172v258h-194v-258h-172zM340 -212q-69 0 -105.5 41t-38.5 103h94q7 -52 50 -52t50 52h94q-2 -62 -38.5 -103t-105.5 -41z" />
<glyph unicode="&#x1e2b;" horiz-adv-x="582" d="M58 0v696h172v-162l-8 -86q73 64 150 64q156 0 156 -204v-308h-172v286q0 46 -11.5 63t-38.5 17q-35 0 -76 -38v-328h-172zM296 -212q-69 0 -105.5 41t-38.5 103h94q7 -52 50 -52t50 52h94q-2 -62 -38.5 -103t-105.5 -41z" />
<glyph unicode="&#x1e34;" horiz-adv-x="628" d="M72 0v650h172v-242h4l164 242h188l-194 -264l232 -386h-188l-144 250l-62 -88v-162h-172zM478 -88v-108h-288v108h288z" />
<glyph unicode="&#x1e35;" horiz-adv-x="568" d="M58 0v696h168v-370h4l138 174h186l-178 -208l188 -292h-186l-100 178l-52 -58v-120h-168zM448 -88v-108h-288v108h288z" />
<glyph unicode="&#x1e36;" horiz-adv-x="530" d="M72 0v650h172v-506h246v-144h-418zM291 -234q-40 0 -66 24t-26 62t26 62t66 24t66 -24t26 -62t-26 -62t-66 -24z" />
<glyph unicode="&#x1e37;" horiz-adv-x="298" d="M58 176v520h172v-526q0 -23 8.5 -33.5t19.5 -10.5q10 0 18 2l20 -126q-32 -14 -84 -14q-154 0 -154 188zM198 -234q-40 0 -66 24t-26 62t26 62t66 24t66 -24t26 -62t-26 -62t-66 -24z" />
<glyph unicode="&#x1e38;" horiz-adv-x="530" d="M72 0v650h172v-506h246v-144h-418zM14 716v108h296v-108h-296zM291 -234q-40 0 -66 24t-26 62t26 62t66 24t66 -24t26 -62t-26 -62t-66 -24z" />
<glyph unicode="&#x1e39;" horiz-adv-x="298" d="M58 176v520h172v-526q0 -23 8.5 -33.5t19.5 -10.5q10 0 18 2l20 -126q-32 -14 -84 -14q-154 0 -154 188zM-1 796v108h288v-108h-288zM198 -234q-40 0 -66 24t-26 62t26 62t66 24t66 -24t26 -62t-26 -62t-66 -24z" />
<glyph unicode="&#x1e3a;" horiz-adv-x="530" d="M72 0v650h172v-506h246v-144h-418zM435 -88v-108h-288v108h288z" />
<glyph unicode="&#x1e3b;" horiz-adv-x="298" d="M58 176v520h172v-526q0 -23 8.5 -33.5t19.5 -10.5q10 0 18 2l20 -126q-32 -14 -84 -14q-154 0 -154 188zM342 -88v-108h-288v108h288z" />
<glyph unicode="&#x1e42;" horiz-adv-x="776" d="M72 0v650h178l102 -270l36 -106h4l36 106l98 270h178v-650h-160v192q0 53 22 232h-4l-54 -152l-90 -219h-64l-90 219l-52 152h-4q22 -179 22 -232v-192h-158zM390 -234q-40 0 -66 24t-26 62t26 62t66 24t66 -24t26 -62t-26 -62t-66 -24z" />
<glyph unicode="&#x1e43;" horiz-adv-x="868" d="M58 0v500h140l12 -61h4q36 35 70 54t80 19q96 0 138 -80q37 38 72.5 59t81.5 21q80 0 119 -54t39 -150v-308h-172v286q0 46 -11.5 63t-38.5 17q-32 0 -70 -38v-328h-172v286q0 46 -11.5 63t-38.5 17q-32 0 -70 -38v-328h-172zM444 -234q-40 0 -66 24t-26 62t26 62t66 24 t66 -24t26 -62t-26 -62t-66 -24z" />
<glyph unicode="&#x1e44;" horiz-adv-x="672" d="M72 0v650h176l144 -290l62 -146h4q-22 192 -22 248v188h164v-650h-176l-144 291l-62 145h-4q2 -16 6.5 -57t7.5 -66.5t5.5 -61t2.5 -63.5v-188h-164zM336 696q-42 0 -69 24t-27 62t27 62t69 24t69 -24t27 -62t-27 -62t-69 -24z" />
<glyph unicode="&#x1e45;" horiz-adv-x="582" d="M58 0v500h140l12 -60h4q76 72 158 72q156 0 156 -204v-308h-172v286q0 46 -11.5 63t-38.5 17q-35 0 -76 -38v-328h-172zM314 562q-40 0 -66 24t-26 62t26 62t66 24t66 -24t26 -62t-26 -62t-66 -24z" />
<glyph unicode="&#x1e46;" horiz-adv-x="672" d="M72 0v650h176l144 -290l62 -146h4q-22 192 -22 248v188h164v-650h-176l-144 291l-62 145h-4q2 -16 6.5 -57t7.5 -66.5t5.5 -61t2.5 -63.5v-188h-164zM350 -234q-40 0 -66 24t-26 62t26 62t66 24t66 -24t26 -62t-26 -62t-66 -24z" />
<glyph unicode="&#x1e47;" horiz-adv-x="582" d="M58 0v500h140l12 -60h4q76 72 158 72q156 0 156 -204v-308h-172v286q0 46 -11.5 63t-38.5 17q-35 0 -76 -38v-328h-172zM296 -234q-40 0 -66 24t-26 62t26 62t66 24t66 -24t26 -62t-26 -62t-66 -24z" />
<glyph unicode="&#x1e48;" horiz-adv-x="672" d="M72 0v650h176l144 -290l62 -146h4q-22 192 -22 248v188h164v-650h-176l-144 291l-62 145h-4q2 -16 6.5 -57t7.5 -66.5t5.5 -61t2.5 -63.5v-188h-164zM494 -88v-108h-288v108h288z" />
<glyph unicode="&#x1e49;" horiz-adv-x="582" d="M58 0v500h140l12 -60h4q76 72 158 72q156 0 156 -204v-308h-172v286q0 46 -11.5 63t-38.5 17q-35 0 -76 -38v-328h-172zM440 -88v-108h-288v108h288z" />
<glyph unicode="&#x1e52;" horiz-adv-x="692" d="M346 -12q-137 0 -219.5 91t-82.5 249t82.5 246t219.5 88t219.5 -88.5t82.5 -245.5q0 -158 -82.5 -249t-219.5 -91zM346 136q58 0 92 51.5t34 140.5q0 88 -33.5 137t-92.5 49t-92.5 -49t-33.5 -137q0 -89 34 -140.5t92 -51.5zM262 860l78 124h178l-120 -124h-136zM198 716 v108h296v-108h-296z" />
<glyph unicode="&#x1e53;" horiz-adv-x="560" d="M32 250q0 119 73.5 190.5t174.5 71.5t174.5 -71.5t73.5 -190.5t-73.5 -190.5t-174.5 -71.5t-174.5 71.5t-73.5 190.5zM208 250q0 -124 72 -124t72 124t-72 124t-72 -124zM206 744l84 114h144l-120 -114h-108zM136 588v108h288v-108h-288z" />
<glyph unicode="&#x1e5a;" horiz-adv-x="630" d="M244 514v-160h62q104 0 104 86q0 41 -25.5 57.5t-78.5 16.5h-62zM244 218v-218h-172v650h246q260 0 260 -210q0 -131 -105 -188l141 -252h-192l-112 218h-66zM334 -62q40 0 66 -24t26 -62t-26 -62t-66 -24t-66 24t-26 62t26 62t66 24z" />
<glyph unicode="&#x1e5b;" horiz-adv-x="418" d="M58 0v500h140l12 -86h4q26 49 64.5 73.5t77.5 24.5t62 -10l-28 -148q-36 8 -56 8q-30 0 -58.5 -20.5t-45.5 -63.5v-278h-172zM144 -234q-40 0 -66 24t-26 62t26 62t66 24t66 -24t26 -62t-26 -62t-66 -24z" />
<glyph unicode="&#x1e5c;" horiz-adv-x="630" d="M464 824v-108h-296v108h296zM244 514v-160h62q104 0 104 86q0 41 -25.5 57.5t-78.5 16.5h-62zM244 218v-218h-172v650h246q260 0 260 -210q0 -131 -105 -188l141 -252h-192l-112 218h-66zM334 -62q40 0 66 -24t26 -62t-26 -62t-66 -24t-66 24t-26 62t26 62t66 24z" />
<glyph unicode="&#x1e5d;" horiz-adv-x="418" d="M58 0v500h140l12 -86h4q26 49 64.5 73.5t77.5 24.5t62 -10l-28 -148q-36 8 -56 8q-30 0 -58.5 -20.5t-45.5 -63.5v-278h-172zM114 588v108h288v-108h-288zM144 -234q-40 0 -66 24t-26 62t26 62t66 24t66 -24t26 -62t-26 -62t-66 -24z" />
<glyph unicode="&#x1e5e;" horiz-adv-x="630" d="M244 514v-160h62q104 0 104 86q0 41 -25.5 57.5t-78.5 16.5h-62zM244 218v-218h-172v650h246q260 0 260 -210q0 -131 -105 -188l141 -252h-192l-112 218h-66zM190 -196v108h288v-108h-288z" />
<glyph unicode="&#x1e5f;" horiz-adv-x="418" d="M58 0v500h140l12 -86h4q26 49 64.5 73.5t77.5 24.5t62 -10l-28 -148q-36 8 -56 8q-30 0 -58.5 -20.5t-45.5 -63.5v-278h-172zM288 -88v-108h-288v108h288z" />
<glyph unicode="&#x1e60;" horiz-adv-x="564" d="M32 81l98 118q78 -63 152 -63t74 46q0 28 -74 57q-9 4 -14 6l-81 34q-58 23 -94.5 69t-36.5 112q0 85 68.5 143.5t173.5 58.5q58 0 115.5 -22t100.5 -65l-86 -108q-67 47 -130 47q-68 0 -68 -44q0 -19 18 -30.5t62 -28.5q10 -4 16 -6l79 -31q127 -50 127 -178 q0 -87 -68.5 -147.5t-185.5 -60.5q-64 0 -129.5 23.5t-116.5 69.5zM296 696q-42 0 -69 24t-27 62t27 62t69 24t69 -24t27 -62t-27 -62t-69 -24z" />
<glyph unicode="&#x1e61;" horiz-adv-x="452" d="M18 58l76 106q68 -50 122 -50q50 0 50 30q0 7 -4.5 13.5t-16 13t-19 10t-28 11t-28.5 10.5q-126 50 -126 148q0 73 54.5 117.5t143.5 44.5q96 0 184 -66l-76 -102q-58 42 -102 42t-44 -28q0 -5 2.5 -10t8 -9t10.5 -7.5t15 -7t17 -6t20 -7t21 -7.5q128 -47 128 -150 q0 -73 -56 -119.5t-158 -46.5q-48 0 -101.5 19.5t-92.5 50.5zM242 562q-40 0 -66 24t-26 62t26 62t66 24t66 -24t26 -62t-26 -62t-66 -24z" />
<glyph unicode="&#x1e62;" horiz-adv-x="564" d="M32 81l98 118q78 -63 152 -63t74 46q0 28 -74 57q-9 4 -14 6l-81 34q-58 23 -94.5 69t-36.5 112q0 85 68.5 143.5t173.5 58.5q58 0 115.5 -22t100.5 -65l-86 -108q-67 47 -130 47q-68 0 -68 -44q0 -19 18 -30.5t62 -28.5q10 -4 16 -6l79 -31q127 -50 127 -178 q0 -87 -68.5 -147.5t-185.5 -60.5q-64 0 -129.5 23.5t-116.5 69.5zM282 -234q-40 0 -66 24t-26 62t26 62t66 24t66 -24t26 -62t-26 -62t-66 -24z" />
<glyph unicode="&#x1e63;" horiz-adv-x="452" d="M18 58l76 106q68 -50 122 -50q50 0 50 30q0 7 -4.5 13.5t-16 13t-19 10t-28 11t-28.5 10.5q-126 50 -126 148q0 73 54.5 117.5t143.5 44.5q96 0 184 -66l-76 -102q-58 42 -102 42t-44 -28q0 -5 2.5 -10t8 -9t10.5 -7.5t15 -7t17 -6t20 -7t21 -7.5q128 -47 128 -150 q0 -73 -56 -119.5t-158 -46.5q-48 0 -101.5 19.5t-92.5 50.5zM236 -234q-40 0 -66 24t-26 62t26 62t66 24t66 -24t26 -62t-26 -62t-66 -24z" />
<glyph unicode="&#x1e6c;" horiz-adv-x="564" d="M196 0v506h-172v144h516v-144h-172v-506h-172zM282 -234q-40 0 -66 24t-26 62t26 62t66 24t66 -24t26 -62t-26 -62t-66 -24z" />
<glyph unicode="&#x1e6d;" horiz-adv-x="400" d="M80 192v174h-66v128l76 6l20 130h142v-130h114v-134h-114v-171q0 -73 60 -73q20 0 44 8l26 -124q-58 -18 -118 -18q-94 0 -139 54t-45 150zM244 -234q-40 0 -66 24t-26 62t26 62t66 24t66 -24t26 -62t-26 -62t-66 -24z" />
<glyph unicode="&#x1e6e;" horiz-adv-x="564" d="M196 0v506h-172v144h516v-144h-172v-506h-172zM426 -88v-108h-288v108h288z" />
<glyph unicode="&#x1e6f;" horiz-adv-x="400" d="M80 192v174h-66v128l76 6l20 130h142v-130h114v-134h-114v-171q0 -73 60 -73q20 0 44 8l26 -124q-58 -18 -118 -18q-94 0 -139 54t-45 150zM388 -88v-108h-288v108h288z" />
<glyph unicode="&#x1e80;" horiz-adv-x="824" d="M124 0l-114 650h176l36 -284q4 -34 11.5 -102t10.5 -102h4q4 23 11.5 64.5t13.5 75.5t11 64l62 284h144l62 -284q9 -49 36 -204h4q4 39 12 110.5t10 93.5l36 284h164l-108 -650h-218l-50 258q-13 67 -24 152h-4q-17 -118 -24 -152l-48 -258h-214zM360 700l-122 124h180 l78 -124h-136z" />
<glyph unicode="&#x1e81;" horiz-adv-x="798" d="M144 0l-120 500h170l38 -210q4 -26 10 -76.5t10 -75.5h4q16 104 28 152l46 210h146l48 -210q4 -16 30 -152h4q4 25 10 75.5t10 76.5l38 210h158l-114 -500h-200l-36 174q-16 92 -24 147h-4q-18 -125 -22 -147l-34 -174h-196zM364 574l-128 154h164l88 -154h-124z" />
<glyph unicode="&#x1e82;" horiz-adv-x="824" d="M124 0l-114 650h176l36 -284q4 -34 11.5 -102t10.5 -102h4q4 23 11.5 64.5t13.5 75.5t11 64l62 284h144l62 -284q9 -49 36 -204h4q4 39 12 110.5t10 93.5l36 284h164l-108 -650h-218l-50 258q-13 67 -24 152h-4q-17 -118 -24 -152l-48 -258h-214zM586 824l-122 -124h-136 l78 124h180z" />
<glyph unicode="&#x1e83;" horiz-adv-x="798" d="M144 0l-120 500h170l38 -210q4 -26 10 -76.5t10 -75.5h4q16 104 28 152l46 210h146l48 -210q4 -16 30 -152h4q4 25 10 75.5t10 76.5l38 210h158l-114 -500h-200l-36 174q-16 92 -24 147h-4q-18 -125 -22 -147l-34 -174h-196zM564 728l-128 -154h-124l88 154h164z" />
<glyph unicode="&#x1e84;" horiz-adv-x="824" d="M124 0l-114 650h176l36 -284q4 -34 11.5 -102t10.5 -102h4q4 23 11.5 64.5t13.5 75.5t11 64l62 284h144l62 -284q9 -49 36 -204h4q4 39 12 110.5t10 93.5l36 284h164l-108 -650h-218l-50 258q-13 67 -24 152h-4q-17 -118 -24 -152l-48 -258h-214zM308 694q-34 0 -56 22.5 t-22 55.5t22 55.5t56 22.5t56 -22.5t22 -55.5t-22 -55.5t-56 -22.5zM516 694q-34 0 -56 22.5t-22 55.5t22 55.5t56 22.5t56 -22.5t22 -55.5t-22 -55.5t-56 -22.5z" />
<glyph unicode="&#x1e85;" horiz-adv-x="798" d="M144 0l-120 500h170l38 -210q4 -26 10 -76.5t10 -75.5h4q16 104 28 152l46 210h146l48 -210q4 -16 30 -152h4q4 25 10 75.5t10 76.5l38 210h158l-114 -500h-200l-36 174q-16 92 -24 147h-4q-18 -125 -22 -147l-34 -174h-196zM296 564q-34 0 -56 22.5t-22 55.5t22 55.5 t56 22.5t56 -22.5t22 -55.5t-22 -55.5t-56 -22.5zM504 564q-34 0 -56 22.5t-22 55.5t22 55.5t56 22.5t56 -22.5t22 -55.5t-22 -55.5t-56 -22.5z" />
<glyph unicode="&#x1e8e;" horiz-adv-x="544" d="M186 0v224l-196 426h184l48 -136q9 -27 25.5 -75.5t23.5 -69.5h4q10 29 27.5 79t23.5 66l48 136h180l-196 -426v-224h-172zM272 696q-42 0 -69 24t-27 62t27 62t69 24t69 -24t27 -62t-27 -62t-69 -24z" />
<glyph unicode="&#x1e8f;" horiz-adv-x="542" d="M86 -48q27 -6 32 -6q61 0 78 50l6 22l-190 482h172l60 -192q9 -30 36 -142h4q18 84 32 142l50 192h164l-168 -492q-41 -106 -90.5 -151t-139.5 -45q-39 0 -76 10zM276 562q-40 0 -66 24t-26 62t26 62t66 24t66 -24t26 -62t-26 -62t-66 -24z" />
<glyph unicode="&#x1e92;" horiz-adv-x="542" d="M32 0v104l266 402h-240v144h452v-104l-266 -402h268v-144h-480zM282 -234q-40 0 -66 24t-26 62t26 62t66 24t66 -24t26 -62t-26 -62t-66 -24z" />
<glyph unicode="&#x1e93;" horiz-adv-x="474" d="M40 0v92l190 274h-168v134h382v-92l-190 -274h196v-134h-410zM252 -234q-40 0 -66 24t-26 62t26 62t66 24t66 -24t26 -62t-26 -62t-66 -24z" />
<glyph unicode="&#x1e97;" horiz-adv-x="400" d="M80 192v174h-66v128l76 6l20 130h142v-130h114v-134h-114v-171q0 -73 60 -73q20 0 44 8l26 -124q-58 -18 -118 -18q-94 0 -139 54t-45 150zM72 706q-34 0 -56 22.5t-22 55.5t22 55.5t56 22.5t56 -22.5t22 -55.5t-22 -55.5t-56 -22.5zM280 706q-34 0 -56 22.5t-22 55.5 t22 55.5t56 22.5t56 -22.5t22 -55.5t-22 -55.5t-56 -22.5z" />
<glyph unicode="&#x1e9e;" horiz-adv-x="720" d="M76 0v406q0 114 71.5 185t218.5 71q102 0 170.5 -52.5t89.5 -141.5l-96 -110q71 -28 111.5 -68.5t40.5 -109.5q0 -85 -54 -138.5t-154 -53.5q-114 0 -188 70l88 104q39 -36 78 -36q24 0 39 15.5t15 40.5q0 54 -135 79l-11 99l98 114q-29 50 -96 50q-114 0 -114 -140v-384 h-172z" />
<glyph unicode="&#x1ea0;" horiz-adv-x="584" d="M288 -62q40 0 66 -24t26 -62t-26 -62t-66 -24t-66 24t-26 62t26 62t66 24zM229 271h120l-11 45q-9 34 -25 105.5t-23 100.5h-4q-33 -156 -46 -206zM396 650l198 -650h-182l-32 138h-182l-32 -138h-176l198 650h208z" />
<glyph unicode="&#x1ea1;" horiz-adv-x="542" d="M42 142q0 79 64.5 123t207.5 59q-6 52 -70 52q-48 0 -126 -42l-60 112q110 66 220 66q208 0 208 -234v-278h-140l-12 48h-4q-67 -60 -138 -60q-68 0 -109 45t-41 109zM206 156q0 -36 46 -36q31 0 62 34v68q-108 -16 -108 -66zM268 -234q-40 0 -66 24t-26 62t26 62t66 24 t66 -24t26 -62t-26 -62t-66 -24z" />
<glyph unicode="&#x1ea2;" horiz-adv-x="584" d="M250 688l-12 66q40 5 40 24q0 25 -78 30l20 84q180 -5 180 -96q0 -51 -42 -78t-108 -30zM229 271h120l-11 45q-9 34 -25 105.5t-23 100.5h-4q-33 -156 -46 -206zM412 0l-32 138h-182l-32 -138h-176l198 650h208l198 -650h-182z" />
<glyph unicode="&#x1ea3;" horiz-adv-x="542" d="M42 142q0 79 64.5 123t207.5 59q-6 52 -70 52q-48 0 -126 -42l-60 112q110 66 220 66q208 0 208 -234v-278h-140l-12 48h-4q-67 -60 -138 -60q-68 0 -109 45t-41 109zM206 156q0 -36 46 -36q31 0 62 34v68q-108 -16 -108 -66zM247 558l-12 66q40 5 40 24q0 25 -78 30 l20 84q180 -5 180 -96q0 -51 -42 -78t-108 -30z" />
<glyph unicode="&#x1ea4;" horiz-adv-x="584" d="M607 894l-102 -124h-96l68 124h130zM286 752l-48 -52h-120l96 118h148l96 -118h-120l-48 52h-4zM229 271h120l-11 45q-9 34 -25 105.5t-23 100.5h-4q-33 -156 -46 -206zM188 650h208l198 -650h-182l-32 138h-182l-32 -138h-176z" />
<glyph unicode="&#x1ea5;" horiz-adv-x="542" d="M42 142q0 79 64.5 123t207.5 59q-6 52 -70 52q-48 0 -126 -42l-60 112q110 66 220 66q208 0 208 -234v-278h-140l-12 48h-4q-67 -60 -138 -60q-68 0 -109 45t-41 109zM206 156q0 -36 46 -36q31 0 62 34v68q-108 -16 -108 -66zM137 574l80 132h136l80 -132h-104l-42 62h-4 l-42 -62h-104zM399 648l66 120h124l-96 -120h-94z" />
<glyph unicode="&#x1ea6;" horiz-adv-x="584" d="M547 770h-96l-102 124h130zM286 752l-48 -52h-120l96 118h148l96 -118h-120l-48 52h-4zM229 271h120l-11 45q-9 34 -25 105.5t-23 100.5h-4q-33 -156 -46 -206zM412 0l-32 138h-182l-32 -138h-176l198 650h208l198 -650h-182z" />
<glyph unicode="&#x1ea7;" horiz-adv-x="542" d="M42 142q0 79 64.5 123t207.5 59q-6 52 -70 52q-48 0 -126 -42l-60 112q110 66 220 66q208 0 208 -234v-278h-140l-12 48h-4q-67 -60 -138 -60q-68 0 -109 45t-41 109zM206 156q0 -36 46 -36q31 0 62 34v68q-108 -16 -108 -66zM137 574l80 132h136l80 -132h-104l-42 62h-4 l-42 -62h-104zM487 768l66 -120h-94l-96 120h124z" />
<glyph unicode="&#x1ea8;" horiz-adv-x="584" d="M434 748l-12 52q28 5 28 24q0 25 -64 30l16 68q156 -5 156 -84q0 -83 -124 -90zM286 752l-48 -52h-120l96 118h148l96 -118h-120l-48 52h-4zM229 271h120l-11 45q-9 34 -25 105.5t-23 100.5h-4q-33 -156 -46 -206zM412 0l-32 138h-182l-32 -138h-176l198 650h208 l198 -650h-182z" />
<glyph unicode="&#x1ea9;" horiz-adv-x="542" d="M42 142q0 79 64.5 123t207.5 59q-6 52 -70 52q-48 0 -126 -42l-60 112q110 66 220 66q208 0 208 -234v-278h-140l-12 48h-4q-67 -60 -138 -60q-68 0 -109 45t-41 109zM206 156q0 -36 46 -36q31 0 62 34v68q-108 -16 -108 -66zM137 574l80 132h136l80 -132h-104l-42 62h-4 l-42 -62h-104zM431 628l-10 56q26 5 26 24q0 25 -64 30l16 70q87 -3 122.5 -24t35.5 -58q0 -48 -33 -69.5t-93 -28.5z" />
<glyph unicode="&#x1eaa;" horiz-adv-x="584" d="M370 976h74q-7 -62 -34.5 -92t-63.5 -30q-27 0 -61 18t-44 18q-27 0 -35 -36h-74q7 62 34.5 92t63.5 30q27 0 61 -18t44 -18q27 0 35 36zM286 752l-48 -52h-120l96 118h148l96 -118h-120l-48 52h-4zM229 271h120l-11 45q-9 34 -25 105.5t-23 100.5h-4q-33 -156 -46 -206z M412 0l-32 138h-182l-32 -138h-176l198 650h208l198 -650h-182z" />
<glyph unicode="&#x1eab;" horiz-adv-x="542" d="M42 142q0 79 64.5 123t207.5 59q-6 52 -70 52q-48 0 -126 -42l-60 112q110 66 220 66q208 0 208 -234v-278h-140l-12 48h-4q-67 -60 -138 -60q-68 0 -109 45t-41 109zM206 156q0 -36 46 -36q31 0 62 34v68q-108 -16 -108 -66zM129 574l78 114h156l78 -114h-110l-44 56h-4 l-44 -56h-110zM205 724h-72q7 62 33.5 92t62.5 30q31 0 62 -18t40 -18q26 0 34 36h72q-7 -62 -33.5 -92t-62.5 -30q-31 0 -61.5 18t-40.5 18q-26 0 -34 -36z" />
<glyph unicode="&#x1eac;" horiz-adv-x="584" d="M286 758l-48 -58h-130l96 124h168l96 -124h-130l-48 58h-4zM288 -62q40 0 66 -24t26 -62t-26 -62t-66 -24t-66 24t-26 62t26 62t66 24zM229 271h120l-11 45q-9 34 -25 105.5t-23 100.5h-4q-33 -156 -46 -206zM396 650l198 -650h-182l-32 138h-182l-32 -138h-176l198 650 h208z" />
<glyph unicode="&#x1ead;" horiz-adv-x="542" d="M42 142q0 79 64.5 123t207.5 59q-6 52 -70 52q-48 0 -126 -42l-60 112q110 66 220 66q208 0 208 -234v-278h-140l-12 48h-4q-67 -60 -138 -60q-68 0 -109 45t-41 109zM206 156q0 -36 46 -36q31 0 62 34v68q-108 -16 -108 -66zM121 574l96 154h136l96 -154h-114l-48 74h-4 l-48 -74h-114zM268 -234q-40 0 -66 24t-26 62t26 62t66 24t66 -24t26 -62t-26 -62t-66 -24z" />
<glyph unicode="&#x1eae;" horiz-adv-x="584" d="M427 934l-102 -124h-84l60 124h126zM354 824h76q-13 -124 -142 -124t-142 124h76q13 -50 66 -50t66 50zM229 271h120l-11 45q-9 34 -25 105.5t-23 100.5h-4q-33 -156 -46 -206zM412 0l-32 138h-182l-32 -138h-176l198 650h208l198 -650h-182z" />
<glyph unicode="&#x1eaf;" horiz-adv-x="542" d="M42 142q0 79 64.5 123t207.5 59q-6 52 -70 52q-48 0 -126 -42l-60 112q110 66 220 66q208 0 208 -234v-278h-140l-12 48h-4q-67 -60 -138 -60q-68 0 -109 45t-41 109zM206 156q0 -36 46 -36q31 0 62 34v68q-108 -16 -108 -66zM235 698l54 120h120l-90 -120h-84zM285 574 q-69 0 -105.5 41t-38.5 103h74q10 -62 70 -62t70 62h74q-2 -62 -38.5 -103t-105.5 -41z" />
<glyph unicode="&#x1eb0;" horiz-adv-x="584" d="M335 810h-84l-102 124h126zM354 824h76q-13 -124 -142 -124t-142 124h76q13 -50 66 -50t66 50zM229 271h120l-11 45q-9 34 -25 105.5t-23 100.5h-4q-33 -156 -46 -206zM412 0l-32 138h-182l-32 -138h-176l198 650h208l198 -650h-182z" />
<glyph unicode="&#x1eb1;" horiz-adv-x="542" d="M42 142q0 79 64.5 123t207.5 59q-6 52 -70 52q-48 0 -126 -42l-60 112q110 66 220 66q208 0 208 -234v-278h-140l-12 48h-4q-67 -60 -138 -60q-68 0 -109 45t-41 109zM206 156q0 -36 46 -36q31 0 62 34v68q-108 -16 -108 -66zM281 818l54 -120h-84l-90 120h120zM285 574 q-69 0 -105.5 41t-38.5 103h74q10 -62 70 -62t70 62h74q-2 -62 -38.5 -103t-105.5 -41z" />
<glyph unicode="&#x1eb2;" horiz-adv-x="584" d="M252 808l-12 52q28 5 28 24q0 25 -64 30l16 68q156 -5 156 -84q0 -83 -124 -90zM354 824h76q-13 -124 -142 -124t-142 124h76q13 -50 66 -50t66 50zM229 271h120l-11 45q-9 34 -25 105.5t-23 100.5h-4q-33 -156 -46 -206zM412 0l-32 138h-182l-32 -138h-176l198 650h208 l198 -650h-182z" />
<glyph unicode="&#x1eb3;" horiz-adv-x="542" d="M42 142q0 79 64.5 123t207.5 59q-6 52 -70 52q-48 0 -126 -42l-60 112q110 66 220 66q208 0 208 -234v-278h-140l-12 48h-4q-67 -60 -138 -60q-68 0 -109 45t-41 109zM206 156q0 -36 46 -36q31 0 62 34v68q-108 -16 -108 -66zM285 574q-69 0 -105.5 41t-38.5 103h74 q10 -62 70 -62t70 62h74q-2 -62 -38.5 -103t-105.5 -41zM247 703l-10 56q26 5 26 24q0 25 -64 30l16 70q87 -3 122.5 -24t35.5 -58q0 -48 -33 -69.5t-93 -28.5z" />
<glyph unicode="&#x1eb4;" horiz-adv-x="584" d="M370 976h74q-7 -62 -34.5 -92t-63.5 -30q-27 0 -61 18t-44 18q-27 0 -35 -36h-74q7 62 34.5 92t63.5 30q27 0 61 -18t44 -18q27 0 35 36zM146 824h76q13 -50 66 -50t66 50h76q-13 -124 -142 -124t-142 124zM229 271h120l-11 45q-9 34 -25 105.5t-23 100.5h-4 q-33 -156 -46 -206zM412 0l-32 138h-182l-32 -138h-176l198 650h208l198 -650h-182z" />
<glyph unicode="&#x1eb5;" horiz-adv-x="542" d="M42 142q0 79 64.5 123t207.5 59q-6 52 -70 52q-48 0 -126 -42l-60 112q110 66 220 66q208 0 208 -234v-278h-140l-12 48h-4q-67 -60 -138 -60q-68 0 -109 45t-41 109zM206 156q0 -36 46 -36q31 0 62 34v68q-108 -16 -108 -66zM285 574q-69 0 -105.5 35t-38.5 89h78 q11 -46 66 -46t66 46h78q-2 -54 -38.5 -89t-105.5 -35zM133 724q7 62 33.5 92t62.5 30q31 0 62 -18t40 -18q26 0 34 36h72q-7 -62 -33.5 -92t-62.5 -30q-31 0 -61.5 18t-40.5 18q-26 0 -34 -36h-72z" />
<glyph unicode="&#x1eb6;" horiz-adv-x="584" d="M338 824h92q-13 -124 -142 -124t-142 124h92q10 -40 50 -40t50 40zM288 -62q40 0 66 -24t26 -62t-26 -62t-66 -24t-66 24t-26 62t26 62t66 24zM229 271h120l-11 45q-9 34 -25 105.5t-23 100.5h-4q-33 -156 -46 -206zM396 650l198 -650h-182l-32 138h-182l-32 -138h-176 l198 650h208z" />
<glyph unicode="&#x1eb7;" horiz-adv-x="542" d="M42 142q0 79 64.5 123t207.5 59q-6 52 -70 52q-48 0 -126 -42l-60 112q110 66 220 66q208 0 208 -234v-278h-140l-12 48h-4q-67 -60 -138 -60q-68 0 -109 45t-41 109zM206 156q0 -36 46 -36q31 0 62 34v68q-108 -16 -108 -66zM285 574q-69 0 -105.5 41t-38.5 103h94 q7 -52 50 -52t50 52h94q-2 -62 -38.5 -103t-105.5 -41zM268 -234q-40 0 -66 24t-26 62t26 62t66 24t66 -24t26 -62t-26 -62t-66 -24z" />
<glyph unicode="&#x1eb8;" horiz-adv-x="556" d="M72 0v650h420v-144h-248v-102h212v-144h-212v-116h258v-144h-430zM294 -234q-40 0 -66 24t-26 62t26 62t66 24t66 -24t26 -62t-26 -62t-66 -24z" />
<glyph unicode="&#x1eb9;" horiz-adv-x="526" d="M32 250q0 117 72 189.5t168 72.5q106 0 162 -68t56 -174q0 -40 -7 -68h-285q21 -84 116 -84q48 0 102 30l56 -102q-82 -58 -182 -58q-113 0 -185.5 70.5t-72.5 191.5zM196 306h148q0 76 -68 76q-66 0 -80 -76zM272 -234q-40 0 -66 24t-26 62t26 62t66 24t66 -24t26 -62 t-26 -62t-66 -24z" />
<glyph unicode="&#x1eba;" horiz-adv-x="556" d="M72 0v650h420v-144h-248v-102h212v-144h-212v-116h258v-144h-430zM252 688l-12 66q40 5 40 24q0 25 -78 30l20 84q180 -5 180 -96q0 -51 -42 -78t-108 -30z" />
<glyph unicode="&#x1ebb;" horiz-adv-x="526" d="M32 250q0 117 72 189.5t168 72.5q106 0 162 -68t56 -174q0 -40 -7 -68h-285q21 -84 116 -84q48 0 102 30l56 -102q-82 -58 -182 -58q-113 0 -185.5 70.5t-72.5 191.5zM196 306h148q0 76 -68 76q-66 0 -80 -76zM234 558l-12 66q40 5 40 24q0 25 -78 30l20 84 q180 -5 180 -96q0 -51 -42 -78t-108 -30z" />
<glyph unicode="&#x1ebc;" horiz-adv-x="556" d="M72 0v650h420v-144h-248v-102h212v-144h-212v-116h258v-144h-430zM354 700q-30 0 -69.5 21t-50.5 21q-28 0 -38 -42h-86q9 73 41 109.5t75 36.5q30 0 69.5 -21t50.5 -21q28 0 38 42h86q-9 -73 -41 -109.5t-75 -36.5z" />
<glyph unicode="&#x1ebd;" horiz-adv-x="526" d="M32 250q0 117 72 189.5t168 72.5q106 0 162 -68t56 -174q0 -40 -7 -68h-285q21 -84 116 -84q48 0 102 30l56 -102q-82 -58 -182 -58q-113 0 -185.5 70.5t-72.5 191.5zM196 306h148q0 76 -68 76q-66 0 -80 -76zM96 574q9 73 39 109.5t73 36.5q30 0 69.5 -21t50.5 -21 q24 0 34 42h86q-9 -73 -39 -109.5t-73 -36.5q-30 0 -69.5 21t-50.5 21q-24 0 -34 -42h-86z" />
<glyph unicode="&#x1ebe;" horiz-adv-x="556" d="M72 0v650h420v-144h-248v-102h212v-144h-212v-116h258v-144h-430zM411 770l68 124h130l-102 -124h-96zM120 700l96 118h148l96 -118h-120l-48 52h-4l-48 -52h-120z" />
<glyph unicode="&#x1ebf;" horiz-adv-x="526" d="M32 250q0 117 72 189.5t168 72.5q106 0 162 -68t56 -174q0 -40 -7 -68h-285q21 -84 116 -84q48 0 102 30l56 -102q-82 -58 -182 -58q-113 0 -185.5 70.5t-72.5 191.5zM196 306h148q0 76 -68 76q-66 0 -80 -76zM124 574l80 132h136l80 -132h-104l-42 62h-4l-42 -62h-104z M386 648l66 120h124l-96 -120h-94z" />
<glyph unicode="&#x1ec0;" horiz-adv-x="556" d="M72 0v650h420v-144h-248v-102h212v-144h-212v-116h258v-144h-430zM481 894l68 -124h-96l-102 124h130zM120 700l96 118h148l96 -118h-120l-48 52h-4l-48 -52h-120z" />
<glyph unicode="&#x1ec1;" horiz-adv-x="526" d="M32 250q0 117 72 189.5t168 72.5q106 0 162 -68t56 -174q0 -40 -7 -68h-285q21 -84 116 -84q48 0 102 30l56 -102q-82 -58 -182 -58q-113 0 -185.5 70.5t-72.5 191.5zM196 306h148q0 76 -68 76q-66 0 -80 -76zM124 574l80 132h136l80 -132h-104l-42 62h-4l-42 -62h-104z M474 768l66 -120h-94l-96 120h124z" />
<glyph unicode="&#x1ec2;" horiz-adv-x="556" d="M72 0v650h420v-144h-248v-102h212v-144h-212v-116h258v-144h-430zM436 748l-12 52q28 5 28 24q0 25 -64 30l16 68q156 -5 156 -84q0 -83 -124 -90zM120 700l96 118h148l96 -118h-120l-48 52h-4l-48 -52h-120z" />
<glyph unicode="&#x1ec3;" horiz-adv-x="526" d="M32 250q0 117 72 189.5t168 72.5q106 0 162 -68t56 -174q0 -40 -7 -68h-285q21 -84 116 -84q48 0 102 30l56 -102q-82 -58 -182 -58q-113 0 -185.5 70.5t-72.5 191.5zM196 306h148q0 76 -68 76q-66 0 -80 -76zM124 574l80 132h136l80 -132h-104l-42 62h-4l-42 -62h-104z M418 628l-10 56q26 5 26 24q0 25 -64 30l16 70q87 -3 122.5 -24t35.5 -58q0 -48 -33 -69.5t-93 -28.5z" />
<glyph unicode="&#x1ec4;" horiz-adv-x="556" d="M72 0v650h420v-144h-248v-102h212v-144h-212v-116h258v-144h-430zM120 700l96 118h148l96 -118h-120l-48 52h-4l-48 -52h-120zM208 854h-74q7 62 34.5 92t63.5 30q27 0 61 -18t44 -18q27 0 35 36h74q-7 -62 -34.5 -92t-63.5 -30q-27 0 -61 18t-44 18q-27 0 -35 -36z" />
<glyph unicode="&#x1ec5;" horiz-adv-x="526" d="M32 250q0 117 72 189.5t168 72.5q106 0 162 -68t56 -174q0 -40 -7 -68h-285q21 -84 116 -84q48 0 102 30l56 -102q-82 -58 -182 -58q-113 0 -185.5 70.5t-72.5 191.5zM196 306h148q0 76 -68 76q-66 0 -80 -76zM116 574l78 114h156l78 -114h-110l-44 56h-4l-44 -56h-110z M192 724h-72q7 62 33.5 92t62.5 30q31 0 61.5 -18t40.5 -18q26 0 34 36h72q-7 -62 -33.5 -92t-62.5 -30q-30 0 -61 18t-41 18q-26 0 -34 -36z" />
<glyph unicode="&#x1ec6;" horiz-adv-x="556" d="M72 0v650h420v-144h-248v-102h212v-144h-212v-116h258v-144h-430zM240 700h-130l96 124h168l96 -124h-130l-48 58h-4zM294 -234q-40 0 -66 24t-26 62t26 62t66 24t66 -24t26 -62t-26 -62t-66 -24z" />
<glyph unicode="&#x1ec7;" horiz-adv-x="526" d="M32 250q0 117 72 189.5t168 72.5q106 0 162 -68t56 -174q0 -40 -7 -68h-285q21 -84 116 -84q48 0 102 30l56 -102q-82 -58 -182 -58q-113 0 -185.5 70.5t-72.5 191.5zM196 306h148q0 76 -68 76q-66 0 -80 -76zM108 574l96 154h136l96 -154h-114l-48 74h-4l-48 -74h-114z M272 -234q-40 0 -66 24t-26 62t26 62t66 24t66 -24t26 -62t-26 -62t-66 -24z" />
<glyph unicode="&#x1ec8;" horiz-adv-x="316" d="M72 0v650h172v-650h-172zM120 688l-12 66q40 5 40 24q0 25 -78 30l20 84q180 -5 180 -96q0 -51 -42 -78t-108 -30z" />
<glyph unicode="&#x1ec9;" horiz-adv-x="288" d="M58 0v500h172v-500h-172zM106 558l-12 66q40 5 40 24q0 25 -78 30l20 84q180 -5 180 -96q0 -51 -42 -78t-108 -30z" />
<glyph unicode="&#x1eca;" horiz-adv-x="316" d="M72 0v650h172v-650h-172zM158 -234q-40 0 -66 24t-26 62t26 62t66 24t66 -24t26 -62t-26 -62t-66 -24z" />
<glyph unicode="&#x1ecb;" horiz-adv-x="288" d="M144 562q-42 0 -69 24t-27 62t27 62t69 24t69 -24t27 -62t-27 -62t-69 -24zM58 0v500h172v-500h-172zM144 -234q-40 0 -66 24t-26 62t26 62t66 24t66 -24t26 -62t-26 -62t-66 -24z" />
<glyph unicode="&#x1ecc;" horiz-adv-x="692" d="M346 -12q-137 0 -219.5 91t-82.5 249t82.5 246t219.5 88t219.5 -88.5t82.5 -245.5q0 -158 -82.5 -249t-219.5 -91zM346 136q58 0 92 51.5t34 140.5q0 88 -33.5 137t-92.5 49t-92.5 -49t-33.5 -137q0 -89 34 -140.5t92 -51.5zM346 -234q-40 0 -66 24t-26 62t26 62t66 24 t66 -24t26 -62t-26 -62t-66 -24z" />
<glyph unicode="&#x1ecd;" horiz-adv-x="560" d="M32 250q0 119 73.5 190.5t174.5 71.5t174.5 -71.5t73.5 -190.5t-73.5 -190.5t-174.5 -71.5t-174.5 71.5t-73.5 190.5zM208 250q0 -124 72 -124t72 124t-72 124t-72 -124zM280 -234q-40 0 -66 24t-26 62t26 62t66 24t66 -24t26 -62t-26 -62t-66 -24z" />
<glyph unicode="&#x1ece;" horiz-adv-x="692" d="M346 -12q-137 0 -219.5 91t-82.5 249t82.5 246t219.5 88t219.5 -88.5t82.5 -245.5q0 -158 -82.5 -249t-219.5 -91zM346 136q58 0 92 51.5t34 140.5q0 88 -33.5 137t-92.5 49t-92.5 -49t-33.5 -137q0 -89 34 -140.5t92 -51.5zM308 688l-12 66q40 5 40 24q0 25 -78 30 l20 84q180 -5 180 -96q0 -51 -42 -78t-108 -30z" />
<glyph unicode="&#x1ecf;" horiz-adv-x="560" d="M32 250q0 119 73.5 190.5t174.5 71.5t174.5 -71.5t73.5 -190.5t-73.5 -190.5t-174.5 -71.5t-174.5 71.5t-73.5 190.5zM208 250q0 -124 72 -124t72 124t-72 124t-72 -124zM242 558l-12 66q40 5 40 24q0 25 -78 30l20 84q180 -5 180 -96q0 -51 -42 -78t-108 -30z" />
<glyph unicode="&#x1ed0;" horiz-adv-x="692" d="M346 -12q-137 0 -219.5 91t-82.5 249t82.5 246t219.5 88t219.5 -88.5t82.5 -245.5q0 -158 -82.5 -249t-219.5 -91zM346 136q58 0 92 51.5t34 140.5q0 88 -33.5 137t-92.5 49t-92.5 -49t-33.5 -137q0 -89 34 -140.5t92 -51.5zM467 770l68 124h130l-102 -124h-96zM176 700 l96 118h148l96 -118h-120l-48 52h-4l-48 -52h-120z" />
<glyph unicode="&#x1ed1;" horiz-adv-x="560" d="M32 250q0 119 73.5 190.5t174.5 71.5t174.5 -71.5t73.5 -190.5t-73.5 -190.5t-174.5 -71.5t-174.5 71.5t-73.5 190.5zM208 250q0 -124 72 -124t72 124t-72 124t-72 -124zM132 574l80 132h136l80 -132h-104l-42 62h-4l-42 -62h-104zM394 648l66 120h124l-96 -120h-94z" />
<glyph unicode="&#x1ed2;" horiz-adv-x="692" d="M346 -12q-137 0 -219.5 91t-82.5 249t82.5 246t219.5 88t219.5 -88.5t82.5 -245.5q0 -158 -82.5 -249t-219.5 -91zM346 136q58 0 92 51.5t34 140.5q0 88 -33.5 137t-92.5 49t-92.5 -49t-33.5 -137q0 -89 34 -140.5t92 -51.5zM537 894l68 -124h-96l-102 124h130zM176 700 l96 118h148l96 -118h-120l-48 52h-4l-48 -52h-120z" />
<glyph unicode="&#x1ed3;" horiz-adv-x="560" d="M32 250q0 119 73.5 190.5t174.5 71.5t174.5 -71.5t73.5 -190.5t-73.5 -190.5t-174.5 -71.5t-174.5 71.5t-73.5 190.5zM208 250q0 -124 72 -124t72 124t-72 124t-72 -124zM132 574l80 132h136l80 -132h-104l-42 62h-4l-42 -62h-104zM482 768l66 -120h-94l-96 120h124z" />
<glyph unicode="&#x1ed4;" horiz-adv-x="692" d="M346 -12q-137 0 -219.5 91t-82.5 249t82.5 246t219.5 88t219.5 -88.5t82.5 -245.5q0 -158 -82.5 -249t-219.5 -91zM346 136q58 0 92 51.5t34 140.5q0 88 -33.5 137t-92.5 49t-92.5 -49t-33.5 -137q0 -89 34 -140.5t92 -51.5zM492 748l-12 52q28 5 28 24q0 25 -64 30 l16 68q156 -5 156 -84q0 -83 -124 -90zM176 700l96 118h148l96 -118h-120l-48 52h-4l-48 -52h-120z" />
<glyph unicode="&#x1ed5;" horiz-adv-x="560" d="M32 250q0 119 73.5 190.5t174.5 71.5t174.5 -71.5t73.5 -190.5t-73.5 -190.5t-174.5 -71.5t-174.5 71.5t-73.5 190.5zM208 250q0 -124 72 -124t72 124t-72 124t-72 -124zM132 574l80 132h136l80 -132h-104l-42 62h-4l-42 -62h-104zM426 628l-10 56q26 5 26 24 q0 25 -64 30l16 70q87 -3 122.5 -24t35.5 -58q0 -48 -33 -69.5t-93 -28.5z" />
<glyph unicode="&#x1ed6;" horiz-adv-x="692" d="M346 -12q-137 0 -219.5 91t-82.5 249t82.5 246t219.5 88t219.5 -88.5t82.5 -245.5q0 -158 -82.5 -249t-219.5 -91zM346 136q58 0 92 51.5t34 140.5q0 88 -33.5 137t-92.5 49t-92.5 -49t-33.5 -137q0 -89 34 -140.5t92 -51.5zM176 700l96 118h148l96 -118h-120l-48 52h-4 l-48 -52h-120zM264 854h-74q7 62 34.5 92t63.5 30q27 0 61 -18t44 -18q27 0 35 36h74q-7 -62 -34.5 -92t-63.5 -30q-27 0 -61 18t-44 18q-27 0 -35 -36z" />
<glyph unicode="&#x1ed7;" horiz-adv-x="560" d="M32 250q0 119 73.5 190.5t174.5 71.5t174.5 -71.5t73.5 -190.5t-73.5 -190.5t-174.5 -71.5t-174.5 71.5t-73.5 190.5zM208 250q0 -124 72 -124t72 124t-72 124t-72 -124zM124 574l78 114h156l78 -114h-110l-44 56h-4l-44 -56h-110zM200 724h-72q7 62 33.5 92t62.5 30 q30 0 61 -18t41 -18q26 0 34 36h72q-7 -62 -33.5 -92t-62.5 -30q-30 0 -61 18t-41 18q-26 0 -34 -36z" />
<glyph unicode="&#x1ed8;" horiz-adv-x="692" d="M346 -12q-137 0 -219.5 91t-82.5 249t82.5 246t219.5 88t219.5 -88.5t82.5 -245.5q0 -158 -82.5 -249t-219.5 -91zM346 136q58 0 92 51.5t34 140.5q0 88 -33.5 137t-92.5 49t-92.5 -49t-33.5 -137q0 -89 34 -140.5t92 -51.5zM296 700h-130l96 124h168l96 -124h-130 l-48 58h-4zM346 -234q-40 0 -66 24t-26 62t26 62t66 24t66 -24t26 -62t-26 -62t-66 -24z" />
<glyph unicode="&#x1ed9;" horiz-adv-x="560" d="M32 250q0 119 73.5 190.5t174.5 71.5t174.5 -71.5t73.5 -190.5t-73.5 -190.5t-174.5 -71.5t-174.5 71.5t-73.5 190.5zM208 250q0 -124 72 -124t72 124t-72 124t-72 -124zM116 574l96 154h136l96 -154h-114l-48 74h-4l-48 -74h-114zM280 -234q-40 0 -66 24t-26 62t26 62 t66 24t66 -24t26 -62t-26 -62t-66 -24z" />
<glyph unicode="&#x1eda;" horiz-adv-x="692" d="M520 824l-122 -124h-136l78 124h180zM346 136q58 0 92 51.5t34 140.5q0 88 -33.5 137t-92.5 49t-92.5 -49t-33.5 -137q0 -89 34 -140.5t92 -51.5zM524 738l116 50q32 -36 32 -86q0 -96 -109 -126q85 -90 85 -248t-82.5 -249t-219.5 -91t-219.5 91t-82.5 249t82.5 246 t219.5 88q79 0 143 -31q27 8 39 20.5t12 38.5q0 23 -16 48z" />
<glyph unicode="&#x1edb;" horiz-adv-x="560" d="M444 728l-128 -154h-124l88 154h164zM280 126q72 0 72 124t-72 124t-72 -124t72 -124zM408 598l116 50q32 -36 32 -86q0 -47 -27 -79t-72 -44q71 -74 71 -189q0 -119 -73.5 -190.5t-174.5 -71.5t-174.5 71.5t-73.5 190.5t73.5 190.5t174.5 71.5q48 0 97 -19q47 13 47 57 q0 23 -16 48z" />
<glyph unicode="&#x1edc;" horiz-adv-x="692" d="M430 700h-136l-122 124h180zM346 136q58 0 92 51.5t34 140.5q0 88 -33.5 137t-92.5 49t-92.5 -49t-33.5 -137q0 -89 34 -140.5t92 -51.5zM524 738l116 50q32 -36 32 -86q0 -96 -109 -126q85 -90 85 -248t-82.5 -249t-219.5 -91t-219.5 91t-82.5 249t82.5 246t219.5 88 q79 0 143 -31q27 8 39 20.5t12 38.5q0 23 -16 48z" />
<glyph unicode="&#x1edd;" horiz-adv-x="560" d="M368 574h-124l-128 154h164zM280 126q72 0 72 124t-72 124t-72 -124t72 -124zM408 598l116 50q32 -36 32 -86q0 -47 -27 -79t-72 -44q71 -74 71 -189q0 -119 -73.5 -190.5t-174.5 -71.5t-174.5 71.5t-73.5 190.5t73.5 190.5t174.5 71.5q48 0 97 -19q47 13 47 57 q0 23 -16 48z" />
<glyph unicode="&#x1ede;" horiz-adv-x="692" d="M308 688l-12 66q40 5 40 24q0 25 -78 30l20 84q180 -5 180 -96q0 -51 -42 -78t-108 -30zM346 136q58 0 92 51.5t34 140.5q0 88 -33.5 137t-92.5 49t-92.5 -49t-33.5 -137q0 -89 34 -140.5t92 -51.5zM524 738l116 50q32 -36 32 -86q0 -96 -109 -126q85 -90 85 -248 t-82.5 -249t-219.5 -91t-219.5 91t-82.5 249t82.5 246t219.5 88q79 0 143 -31q27 8 39 20.5t12 38.5q0 23 -16 48z" />
<glyph unicode="&#x1edf;" horiz-adv-x="560" d="M242 558l-12 66q40 5 40 24q0 25 -78 30l20 84q180 -5 180 -96q0 -51 -42 -78t-108 -30zM280 126q72 0 72 124t-72 124t-72 -124t72 -124zM408 598l116 50q32 -36 32 -86q0 -47 -27 -79t-72 -44q71 -74 71 -189q0 -119 -73.5 -190.5t-174.5 -71.5t-174.5 71.5 t-73.5 190.5t73.5 190.5t174.5 71.5q48 0 97 -19q47 13 47 57q0 23 -16 48z" />
<glyph unicode="&#x1ee0;" horiz-adv-x="692" d="M440 846h86q-9 -73 -41 -109.5t-75 -36.5q-30 0 -69.5 21t-50.5 21q-28 0 -38 -42h-86q9 73 41 109.5t75 36.5q30 0 69.5 -21t50.5 -21q28 0 38 42zM346 136q58 0 92 51.5t34 140.5q0 88 -33.5 137t-92.5 49t-92.5 -49t-33.5 -137q0 -89 34 -140.5t92 -51.5zM524 738 l116 50q32 -36 32 -86q0 -96 -109 -126q85 -90 85 -248t-82.5 -249t-219.5 -91t-219.5 91t-82.5 249t82.5 246t219.5 88q79 0 143 -31q27 8 39 20.5t12 38.5q0 23 -16 48z" />
<glyph unicode="&#x1ee1;" horiz-adv-x="560" d="M370 720h86q-9 -73 -39 -109.5t-73 -36.5q-30 0 -69.5 21t-50.5 21q-24 0 -34 -42h-86q9 73 39 109.5t73 36.5q30 0 69.5 -21t50.5 -21q24 0 34 42zM280 126q72 0 72 124t-72 124t-72 -124t72 -124zM408 598l116 50q32 -36 32 -86q0 -47 -27 -79t-72 -44q71 -74 71 -189 q0 -119 -73.5 -190.5t-174.5 -71.5t-174.5 71.5t-73.5 190.5t73.5 190.5t174.5 71.5q48 0 97 -19q47 13 47 57q0 23 -16 48z" />
<glyph unicode="&#x1ee2;" horiz-adv-x="692" d="M346 -62q40 0 66 -24t26 -62t-26 -62t-66 -24t-66 24t-26 62t26 62t66 24zM346 136q58 0 92 51.5t34 140.5q0 88 -33.5 137t-92.5 49t-92.5 -49t-33.5 -137q0 -89 34 -140.5t92 -51.5zM524 738l116 50q32 -36 32 -86q0 -96 -109 -126q85 -90 85 -248t-82.5 -249 t-219.5 -91t-219.5 91t-82.5 249t82.5 246t219.5 88q79 0 143 -31q27 8 39 20.5t12 38.5q0 23 -16 48z" />
<glyph unicode="&#x1ee3;" horiz-adv-x="560" d="M280 -62q40 0 66 -24t26 -62t-26 -62t-66 -24t-66 24t-26 62t26 62t66 24zM280 126q72 0 72 124t-72 124t-72 -124t72 -124zM408 598l116 50q32 -36 32 -86q0 -47 -27 -79t-72 -44q71 -74 71 -189q0 -119 -73.5 -190.5t-174.5 -71.5t-174.5 71.5t-73.5 190.5t73.5 190.5 t174.5 71.5q48 0 97 -19q47 13 47 57q0 23 -16 48z" />
<glyph unicode="&#x1ee4;" horiz-adv-x="672" d="M68 314v336h172v-356q0 -86 23 -122t75 -36t76 36.5t24 121.5v356h166v-336q0 -167 -65 -246.5t-201 -79.5q-137 0 -203.5 80t-66.5 246zM336 -234q-40 0 -66 24t-26 62t26 62t66 24t66 -24t26 -62t-26 -62t-66 -24z" />
<glyph unicode="&#x1ee5;" horiz-adv-x="578" d="M54 192v308h172v-286q0 -46 11.5 -63t38.5 -17q42 0 72 44v322h172v-500h-140l-12 66h-4q-65 -78 -154 -78q-156 0 -156 204zM308 -234q-40 0 -66 24t-26 62t26 62t66 24t66 -24t26 -62t-26 -62t-66 -24z" />
<glyph unicode="&#x1ee6;" horiz-adv-x="672" d="M68 314v336h172v-356q0 -86 23 -122t75 -36t76 36.5t24 121.5v356h166v-336q0 -167 -65 -246.5t-201 -79.5q-137 0 -203.5 80t-66.5 246zM298 688l-12 66q40 5 40 24q0 25 -78 30l20 84q180 -5 180 -96q0 -51 -42 -78t-108 -30z" />
<glyph unicode="&#x1ee7;" horiz-adv-x="578" d="M54 192v308h172v-286q0 -46 11.5 -63t38.5 -17q42 0 72 44v322h172v-500h-140l-12 66h-4q-65 -78 -154 -78q-156 0 -156 204zM252 558l-12 66q40 5 40 24q0 25 -78 30l20 84q180 -5 180 -96q0 -51 -42 -78t-108 -30z" />
<glyph unicode="&#x1ee8;" horiz-adv-x="692" d="M510 824l-122 -124h-136l78 124h180zM586 758l116 50q32 -36 32 -86q0 -108 -130 -133v-275q0 -167 -65 -246.5t-201 -79.5q-137 0 -203.5 80t-66.5 246v336h172v-356q0 -86 23 -122t75 -36t76 36.5t24 121.5v356h84q80 0 80 60q0 23 -16 48z" />
<glyph unicode="&#x1ee9;" horiz-adv-x="578" d="M441 728l-128 -154h-124l88 154h164zM468 608l116 50q32 -36 32 -86q0 -90 -96 -123v-449h-140l-12 66h-4q-65 -78 -154 -78q-156 0 -156 204v308h172v-286q0 -46 11.5 -63t38.5 -17q42 0 72 44v322h56q80 0 80 60q0 23 -16 48z" />
<glyph unicode="&#x1eea;" horiz-adv-x="692" d="M420 700h-136l-122 124h180zM586 758l116 50q32 -36 32 -86q0 -108 -130 -133v-275q0 -167 -65 -246.5t-201 -79.5q-137 0 -203.5 80t-66.5 246v336h172v-356q0 -86 23 -122t75 -36t76 36.5t24 121.5v356h84q80 0 80 60q0 23 -16 48z" />
<glyph unicode="&#x1eeb;" horiz-adv-x="578" d="M365 574h-124l-128 154h164zM468 608l116 50q32 -36 32 -86q0 -90 -96 -123v-449h-140l-12 66h-4q-65 -78 -154 -78q-156 0 -156 204v308h172v-286q0 -46 11.5 -63t38.5 -17q42 0 72 44v322h56q80 0 80 60q0 23 -16 48z" />
<glyph unicode="&#x1eec;" horiz-adv-x="692" d="M298 688l-12 66q40 5 40 24q0 25 -78 30l20 84q180 -5 180 -96q0 -51 -42 -78t-108 -30zM586 758l116 50q32 -36 32 -86q0 -108 -130 -133v-275q0 -167 -65 -246.5t-201 -79.5q-137 0 -203.5 80t-66.5 246v336h172v-356q0 -86 23 -122t75 -36t76 36.5t24 121.5v356h84 q80 0 80 60q0 23 -16 48z" />
<glyph unicode="&#x1eed;" horiz-adv-x="578" d="M239 558l-12 66q40 5 40 24q0 25 -78 30l20 84q180 -5 180 -96q0 -51 -42 -78t-108 -30zM468 608l116 50q32 -36 32 -86q0 -90 -96 -123v-449h-140l-12 66h-4q-65 -78 -154 -78q-156 0 -156 204v308h172v-286q0 -46 11.5 -63t38.5 -17q42 0 72 44v322h56q80 0 80 60 q0 23 -16 48z" />
<glyph unicode="&#x1eee;" horiz-adv-x="692" d="M430 846h86q-9 -73 -41 -109.5t-75 -36.5q-30 0 -69.5 21t-50.5 21q-28 0 -38 -42h-86q9 73 41 109.5t75 36.5q30 0 69.5 -21t50.5 -21q28 0 38 42zM586 758l116 50q32 -36 32 -86q0 -108 -130 -133v-275q0 -167 -65 -246.5t-201 -79.5q-137 0 -203.5 80t-66.5 246v336 h172v-356q0 -86 23 -122t75 -36t76 36.5t24 121.5v356h84q80 0 80 60q0 23 -16 48z" />
<glyph unicode="&#x1eef;" horiz-adv-x="578" d="M367 720h86q-9 -73 -39 -109.5t-73 -36.5q-30 0 -69.5 21t-50.5 21q-23 0 -34 -42h-86q9 73 39 109.5t73 36.5q30 0 69.5 -21t50.5 -21q23 0 34 42zM468 608l116 50q32 -36 32 -86q0 -90 -96 -123v-449h-140l-12 66h-4q-65 -78 -154 -78q-156 0 -156 204v308h172v-286 q0 -46 11.5 -63t38.5 -17q42 0 72 44v322h56q80 0 80 60q0 23 -16 48z" />
<glyph unicode="&#x1ef0;" horiz-adv-x="692" d="M336 -62q40 0 66 -24t26 -62t-26 -62t-66 -24t-66 24t-26 62t26 62t66 24zM586 758l116 50q32 -36 32 -86q0 -108 -130 -133v-275q0 -167 -65 -246.5t-201 -79.5q-137 0 -203.5 80t-66.5 246v336h172v-356q0 -86 23 -122t75 -36t76 36.5t24 121.5v356h84q80 0 80 60 q0 23 -16 48z" />
<glyph unicode="&#x1ef1;" horiz-adv-x="578" d="M295 -62q40 0 66 -24t26 -62t-26 -62t-66 -24t-66 24t-26 62t26 62t66 24zM468 608l116 50q32 -36 32 -86q0 -90 -96 -123v-449h-140l-12 66h-4q-65 -78 -154 -78q-156 0 -156 204v308h172v-286q0 -46 11.5 -63t38.5 -17q42 0 72 44v322h56q80 0 80 60q0 23 -16 48z" />
<glyph unicode="&#x1ef2;" horiz-adv-x="544" d="M186 0v224l-196 426h184l48 -136q9 -27 25.5 -75.5t23.5 -69.5h4q10 29 27.5 79t23.5 66l48 136h180l-196 -426v-224h-172zM220 700l-122 124h180l78 -124h-136z" />
<glyph unicode="&#x1ef3;" horiz-adv-x="542" d="M86 -48q27 -6 32 -6q61 0 78 50l6 22l-190 482h172l60 -192q9 -30 36 -142h4q18 84 32 142l50 192h164l-168 -492q-41 -106 -90.5 -151t-139.5 -45q-39 0 -76 10zM240 574l-128 154h164l88 -154h-124z" />
<glyph unicode="&#x1ef4;" horiz-adv-x="544" d="M186 0v224l-196 426h184l48 -136q9 -27 25.5 -75.5t23.5 -69.5h4q10 29 27.5 79t23.5 66l48 136h180l-196 -426v-224h-172zM274 -234q-40 0 -66 24t-26 62t26 62t66 24t66 -24t26 -62t-26 -62t-66 -24z" />
<glyph unicode="&#x1ef5;" horiz-adv-x="542" d="M86 -48q27 -6 32 -6q61 0 78 50l6 22l-190 482h172l60 -192q9 -30 36 -142h4q18 84 32 142l50 192h164l-168 -492q-41 -106 -90.5 -151t-139.5 -45q-39 0 -76 10zM468 -224q-40 0 -66 24t-26 62t26 62t66 24t66 -24t26 -62t-26 -62t-66 -24z" />
<glyph unicode="&#x1ef6;" horiz-adv-x="544" d="M186 0v224l-196 426h184l48 -136q9 -27 25.5 -75.5t23.5 -69.5h4q10 29 27.5 79t23.5 66l48 136h180l-196 -426v-224h-172zM234 688l-12 66q40 5 40 24q0 25 -78 30l20 84q180 -5 180 -96q0 -51 -42 -78t-108 -30z" />
<glyph unicode="&#x1ef7;" horiz-adv-x="542" d="M86 -48q27 -6 32 -6q61 0 78 50l6 22l-190 482h172l60 -192q9 -30 36 -142h4q18 84 32 142l50 192h164l-168 -492q-41 -106 -90.5 -151t-139.5 -45q-39 0 -76 10zM238 558l-12 66q40 5 40 24q0 25 -78 30l20 84q180 -5 180 -96q0 -51 -42 -78t-108 -30z" />
<glyph unicode="&#x1ef8;" horiz-adv-x="544" d="M186 0v224l-196 426h184l48 -136q9 -27 25.5 -75.5t23.5 -69.5h4q10 29 27.5 79t23.5 66l48 136h180l-196 -426v-224h-172zM336 700q-30 0 -69.5 21t-50.5 21q-28 0 -38 -42h-86q9 73 41 109.5t75 36.5q30 0 69.5 -21t50.5 -21q28 0 38 42h86q-9 -73 -41 -109.5 t-75 -36.5z" />
<glyph unicode="&#x1ef9;" horiz-adv-x="542" d="M86 -48q27 -6 32 -6q61 0 78 50l6 22l-190 482h172l60 -192q9 -30 36 -142h4q18 84 32 142l50 192h164l-168 -492q-41 -106 -90.5 -151t-139.5 -45q-39 0 -76 10zM100 574q9 73 39 109.5t73 36.5q30 0 69.5 -21t50.5 -21q24 0 34 42h86q-9 -73 -39 -109.5t-73 -36.5 q-30 0 -69.5 21t-50.5 21q-24 0 -34 -42h-86z" />
<glyph unicode="&#x2007;" horiz-adv-x="540" />
<glyph unicode="&#x2012;" horiz-adv-x="540" d="M44 200v108h452v-108h-452z" />
<glyph unicode="&#x2013;" horiz-adv-x="480" d="M44 200v108h392v-108h-392z" />
<glyph unicode="&#x2014;" horiz-adv-x="800" d="M44 200v108h712v-108h-712z" />
<glyph unicode="&#x2015;" horiz-adv-x="800" d="M44 200v108h712v-108h-712z" />
<glyph unicode="&#x2016;" horiz-adv-x="476" d="M84 -250v1000h110v-1000h-110zM282 -250v1000h110v-1000h-110z" />
<glyph unicode="&#x2018;" horiz-adv-x="320" d="M210 678l36 -74q-96 -42 -96 -127q3 1 10 1q37 0 61.5 -22.5t24.5 -59.5q0 -42 -24 -67t-62 -25q-52 0 -79 38t-27 108q0 154 156 228z" />
<glyph unicode="&#x2019;" horiz-adv-x="320" d="M110 322l-36 74q96 42 96 127q-3 -1 -10 -1q-37 0 -61.5 22.5t-24.5 59.5q0 42 24 67t62 25q52 0 79 -38t27 -108q0 -154 -156 -228z" />
<glyph unicode="&#x201a;" horiz-adv-x="320" d="M110 -178l-36 74q96 42 96 127q-3 -1 -10 -1q-37 0 -61.5 22.5t-24.5 59.5q0 42 24 67t62 25q52 0 79 -38t27 -108q0 -154 -156 -228z" />
<glyph unicode="&#x201c;" horiz-adv-x="580" d="M210 678l36 -74q-96 -42 -96 -127q3 1 10 1q37 0 61.5 -22.5t24.5 -59.5q0 -42 -24 -67t-62 -25q-52 0 -79 38t-27 108q0 154 156 228zM470 678l36 -74q-96 -42 -96 -127q3 1 10 1q37 0 61.5 -22.5t24.5 -59.5q0 -42 -24 -67t-62 -25q-52 0 -79 38t-27 108q0 154 156 228 z" />
<glyph unicode="&#x201d;" horiz-adv-x="580" d="M110 322l-36 74q96 42 96 127q-3 -1 -10 -1q-37 0 -61.5 22.5t-24.5 59.5q0 42 24 67t62 25q52 0 79 -38t27 -108q0 -154 -156 -228zM370 322l-36 74q96 42 96 127q-3 -1 -10 -1q-37 0 -61.5 22.5t-24.5 59.5q0 42 24 67t62 25q52 0 79 -38t27 -108q0 -154 -156 -228z " />
<glyph unicode="&#x201e;" horiz-adv-x="580" d="M110 -178l-36 74q96 42 96 127q-3 -1 -10 -1q-37 0 -61.5 22.5t-24.5 59.5q0 42 24 67t62 25q52 0 79 -38t27 -108q0 -154 -156 -228zM370 -178l-36 74q96 42 96 127q-3 -1 -10 -1q-37 0 -61.5 22.5t-24.5 59.5q0 42 24 67t62 25q52 0 79 -38t27 -108q0 -154 -156 -228z " />
<glyph unicode="&#x2020;" horiz-adv-x="532" d="M198 -80l10 498l-168 -10v136l168 -10l-10 178h136l-10 -178l168 10v-136l-168 10l10 -498h-136z" />
<glyph unicode="&#x2021;" horiz-adv-x="532" d="M40 88v136l168 -14l-10 106l10 106l-168 -14v136l168 -10l-10 178h136l-10 -178l168 10v-136l-168 14l10 -106l-10 -106l168 14v-136l-168 10l10 -178h-136l10 178z" />
<glyph unicode="&#x2022;" horiz-adv-x="360" d="M180 116q-60 0 -100 42t-40 104t40 104t100 42t100 -42t40 -104t-40 -104t-100 -42z" />
<glyph unicode="&#x2026;" horiz-adv-x="990" d="M70 92q0 44 28.5 74t71.5 30t71.5 -30t28.5 -74t-28.5 -74t-71.5 -30t-71.5 30t-28.5 74zM400 92q0 44 28.5 74t71.5 30t71.5 -30t28.5 -74t-28.5 -74t-71.5 -30t-71.5 30t-28.5 74zM730 92q0 44 28.5 74t71.5 30t71.5 -30t28.5 -74t-28.5 -74t-71.5 -30t-71.5 30 t-28.5 74z" />
<glyph unicode="&#x2030;" horiz-adv-x="1270" d="M310 -12h-96l348 674h96zM190 248q-74 0 -121 56t-47 152q0 95 47 150.5t121 55.5t121 -55.5t47 -150.5q0 -96 -47 -152t-121 -56zM190 342q50 0 50 114q0 112 -50 112t-50 -112q0 -114 50 -114zM680 -12q-74 0 -121 56t-47 152q0 95 47 150.5t121 55.5t121 -55.5 t47 -150.5q0 -96 -47 -152t-121 -56zM680 82q50 0 50 114q0 112 -50 112t-50 -112q0 -114 50 -114zM1080 -12q-74 0 -121 56t-47 152q0 95 47 150.5t121 55.5t121 -55.5t47 -150.5q0 -96 -47 -152t-121 -56zM1080 82q50 0 50 114q0 112 -50 112t-50 -112q0 -114 50 -114z " />
<glyph unicode="&#x2032;" horiz-adv-x="320" d="M79 324l21 360h172l-29 -162l-52 -198h-112z" />
<glyph unicode="&#x2033;" horiz-adv-x="580" d="M79 324l21 360h172l-29 -162l-52 -198h-112zM339 324l21 360h172l-29 -162l-52 -198h-112z" />
<glyph unicode="&#x2039;" horiz-adv-x="300" d="M184 52l-134 140v120l134 140l62 -50l-108 -150l108 -150z" />
<glyph unicode="&#x203a;" horiz-adv-x="300" d="M54 102l108 150l-108 150l62 50l134 -140v-120l-134 -140z" />
<glyph unicode="&#x203d;" horiz-adv-x="498" d="M226 196q43 0 71.5 -30t28.5 -74t-28.5 -74t-71.5 -30t-71.5 30t-28.5 74t28.5 74t71.5 30zM106 502l-94 86q39 44 98.5 69t119.5 25q99 0 163.5 -45.5t64.5 -124.5q0 -46 -18.5 -84t-44 -61.5t-50.5 -43.5t-40.5 -39.5t-12.5 -39.5h-20h-50h-50l-20 138l-14 118h136 l-4 -113q34 47 34 93q0 36 -25 55t-61 19q-58 0 -112 -52z" />
<glyph unicode="&#x2044;" horiz-adv-x="100" d="M-76 -12h-96l348 674h96z" />
<glyph unicode="&#x2070;" horiz-adv-x="380" d="M190 428q-74 0 -121 56t-47 152q0 95 47 150.5t121 55.5t121 -55.5t47 -150.5q0 -96 -47 -152t-121 -56zM190 522q50 0 50 114q0 112 -50 112t-50 -112q0 -114 50 -114z" />
<glyph unicode="&#x2071;" horiz-adv-x="196" d="M98 630q-29 0 -47.5 16t-18.5 42t18.5 42t47.5 16t47.5 -16.5t18.5 -41.5t-18.5 -41.5t-47.5 -16.5zM38 260v332h120v-332h-120z" />
<glyph unicode="&#x2074;" horiz-adv-x="380" d="M144 600h68v30l6 120h-4l-36 -76zM380 600v-80h-58v-80h-110v80h-180v62l132 248h158v-230h58z" />
<glyph unicode="&#x2075;" horiz-adv-x="380" d="M24 508l74 58q33 -44 76 -44q20 0 34 14.5t14 33.5q0 23 -14.5 35.5t-36.5 12.5q-28 0 -52 -20l-51 36l16 196h245v-104h-147l-4 -39q16 3 39 3q53 0 90 -34.5t37 -91.5q0 -58 -44 -97t-112 -39q-111 0 -164 80z" />
<glyph unicode="&#x2076;" horiz-adv-x="380" d="M198 522q38 0 38 42q0 44 -42 44q-26 0 -48 -24q9 -62 52 -62zM342 797l-48 -76q-36 27 -66 27q-70 0 -82 -89q31 31 78 31q56 0 89 -32.5t33 -89.5q0 -60 -41 -100t-101 -40q-82 0 -127 56.5t-45 151.5q0 90 49 148t138 58q72 0 123 -45z" />
<glyph unicode="&#x2077;" horiz-adv-x="380" d="M112 440q4 83 27.5 144.5t74.5 141.5h-164v104h302v-66q-61 -78 -82 -147.5t-26 -176.5h-132z" />
<glyph unicode="&#x2078;" horiz-adv-x="380" d="M148 552q0 -18 12 -30t30 -12t30 11.5t12 28.5q0 5 -1 9.5t-4.5 8l-6.5 6.5t-9 6.5t-10.5 6t-13 6.5t-13.5 7q-26 -20 -26 -48zM204 684q18 21 18 40q0 16 -9 25t-24 9q-13 0 -22 -8t-9 -20q0 -16 11 -25.5t35 -20.5zM36 540q0 57 70 98v4q-58 41 -58 92q0 50 40.5 79 t101.5 29q62 0 102 -29t40 -79q0 -53 -58 -84v-4q70 -37 70 -106q0 -47 -43.5 -79.5t-110.5 -32.5t-110.5 32.5t-43.5 79.5z" />
<glyph unicode="&#x2079;" horiz-adv-x="380" d="M186 662q26 0 48 24q-9 62 -52 62q-38 0 -38 -42q0 -44 42 -44zM38 473l48 76q36 -27 66 -27q70 0 82 89q-31 -31 -78 -31q-56 0 -89 32.5t-33 89.5q0 60 41 100t101 40q82 0 127 -56.5t45 -151.5q0 -90 -49 -148t-138 -58q-72 0 -123 45z" />
<glyph unicode="&#x207d;" horiz-adv-x="280" d="M154 346q-47 74 -69.5 139t-22.5 151t22.5 151t69.5 139l92 -36q-66 -129 -66 -254t66 -254z" />
<glyph unicode="&#x207e;" horiz-adv-x="280" d="M34 382q66 129 66 254t-66 254l92 36q47 -74 69.5 -139t22.5 -151t-22.5 -151t-69.5 -139z" />
<glyph unicode="&#x207f;" horiz-adv-x="390" d="M38 260v332h96l10 -42h2q50 50 105 50q105 0 105 -138v-202h-120v188q0 29 -6 40.5t-26 11.5q-19 0 -46 -25v-215h-120z" />
<glyph unicode="&#x2080;" horiz-adv-x="380" d="M190 -284q-74 0 -121 56t-47 152q0 95 47 150.5t121 55.5t121 -55.5t47 -150.5q0 -96 -47 -152t-121 -56zM190 -190q50 0 50 114q0 112 -50 112t-50 -112q0 -114 50 -114z" />
<glyph unicode="&#x2081;" horiz-adv-x="380" d="M162 -272v270h-90v76q66 9 118 44h98v-390h-126z" />
<glyph unicode="&#x2082;" horiz-adv-x="380" d="M42 -272v66q81 63 123.5 106.5t42.5 73.5q0 54 -50 54q-31 0 -66 -44l-70 64q64 82 156 82q68 0 109 -36t41 -98q0 -28 -14.5 -59t-29.5 -51t-44 -54h100v-104h-298z" />
<glyph unicode="&#x2083;" horiz-adv-x="380" d="M24 -204l74 58q33 -44 76 -44q21 0 34.5 10t13.5 28q0 44 -82 44v70q68 0 68 40q0 34 -40 34q-29 0 -58 -36l-70 62q35 37 69 52.5t81 15.5q58 0 99 -30.5t41 -79.5q0 -54 -52 -88q66 -31 66 -94q0 -53 -46.5 -87.5t-109.5 -34.5q-111 0 -164 80z" />
<glyph unicode="&#x2084;" horiz-adv-x="380" d="M144 -112h68v30l6 120h-4l-36 -76zM380 -112v-80h-58v-80h-110v80h-180v62l132 248h158v-230h58z" />
<glyph unicode="&#x2085;" horiz-adv-x="380" d="M24 -204l74 58q33 -44 76 -44q20 0 34 14.5t14 33.5q0 23 -14.5 35.5t-36.5 12.5q-28 0 -52 -20l-51 36l16 196h245v-104h-147l-4 -39q16 3 39 3q53 0 90 -34.5t37 -91.5q0 -58 -44 -97t-112 -39q-111 0 -164 80z" />
<glyph unicode="&#x2086;" horiz-adv-x="380" d="M198 -190q38 0 38 42q0 44 -42 44q-26 0 -48 -24q9 -62 52 -62zM342 85l-48 -76q-36 27 -66 27q-70 0 -82 -89q31 31 78 31q56 0 89 -32.5t33 -89.5q0 -60 -41 -100t-101 -40q-82 0 -127 56.5t-45 151.5q0 90 49 148t138 58q72 0 123 -45z" />
<glyph unicode="&#x2087;" horiz-adv-x="380" d="M112 -272q4 83 27.5 144.5t74.5 141.5h-164v104h302v-66q-61 -78 -82 -147.5t-26 -176.5h-132z" />
<glyph unicode="&#x2088;" horiz-adv-x="380" d="M148 -160q0 -18 12 -30t30 -12t30 11.5t12 28.5q0 5 -1 9.5t-4.5 8l-6.5 6.5t-9 6.5t-10.5 6t-13 6.5t-13.5 7q-26 -20 -26 -48zM204 -28q18 21 18 40q0 16 -9 25t-24 9q-13 0 -22 -8t-9 -20q0 -16 11 -25.5t35 -20.5zM36 -172q0 57 70 98v4q-58 41 -58 92q0 50 40.5 79 t101.5 29q62 0 102 -29t40 -79q0 -53 -58 -84v-4q70 -37 70 -106q0 -47 -43.5 -79.5t-110.5 -32.5t-110.5 32.5t-43.5 79.5z" />
<glyph unicode="&#x2089;" horiz-adv-x="380" d="M186 -50q26 0 48 24q-9 62 -52 62q-38 0 -38 -42q0 -44 42 -44zM38 -239l48 76q36 -27 66 -27q70 0 82 89q-31 -31 -78 -31q-56 0 -89 32.5t-33 89.5q0 60 41 100t101 40q82 0 127 -56.5t45 -151.5q0 -90 -49 -148t-138 -58q-72 0 -123 45z" />
<glyph unicode="&#x208d;" horiz-adv-x="280" d="M154 -366q-47 74 -69.5 139t-22.5 151t22.5 151t69.5 139l92 -36q-66 -129 -66 -254t66 -254z" />
<glyph unicode="&#x208e;" horiz-adv-x="280" d="M34 -330q66 129 66 254t-66 254l92 36q47 -74 69.5 -139t22.5 -151t-22.5 -151t-69.5 -139z" />
<glyph unicode="&#x2094;" horiz-adv-x="350" d="M166 252q-71 0 -108.5 45.5t-37.5 116.5q0 23 6 44h188q-7 28 -23 40t-43 12q-37 0 -68 -18l-40 70q56 38 124 38q74 0 119 -48t45 -126q0 -77 -47.5 -125.5t-114.5 -48.5zM165 342q43 0 51 50h-96q0 -50 45 -50z" />
<glyph unicode="&#x20a1;" horiz-adv-x="540" d="M330 513l-44 -375q13 -10 32 -15l46 390q-5 1 -16 1q-12 0 -18 -1zM240 205l33 280q-49 -49 -49 -167q0 -69 16 -113zM415 487l-43 -363q33 8 64 44l94 -88q-74 -84 -174 -91l-12 -99h-54l12 100q-24 2 -34 5l-12 -105h-54l14 121q-76 33 -120 109.5t-44 191.5 q0 137 65 223t175 106l12 103h54l-12 -98h8q8 0 26 -2l12 100h54l-13 -113q57 -22 99 -73l-94 -92q-10 11 -23 21z" />
<glyph unicode="&#x20a4;" horiz-adv-x="540" d="M264 148v-4h250v-144h-468v106q80 34 100 104h-94v78l76 6h18q-2 7 -6.5 22t-6.5 22h-81v78l56 6h2v10q0 97 63 155.5t161 58.5q108 0 180 -84l-92 -92q-32 38 -70 38q-78 0 -78 -86h150v-84h-136q1 -6 4.5 -21t5.5 -23h126v-84h-126q-7 -29 -34 -62z" />
<glyph unicode="&#x20a6;" horiz-adv-x="540" d="M362 298l-5 44h-40l12 -44h33zM382 123l-13 111h-22l31 -111h4zM183 298h38l-12 44h-31zM158 511l12 -105h21l-29 105h-4zM540 342h-68v-44h68v-64h-68v-234h-156l-72 216l-5 18h-49v-234h-122v234h-68v58l68 6v44h-68v58l68 6v228h156l72 -216l3 -12h51v228h122v-228h68 v-64z" />
<glyph unicode="&#x20a7;" horiz-adv-x="540" d="M220 306h22q56 0 74 60h-96v-60zM242 528h-22v-58h95q-16 58 -73 58zM532 470v-104h-56q-16 -81 -78.5 -123.5t-147.5 -42.5h-30v-200h-162v366h-58v98l58 5v165h192q89 0 149.5 -39t75.5 -125h57z" />
<glyph unicode="&#x20ab;" horiz-adv-x="540" d="M78 0v84h414v-84h-414zM318 260v94q-23 20 -52 20q-23 0 -40.5 -17.5t-17.5 -49.5q0 -77 54 -77q31 0 56 30zM458 604h71v-78l-71 -6v-392h-116l-10 34h-2q-41 -44 -104 -44q-75 0 -118.5 50t-43.5 140q0 81 50.5 130.5t115.5 49.5q53 0 92 -36l-4 60v8h-144v84h144v42 h140v-42z" />
<glyph unicode="&#x20ac;" horiz-adv-x="540" d="M436 168l94 -88q-77 -92 -186 -92q-98 0 -168 56.5t-93 163.5h-63v78l52 4v22q0 16 1 24h-53v78l63 5q25 108 97 167.5t174 59.5q99 0 168 -78l-94 -92q-41 38 -80 38q-70 0 -93 -94h197v-84h-208v-18q0 -18 1 -26h167v-84h-155q27 -88 97 -88q47 0 82 48z" />
<glyph unicode="&#x20b1;" horiz-adv-x="540" d="M220 398h101q1 5 1 16q0 16 -1 24h-101v-40zM220 306h22q38 0 58 28h-80v-28zM242 528h-22v-26h80q-19 26 -58 26zM532 502v-64h-53q1 -8 1 -24v-16h52v-64h-65q-23 -66 -82 -100t-135 -34h-30v-200h-162v334h-58v58l58 5v41h-58v58l58 5v133h192q175 0 217 -132h65z" />
<glyph unicode="&#x20b2;" horiz-adv-x="540" d="M300 234v140h208v-312q-62 -53 -138 -69v-103h-112v103q-102 19 -163 100.5t-61 218.5q0 134 60.5 219.5t163.5 107.5v105h112v-102q77 -15 140 -78l-94 -92q-48 42 -96 42q-56 0 -85 -51t-29 -145q0 -95 31 -143.5t89 -48.5q18 0 30 4v104h-56z" />
<glyph unicode="&#x20b5;" horiz-adv-x="540" d="M290 135v363q-66 -40 -66 -180q0 -141 66 -183zM436 168l94 -88q-64 -71 -148 -88v-102h-92v101q-108 14 -173 96.5t-65 224.5q0 136 64.5 222t173.5 106v92h92v-88q83 -11 140 -76l-94 -92q-22 24 -46 32v-381q29 12 54 41z" />
<glyph unicode="&#x20b9;" horiz-adv-x="540" d="M470 634v-84h-128q45 -36 56 -96h72v-84h-71q-15 -106 -106 -155l165 -215h-192l-130 182h-68v136h62q75 0 96 52h-158v78l76 6h83q-17 44 -97 44h-62v136h402z" />
<glyph unicode="&#x20ba;" horiz-adv-x="540" d="M252 148q51 7 82.5 39.5t31.5 76.5q0 11 -2 24l141 32q7 -27 7 -49q0 -141 -111 -215t-321 -68v216l-70 -38v92l70 38v48l-70 -38v92l70 38v198h172v-114l138 74v-92l-138 -74v-48l138 74v-92l-138 -74v-140z" />
<glyph unicode="&#x2113;" horiz-adv-x="494" d="M276 489v-103q72 69 72 159q0 51 -30 51q-42 0 -42 -107zM442 174l62 -104q-96 -82 -184 -82q-73 0 -128.5 36.5t-75.5 103.5q-3 -2 -20.5 -12t-26.5 -16l-63 104q83 49 102 61v202q0 125 55.5 189t148.5 64q79 0 125.5 -47.5t46.5 -128.5q0 -93 -46.5 -162.5 t-161.5 -150.5v-22q0 -40 20 -59.5t52 -19.5q41 0 94 44z" />
<glyph unicode="&#x2117;" horiz-adv-x="752" d="M234 140v366h148q180 0 180 -136q0 -73 -51 -110.5t-129 -37.5h-26v-82h-122zM356 308h18q70 0 70 58q0 50 -70 50h-18v-108zM44 326q0 151 96.5 240.5t235.5 89.5t235.5 -90t96.5 -240q0 -151 -96.5 -242.5t-235.5 -91.5t-235.5 91.5t-96.5 242.5zM120 326 q0 -119 72.5 -192.5t183.5 -73.5t183.5 73.5t72.5 192.5q0 118 -72.5 190t-183.5 72t-183.5 -72t-72.5 -190z" />
<glyph unicode="&#x2120;" horiz-adv-x="700" d="M140 348q-67 0 -126 50l56 68q40 -36 78 -36q22 0 22 14q0 11 -25 22q-2 1 -5 2l-5 2l-41 18q-64 28 -64 96q0 43 34.5 73.5t91.5 30.5q59 0 114 -40l-50 -70q-44 28 -70 28q-22 0 -22 -16q0 -10 30 -22q4 -1 6 -2l40 -16q66 -26 66 -94q0 -43 -36 -75.5t-94 -32.5z M318 360v316h126l34 -82l18 -62h4l18 62l34 82h126v-316h-106v80l12 120h-4l-46 -154h-72l-46 154h-4l12 -120v-80h-106z" />
<glyph unicode="&#x2122;" horiz-adv-x="700" d="M318 360v316h126l34 -82l18 -62h4l18 62l34 82h126v-316h-106v80l12 120h-4l-46 -154h-72l-46 154h-4l12 -120v-80h-106zM86 360v216h-82v100h274v-100h-82v-216h-110z" />
<glyph unicode="&#x2126;" horiz-adv-x="744" d="M42 0v138h106v4q-35 37 -62.5 95.5t-27.5 124.5q0 145 86 227.5t228 82.5t228 -82.5t86 -227.5q0 -66 -27.5 -124.5t-62.5 -95.5v-4h106v-138h-292v112q100 86 100 238q0 79 -37.5 126.5t-100.5 47.5t-100.5 -47.5t-37.5 -126.5q0 -152 100 -238v-112h-292z" />
<glyph unicode="&#x212e;" horiz-adv-x="800" d="M184 108q88 -99 218 -99q67 0 126.5 29.5t101.5 81.5h52q-50 -61 -123.5 -96t-157.5 -35q-147 0 -251 98.5t-104 237.5t104 237.5t251 98.5t250.5 -98t103.5 -238v-9h-575q-4 0 -4 -4v-183q0 -9 8 -21zM180 335h441q5 0 5 5v184q0 11 -9 22q-92 95 -215 95 q-127 0 -217 -98q-9 -11 -9 -23v-180q0 -5 4 -5z" />
<glyph unicode="&#x2153;" horiz-adv-x="850" d="M130 260v270h-90v76q66 9 118 44h98v-390h-126zM264 -12h-96l348 674h96zM494 68l74 58q33 -44 76 -44q21 0 34.5 10t13.5 28q0 44 -82 44v70q68 0 68 40q0 34 -40 34q-29 0 -58 -36l-70 62q35 37 69 52.5t81 15.5q58 0 99 -30.5t41 -79.5q0 -54 -52 -88q66 -31 66 -94 q0 -53 -46.5 -87.5t-109.5 -34.5q-111 0 -164 80z" />
<glyph unicode="&#x2154;" horiz-adv-x="860" d="M44 260v66q81 63 123.5 106.5t42.5 73.5q0 54 -50 54q-31 0 -66 -44l-70 64q64 82 156 82q68 0 109 -36t41 -98q0 -28 -14.5 -59t-29.5 -51t-44 -54h100v-104h-298zM314 -12h-96l348 674h96zM504 68l74 58q33 -44 76 -44q21 0 34.5 10t13.5 28q0 44 -82 44v70q68 0 68 40 q0 34 -40 34q-29 0 -58 -36l-70 62q35 37 69 52.5t81 15.5q58 0 99 -30.5t41 -79.5q0 -54 -52 -88q66 -31 66 -94q0 -53 -46.5 -87.5t-109.5 -34.5q-111 0 -164 80z" />
<glyph unicode="&#x215b;" horiz-adv-x="850" d="M130 260v270h-90v76q66 9 118 44h98v-390h-126zM274 -12h-96l348 674h96zM618 112q0 -18 12 -30t30 -12t30 11.5t12 28.5q0 5 -1 9.5t-4.5 8l-6.5 6.5t-9 6.5t-10.5 6t-13 6.5t-13.5 7q-26 -20 -26 -48zM674 244q18 21 18 40q0 16 -9 25t-24 9q-13 0 -22 -8t-9 -20 q0 -16 11 -25.5t35 -20.5zM506 100q0 57 70 98v4q-58 41 -58 92q0 50 40.5 79t101.5 29q62 0 102 -29t40 -79q0 -53 -58 -84v-4q70 -37 70 -106q0 -47 -43.5 -79.5t-110.5 -32.5t-110.5 32.5t-43.5 79.5z" />
<glyph unicode="&#x215c;" horiz-adv-x="860" d="M24 328l74 58q33 -44 76 -44q21 0 34.5 10t13.5 28q0 44 -82 44v70q68 0 68 40q0 34 -40 34q-29 0 -58 -36l-70 62q35 37 69 52.5t81 15.5q58 0 99 -30.5t41 -79.5q0 -54 -52 -88q66 -31 66 -94q0 -53 -46.5 -87.5t-109.5 -34.5q-111 0 -164 80zM304 -12h-96l348 674h96z M628 112q0 -18 12 -30t30 -12t30 11.5t12 28.5q0 5 -1 9.5t-4.5 8l-6.5 6.5t-9 6.5t-10.5 6t-13 6.5t-13.5 7q-26 -20 -26 -48zM684 244q18 21 18 40q0 16 -9 25t-24 9q-13 0 -22 -8t-9 -20q0 -16 11 -25.5t35 -20.5zM516 100q0 57 70 98v4q-58 41 -58 92q0 50 40.5 79 t101.5 29q62 0 102 -29t40 -79q0 -53 -58 -84v-4q70 -37 70 -106q0 -47 -43.5 -79.5t-110.5 -32.5t-110.5 32.5t-43.5 79.5z" />
<glyph unicode="&#x215d;" horiz-adv-x="860" d="M24 328l74 58q33 -44 76 -44q20 0 34 14.5t14 33.5q0 23 -14.5 35.5t-36.5 12.5q-28 0 -52 -20l-51 36l16 196h245v-104h-147l-4 -39q16 3 39 3q53 0 90 -34.5t37 -91.5q0 -58 -44 -97t-112 -39q-111 0 -164 80zM304 -12h-96l348 674h96zM628 112q0 -18 12 -30t30 -12 t30 11.5t12 28.5q0 5 -1 9.5t-4.5 8l-6.5 6.5t-9 6.5t-10.5 6t-13 6.5t-13.5 7q-26 -20 -26 -48zM684 244q18 21 18 40q0 16 -9 25t-24 9q-13 0 -22 -8t-9 -20q0 -16 11 -25.5t35 -20.5zM516 100q0 57 70 98v4q-58 41 -58 92q0 50 40.5 79t101.5 29q62 0 102 -29t40 -79 q0 -53 -58 -84v-4q70 -37 70 -106q0 -47 -43.5 -79.5t-110.5 -32.5t-110.5 32.5t-43.5 79.5z" />
<glyph unicode="&#x215e;" horiz-adv-x="840" d="M92 260q4 83 27.5 144.5t74.5 141.5h-164v104h302v-66q-61 -78 -82 -147.5t-26 -176.5h-132zM254 -12h-96l348 674h96zM608 112q0 -18 12 -30t30 -12t30 11.5t12 28.5q0 5 -1 9.5t-4.5 8l-6.5 6.5t-9 6.5t-10.5 6t-13 6.5t-13.5 7q-26 -20 -26 -48zM664 244q18 21 18 40 q0 16 -9 25t-24 9q-13 0 -22 -8t-9 -20q0 -16 11 -25.5t35 -20.5zM496 100q0 57 70 98v4q-58 41 -58 92q0 50 40.5 79t101.5 29q62 0 102 -29t40 -79q0 -53 -58 -84v-4q70 -37 70 -106q0 -47 -43.5 -79.5t-110.5 -32.5t-110.5 32.5t-43.5 79.5z" />
<glyph unicode="&#x2190;" horiz-adv-x="616" d="M20 250v4l280 268l80 -92l-130 -110h326v-136h-326l130 -110l-80 -92z" />
<glyph unicode="&#x2191;" horiz-adv-x="616" d="M306 530h4l268 -280l-92 -80l-110 130v-326h-136v326l-110 -130l-92 80z" />
<glyph unicode="&#x2192;" horiz-adv-x="616" d="M596 254v-4l-280 -268l-80 92l130 110h-326v136h326l-130 110l80 92z" />
<glyph unicode="&#x2193;" horiz-adv-x="616" d="M310 -26h-4l-268 280l92 80l110 -130v326h136v-326l110 130l92 -80z" />
<glyph unicode="&#x2202;" horiz-adv-x="596" d="M272 126q74 0 99 113q-29 53 -84 53q-34 0 -56.5 -23t-22.5 -72q0 -35 18.5 -53t45.5 -18zM187 490l-73 106q92 76 191 76q119 0 180 -83t61 -219q0 -171 -82 -276.5t-211 -105.5q-86 0 -144 55t-58 144q0 103 61 169t153 66q70 0 119 -57v10q0 159 -98 159 q-52 0 -99 -44z" />
<glyph unicode="&#x2206;" horiz-adv-x="672" d="M36 0v104l196 556h208l196 -556v-104h-600zM230 144h212l-64 200l-40 158h-4l-40 -158z" />
<glyph unicode="&#x220f;" horiz-adv-x="724" d="M76 -120v754h572v-754h-172v604h-228v-604h-172z" />
<glyph unicode="&#x2211;" horiz-adv-x="546" d="M28 -20l194 276l-184 278v100h474v-144h-266v-4l150 -230l-156 -228v-4h294v-144h-506v100z" />
<glyph unicode="&#x2212;" horiz-adv-x="540" d="M34 270v120h472v-120h-472z" />
<glyph unicode="&#x2215;" horiz-adv-x="100" d="M-76 -12h-96l348 674h96z" />
<glyph unicode="&#x2219;" horiz-adv-x="540" d="M170 330q0 44 28.5 74t71.5 30t71.5 -30t28.5 -74t-28.5 -74t-71.5 -30t-71.5 30t-28.5 74z" />
<glyph unicode="&#x221a;" horiz-adv-x="600" d="M212 454l92 -274q16 -60 22 -90h4q4 30 16 90l150 640h112l-216 -894h-116l-150 404l-76 -30l-28 78z" />
<glyph unicode="&#x221e;" horiz-adv-x="826" d="M213 128q-74 0 -125.5 56t-51.5 130q0 104 54.5 162t145.5 58q99 0 162 -88h4q81 104 191 104q83 0 140 -59.5t57 -148.5q0 -113 -59.5 -177.5t-147.5 -64.5q-63 0 -110.5 26.5t-94.5 89.5h-4q-66 -88 -161 -88zM458 354q22 -31 36.5 -48t38.5 -32.5t49 -15.5 q38 0 61 23.5t23 56.5q0 41 -24.5 64.5t-65.5 23.5q-66 0 -118 -72zM228 252q52 0 90 56q-42 68 -96 68q-31 0 -46.5 -16t-15.5 -42t18 -46t50 -20z" />
<glyph unicode="&#x222b;" horiz-adv-x="412" d="M54 -26q13 -4 36 -4q37 0 49.5 26t12.5 96q0 76 -18 217t-18 229q0 59 8.5 101.5t30 79t63.5 55t105 18.5q29 0 61 -8l-16 -124q-13 4 -36 4q-37 0 -49.5 -26.5t-12.5 -95.5q0 -76 18 -217t18 -229q0 -59 -8.5 -101.5t-30 -79t-63.5 -55t-105 -18.5q-29 0 -61 8z" />
<glyph unicode="&#x2248;" horiz-adv-x="540" d="M114 370l-88 68q73 108 160 108q36 0 67 -18t56 -36t47 -18q37 0 70 56l88 -68q-73 -108 -160 -108q-36 0 -67 18t-56 36t-47 18q-37 0 -70 -56zM114 130l-88 68q73 108 160 108q36 0 67 -18t56 -36t47 -18q37 0 70 56l88 -68q-73 -108 -160 -108q-36 0 -67 18t-56 36 t-47 18q-37 0 -70 -56z" />
<glyph unicode="&#x2260;" horiz-adv-x="540" d="M48 30l70 120h-84v120h150l66 120h-216v120h282l70 120h106l-70 -120h84v-120h-150l-66 -120h216v-120h-282l-70 -120h-106z" />
<glyph unicode="&#x2264;" horiz-adv-x="540" d="M34 0v120h472v-120h-472zM34 292v140l472 138v-140l-158 -36l-140 -30v-4l140 -30l158 -36v-140z" />
<glyph unicode="&#x2265;" horiz-adv-x="540" d="M34 0v120h472v-120h-472zM506 432v-140l-472 -138v140l158 36l140 30v4l-140 30l-158 36v140z" />
<glyph unicode="&#x231c;" horiz-adv-x="360" d="M84 0v692h224v-90h-96v-602h-128z" />
<glyph unicode="&#x231d;" horiz-adv-x="360" d="M276 692v-692h-128v602h-96v90h224z" />
<glyph unicode="&#x231e;" horiz-adv-x="360" d="M84 -58v692h128v-602h96v-90h-224z" />
<glyph unicode="&#x231f;" horiz-adv-x="360" d="M276 634v-692h-224v90h96v602h128z" />
<glyph unicode="&#x25a0;" horiz-adv-x="360" d="M54 134v256h252v-256h-252z" />
<glyph unicode="&#x25b2;" horiz-adv-x="600" d="M18 14v2l280 534h4l280 -534v-2h-564z" />
<glyph unicode="&#x25b3;" horiz-adv-x="600" d="M207 124h187l-94 188zM18 14v2l280 534h4l280 -534v-2h-564z" />
<glyph unicode="&#x25b6;" horiz-adv-x="600" d="M52 0v564h2l534 -280v-4l-534 -280h-2z" />
<glyph unicode="&#x25b7;" horiz-adv-x="600" d="M162 188l188 94l-188 93v-187zM52 0v564h2l534 -280v-4l-534 -280h-2z" />
<glyph unicode="&#x25bc;" horiz-adv-x="600" d="M298 14l-280 534v2h564v-2l-280 -534h-4z" />
<glyph unicode="&#x25bd;" horiz-adv-x="600" d="M394 440h-187l93 -188zM18 548v2h564v-2l-280 -534h-4z" />
<glyph unicode="&#x25c0;" horiz-adv-x="600" d="M12 280v4l534 280h2v-564h-2z" />
<glyph unicode="&#x25c1;" horiz-adv-x="600" d="M250 282l188 -94v187zM548 564v-564h-2l-534 280v4l534 280h2z" />
<glyph unicode="&#x25c6;" horiz-adv-x="360" d="M180 88l-174 174l174 174l174 -174z" />
<glyph unicode="&#x25c9;" horiz-adv-x="500" d="M250 189q-30 0 -50 21t-20 52t20 52t50 21t50 -21t20 -52t-20 -52t-50 -21zM250 50q-90 0 -150 60t-60 152t60 152t150 60t150 -60t60 -152t-60 -152t-150 -60zM250 134q53 0 87.5 36.5t34.5 91.5t-34.5 91.5t-87.5 36.5t-87.5 -36.5t-34.5 -91.5t34.5 -91.5t87.5 -36.5z " />
<glyph unicode="&#x25ca;" horiz-adv-x="560" d="M212 -10l-162 340l162 340h136l162 -340l-162 -340h-136zM278 134h4l50 116l38 80l-38 80l-50 116h-4l-50 -116l-38 -80l38 -80z" />
<glyph unicode="&#x2610;" horiz-adv-x="810" d="M138 54h504v528h-504v-528zM74 -10v616l80 70h582v-606l-70 -80h-592z" />
<glyph unicode="&#x2611;" horiz-adv-x="810" d="M642 54v464q-105 -172 -164 -390l-158 -18q-49 136 -140 270l108 70q46 -75 98 -214h4q55 187 145 346h-397v-528h504zM706 820l104 -90q-37 -35 -74 -80v-580l-70 -80h-592v616l80 70h439q49 75 113 144z" />
<glyph unicode="&#x266a;" horiz-adv-x="560" d="M24 60q0 57 51.5 97.5t122.5 40.5q42 0 58 -12v508h90q9 -16 21.5 -27t50.5 -37q71 -47 100.5 -94.5t29.5 -109.5q0 -82 -56 -154l-54 22q14 42 14 92q0 45 -28 84t-76 55v-343q0 -102 -55 -157t-153 -55q-47 0 -81.5 22.5t-34.5 67.5z" />
<glyph unicode="&#x2713;" horiz-adv-x="660" d="M328 -2l-158 -18q-61 162 -160 300l108 70q62 -96 122 -244h4q54 181 135.5 333.5t176.5 250.5l104 -90q-223 -209 -332 -602z" />
<glyph unicode="&#x2752;" horiz-adv-x="430" d="M108 148h184v188h-184v-188zM54 94v266l70 60h252v-256l-60 -70h-262z" />
<glyph unicode="&#x27e6;" horiz-adv-x="460" d="M84 -152v860h324v-90h-86v-680h86v-90h-324zM182 618v-680h52v680h-52z" />
<glyph unicode="&#x27e7;" horiz-adv-x="460" d="M376 708v-860h-324v90h86v680h-86v90h324zM278 618h-52v-680h52v680z" />
<glyph unicode="&#x2e22;" horiz-adv-x="360" d="M84 278v430h224v-90h-96v-340h-128z" />
<glyph unicode="&#x2e23;" horiz-adv-x="360" d="M276 708v-430h-128v340h-96v90h224z" />
<glyph unicode="&#x2e24;" horiz-adv-x="360" d="M84 -152v430h128v-340h96v-90h-224z" />
<glyph unicode="&#x2e25;" horiz-adv-x="360" d="M276 278v-430h-224v90h96v340h128z" />
<glyph unicode="&#xe000;" horiz-adv-x="500" d="M0 500h500v-500h-500v500z" />
<glyph unicode="&#xfb01;" horiz-adv-x="666" d="M88 499v7q0 89 47 145.5t151 56.5q57 0 106 -18l-30 -126q-27 10 -50 10q-52 0 -52 -62v-12h84v-134h-84v-366h-172v366h-66v128zM522 562q-42 0 -69 24t-27 62t27 62t69 24t69 -24t27 -62t-27 -62t-69 -24zM436 0v500h172v-500h-172z" />
<glyph unicode="&#xfb02;" horiz-adv-x="658" d="M88 499v7q0 89 47 145.5t151 56.5q57 0 106 -18l-30 -126q-27 10 -50 10q-52 0 -52 -62v-12h84v-134h-84v-366h-172v366h-66v128zM636 128l20 -126q-32 -14 -84 -14q-154 0 -154 188v520h172v-526q0 -23 8.5 -33.5t19.5 -10.5q10 0 18 2z" />
<glyph unicode="&#xfeff;" />
<glyph horiz-adv-x="646" d="M44 320q0 158 94.5 250t233.5 92q122 0 208 -86l-94 -106q-50 44 -112 44q-68 0 -111 -50.5t-43 -137.5q0 -190 170 -190q32 0 50 12v90h-96v140h248v-310q-38 -35 -98 -57.5t-126 -22.5q-141 0 -232.5 86t-91.5 246zM436 700q-30 0 -69.5 21t-50.5 21q-28 0 -38 -42h-86 q9 73 41 109.5t75 36.5q30 0 69.5 -21t50.5 -21q28 0 38 42h86q-9 -73 -41 -109.5t-75 -36.5z" />
<glyph horiz-adv-x="546" d="M170 -54q0 -46 98 -46q43 0 70.5 12.5t27.5 33.5q0 18 -15.5 24t-51.5 6h-39q-51 0 -72 6q-18 -18 -18 -36zM30 -82q0 59 70 96v4q-46 32 -46 86t56 94v4q-29 20 -48.5 53.5t-19.5 74.5q0 88 62.5 135t151.5 47q44 0 80 -12h186v-124h-72q8 -24 8 -52q0 -84 -56 -125 t-146 -41q-25 0 -56 7q-12 -11 -12 -29q0 -16 16 -23t54 -7h75q197 0 197 -130q0 -82 -79 -132t-211 -50q-93 0 -151.5 30t-58.5 94zM256 260q54 0 54 70q0 33 -14.5 50.5t-39.5 17.5t-39.5 -17.5t-14.5 -50.5q0 -70 54 -70zM80 574q9 73 39 109.5t73 36.5q30 0 69.5 -21 t50.5 -21q24 0 34 42h86q-9 -73 -39 -109.5t-73 -36.5q-30 0 -69.5 21t-50.5 21q-24 0 -34 -42h-86z" />
<glyph horiz-adv-x="288" d="M58 0v500h172v-500q-74 -20 -74 -78q0 -16 11.5 -25t29.5 -9q11 0 33 12l34 -76q-46 -36 -110 -36q-49 0 -80.5 24.5t-31.5 69.5q0 71 66 118h-50z" />
<glyph horiz-adv-x="416" d="M54 0v144h68v362h-68v144h308v-144h-68v-362h68v-144h-308z" />
<glyph horiz-adv-x="416" d="M54 0v144h68v362h-68v144h308v-144h-68v-362h68v-144h-308zM156 700l-122 124h180l78 -124h-136z" />
<glyph horiz-adv-x="416" d="M54 0v144h68v362h-68v144h308v-144h-68v-362h68v-144h-308zM382 824l-122 -124h-136l78 124h180z" />
<glyph horiz-adv-x="416" d="M54 0v144h68v362h-68v144h308v-144h-68v-362h68v-144h-308zM158 700h-130l96 124h168l96 -124h-130l-48 58h-4z" />
<glyph horiz-adv-x="416" d="M54 0v144h68v362h-68v144h308v-144h-68v-362h68v-144h-308zM272 700q-30 0 -69.5 21t-50.5 21q-28 0 -38 -42h-86q9 73 41 109.5t75 36.5q30 0 69.5 -21t50.5 -21q28 0 38 42h86q-9 -73 -41 -109.5t-75 -36.5z" />
<glyph horiz-adv-x="416" d="M54 0v144h68v362h-68v144h308v-144h-68v-362h68v-144h-308zM104 694q-34 0 -56 22.5t-22 55.5t22 55.5t56 22.5t56 -22.5t22 -55.5t-22 -55.5t-56 -22.5zM312 694q-34 0 -56 22.5t-22 55.5t22 55.5t56 22.5t56 -22.5t22 -55.5t-22 -55.5t-56 -22.5z" />
<glyph horiz-adv-x="416" d="M54 0v144h68v362h-68v144h308v-144h-68v-362h68v-144h-308zM60 716v108h296v-108h-296z" />
<glyph horiz-adv-x="416" d="M54 0v144h68v362h-68v144h308v-144h-68v-362h68v-144h-308zM208 696q-42 0 -69 24t-27 62t27 62t69 24t69 -24t27 -62t-27 -62t-69 -24z" />
<glyph horiz-adv-x="416" d="M54 0v144h68v362h-68v144h308v-144h-68v-362h68v-144h-308zM258 824h130l-96 -124h-168l-96 124h130l48 -58h4z" />
<glyph horiz-adv-x="416" d="M54 0v144h68v362h-68v144h308v-144h-68v-362h68v-144h-308zM170 688l-12 66q40 5 40 24q0 25 -78 30l20 84q180 -5 180 -96q0 -51 -42 -78t-108 -30z" />
<glyph horiz-adv-x="416" d="M54 0v144h68v362h-68v144h308v-144h-68v-362h68v-144h-308zM208 -234q-40 0 -66 24t-26 62t26 62t66 24t66 -24t26 -62t-26 -62t-66 -24z" />
<glyph horiz-adv-x="416" d="M54 0v144h68v362h-68v144h308v-144h-68v-362h68v-144h-95q-51 -43 -51 -84q0 -17 11.5 -25.5t28.5 -8.5q13 0 34 14l38 -86q-21 -17 -53.5 -27.5t-60.5 -10.5q-53 0 -87.5 26.5t-34.5 71.5q0 42 23.5 76.5t49.5 53.5h-111z" />
<glyph horiz-adv-x="580" d="M212 252q0 -124 74 -124q41 0 64 36v184q-27 24 -68 24q-30 0 -50 -29t-20 -91zM36 250q0 117 63 189.5t145 72.5q72 0 126 -62h4l14 50h134v-500h-140l-12 46h-4q-58 -58 -126 -58q-93 0 -148.5 70.5t-55.5 191.5z" />
<glyph horiz-adv-x="580" d="M212 252q0 -124 74 -124q41 0 64 36v184q-27 24 -68 24q-30 0 -50 -29t-20 -91zM36 250q0 117 63 189.5t145 72.5q72 0 126 -62h4l14 50h134v-500h-140l-12 46h-4q-58 -58 -126 -58q-93 0 -148.5 70.5t-55.5 191.5zM270 574l-128 154h164l88 -154h-124z" />
<glyph horiz-adv-x="580" d="M212 252q0 -124 74 -124q41 0 64 36v184q-27 24 -68 24q-30 0 -50 -29t-20 -91zM36 250q0 117 63 189.5t145 72.5q72 0 126 -62h4l14 50h134v-500h-140l-12 46h-4q-58 -58 -126 -58q-93 0 -148.5 70.5t-55.5 191.5zM470 728l-128 -154h-124l88 154h164z" />
<glyph horiz-adv-x="580" d="M212 252q0 -124 74 -124q41 0 64 36v184q-27 24 -68 24q-30 0 -50 -29t-20 -91zM36 250q0 117 63 189.5t145 72.5q72 0 126 -62h4l14 50h134v-500h-140l-12 46h-4q-58 -58 -126 -58q-93 0 -148.5 70.5t-55.5 191.5zM142 574l96 154h136l96 -154h-114l-48 74h-4l-48 -74 h-114z" />
<glyph horiz-adv-x="580" d="M212 252q0 -124 74 -124q41 0 64 36v184q-27 24 -68 24q-30 0 -50 -29t-20 -91zM36 250q0 117 63 189.5t145 72.5q72 0 126 -62h4l14 50h134v-500h-140l-12 46h-4q-58 -58 -126 -58q-93 0 -148.5 70.5t-55.5 191.5zM130 574q9 73 39 109.5t73 36.5q30 0 69.5 -21 t50.5 -21q24 0 34 42h86q-9 -73 -39 -109.5t-73 -36.5q-30 0 -69.5 21t-50.5 21q-24 0 -34 -42h-86z" />
<glyph horiz-adv-x="580" d="M212 252q0 -124 74 -124q41 0 64 36v184q-27 24 -68 24q-30 0 -50 -29t-20 -91zM36 250q0 117 63 189.5t145 72.5q72 0 126 -62h4l14 50h134v-500h-140l-12 46h-4q-58 -58 -126 -58q-93 0 -148.5 70.5t-55.5 191.5zM202 564q-34 0 -56 22.5t-22 55.5t22 55.5t56 22.5 t56 -22.5t22 -55.5t-22 -55.5t-56 -22.5zM410 564q-34 0 -56 22.5t-22 55.5t22 55.5t56 22.5t56 -22.5t22 -55.5t-22 -55.5t-56 -22.5z" />
<glyph horiz-adv-x="580" d="M212 252q0 -124 74 -124q41 0 64 36v184q-27 24 -68 24q-30 0 -50 -29t-20 -91zM36 250q0 117 63 189.5t145 72.5q72 0 126 -62h4l14 50h134v-500h-140l-12 46h-4q-58 -58 -126 -58q-93 0 -148.5 70.5t-55.5 191.5zM162 588v108h288v-108h-288z" />
<glyph horiz-adv-x="580" d="M212 252q0 -124 74 -124q41 0 64 36v184q-27 24 -68 24q-30 0 -50 -29t-20 -91zM36 250q0 117 63 189.5t145 72.5q72 0 126 -62h4l14 50h134v-500h-140l-12 46h-4q-58 -58 -126 -58q-93 0 -148.5 70.5t-55.5 191.5zM306 574q-69 0 -105.5 41t-38.5 103h94q7 -52 50 -52 t50 52h94q-2 -62 -38.5 -103t-105.5 -41z" />
<glyph horiz-adv-x="580" d="M212 252q0 -124 74 -124q41 0 64 36v184q-27 24 -68 24q-30 0 -50 -29t-20 -91zM36 250q0 117 63 189.5t145 72.5q72 0 126 -62h4l14 50h134v-500h-140l-12 46h-4q-58 -58 -126 -58q-93 0 -148.5 70.5t-55.5 191.5zM306 550q-54 0 -87 29t-33 77t33 77t87 29t87 -29 t33 -77t-33 -77t-87 -29zM306 612q16 0 27 12.5t11 31.5t-11 31.5t-27 12.5t-27 -12.5t-11 -31.5t11 -31.5t27 -12.5z" />
<glyph horiz-adv-x="580" d="M212 252q0 -124 74 -124q41 0 64 36v184q-27 24 -68 24q-30 0 -50 -29t-20 -91zM36 250q0 117 63 189.5t145 72.5q72 0 126 -62h4l14 50h134v-500h-140l-12 46h-4q-58 -58 -126 -58q-93 0 -148.5 70.5t-55.5 191.5zM238 574l-96 154h114l48 -74h4l48 74h114l-96 -154 h-136z" />
<glyph horiz-adv-x="580" d="M212 252q0 -124 74 -124q41 0 64 36v184q-27 24 -68 24q-30 0 -50 -29t-20 -91zM36 250q0 117 63 189.5t145 72.5q72 0 126 -62h4l14 50h134v-500h-140l-12 46h-4q-58 -58 -126 -58q-93 0 -148.5 70.5t-55.5 191.5zM308 -234q-40 0 -66 24t-26 62t26 62t66 24t66 -24 t26 -62t-26 -62t-66 -24z" />
<glyph horiz-adv-x="580" d="M212 252q0 -124 74 -124q41 0 64 36v184q-27 24 -68 24q-30 0 -50 -29t-20 -91zM36 250q0 117 63 189.5t145 72.5q72 0 126 -62h4l14 50h134v-500h-140l-12 46h-4q-58 -58 -126 -58q-93 0 -148.5 70.5t-55.5 191.5zM268 558l-12 66q40 5 40 24q0 25 -78 30l20 84 q180 -5 180 -96q0 -51 -42 -78t-108 -30z" />
<glyph horiz-adv-x="580" d="M212 252q0 -124 74 -124q41 0 64 36v184q-27 24 -68 24q-30 0 -50 -29t-20 -91zM36 250q0 117 63 189.5t145 72.5q72 0 126 -62h4l14 50h134v-500h-140l-12 46h-4q-58 -58 -126 -58q-93 0 -148.5 70.5t-55.5 191.5zM158 574l80 132h136l80 -132h-104l-42 62h-4l-42 -62 h-104zM420 648l66 120h124l-96 -120h-94z" />
<glyph horiz-adv-x="580" d="M212 252q0 -124 74 -124q41 0 64 36v184q-27 24 -68 24q-30 0 -50 -29t-20 -91zM36 250q0 117 63 189.5t145 72.5q72 0 126 -62h4l14 50h134v-500h-140l-12 46h-4q-58 -58 -126 -58q-93 0 -148.5 70.5t-55.5 191.5zM158 574l80 132h136l80 -132h-104l-42 62h-4l-42 -62 h-104zM508 768l66 -120h-94l-96 120h124z" />
<glyph horiz-adv-x="580" d="M212 252q0 -124 74 -124q41 0 64 36v184q-27 24 -68 24q-30 0 -50 -29t-20 -91zM36 250q0 117 63 189.5t145 72.5q72 0 126 -62h4l14 50h134v-500h-140l-12 46h-4q-58 -58 -126 -58q-93 0 -148.5 70.5t-55.5 191.5zM158 574l80 132h136l80 -132h-104l-42 62h-4l-42 -62 h-104zM452 628l-10 56q26 5 26 24q0 25 -64 30l16 70q87 -3 122.5 -24t35.5 -58q0 -48 -33 -69.5t-93 -28.5z" />
<glyph horiz-adv-x="580" d="M212 252q0 -124 74 -124q41 0 64 36v184q-27 24 -68 24q-30 0 -50 -29t-20 -91zM36 250q0 117 63 189.5t145 72.5q72 0 126 -62h4l14 50h134v-500h-140l-12 46h-4q-58 -58 -126 -58q-93 0 -148.5 70.5t-55.5 191.5zM150 574l78 114h156l78 -114h-110l-44 56h-4l-44 -56 h-110zM226 724h-72q7 62 33.5 92t62.5 30q30 0 61 -18t41 -18q26 0 34 36h72q-7 -62 -33.5 -92t-62.5 -30q-30 0 -61 18t-41 18q-26 0 -34 -36z" />
<glyph horiz-adv-x="580" d="M212 252q0 -124 74 -124q41 0 64 36v184q-27 24 -68 24q-30 0 -50 -29t-20 -91zM36 250q0 117 63 189.5t145 72.5q72 0 126 -62h4l14 50h134v-500h-140l-12 46h-4q-58 -58 -126 -58q-93 0 -148.5 70.5t-55.5 191.5zM142 574l96 154h136l96 -154h-114l-48 74h-4l-48 -74 h-114zM308 -234q-40 0 -66 24t-26 62t26 62t66 24t66 -24t26 -62t-26 -62t-66 -24z" />
<glyph horiz-adv-x="580" d="M212 252q0 -124 74 -124q41 0 64 36v184q-27 24 -68 24q-30 0 -50 -29t-20 -91zM36 250q0 117 63 189.5t145 72.5q72 0 126 -62h4l14 50h134v-500h-140l-12 46h-4q-58 -58 -126 -58q-93 0 -148.5 70.5t-55.5 191.5zM256 698l54 120h120l-90 -120h-84zM306 574 q-69 0 -105.5 41t-38.5 103h74q10 -62 70 -62t70 62h74q-2 -62 -38.5 -103t-105.5 -41z" />
<glyph horiz-adv-x="580" d="M212 252q0 -124 74 -124q41 0 64 36v184q-27 24 -68 24q-30 0 -50 -29t-20 -91zM36 250q0 117 63 189.5t145 72.5q72 0 126 -62h4l14 50h134v-500h-140l-12 46h-4q-58 -58 -126 -58q-93 0 -148.5 70.5t-55.5 191.5zM302 818l54 -120h-84l-90 120h120zM306 574 q-69 0 -105.5 41t-38.5 103h74q10 -62 70 -62t70 62h74q-2 -62 -38.5 -103t-105.5 -41z" />
<glyph horiz-adv-x="580" d="M212 252q0 -124 74 -124q41 0 64 36v184q-27 24 -68 24q-30 0 -50 -29t-20 -91zM36 250q0 117 63 189.5t145 72.5q72 0 126 -62h4l14 50h134v-500h-140l-12 46h-4q-58 -58 -126 -58q-93 0 -148.5 70.5t-55.5 191.5zM306 574q-69 0 -105.5 41t-38.5 103h74q10 -62 70 -62 t70 62h74q-2 -62 -38.5 -103t-105.5 -41zM268 703l-10 56q26 5 26 24q0 25 -64 30l16 70q87 -3 122.5 -24t35.5 -58q0 -48 -33 -69.5t-93 -28.5z" />
<glyph horiz-adv-x="580" d="M212 252q0 -124 74 -124q41 0 64 36v184q-27 24 -68 24q-30 0 -50 -29t-20 -91zM36 250q0 117 63 189.5t145 72.5q72 0 126 -62h4l14 50h134v-500h-140l-12 46h-4q-58 -58 -126 -58q-93 0 -148.5 70.5t-55.5 191.5zM306 574q-69 0 -105.5 35t-38.5 89h78q12 -46 66 -46 t66 46h78q-2 -54 -38.5 -89t-105.5 -35zM154 724q7 62 33.5 92t62.5 30q30 0 61 -18t41 -18q26 0 34 36h72q-7 -62 -33.5 -92t-62.5 -30q-30 0 -61 18t-41 18q-26 0 -34 -36h-72z" />
<glyph horiz-adv-x="580" d="M212 252q0 -124 74 -124q41 0 64 36v184q-27 24 -68 24q-30 0 -50 -29t-20 -91zM36 250q0 117 63 189.5t145 72.5q72 0 126 -62h4l14 50h134v-500h-140l-12 46h-4q-58 -58 -126 -58q-93 0 -148.5 70.5t-55.5 191.5zM306 574q-69 0 -105.5 41t-38.5 103h94q7 -52 50 -52 t50 52h94q-2 -62 -38.5 -103t-105.5 -41zM308 -234q-40 0 -66 24t-26 62t26 62t66 24t66 -24t26 -62t-26 -62t-66 -24z" />
<glyph horiz-adv-x="580" d="M212 252q0 -124 74 -124q41 0 64 36v184q-27 24 -68 24q-30 0 -50 -29t-20 -91zM36 250q0 117 63 189.5t145 72.5q72 0 126 -62h4l14 50h134v-500q-88 -21 -88 -78q0 -16 11.5 -25t28.5 -9q18 0 34 12l34 -76q-46 -36 -110 -36q-49 0 -80.5 24.5t-31.5 69.5q0 69 64 114 l-14 50h-4q-58 -58 -126 -58q-93 0 -148.5 70.5t-55.5 191.5z" />
<glyph horiz-adv-x="592" d="M128 -18q65 -34 134 -34q83 0 94 62l4 50q-49 -44 -114 -44q-92 0 -148 69t-56 175q0 109 63.5 180.5t144.5 71.5q74 0 124 -58h4l12 46h138v-484q0 -98 -69 -150t-197 -52q-42 0 -94.5 14.5t-95.5 41.5zM292 154q39 0 64 38v156q-27 24 -68 24q-31 0 -51.5 -28.5 t-20.5 -81.5q0 -52 20.5 -80t55.5 -28z" />
<glyph horiz-adv-x="592" d="M128 -18q65 -34 134 -34q83 0 94 62l4 50q-49 -44 -114 -44q-92 0 -148 69t-56 175q0 109 63.5 180.5t144.5 71.5q74 0 124 -58h4l12 46h138v-484q0 -98 -69 -150t-197 -52q-42 0 -94.5 14.5t-95.5 41.5zM292 154q39 0 64 38v156q-27 24 -68 24q-31 0 -51.5 -28.5 t-20.5 -81.5q0 -52 20.5 -80t55.5 -28zM142 574l96 154h136l96 -154h-114l-48 74h-4l-48 -74h-114z" />
<glyph horiz-adv-x="592" d="M128 -18q65 -34 134 -34q83 0 94 62l4 50q-49 -44 -114 -44q-92 0 -148 69t-56 175q0 109 63.5 180.5t144.5 71.5q74 0 124 -58h4l12 46h138v-484q0 -98 -69 -150t-197 -52q-42 0 -94.5 14.5t-95.5 41.5zM292 154q39 0 64 38v156q-27 24 -68 24q-31 0 -51.5 -28.5 t-20.5 -81.5q0 -52 20.5 -80t55.5 -28zM306 574q-69 0 -105.5 41t-38.5 103h94q7 -52 50 -52t50 52h94q-2 -62 -38.5 -103t-105.5 -41z" />
<glyph horiz-adv-x="592" d="M128 -18q65 -34 134 -34q83 0 94 62l4 50q-49 -44 -114 -44q-92 0 -148 69t-56 175q0 109 63.5 180.5t144.5 71.5q74 0 124 -58h4l12 46h138v-484q0 -98 -69 -150t-197 -52q-42 0 -94.5 14.5t-95.5 41.5zM292 154q39 0 64 38v156q-27 24 -68 24q-31 0 -51.5 -28.5 t-20.5 -81.5q0 -52 20.5 -80t55.5 -28zM306 562q-40 0 -66 24t-26 62t26 62t66 24t66 -24t26 -62t-26 -62t-66 -24z" />
<glyph horiz-adv-x="592" d="M128 -18q65 -34 134 -34q83 0 94 62l4 50q-49 -44 -114 -44q-92 0 -148 69t-56 175q0 109 63.5 180.5t144.5 71.5q74 0 124 -58h4l12 46h138v-484q0 -98 -69 -150t-197 -52q-42 0 -94.5 14.5t-95.5 41.5zM292 154q39 0 64 38v156q-27 24 -68 24q-31 0 -51.5 -28.5 t-20.5 -81.5q0 -52 20.5 -80t55.5 -28zM344 546q-72 6 -101 26t-29 60q0 51 53.5 78t136.5 30l12 -66q-80 -7 -80 -34q0 -23 40 -34z" />
<glyph horiz-adv-x="592" d="M128 -18q65 -34 134 -34q83 0 94 62l4 50q-49 -44 -114 -44q-92 0 -148 69t-56 175q0 109 63.5 180.5t144.5 71.5q74 0 124 -58h4l12 46h138v-484q0 -98 -69 -150t-197 -52q-42 0 -94.5 14.5t-95.5 41.5zM292 154q39 0 64 38v156q-27 24 -68 24q-31 0 -51.5 -28.5 t-20.5 -81.5q0 -52 20.5 -80t55.5 -28zM238 574l-96 154h114l48 -74h4l48 74h114l-96 -154h-136z" />
<glyph horiz-adv-x="592" d="M128 -18q65 -34 134 -34q83 0 94 62l4 50q-49 -44 -114 -44q-92 0 -148 69t-56 175q0 109 63.5 180.5t144.5 71.5q74 0 124 -58h4l12 46h138v-484q0 -98 -69 -150t-197 -52q-42 0 -94.5 14.5t-95.5 41.5zM292 154q39 0 64 38v156q-27 24 -68 24q-31 0 -51.5 -28.5 t-20.5 -81.5q0 -52 20.5 -80t55.5 -28zM162 588v108h288v-108h-288z" />
<glyph horiz-adv-x="592" d="M128 -18q65 -34 134 -34q83 0 94 62l4 50q-49 -44 -114 -44q-92 0 -148 69t-56 175q0 109 63.5 180.5t144.5 71.5q74 0 124 -58h4l12 46h138v-484q0 -98 -69 -150t-197 -52q-42 0 -94.5 14.5t-95.5 41.5zM292 154q39 0 64 38v156q-27 24 -68 24q-31 0 -51.5 -28.5 t-20.5 -81.5q0 -52 20.5 -80t55.5 -28zM130 574q9 73 39 109.5t73 36.5q30 0 69.5 -21t50.5 -21q24 0 34 42h86q-9 -73 -39 -109.5t-73 -36.5q-30 0 -69.5 21t-50.5 21q-24 0 -34 -42h-86z" />
<glyph horiz-adv-x="288" d="M58 0v696h172v-696h-172z" />
<glyph horiz-adv-x="288" d="M58 0v696h172v-696h-172zM323 880l-122 -124h-136l78 124h180z" />
<glyph horiz-adv-x="338" d="M58 0v696h172v-696h-172zM340 548h-72l-6 226h108l-2 -74z" />
<glyph horiz-adv-x="488" d="M58 0v696h172v-696h-172zM288 330q0 44 28.5 74t71.5 30t71.5 -30t28.5 -74t-28.5 -74t-71.5 -30t-71.5 30t-28.5 74z" />
<glyph horiz-adv-x="288" d="M58 0v696h172v-696h-172zM105 -40q72 -6 101 -26t29 -60q0 -51 -53.5 -78t-136.5 -30l-12 66q80 7 80 34q0 23 -40 34z" />
<glyph horiz-adv-x="288" d="M58 0v696h172v-696h-172zM143 -234q-40 0 -66 24t-26 62t26 62t66 24t66 -24t26 -62t-26 -62t-66 -24z" />
<glyph horiz-adv-x="288" d="M58 0v696h172v-696h-172zM-1 796v108h288v-108h-288zM143 -234q-40 0 -66 24t-26 62t26 62t66 24t66 -24t26 -62t-26 -62t-66 -24z" />
<glyph horiz-adv-x="288" d="M58 0v696h172v-696h-172zM287 -88v-108h-288v108h288z" />
<glyph horiz-adv-x="316" d="M306 512v-136l-76 -44v-332h-172v248l-46 -28v136l46 28v312h172v-228z" />
<glyph horiz-adv-x="666" d="M88 499v7q0 89 47 145.5t151 56.5q57 0 106 -18l-30 -126q-27 10 -50 10q-52 0 -52 -62v-12h84v-134h-84v-366h-172v366h-66v128zM436 696h172v-696h-172v696z" />
<glyph horiz-adv-x="596" d="M298 -12q-111 0 -178.5 89t-67.5 243q0 153 67 239.5t179 86.5q111 0 178.5 -86.5t67.5 -239.5q0 -154 -67.5 -243t-178.5 -89zM298 126q37 0 55.5 41t18.5 153q0 77 -10 119.5t-25 55.5t-39 13t-39 -13t-25 -55.5t-10 -119.5q0 -112 18.5 -153t55.5 -41z" />
<glyph horiz-adv-x="426" d="M154 0v466h-120v106q97 19 166 62h126v-634h-172z" />
<glyph horiz-adv-x="536" d="M46 0v98q68 64 103.5 100t77 82.5t58.5 81.5t17 66q0 84 -72 84q-46 0 -106 -60l-92 92q51 54 102 78t120 24q96 0 154 -57t58 -151q0 -115 -172 -302q64 8 106 8h86v-144h-440z" />
<glyph horiz-adv-x="540" d="M20 78l78 108q65 -60 130 -60q92 0 92 60q0 39 -32 57.5t-126 18.5v120q76 0 107 18.5t31 53.5q0 58 -66 58q-51 0 -112 -52l-86 104q98 82 206 82q106 0 168 -47t62 -132q0 -92 -102 -137v-4q57 -17 89.5 -55.5t32.5 -96.5q0 -87 -71 -136.5t-175 -49.5q-149 0 -226 90z " />
<glyph horiz-adv-x="576" d="M200 272h108v72q0 21 6 150h-4q-16 -38 -52 -114zM536 272v-130h-68v-142h-160v142h-270v120l216 372h214v-362h68z" />
<glyph horiz-adv-x="540" d="M22 78l76 108q67 -60 128 -60q94 0 94 82q0 39 -23.5 60.5t-62.5 21.5q-25 0 -42 -6t-46 -24l-74 48l16 326h376v-144h-228l-8 -92q27 10 60 10q88 0 146 -50t58 -146q0 -103 -69.5 -163.5t-170.5 -60.5q-140 0 -230 90z" />
<glyph horiz-adv-x="576" d="M300 116q68 0 68 88q0 76 -70 76q-49 0 -81 -54q17 -110 83 -110zM516 566l-90 -102q-16 18 -43 31t-53 13q-109 0 -117 -171q22 29 56.5 46t62.5 17q86 0 139 -49t53 -147q0 -99 -63.5 -157.5t-156.5 -58.5q-103 0 -175.5 79t-72.5 239q0 163 76 251.5t186 88.5 q118 0 198 -80z" />
<glyph horiz-adv-x="526" d="M142 0q9 157 42.5 264.5t117.5 225.5h-258v144h440v-106q-54 -64 -85.5 -117.5t-49 -120t-24 -125.5t-11.5 -165h-172z" />
<glyph horiz-adv-x="558" d="M197 182q0 -36 24 -56t59 -20q69 0 69 66q0 14 -6 25t-13.5 19t-26.5 18t-31 15.5t-42 18.5q-33 -38 -33 -86zM314 378q28 40 28 80q0 33 -17 51.5t-47 18.5q-25 0 -41.5 -15.5t-16.5 -46.5q0 -30 22.5 -49t71.5 -39zM50 162q0 95 104 150v4q-84 64 -84 150 q0 83 59 131.5t153 48.5q89 0 143.5 -48t54.5 -128q0 -81 -81 -133v-4q109 -58 109 -167q0 -77 -64.5 -127.5t-167.5 -50.5q-98 0 -162 48.5t-64 125.5z" />
<glyph horiz-adv-x="576" d="M276 354q49 0 81 54q-17 110 -83 110q-68 0 -68 -88q0 -76 70 -76zM58 68l90 102q16 -18 43 -31t53 -13q109 0 117 171q-22 -29 -56.5 -46t-62.5 -17q-86 0 -139 49t-53 147q0 99 63.5 157.5t156.5 58.5q103 0 175.5 -79t72.5 -239q0 -163 -76 -251.5t-186 -88.5 q-118 0 -198 80z" />
<glyph horiz-adv-x="540" d="M270 -12q-106 0 -171 80.5t-65 221.5t65 221.5t171 80.5t171 -80.5t65 -221.5t-65 -221.5t-171 -80.5zM270 120q74 0 74 170t-74 170t-74 -170t74 -170z" />
<glyph horiz-adv-x="540" d="M66 0v138h136v274h-120v106q97 19 166 62h126v-442h114v-138h-422z" />
<glyph horiz-adv-x="540" d="M36 0v98q132 100 196 165t64 119q0 36 -19.5 56t-50.5 20q-21 0 -41.5 -9.5t-33 -20.5t-31.5 -30l-92 92q51 54 101 78t119 24q93 0 152.5 -56t59.5 -146q0 -62 -40 -119.5t-122 -134.5q64 8 106 8h92v-144h-460z" />
<glyph horiz-adv-x="540" d="M20 -2l78 108q65 -60 130 -60q42 0 67 19t25 49q0 41 -32.5 61.5t-125.5 20.5v120q138 0 138 80q0 29 -17 45.5t-49 16.5q-51 0 -112 -52l-86 104q98 82 206 82q106 0 168 -48.5t62 -134.5q0 -100 -102 -145v-4q56 -17 89 -57.5t33 -100.5q0 -87 -71.5 -140.5 t-174.5 -53.5q-149 0 -226 90z" />
<glyph horiz-adv-x="540" d="M182 208h108v82q0 21 6 150h-4q-31 -74 -52 -118zM518 208v-130h-68v-158h-160v158h-270v120l216 382h214v-372h68z" />
<glyph horiz-adv-x="540" d="M22 0l76 106q67 -60 128 -60q94 0 94 90q0 41 -24 64.5t-62 23.5q-25 0 -42 -6t-46 -24l-74 48l16 338h376v-144h-228l-8 -104q28 10 60 10q88 0 146 -52.5t58 -149.5q0 -107 -69.5 -169.5t-170.5 -62.5q-138 0 -230 92z" />
<glyph horiz-adv-x="540" d="M282 116q68 0 68 88q0 76 -70 76q-49 0 -81 -54q17 -110 83 -110zM498 566l-90 -102q-16 18 -43 31t-53 13q-109 0 -117 -171q22 29 56.5 46t62.5 17q86 0 139 -49t53 -147q0 -99 -63.5 -157.5t-156.5 -58.5q-103 0 -175.5 79t-72.5 239q0 163 76 251.5t186 88.5 q118 0 198 -80z" />
<glyph horiz-adv-x="540" d="M152 -80q10 163 45 280t119 236h-272v144h454v-106q-54 -64 -87 -122t-50.5 -128.5t-24.5 -133t-12 -170.5h-172z" />
<glyph horiz-adv-x="540" d="M189 182q0 -36 24 -56t59 -20q69 0 69 66q0 14 -6 25t-13.5 19t-26.5 18t-31 15.5t-42 18.5q-33 -38 -33 -86zM306 378q28 40 28 80q0 33 -17 51.5t-47 18.5q-25 0 -41.5 -15.5t-16.5 -46.5q0 -30 22.5 -49t71.5 -39zM42 162q0 95 104 150v4q-84 64 -84 150 q0 83 59 131.5t153 48.5q89 0 143.5 -48t54.5 -128q0 -81 -81 -133v-4q109 -58 109 -167q0 -77 -64.5 -127.5t-167.5 -50.5q-98 0 -162 48.5t-64 125.5z" />
<glyph horiz-adv-x="540" d="M250 276q57 0 92 57q-15 131 -94 131q-29 0 -48.5 -22.5t-19.5 -69.5q0 -96 70 -96zM48 -40l60 118q51 -32 100 -32q64 0 97.5 39.5t39.5 133.5q-24 -29 -61.5 -46t-67.5 -17q-89 0 -140.5 56.5t-51.5 159.5q0 99 63.5 159.5t156.5 60.5q120 0 191 -90t71 -242 q0 -156 -72 -254t-212 -98q-53 0 -91.5 11.5t-82.5 40.5z" />
<glyph horiz-adv-x="556" d="M278 -12q-106 0 -171 80.5t-65 221.5t65 221.5t171 80.5t171 -80.5t65 -221.5t-65 -221.5t-171 -80.5zM278 120q74 0 74 170t-74 170t-74 -170t74 -170z" />
<glyph horiz-adv-x="426" d="M154 0v412h-120v106q97 19 166 62h126v-580h-172z" />
<glyph horiz-adv-x="526" d="M44 0v98q121 92 182.5 160.5t61.5 123.5q0 36 -18 56t-50 20q-20 0 -40.5 -11t-28 -18t-31.5 -31l-92 92q52 55 99 78.5t115 23.5q93 0 151.5 -56t58.5 -146q0 -64 -38 -122t-116 -132q64 8 106 8h72v-144h-432z" />
<glyph horiz-adv-x="540" d="M20 -2l78 108q65 -60 130 -60q42 0 67 19t25 49q0 41 -32.5 61.5t-125.5 20.5v120q138 0 138 80q0 29 -17 45.5t-49 16.5q-51 0 -112 -52l-86 104q98 82 206 82q106 0 168 -48.5t62 -134.5q0 -100 -102 -145v-4q56 -17 89 -57.5t33 -100.5q0 -87 -71.5 -140.5 t-174.5 -53.5q-149 0 -226 90z" />
<glyph horiz-adv-x="556" d="M190 208h108v82q0 21 6 150h-4q-31 -74 -52 -118zM526 208v-130h-68v-158h-160v158h-270v120l216 382h214v-372h68z" />
<glyph horiz-adv-x="540" d="M22 0l76 106q67 -60 128 -60q94 0 94 90q0 41 -24 64.5t-62 23.5q-25 0 -42 -6t-46 -24l-74 48l16 338h376v-144h-228l-8 -104q28 10 60 10q88 0 146 -52.5t58 -149.5q0 -107 -69.5 -169.5t-170.5 -62.5q-138 0 -230 92z" />
<glyph horiz-adv-x="556" d="M290 116q68 0 68 88q0 76 -70 76q-49 0 -81 -54q17 -110 83 -110zM506 566l-90 -102q-16 18 -43 31t-53 13q-109 0 -117 -171q22 29 56.5 46t62.5 17q86 0 139 -49t53 -147q0 -99 -63.5 -157.5t-156.5 -58.5q-103 0 -175.5 79t-72.5 239q0 163 76 251.5t186 88.5 q118 0 198 -80z" />
<glyph horiz-adv-x="526" d="M136 -80q9 161 45.5 277.5t120.5 238.5h-258v144h440v-106q-71 -87 -107.5 -168.5t-49.5 -163t-19 -222.5h-172z" />
<glyph horiz-adv-x="558" d="M197 182q0 -36 24 -56t59 -20q69 0 69 66q0 14 -6 25t-13.5 19t-26.5 18t-31 15.5t-42 18.5q-33 -38 -33 -86zM314 378q28 40 28 80q0 33 -17 51.5t-47 18.5q-25 0 -41.5 -15.5t-16.5 -46.5q0 -30 22.5 -49t71.5 -39zM50 162q0 95 104 150v4q-84 64 -84 150 q0 83 59 131.5t153 48.5q89 0 143.5 -48t54.5 -128q0 -81 -81 -133v-4q109 -58 109 -167q0 -77 -64.5 -127.5t-167.5 -50.5q-98 0 -162 48.5t-64 125.5z" />
<glyph horiz-adv-x="556" d="M258 276q57 0 92 57q-15 131 -94 131q-29 0 -48.5 -22.5t-19.5 -69.5q0 -96 70 -96zM56 -40l60 118q51 -32 100 -32q64 0 97.5 39.5t39.5 133.5q-24 -29 -61.5 -46t-67.5 -17q-89 0 -140.5 56.5t-51.5 159.5q0 99 63.5 159.5t156.5 60.5q120 0 191 -90t71 -242 q0 -156 -72 -254t-212 -98q-53 0 -91.5 11.5t-82.5 40.5z" />
<glyph horiz-adv-x="848" d="M48 294q0 185 119.5 298.5t296.5 113.5q152 0 244 -86.5t92 -221.5q0 -124 -63 -194t-155 -70q-41 0 -69 21.5t-37 56.5h-2q-17 -29 -52.5 -47.5t-67.5 -18.5q-51 0 -83.5 39t-32.5 99q0 92 55 160t131 68q50 0 72 -50h2l17 42h103l-48 -200q-7 -31 0.5 -48.5t27.5 -17.5 q37 0 66.5 41.5t29.5 112.5q0 94 -58 156t-184 62q-117 0 -205.5 -87.5t-88.5 -224.5q0 -64 21 -112t57 -75t77 -40t87 -13q67 0 124 26l38 -86q-82 -36 -176 -36q-65 0 -123.5 19t-107.5 57t-78 104t-29 152zM394 250q22 0 50 36l20 100q-9 22 -34 22q-27 0 -45.5 -38.5 t-18.5 -77.5q0 -42 28 -42z" />
<glyph horiz-adv-x="220" d="M40 502q0 30 20 51t50 21t50 -21t20 -51t-20 -50t-50 -20t-50 20t-20 50z" />
<glyph horiz-adv-x="220" d="M54 304l-24 62q42 13 62 30.5t20 45.5h-3q-28 0 -48.5 18t-20.5 48q0 28 21 47t51 19q38 0 58 -27.5t20 -78.5q0 -62 -35 -104t-101 -60z" />
<glyph horiz-adv-x="220" d="M40 -210q0 30 20 51t50 21t50 -21t20 -51t-20 -50t-50 -20t-50 20t-20 50z" />
<glyph horiz-adv-x="220" d="M54 -408l-24 62q42 13 62 30.5t20 45.5h-3q-28 0 -48.5 18t-20.5 48q0 28 21 47t51 19q38 0 58 -27.5t20 -78.5q0 -62 -35 -104t-101 -60z" />
<glyph horiz-adv-x="380" d="M190 -12q-74 0 -121 56t-47 152q0 95 47 150.5t121 55.5t121 -55.5t47 -150.5q0 -96 -47 -152t-121 -56zM190 82q50 0 50 114q0 112 -50 112t-50 -112q0 -114 50 -114z" />
<glyph horiz-adv-x="380" d="M162 0v270h-90v76q66 9 118 44h98v-390h-126z" />
<glyph horiz-adv-x="380" d="M42 0v66q81 63 123.5 106.5t42.5 73.5q0 54 -50 54q-31 0 -66 -44l-70 64q64 82 156 82q68 0 109 -36t41 -98q0 -28 -14.5 -59t-29.5 -51t-44 -54h100v-104h-298z" />
<glyph horiz-adv-x="380" d="M24 68l74 58q33 -44 76 -44q21 0 34.5 10t13.5 28q0 44 -82 44v70q68 0 68 40q0 34 -40 34q-29 0 -58 -36l-70 62q35 37 69 52.5t81 15.5q58 0 99 -30.5t41 -79.5q0 -54 -52 -88q66 -31 66 -94q0 -53 -46.5 -87.5t-109.5 -34.5q-111 0 -164 80z" />
<glyph horiz-adv-x="380" d="M144 160h68v30l6 120h-4l-36 -76zM380 160v-80h-58v-80h-110v80h-180v62l132 248h158v-230h58z" />
<glyph horiz-adv-x="380" d="M24 68l74 58q33 -44 76 -44q20 0 34 14.5t14 33.5q0 23 -14.5 35.5t-36.5 12.5q-28 0 -52 -20l-51 36l16 196h245v-104h-147l-4 -39q16 3 39 3q53 0 90 -34.5t37 -91.5q0 -58 -44 -97t-112 -39q-111 0 -164 80z" />
<glyph horiz-adv-x="380" d="M198 82q38 0 38 42q0 44 -42 44q-26 0 -48 -24q9 -62 52 -62zM342 357l-48 -76q-36 27 -66 27q-70 0 -82 -89q31 31 78 31q56 0 89 -32.5t33 -89.5q0 -60 -41 -100t-101 -40q-82 0 -127 56.5t-45 151.5q0 90 49 148t138 58q72 0 123 -45z" />
<glyph horiz-adv-x="380" d="M112 0q4 83 27.5 144.5t74.5 141.5h-164v104h302v-66q-61 -78 -82 -147.5t-26 -176.5h-132z" />
<glyph horiz-adv-x="380" d="M148 112q0 -18 12 -30t30 -12t30 11.5t12 28.5q0 5 -1 9.5t-4.5 8l-6.5 6.5t-9 6.5t-10.5 6t-13 6.5t-13.5 7q-26 -20 -26 -48zM204 244q18 21 18 40q0 16 -9 25t-24 9q-13 0 -22 -8t-9 -20q0 -16 11 -25.5t35 -20.5zM36 100q0 57 70 98v4q-58 41 -58 92q0 50 40.5 79 t101.5 29q62 0 102 -29t40 -79q0 -53 -58 -84v-4q70 -37 70 -106q0 -47 -43.5 -79.5t-110.5 -32.5t-110.5 32.5t-43.5 79.5z" />
<glyph horiz-adv-x="380" d="M186 222q26 0 48 24q-9 62 -52 62q-38 0 -38 -42q0 -44 42 -44zM38 33l48 76q36 -27 66 -27q70 0 82 89q-31 -31 -78 -31q-56 0 -89 32.5t-33 89.5q0 60 41 100t101 40q82 0 127 -56.5t45 -151.5q0 -90 -49 -148t-138 -58q-72 0 -123 45z" />
<glyph horiz-adv-x="280" d="M154 -94q-47 74 -69.5 139t-22.5 151t22.5 151t69.5 139l92 -36q-66 -129 -66 -254t66 -254z" />
<glyph horiz-adv-x="280" d="M34 -58q66 129 66 254t-66 254l92 36q47 -74 69.5 -139t22.5 -151t-22.5 -151t-69.5 -139z" />
<glyph horiz-adv-x="220" d="M40 62q0 30 20 51t50 21t50 -21t20 -51t-20 -50t-50 -20t-50 20t-20 50z" />
<glyph horiz-adv-x="220" d="M54 -136l-24 62q42 13 62 30.5t20 45.5h-3q-28 0 -48.5 18t-20.5 48q0 28 21 47t51 19q38 0 58 -27.5t20 -78.5q0 -62 -35 -104t-101 -60z" />
<glyph horiz-adv-x="380" d="M190 248q-74 0 -121 56t-47 152q0 95 47 150.5t121 55.5t121 -55.5t47 -150.5q0 -96 -47 -152t-121 -56zM190 342q50 0 50 114q0 112 -50 112t-50 -112q0 -114 50 -114z" />
<glyph horiz-adv-x="380" d="M162 260v270h-90v76q66 9 118 44h98v-390h-126z" />
<glyph horiz-adv-x="380" d="M42 260v66q81 63 123.5 106.5t42.5 73.5q0 54 -50 54q-31 0 -66 -44l-70 64q64 82 156 82q68 0 109 -36t41 -98q0 -28 -14.5 -59t-29.5 -51t-44 -54h100v-104h-298z" />
<glyph horiz-adv-x="380" d="M24 328l74 58q33 -44 76 -44q21 0 34.5 10t13.5 28q0 44 -82 44v70q68 0 68 40q0 34 -40 34q-29 0 -58 -36l-70 62q35 37 69 52.5t81 15.5q58 0 99 -30.5t41 -79.5q0 -54 -52 -88q66 -31 66 -94q0 -53 -46.5 -87.5t-109.5 -34.5q-111 0 -164 80z" />
<glyph horiz-adv-x="380" d="M144 420h68v30l6 120h-4l-36 -76zM380 420v-80h-58v-80h-110v80h-180v62l132 248h158v-230h58z" />
<glyph horiz-adv-x="380" d="M24 328l74 58q33 -44 76 -44q20 0 34 14.5t14 33.5q0 23 -14.5 35.5t-36.5 12.5q-28 0 -52 -20l-51 36l16 196h245v-104h-147l-4 -39q16 3 39 3q53 0 90 -34.5t37 -91.5q0 -58 -44 -97t-112 -39q-111 0 -164 80z" />
<glyph horiz-adv-x="380" d="M198 342q38 0 38 42q0 44 -42 44q-26 0 -48 -24q9 -62 52 -62zM342 617l-48 -76q-36 27 -66 27q-70 0 -82 -89q31 31 78 31q56 0 89 -32.5t33 -89.5q0 -60 -41 -100t-101 -40q-82 0 -127 56.5t-45 151.5q0 90 49 148t138 58q72 0 123 -45z" />
<glyph horiz-adv-x="380" d="M112 260q4 83 27.5 144.5t74.5 141.5h-164v104h302v-66q-61 -78 -82 -147.5t-26 -176.5h-132z" />
<glyph horiz-adv-x="380" d="M148 372q0 -18 12 -30t30 -12t30 11.5t12 28.5q0 5 -1 9.5t-4.5 8l-6.5 6.5t-9 6.5t-10.5 6t-13 6.5t-13.5 7q-26 -20 -26 -48zM204 504q18 21 18 40q0 16 -9 25t-24 9q-13 0 -22 -8t-9 -20q0 -16 11 -25.5t35 -20.5zM36 360q0 57 70 98v4q-58 41 -58 92q0 50 40.5 79 t101.5 29q62 0 102 -29t40 -79q0 -53 -58 -84v-4q70 -37 70 -106q0 -47 -43.5 -79.5t-110.5 -32.5t-110.5 32.5t-43.5 79.5z" />
<glyph horiz-adv-x="380" d="M186 482q26 0 48 24q-9 62 -52 62q-38 0 -38 -42q0 -44 42 -44zM38 293l48 76q36 -27 66 -27q70 0 82 89q-31 -31 -78 -31q-56 0 -89 32.5t-33 89.5q0 60 41 100t101 40q82 0 127 -56.5t45 -151.5q0 -90 -49 -148t-138 -58q-72 0 -123 45z" />
<glyph horiz-adv-x="280" d="M154 166q-47 74 -69.5 139t-22.5 151t22.5 151t69.5 139l92 -36q-66 -129 -66 -254t66 -254z" />
<glyph horiz-adv-x="280" d="M34 202q66 129 66 254t-66 254l92 36q47 -74 69.5 -139t22.5 -151t-22.5 -151t-69.5 -139z" />
<glyph horiz-adv-x="220" d="M40 322q0 30 20 51t50 21t50 -21t20 -51t-20 -50t-50 -20t-50 20t-20 50z" />
<glyph horiz-adv-x="220" d="M54 124l-24 62q42 13 62 30.5t20 45.5h-3q-28 0 -48.5 18t-20.5 48q0 28 21 47t51 19q38 0 58 -27.5t20 -78.5q0 -62 -35 -104t-101 -60z" />
<glyph horiz-adv-x="390" d="M146 432q0 -86 48 -86q25 0 38 24v120q-19 16 -40 16q-20 0 -33 -18.5t-13 -55.5zM24 430q0 76 42.5 123t97.5 47q46 0 82 -42h4l10 33h92v-331h-96l-8 30h-4q-38 -38 -84 -38q-63 0 -99.5 47.5t-36.5 130.5z" />
<glyph horiz-adv-x="390" d="M232 128v106l6 52q-31 -34 -76 -34q-63 0 -100.5 46.5t-37.5 127.5q0 77 43 125.5t97 48.5q47 0 84 -44h2l10 36h92v-464h-120zM194 348q23 0 38 22v118q-19 16 -40 16q-19 0 -32.5 -18.5t-13.5 -57.5q0 -80 48 -80z" />
<glyph horiz-adv-x="350" d="M156 640l-86 102h114l58 -102h-86zM196 252q-75 0 -124.5 47.5t-49.5 126.5q0 77 47.5 125.5t114.5 48.5q71 0 108.5 -45.5t37.5 -116.5q0 -23 -6 -44h-188q12 -52 76 -52q37 0 68 18l40 -70q-56 -38 -124 -38zM134 460h96q0 50 -45 50q-43 0 -51 -50z" />
<glyph horiz-adv-x="350" d="M124 640l58 102h114l-86 -102h-86zM196 252q-75 0 -124.5 47.5t-49.5 126.5q0 77 47.5 125.5t114.5 48.5q71 0 108.5 -45.5t37.5 -116.5q0 -23 -6 -44h-188q12 -52 76 -52q37 0 68 18l40 -70q-56 -38 -124 -38zM134 460h96q0 50 -45 50q-43 0 -51 -50z" />
<glyph horiz-adv-x="390" d="M146 432q0 -86 48 -86q25 0 38 24v120q-19 16 -40 16q-20 0 -33 -18.5t-13 -55.5zM24 430q0 76 42.5 123t97.5 47q46 0 82 -42h4l10 33h92v-331h-96l-8 30h-4q-38 -38 -84 -38q-63 0 -99.5 47.5t-36.5 130.5z" />
<glyph horiz-adv-x="398" d="M87 238q44 -22 89 -22q30 0 45.5 17.5t15.5 40.5v2l3 29q-33 -28 -75 -28q-62 0 -99.5 44t-37.5 114q0 72 42.5 118t96.5 46q50 0 83 -39h2l9 31h95v-319q0 -72 -46.5 -109.5t-133.5 -37.5q-69 0 -128 37zM197 371q25 0 40 24v93q-16 15 -43 15q-20 0 -32.5 -16.5 t-12.5 -50.5q0 -65 48 -65z" />
<glyph horiz-adv-x="196" d="M38 260v460h120v-460h-120z" />
<glyph horiz-adv-x="100" d="M-76 -12h-96l348 674h96z" />
<glyph d="M-52 700l-122 124h180l78 -124h-136z" />
<glyph d="M174 824l-122 -124h-136l78 124h180z" />
<glyph d="M-50 700h-130l96 124h168l96 -124h-130l-48 58h-4z" />
<glyph d="M64 700q-30 0 -69.5 21t-50.5 21q-28 0 -38 -42h-86q9 73 41 109.5t75 36.5q30 0 69.5 -21t50.5 -21q28 0 38 42h86q-9 -73 -41 -109.5t-75 -36.5z" />
<glyph d="M-148 716v108h296v-108h-296z" />
<glyph d="M0 700q-129 0 -142 124h92q10 -40 50 -40t50 40h92q-13 -124 -142 -124z" />
<glyph d="M0 696q-42 0 -69 24t-27 62t27 62t69 24t69 -24t27 -62t-27 -62t-69 -24z" />
<glyph d="M-104 694q-34 0 -56 22.5t-22 55.5t22 55.5t56 22.5t56 -22.5t22 -55.5t-22 -55.5t-56 -22.5zM104 694q-34 0 -56 22.5t-22 55.5t22 55.5t56 22.5t56 -22.5t22 -55.5t-22 -55.5t-56 -22.5z" />
<glyph d="M-38 688l-12 66q40 5 40 24q0 25 -78 30l20 84q180 -5 180 -96q0 -51 -42 -78t-108 -30z" />
<glyph d="M0 696q-54 0 -87 28t-33 74t33 74t87 28t87 -28t33 -74t-33 -74t-87 -28zM0 758q16 0 27 11t11 29t-11 29t-27 11t-27 -11t-11 -29t11 -29t27 -11z" />
<glyph d="M-34 700h-114l62 124h144zM40 700l62 124h144l-92 -124h-114z" />
<glyph d="M50 824h130l-96 -124h-168l-96 124h130l48 -58h4z" />
<glyph d="M148 700h-114l-92 124h144zM-102 824l62 -124h-114l-92 124h144z" />
<glyph d="M-86 -76l40 80h98l-18 -44q58 -20 58 -76q0 -51 -53.5 -78t-136.5 -30l-12 66q80 7 80 42q0 25 -56 40z" />
<glyph d="M-22 2h102q-54 -44 -54 -86q0 -17 11.5 -25.5t28.5 -8.5q13 0 34 14l38 -86q-21 -16 -53.5 -27t-60.5 -11q-53 0 -87.5 26.5t-34.5 71.5q0 43 25 78.5t51 53.5z" />
<glyph d="M-104 564q-30 0 -49 19.5t-19 48.5t19 48.5t49 19.5t49 -19.5t19 -48.5t-19 -48.5t-49 -19.5zM104 564q-30 0 -49 19.5t-19 48.5t19 48.5t49 19.5t49 -19.5t19 -48.5t-19 -48.5t-49 -19.5zM-144 758v78h288v-78h-288z" />
<glyph d="M-148 876v78h296v-78h-296zM-104 694q-30 0 -49 19.5t-19 48.5t19 48.5t49 19.5t49 -19.5t19 -48.5t-19 -48.5t-49 -19.5zM104 694q-30 0 -49 19.5t-19 48.5t19 48.5t49 19.5t49 -19.5t19 -48.5t-19 -48.5t-49 -19.5z" />
<glyph d="M-74 744l84 114h144l-120 -114h-108zM-104 564q-30 0 -49 19.5t-19 48.5t19 48.5t49 19.5t49 -19.5t19 -48.5t-19 -48.5t-49 -19.5zM104 564q-30 0 -49 19.5t-19 48.5t19 48.5t49 19.5t49 -19.5t19 -48.5t-19 -48.5t-49 -19.5z" />
<glyph d="M-84 860l78 124h178l-120 -124h-136zM-104 694q-30 0 -49 19.5t-19 48.5t19 48.5t49 19.5t49 -19.5t19 -48.5t-19 -48.5t-49 -19.5zM104 694q-30 0 -49 19.5t-19 48.5t19 48.5t49 19.5t49 -19.5t19 -48.5t-19 -48.5t-49 -19.5z" />
<glyph d="M-72 744l-84 114h114l40 -56h4l40 56h114l-84 -114h-144zM-104 564q-30 0 -49 19.5t-19 48.5t19 48.5t49 19.5t49 -19.5t19 -48.5t-19 -48.5t-49 -19.5zM104 564q-30 0 -49 19.5t-19 48.5t19 48.5t49 19.5t49 -19.5t19 -48.5t-19 -48.5t-49 -19.5z" />
<glyph d="M-104 694q-30 0 -49 19.5t-19 48.5t19 48.5t49 19.5t49 -19.5t19 -48.5t-19 -48.5t-49 -19.5zM104 694q-30 0 -49 19.5t-19 48.5t19 48.5t49 19.5t49 -19.5t19 -48.5t-19 -48.5t-49 -19.5zM50 984h130l-96 -124h-168l-96 124h130l48 -58h4z" />
<glyph d="M-10 858l84 -114h-108l-120 114h144zM104 564q-30 0 -49 19.5t-19 48.5t19 48.5t49 19.5t49 -19.5t19 -48.5t-19 -48.5t-49 -19.5zM-104 564q-30 0 -49 19.5t-19 48.5t19 48.5t49 19.5t49 -19.5t19 -48.5t-19 -48.5t-49 -19.5z" />
<glyph d="M6 984l78 -124h-136l-120 124h178zM104 694q-30 0 -49 19.5t-19 48.5t19 48.5t49 19.5t49 -19.5t19 -48.5t-19 -48.5t-49 -19.5zM-104 694q-30 0 -49 19.5t-19 48.5t19 48.5t49 19.5t49 -19.5t19 -48.5t-19 -48.5t-49 -19.5z" />
<glyph d="M-148 574l80 132h136l80 -132h-104l-42 62h-4l-42 -62h-104zM114 648l66 120h124l-96 -120h-94z" />
<glyph d="M121 770l68 124h130l-102 -124h-96zM-170 700l96 118h148l96 -118h-120l-48 52h-4l-48 -52h-120z" />
<glyph d="M-148 574l80 132h136l80 -132h-104l-42 62h-4l-42 -62h-104zM202 768l66 -120h-94l-96 120h124z" />
<glyph d="M191 894l68 -124h-96l-102 124h130zM-170 700l96 118h148l96 -118h-120l-48 52h-4l-48 -52h-120z" />
<glyph d="M-148 574l80 132h136l80 -132h-104l-42 62h-4l-42 -62h-104zM146 628l-10 56q26 5 26 24q0 25 -64 30l16 70q87 -3 122.5 -24t35.5 -58q0 -48 -33 -69.5t-93 -28.5z" />
<glyph d="M146 748l-12 52q28 5 28 24q0 25 -64 30l16 68q156 -5 156 -84q0 -83 -124 -90zM-170 700l96 118h148l96 -118h-120l-48 52h-4l-48 -52h-120z" />
<glyph d="M-156 574l78 114h156l78 -114h-110l-44 56h-4l-44 -56h-110zM-80 724h-72q7 62 33.5 92t62.5 30q30 0 61 -18t41 -18q26 0 34 36h72q-7 -62 -33.5 -92t-62.5 -30q-30 0 -61 18t-41 18q-26 0 -34 -36z" />
<glyph d="M-170 700l96 118h148l96 -118h-120l-48 52h-4l-48 -52h-120zM-82 854h-74q7 62 34.5 92t63.5 30q27 0 61 -18t44 -18q27 0 35 36h74q-7 -62 -34.5 -92t-63.5 -30q-27 0 -61 18t-44 18q-27 0 -35 -36z" />
<glyph d="M-50 698l54 120h120l-90 -120h-84zM0 574q-69 0 -105.5 41t-38.5 103h74q10 -62 70 -62t70 62h74q-2 -62 -38.5 -103t-105.5 -41z" />
<glyph d="M-47 810l60 124h126l-102 -124h-84zM0 700q-129 0 -142 124h76q13 -50 66 -50t66 50h76q-13 -124 -142 -124z" />
<glyph d="M-4 818l54 -120h-84l-90 120h120zM0 574q-69 0 -105.5 41t-38.5 103h74q10 -62 70 -62t70 62h74q-2 -62 -38.5 -103t-105.5 -41z" />
</font>
</defs>
</svg>
